<?xml version="1.0" encoding="iso-8859-1"?>
<!-- Generator: Adobe Illustrator 19.0.0, SVG Export Plug-In . SVG Version: 6.00 Build 0)  -->
<svg version="1.1" id="Capa_1" xmlns="http://www.w3.org/2000/svg" xmlns:xlink="http://www.w3.org/1999/xlink" x="0px" y="0px"
	 viewBox="0 0 317.2 317.2" style="enable-background:new 0 0 317.2 317.2;" xml:space="preserve">
<g>
	<g>
		<path d="M309.8,290c-2.8-2.8-6.8-4.8-11.2-4.8h-47.2V62.8h1.2C259,62.8,265,60,269,56c4.4-4.4,6.8-10,6.8-16.4V6c0-3.6-2.8-6-6-6
			H47.4c-3.6,0-6,2.8-6,6v33.6c0,6.4,2.8,12.4,6.8,16.4c4.4,4.4,10,6.8,16.4,6.8h1.2v222.4H18.6c-4.4,0-8.4,1.6-11.2,4.8
			c-2.8,2.8-4.8,6.8-4.8,11.2c0,4.4,1.6,8.4,4.8,11.2c2.8,2.8,6.8,4.8,11.2,4.8h280c4.4,0,8.4-1.6,11.2-4.8
			c2.8-2.8,4.8-6.8,4.8-11.2S313,292.8,309.8,290z M64.6,50.4c-2.8,0-5.6-1.2-7.6-3.2s-3.2-4.8-3.2-7.6V12h209.6v27.6
			c0,3.2-1.2,5.6-3.2,7.6s-4.8,3.2-7.6,3.2h-12h-18.4H95H76.6H64.6z M88.2,275.2c1.6,1.6,4.4,2.8,6.8,2.8h126.8
			c2.8,0,5.2-1.2,6.8-2.8c1.6-1.6,2.8-4.4,2.8-6.8V62.8h7.2v222.4H78.2V62.8h7.2v205.6C85.4,271.2,86.6,273.6,88.2,275.2z
			 M152.6,170.8V266H97.8v-95.2H152.6z M97.8,158.4V62.8h54.8v95.6H97.8z M219.4,170.8V266h-54.8v-95.2H219.4z M164.6,158.4V62.8
			h54.8v95.6H164.6z M301,303.6c-0.8,0.8-1.6,1.2-2.4,1.2h-280c-0.8,0-2-0.4-2.4-1.2c-0.8-0.8-1.2-1.6-1.2-2.4s0.4-2,1.2-2.4
			c0.8-0.8,1.6-1.2,2.4-1.2h58h163.6h58.4c0.8,0,2,0.4,2.4,1.2c0.8,0.4,1.2,1.6,1.2,2.4S301.8,303.2,301,303.6z"/>
	</g>
</g>
<g>
</g>
<g>
</g>
<g>
</g>
<g>
</g>
<g>
</g>
<g>
</g>
<g>
</g>
<g>
</g>
<g>
</g>
<g>
</g>
<g>
</g>
<g>
</g>
<g>
</g>
<g>
</g>
<g>
</g>
</svg>
