<?xml version="1.0" encoding="iso-8859-1"?>
<!-- Generator: Adobe Illustrator 19.0.0, SVG Export Plug-In . SVG Version: 6.00 Build 0)  -->
<svg version="1.1" id="Capa_1" xmlns="http://www.w3.org/2000/svg" xmlns:xlink="http://www.w3.org/1999/xlink" x="0px" y="0px"
	 viewBox="0 0 512 512" style="enable-background:new 0 0 512 512;" xml:space="preserve">
<g>
	<g>
		<g>
			<path d="M400.827,109.741c-0.055-0.613-0.177-1.217-0.365-1.803c-0.219-0.498-0.486-0.972-0.799-1.417
				c-0.257-0.476-0.56-0.925-0.905-1.342c-0.44-0.429-0.926-0.808-1.449-1.13c-0.301-0.274-0.622-0.525-0.96-0.75L191.55,0.9
				c-2.403-1.2-5.23-1.2-7.633,0L115.65,35.033c-0.339,0.226-0.661,0.477-0.962,0.752c-0.522,0.322-1.007,0.701-1.446,1.129
				c-0.346,0.417-0.65,0.867-0.906,1.344c-0.312,0.443-0.58,0.916-0.798,1.413c-0.188,0.587-0.31,1.193-0.365,1.807
				c-0.109,0.39-0.189,0.788-0.239,1.19v119.467c0.05,0.402,0.13,0.799,0.24,1.189c0.055,0.614,0.177,1.22,0.365,1.807
				c0.552,1.629,1.669,3.006,3.148,3.884c0.301,0.276,0.624,0.528,0.964,0.753l80.617,40.308v23.583l-80.617,40.308
				c-2.891,1.446-4.716,4.401-4.717,7.633v128c0,3.232,1.826,6.187,4.717,7.633l34.133,17.067c2.646,1.321,5.786,1.179,8.302-0.376
				c2.515-1.555,4.047-4.3,4.048-7.257v-11.792L281.6,474.609V486.4c0,3.232,1.826,6.187,4.717,7.633L320.45,511.1
				c0.074,0.037,0.16,0.02,0.235,0.055c2.255,1.126,4.909,1.126,7.164,0c0.074-0.034,0.16-0.018,0.234-0.055l68.267-34.133
				c2.891-1.446,4.716-4.401,4.717-7.633v-358.4C401.017,110.531,400.937,110.132,400.827,109.741z M187.734,18.075l190.487,95.244
				L324.267,140.3L133.779,45.052L187.734,18.075z M328.083,272.167l21.783-10.892v45.421l-136.533-68.267v-19.821l107.117,53.558
				C322.853,273.367,325.68,273.367,328.083,272.167z M128,156.859V51.704l192,96v105.154L128,156.859z M315.734,489.659
				l-17.067-8.533v-11.792c0-3.232-1.826-6.187-4.717-7.633h0l-136.533-68.267c-2.646-1.321-5.786-1.179-8.302,0.376
				c-2.515,1.555-4.047,4.3-4.048,7.257v11.792L128,404.325V290.638l187.733,93.867V489.659z M320.45,376.367
				c-0.26,0.179-0.509,0.373-0.746,0.582l-185.925-92.963l74.837-37.419c0.278-0.169,0.546-0.353,0.802-0.553l140.448,70.224v45.421
				L320.45,376.367z M384,464.059l-51.2,25.6V389.275l29.417-14.708c2.891-1.446,4.716-4.401,4.717-7.633V252.742L384,244.209
				V464.059z M384,225.125l-55.467,27.733V147.704L384,119.971V225.125z"/>
			<path d="M300.575,149.784l-153.6-76.8c-1.323-0.663-2.894-0.593-4.153,0.185c-1.258,0.778-2.024,2.152-2.022,3.632v68.267
				c0.002,1.616,0.914,3.092,2.358,3.817l153.6,76.8c1.323,0.663,2.894,0.593,4.153-0.185c1.258-0.778,2.024-2.152,2.022-3.632
				V153.6C302.932,151.985,302.019,150.508,300.575,149.784z M217.6,117.834l20.329,10.165L217.6,138.163V117.834z M149.333,83.7
				l20.329,10.165l-20.329,10.165V83.7z M209.067,172.3l-59.733-29.867v-24.596l59.733,29.867V172.3z M209.067,138.163
				l-54.458-27.229l24.596-12.298l29.863,14.931V138.163z M294.4,214.967l-76.8-38.4v-24.596l76.8,38.4V214.967z M294.4,180.829
				l-71.525-35.763l24.596-12.298l46.929,23.465V180.829z"/>
			<path d="M151.692,379.284l136.533,68.267c1.323,0.663,2.894,0.593,4.153-0.185s2.024-2.152,2.022-3.632v-51.2
				c-0.002-1.616-0.914-3.092-2.358-3.817L155.508,320.45c-1.323-0.663-2.894-0.593-4.153,0.185s-2.024,2.152-2.022,3.632v51.2
				C149.335,377.083,150.248,378.559,151.692,379.284z M226.133,365.3l59.733,29.867v41.667l-59.733-29.867V365.3z M157.867,331.167
				l59.733,29.867V402.7l-59.733-29.867V331.167z"/>
			<path d="M198.175,371.65l-17.067-8.533c-2.107-1.047-4.664-0.191-5.716,1.913c-1.052,2.104-0.203,4.663,1.899,5.721l17.067,8.533
				c1.364,0.686,2.991,0.591,4.266-0.249s2.004-2.298,1.911-3.822C200.443,373.688,199.542,372.33,198.175,371.65z"/>
			<path d="M266.442,405.784l-17.067-8.533c-2.107-1.047-4.664-0.192-5.716,1.913c-1.052,2.104-0.203,4.663,1.899,5.72l17.067,8.533
				c1.364,0.686,2.991,0.591,4.266-0.249c1.275-0.84,2.004-2.298,1.911-3.822C268.709,407.822,267.809,406.463,266.442,405.784z"/>
		</g>
	</g>
</g>
<g>
</g>
<g>
</g>
<g>
</g>
<g>
</g>
<g>
</g>
<g>
</g>
<g>
</g>
<g>
</g>
<g>
</g>
<g>
</g>
<g>
</g>
<g>
</g>
<g>
</g>
<g>
</g>
<g>
</g>
</svg>
