<?xml version="1.0" encoding="iso-8859-1"?>
<!-- Generator: Adobe Illustrator 19.0.0, SVG Export Plug-In . SVG Version: 6.00 Build 0)  -->
<svg version="1.1" id="Layer_1" xmlns="http://www.w3.org/2000/svg" xmlns:xlink="http://www.w3.org/1999/xlink" x="0px" y="0px"
	 viewBox="0 0 512 512" style="enable-background:new 0 0 512 512;" xml:space="preserve">
<polygon style="fill:#FF9E24;" points="475.975,144.854 420.981,144.854 374.646,322.056 420.981,499.258 475.975,499.258 "/>
<polygon style="fill:#FF8C00;" points="365.987,144.854 319.652,322.056 365.987,499.258 420.981,499.258 420.981,144.854 "/>
<rect x="36.025" y="144.854" style="fill:#FFB14D;" width="329.962" height="354.404"/>
<path style="fill:#11113F;" d="M475.975,134.429h-67.852v-37.3C408.123,43.572,364.551,0,310.994,0
	c-7.79,0-15.595,0.945-23.198,2.81c-6.214,1.522-10.015,7.795-8.492,14.008c1.522,6.214,7.8,10.015,14.008,8.492
	c5.801-1.422,11.75-2.143,17.683-2.143c40.783,0,73.963,33.179,73.963,73.962v37.3h-18.971h-67.852v-37.3
	C298.136,43.573,254.564,0,201.006,0c-53.557,0-97.129,43.572-97.129,97.129v37.3H36.025c-6.397,0-11.584,5.187-11.584,11.584
	v354.404c0,6.397,5.187,11.584,11.584,11.584h329.962h109.987c6.397,0,11.584-5.187,11.584-11.584V146.013
	C487.558,139.615,482.372,134.429,475.975,134.429z M127.044,97.129c0-40.783,33.18-73.962,73.963-73.962
	s73.962,33.179,73.962,73.962v37.3h-37.937v-37.3c0-10.989,2.363-21.579,7.024-31.474c2.727-5.787,0.246-12.689-5.542-15.416
	c-5.787-2.729-12.69-0.246-15.416,5.542c-6.128,13.007-9.236,26.917-9.236,41.347v37.3h-86.82V97.129z M47.609,157.596h56.268
	v12.859c0,6.397,5.187,11.584,11.584,11.584c6.397,0,11.584-5.187,11.584-11.584v-12.859h147.924v12.859
	c0,6.397,5.187,11.584,11.584,11.584c6.397,0,11.584-5.187,11.584-11.584v-12.859h56.268v331.236H47.609V157.596z M464.391,488.833
	h-31.827V261.024c0-6.397-5.187-11.584-11.584-11.584c-6.397,0-11.584,5.187-11.584,11.584v227.809h-31.825V157.596h31.826v61.741
	c0,6.397,5.187,11.584,11.584,11.584c6.397,0,11.584-5.187,11.584-11.584v-61.741h31.826V488.833z"/>
<g>
</g>
<g>
</g>
<g>
</g>
<g>
</g>
<g>
</g>
<g>
</g>
<g>
</g>
<g>
</g>
<g>
</g>
<g>
</g>
<g>
</g>
<g>
</g>
<g>
</g>
<g>
</g>
<g>
</g>
</svg>
