<?xml version="1.0" encoding="iso-8859-1"?>
<!-- Generator: Adobe Illustrator 19.0.0, SVG Export Plug-In . SVG Version: 6.00 Build 0)  -->
<svg version="1.1" id="Capa_1" xmlns="http://www.w3.org/2000/svg" xmlns:xlink="http://www.w3.org/1999/xlink" x="0px" y="0px"
	 viewBox="0 0 511.937 511.937" style="enable-background:new 0 0 511.937 511.937;" xml:space="preserve">
<g>
	<g>
		<g>
			<path d="M435.169,93.804c0-3.232-1.826-6.187-4.717-7.633L259.785,0.812c-0.186-0.093-0.39-0.078-0.579-0.156
				c-0.541-0.209-1.102-0.36-1.675-0.452c-1.023-0.272-2.1-0.272-3.123,0c-0.572,0.092-1.132,0.243-1.673,0.451
				c-0.192,0.079-0.396,0.064-0.583,0.157L81.485,86.17c-2.891,1.446-4.716,4.401-4.717,7.634v34.108l0.002,0.015l-0.002,0.01
				v290.133c0,3.232,1.826,6.187,4.717,7.633l34.133,17.067c2.403,1.2,5.23,1.2,7.633,0l34.133-17.067
				c2.891-1.446,4.716-4.401,4.717-7.633v-3.258l51.2,25.6v45.925c0,3.232,1.826,6.187,4.717,7.633l34.133,17.067
				c2.403,1.2,5.23,1.2,7.633,0l34.133-17.067c2.891-1.446,4.716-4.401,4.717-7.633v-45.925l51.2-25.6v3.258
				c0,3.232,1.826,6.187,4.717,7.633l34.133,17.067c2.403,1.2,5.23,1.2,7.633,0l34.133-17.067c2.89-1.446,4.716-4.401,4.717-7.633
				V127.937l-0.002-0.01l0.002-0.015V93.804z M93.835,187.671v-45.95l21.333,10.667V240.5l-21.333-10.667V187.671z M115.169,423.462
				l-21.333-10.667v-32.117l21.333,10.667V423.462z M145.035,412.795l-21.333,10.667v-27.85l21.333,10.667V412.795z
				 M251.702,491.729l-21.333-10.667v-32.117l21.333,10.667V491.729z M251.702,440.529L93.835,361.596V239.375l157.867,78.933
				V440.529z M123.702,244.767v-88.114l25.81,12.905c-0.115,0.338-0.186,0.689-0.21,1.045v86.964L123.702,244.767z M191.489,190.548
				l26.079,13.04v88.115l-59.733-29.868v-54.459L191.489,190.548z M157.835,197.833v-24.113l24.112,12.056L157.835,197.833z
				 M251.702,308.771l-25.6-12.801v-88.116l25.6,12.8V308.771z M251.702,201.57L93.835,122.637v-19.796l157.867,78.933V201.57z
				 M255.969,174.371L99.613,96.189l156.355-78.201l156.355,78.201L255.969,174.371z M260.235,220.654l25.6-12.8v88.116
				l-25.6,12.801v-1.633V220.654z M281.569,481.062l-21.333,10.667v-32.117l21.333-10.667V481.062z M388.235,423.462l-21.333-10.667
				v-6.517l21.333-10.667V423.462z M418.102,412.795l-21.333,10.667v-32.117l21.333-10.667V412.795z M418.102,361.596
				l-157.867,78.933V318.308l157.867-78.933V361.596z M354.102,207.375v54.46l-59.733,29.868v-88.115l26.079-13.04L354.102,207.375z
				 M329.989,185.777l24.112-12.056v24.112L329.989,185.777z M362.635,257.568v-88.114l25.6-12.8v88.113L362.635,257.568z
				 M418.102,229.833L396.769,240.5v-88.113l21.333-10.667V229.833z M418.102,122.637l-157.867,78.933v-19.796l157.867-78.933
				V122.637z"/>
			<path d="M117.527,353.621l102.4,51.2c1.323,0.663,2.894,0.593,4.153-0.185s2.024-2.152,2.022-3.632v-68.267
				c-0.002-1.616-0.914-3.092-2.358-3.817l-102.4-51.2c-1.323-0.663-2.894-0.593-4.153,0.185s-2.024,2.152-2.022,3.632v68.267
				C115.171,351.419,116.083,352.896,117.527,353.621z M123.702,288.437l93.867,46.933v58.733l-93.867-46.933V288.437z"/>
			<path d="M145.035,319.937c-2.356,0-4.267,1.91-4.267,4.267v8.533c-0.001,1.132,0.449,2.217,1.249,3.018s1.886,1.25,3.018,1.249
				c1.132,0.001,2.217-0.449,3.018-1.249s1.25-1.886,1.249-3.018v-8.533C149.302,321.847,147.392,319.937,145.035,319.937z"/>
		</g>
	</g>
</g>
<g>
</g>
<g>
</g>
<g>
</g>
<g>
</g>
<g>
</g>
<g>
</g>
<g>
</g>
<g>
</g>
<g>
</g>
<g>
</g>
<g>
</g>
<g>
</g>
<g>
</g>
<g>
</g>
<g>
</g>
</svg>
