<?xml version="1.0" encoding="iso-8859-1"?>
<!-- Generator: Adobe Illustrator 19.0.0, SVG Export Plug-In . SVG Version: 6.00 Build 0)  -->
<svg version="1.1" id="Capa_1" xmlns="http://www.w3.org/2000/svg" xmlns:xlink="http://www.w3.org/1999/xlink" x="0px" y="0px"
	 viewBox="0 0 318 318" style="enable-background:new 0 0 318 318;" xml:space="preserve">
<g>
	<g>
		<path d="M271.6,291.6c-2.8-2.8-6.4-4.4-10.8-4.4h-30c-1.2-6-4.4-11.6-8.4-16c-5.6-5.6-13.6-9.2-22-9.2h-34.8v-52.4h93.2
			c4,0,8-1.6,10.8-4.4s4.4-6.4,4.4-10.8c0-4-1.6-8-4.4-10.8c-1.6-1.6-3.2-2.4-5.2-3.2L239.2,36c-1.6-10-6-19.2-12.8-26
			C220,3.6,212,0,202,0h-86c-10,0-18,4-24.4,10c-6.4,6.4-10.8,16-12.8,26L54,180.4c-2,0.8-3.6,2-5.2,3.2c-2.8,2.8-4.4,6.4-4.4,10.8
			c0,4,1.6,8,4.4,10.8s6.4,4.4,10.8,4.4h93.2v52.8h-35.6c-8.8,0-16.4,3.6-22,9.2c-4.4,4.4-7.2,9.6-8.4,16h-30c-4,0-8,1.6-10.8,4.4
			s-4.4,6.4-4.4,10.8c0,4,1.6,8,4.4,10.8s6.4,4.4,10.8,4.4h204.4c4,0,8-1.6,10.8-4.4s4.4-6.4,4.4-10.8
			C276,298.4,274.4,294.4,271.6,291.6z M200.4,274.4L200.4,274.4c5.2,0,10,2,13.2,5.6c2,2,3.6,4.4,4.4,7.2h-52.8v-12.8H200.4z
			 M91.2,38c1.2-7.6,4.4-14.4,9.2-19.2c4-4,9.2-6.4,15.6-6.4h85.6c6.4,0,11.6,2.4,15.6,6.4c4.8,4.8,8,11.6,9.2,19.2l24.8,141.2h-184
			L91.2,38z M59.6,197.2c-0.8,0-1.2-0.4-1.6-0.8c-0.4-0.4-0.8-1.2-0.8-2s0.4-1.6,0.8-2c0.4-0.4,1.2-0.8,2-0.8h198.8
			c0.8,0,1.6,0.4,2,0.8c0.4,0.4,0.8,1.2,0.8,2s-0.4,1.6-0.8,2c-0.4,0.4-1.2,0.8-2,0.8H59.6z M104,280c3.6-3.6,8-5.6,13.2-5.6h35.6
			v12.8H99.6C100.4,284.4,102,282,104,280z M262.8,304.4c-0.4,0.4-1.2,0.8-2,0.8h-204c-0.8,0-1.6-0.4-2-0.8c-0.4-0.4-0.8-1.2-0.8-2
			s0.4-1.6,0.8-2c0.4-0.4,1.2-0.8,2-0.8h35.6h133.2h35.6c0.8,0,1.6,0.4,2,0.8c0.4,0.4,0.4,1.2,0.4,2S263.2,304,262.8,304.4z"/>
	</g>
</g>
<g>
</g>
<g>
</g>
<g>
</g>
<g>
</g>
<g>
</g>
<g>
</g>
<g>
</g>
<g>
</g>
<g>
</g>
<g>
</g>
<g>
</g>
<g>
</g>
<g>
</g>
<g>
</g>
<g>
</g>
</svg>
