<?xml version="1.0" encoding="iso-8859-1"?>
<!-- Generator: Adobe Illustrator 19.0.0, SVG Export Plug-In . SVG Version: 6.00 Build 0)  -->
<svg version="1.1" id="Capa_1" xmlns="http://www.w3.org/2000/svg" xmlns:xlink="http://www.w3.org/1999/xlink" x="0px" y="0px"
	 viewBox="0 0 512 512" style="enable-background:new 0 0 512 512;" xml:space="preserve">
<g>
	<g>
		<g>
			<path d="M392.124,91.381c-0.061-0.201-0.155-0.378-0.231-0.574c-0.294-0.761-0.697-1.475-1.196-2.12
				c-0.125-0.162-0.221-0.332-0.358-0.485c-0.538-0.618-1.163-1.155-1.855-1.594c-0.142-0.088-0.302-0.125-0.447-0.204
				c-0.084-0.046-0.133-0.128-0.22-0.171L217.15,0.9c-2.403-1.2-5.23-1.2-7.633,0l-85.333,42.667
				c-0.087,0.043-0.135,0.126-0.22,0.172c-0.145,0.079-0.305,0.115-0.446,0.203c-0.692,0.439-1.316,0.975-1.854,1.593
				c-0.138,0.155-0.235,0.326-0.36,0.489c-0.498,0.644-0.901,1.357-1.195,2.116c-0.077,0.197-0.171,0.375-0.233,0.578
				c-0.259,0.803-0.397,1.64-0.408,2.484v366.933c0,3.232,1.826,6.187,4.717,7.633L294.85,511.1
				c0.118,0.059,0.254,0.035,0.374,0.088c1.075,0.507,2.244,0.782,3.431,0.809l0.012,0.003l0.004,0l0.004,0l0.011-0.003
				c1.177-0.029,2.334-0.303,3.4-0.804c0.129-0.057,0.27-0.03,0.397-0.094l85.333-42.667c2.89-1.446,4.716-4.401,4.716-7.633V93.867
				C392.522,93.022,392.384,92.185,392.124,91.381z M290.133,489.658l-153.6-76.8V65.008l153.6,76.8V489.658z M298.667,126.992
				L147.083,51.2l66.25-33.125l151.583,75.792L298.667,126.992z M375.467,455.525L307.2,489.658v-347.85l68.267-34.133V455.525z"/>
			<path d="M151.692,404.883l119.467,59.733c1.323,0.663,2.894,0.593,4.153-0.185s2.024-2.152,2.022-3.632v-68.267
				c-0.002-1.616-0.914-3.092-2.358-3.817l-119.467-59.733c-1.323-0.663-2.894-0.593-4.153,0.185s-2.024,2.152-2.022,3.632v68.267
				C149.335,402.682,150.248,404.159,151.692,404.883z M157.867,339.7L268.8,395.167V453.9l-110.933-55.467V339.7z"/>
			<path d="M223.775,388.717l-17.067-8.533c-2.107-1.047-4.664-0.192-5.716,1.913c-1.052,2.104-0.203,4.663,1.899,5.721
				l17.067,8.533c1.364,0.686,2.991,0.591,4.266-0.249c1.275-0.84,2.004-2.298,1.911-3.822
				C226.042,390.755,225.142,389.396,223.775,388.717z"/>
			<path d="M151.692,311.017l119.467,59.733c1.323,0.663,2.894,0.593,4.153-0.185s2.024-2.152,2.022-3.632v-68.267
				c-0.002-1.616-0.914-3.092-2.358-3.817l-119.467-59.733c-1.323-0.663-2.894-0.593-4.153,0.185s-2.024,2.152-2.022,3.632V307.2
				C149.335,308.816,150.248,310.292,151.692,311.017z M157.867,245.833L268.8,301.3v58.733l-110.933-55.467V245.833z"/>
			<path d="M223.775,294.85l-17.067-8.533c-2.107-1.047-4.664-0.192-5.716,1.913s-0.203,4.663,1.899,5.721l17.067,8.533
				c1.364,0.686,2.991,0.591,4.266-0.249c1.275-0.84,2.004-2.298,1.911-3.822C226.042,296.888,225.142,295.53,223.775,294.85z"/>
			<path d="M149.783,215.242c0.032,0.063,0.101,0.086,0.135,0.146c0.231,0.339,0.51,0.641,0.829,0.898
				c0.237,0.282,0.509,0.531,0.811,0.742c0.054,0.03,0.078,0.094,0.134,0.122l119.467,59.733c1.323,0.663,2.894,0.593,4.152-0.185
				s2.024-2.152,2.022-3.631V153.6l-0.031-0.107c-0.004-0.624-0.147-1.239-0.419-1.801c-0.037-0.074-0.106-0.117-0.147-0.188
				c-0.42-0.582-0.935-1.09-1.523-1.502c-0.095-0.057-0.139-0.168-0.239-0.218L155.508,90.05c-1.322-0.663-2.894-0.593-4.152,0.185
				c-1.258,0.778-2.024,2.152-2.022,3.631v119.467l0.03,0.107C149.368,214.064,149.511,214.68,149.783,215.242z M268.8,266.167
				l-105.663-52.831L268.8,160.504V266.167z M157.867,100.767l105.662,52.831l-105.662,52.831V100.767z"/>
		</g>
	</g>
</g>
<g>
</g>
<g>
</g>
<g>
</g>
<g>
</g>
<g>
</g>
<g>
</g>
<g>
</g>
<g>
</g>
<g>
</g>
<g>
</g>
<g>
</g>
<g>
</g>
<g>
</g>
<g>
</g>
<g>
</g>
</svg>
