<?xml version="1.0" encoding="iso-8859-1"?>
<!-- Generator: Adobe Illustrator 19.0.0, SVG Export Plug-In . SVG Version: 6.00 Build 0)  -->
<svg version="1.1" id="Capa_1" xmlns="http://www.w3.org/2000/svg" xmlns:xlink="http://www.w3.org/1999/xlink" x="0px" y="0px"
	 viewBox="0 0 417.2 417.2" style="enable-background:new 0 0 417.2 417.2;" xml:space="preserve">
<g>
	<g>
		<path d="M138.4,244.8H89.2c-3.6,0-6,2.8-6,6c0,3.6,2.8,6,6,6l49.2,0.4c3.6,0,6-2.8,6-6C144.8,247.6,142,244.8,138.4,244.8z"/>
	</g>
</g>
<g>
	<g>
		<path d="M329.2,244.8H280c-3.6,0-6,2.8-6,6c0,3.6,2.8,6,6,6l49.2,0.4c3.6,0,6-2.8,6-6C335.6,247.6,332.8,244.8,329.2,244.8z"/>
	</g>
</g>
<g>
	<g>
		<path d="M410.4,290c-0.8-1.6-2.4-2.4-4-3.6v-71.2c0-2.4-0.8-4.4-2.4-6c-1.6-1.6-3.6-2.4-5.6-2.4h-26.8v-17.6
			c4.8-1.2,9.6-3.6,12.8-7.2c4.8-4.8,8-11.6,8-19.2v-46c0-7.6-3.2-14.4-8-19.2s-11.6-8-19.2-8c-7.6,0-14.4,3.2-19.2,8
			c-4.8,4.8-8,11.6-8,19.2v46c0,7.6,3.2,14.4,8,19.2c3.6,3.6,8,6,12.8,7.2v17.6H239.2v-15.2h63.6c3.6,0,6.8-1.6,9.2-4
			c2.4-2.4,4-5.6,4-9.2V63.2c0-3.6-1.6-6.8-4-9.2c-2.4-2.4-5.6-4-9.2-4H115.6c-3.6,0-6.8,1.6-9.2,4c-2.4,2.4-4,5.6-4,9.2v115.2
			c0,3.6,1.6,6.8,4,9.2c2.4,2.4,5.6,4,9.2,4h63.6v15.2H59.6v-17.6c4.8-1.2,9.6-3.6,12.8-7.2c4.8-4.8,8-11.6,8-19.2v-46
			c0-7.6-3.2-14.4-8-19.2s-11.6-8-19.2-8c-7.6,0-14.4,3.2-19.2,8s-8,11.6-8,19.2v46c0,7.6,3.2,14.4,8,19.2c3.6,3.6,8,6,12.8,7.2
			v17.6H20c-2.4,0-4.4,0.8-6,2.4c-1.6,1.6-2.4,3.6-2.4,6v71.6c-1.6,0.8-3.2,2-4.8,3.2l-0.4,0.4c-4,4-6.4,9.6-6.4,15.6
			c0,6.4,2.4,12,6.8,16c4,4,10,6.8,16,6.8h16.8v32.4c0,3.6,2.8,6,6,6h17.2c2.8,0,5.2-1.6,6-4.4l10.4-34.4H338l10.4,34.4
			c0.8,2.8,3.2,4.4,6,4.4h17.2c3.6,0,6-2.8,6-6v-32.4h16.8c6.4,0,12-2.4,16-6.8c4-4,6.8-10,6.8-16C417.2,299.6,414.8,294,410.4,290z
			 M350.4,116.8c0-4,1.6-7.6,4.4-10.4c2.8-2.8,6.4-4.4,10.4-4.4s7.6,1.6,10.4,4.4c2.8,2.8,4.4,6.4,4.4,10.4v4.8h-29.6V116.8z
			 M354.8,173.2c-2.8-2.8-4.4-6.4-4.4-10.4V134H380v28.8c0,4-1.6,7.6-4.4,10.4c-2.8,2.8-6.4,4.4-10.4,4.4S357.6,176,354.8,173.2z
			 M393.6,219.2v64H215.2v-64H393.6z M191.2,206v-14.4h35.6V206H191.2z M114.8,63.2v-0.4l0.4-0.4h187.2c0.4,0,0.4,0,0.4,0.4l0.4,0.4
			v91.2H114.8V63.2z M115.6,179.6c-0.4-0.4-0.4-0.4-0.8-0.4l-0.4-0.4v-11.6h188.8v11.6c0,0.4,0,0.4-0.4,0.4l-0.4,0.4h-70.8h-44.8
			H115.6z M38.4,116.8c0.4-4,2-7.6,4.4-10.4c2.8-2.8,6.4-4.4,10.4-4.4s7.6,1.6,10.4,4.4c2.8,2.8,4.4,6.4,4.4,10.4v4.8H38.4V116.8z
			 M42.8,173.2c-2.4-2.8-4-6.4-4-10.4V134h29.6v28.8c0,4-1.6,7.6-4.4,10.4c-2.8,2.8-6.8,4.4-10.8,4.4S45.6,176,42.8,173.2z
			 M24.4,219.2h178.4v63.6H24.4V219.2z M59.2,355.2h-6.4v-26.4h14.4L59.2,355.2z M365.6,355.2h-6.4l-8-26.4h14.4V355.2z M402,313.2
			c-2,2-4.4,3.2-7.2,3.2H372h-28.8h-268H46.4H23.6c-2.8,0-5.6-1.2-7.2-3.2c-2-2-3.2-4.4-3.2-7.2s1.2-5.2,2.8-7.2c0,0,0,0,0.4-0.4
			c2-2,4.4-3.2,7.2-3.2h183.6h4h183.6c2.8,0,5.6,1.2,7.2,3.2c2,2,3.2,4.8,3.2,7.6C405.2,308.8,404,311.6,402,313.2z"/>
	</g>
</g>
<g>
	<g>
		<circle cx="365.2" cy="163.6" r="6.4"/>
	</g>
</g>
<g>
	<g>
		<circle cx="365.2" cy="146" r="6.4"/>
	</g>
</g>
<g>
	<g>
		<circle cx="53.2" cy="163.6" r="6.4"/>
	</g>
</g>
<g>
	<g>
		<circle cx="53.2" cy="146" r="6.4"/>
	</g>
</g>
<g>
</g>
<g>
</g>
<g>
</g>
<g>
</g>
<g>
</g>
<g>
</g>
<g>
</g>
<g>
</g>
<g>
</g>
<g>
</g>
<g>
</g>
<g>
</g>
<g>
</g>
<g>
</g>
<g>
</g>
</svg>
