<?xml version="1.0" encoding="iso-8859-1"?>
<!-- Generator: Adobe Illustrator 19.0.0, SVG Export Plug-In . SVG Version: 6.00 Build 0)  -->
<svg version="1.1" id="Capa_1" xmlns="http://www.w3.org/2000/svg" xmlns:xlink="http://www.w3.org/1999/xlink" x="0px" y="0px"
	 viewBox="0 0 511.931 511.931" style="enable-background:new 0 0 511.931 511.931;" xml:space="preserve">
<g>
	<g>
		<path d="M498.716,323.298c2.891-1.446,4.716-4.401,4.717-7.633V179.131c-0.018-0.981-0.207-1.952-0.558-2.869
			c-0.09-0.251-0.206-0.48-0.321-0.724c-0.359-0.772-0.832-1.485-1.405-2.115c-0.091-0.1-0.12-0.23-0.217-0.327l-0.117-0.078
			c-0.618-0.612-1.326-1.125-2.099-1.522L157.382,0.831c-0.375-0.131-0.76-0.234-1.15-0.309c-0.623-0.25-1.274-0.425-1.939-0.521
			c-0.496-0.004-0.991,0.036-1.48,0.12c-0.595,0.013-1.188,0.09-1.766,0.23c-0.546,0.212-1.068,0.481-1.558,0.801
			c-0.437,0.178-0.857,0.394-1.257,0.646l-42.667,34.133c-2.284,1.827-3.473,4.698-3.15,7.605c0.323,2.907,2.113,5.447,4.742,6.729
			l37.875,18.476v36.849L13.215,171.498c-2.891,1.446-4.716,4.401-4.717,7.633v34.133c0,3.232,1.826,6.187,4.717,7.633
			l29.417,14.708v23.583l-29.417,14.708c-0.339,0.226-0.661,0.477-0.962,0.752c-0.522,0.322-1.007,0.701-1.446,1.129
			c-0.346,0.417-0.649,0.867-0.906,1.344c-0.312,0.443-0.579,0.917-0.797,1.413c-0.187,0.587-0.309,1.193-0.364,1.807
			c-0.11,0.39-0.19,0.788-0.24,1.19v34.133c0,3.232,1.826,6.187,4.717,7.633l34.133,17.067c0.12,0.06,0.253,0.035,0.374,0.089
			c1.069,0.503,2.23,0.777,3.411,0.806l0.023,0.005l0.009-0.001l0.009,0.001l0.023-0.005c1.181-0.029,2.343-0.303,3.411-0.806
			c0.122-0.054,0.254-0.029,0.374-0.089l98.583-49.292l200.983,100.492c2.403,1.2,5.23,1.2,7.633,0l21.783-10.892v49.183
			l-29.417,14.708c-0.339,0.226-0.661,0.477-0.962,0.752c-0.522,0.322-1.007,0.701-1.446,1.129c-0.64,0.872-1.21,1.794-1.704,2.757
			c-0.187,0.587-0.309,1.193-0.364,1.807c-0.11,0.39-0.19,0.788-0.24,1.19v34.133c0,3.232,1.826,6.187,4.717,7.633l34.133,17.067
			c0.12,0.06,0.253,0.035,0.374,0.089c1.069,0.503,2.23,0.777,3.411,0.806l0.023,0.005l0.008-0.001l0.009,0.001l0.023-0.005
			c1.181-0.029,2.343-0.303,3.411-0.806c0.122-0.054,0.254-0.029,0.374-0.089l102.4-51.2c2.89-1.446,4.716-4.401,4.716-7.633
			v-34.133c-0.011-0.844-0.149-1.682-0.409-2.485c-0.061-0.201-0.155-0.378-0.231-0.574c-0.294-0.761-0.697-1.475-1.196-2.12
			c-0.126-0.162-0.221-0.332-0.358-0.485c-0.538-0.618-1.163-1.155-1.855-1.594c-0.142-0.088-0.302-0.125-0.447-0.204
			c-0.084-0.046-0.133-0.128-0.22-0.171l-29.417-14.708v-57.717L498.716,323.298z M486.366,272.494L162.099,110.36V77.065
			l294.925,143.866c3.273,1.6,7.201,0.944,9.775-1.634l19.567-19.566V272.494z M126.757,40.839l27.878-22.298l325.856,162.928
			l-21.459,21.454L126.757,40.839z M157.382,118.498c0.26-0.179,0.509-0.373,0.745-0.582l327.23,163.615l-126.992,63.5
			L31.345,181.516L157.382,118.498z M49.257,294.781c-1.444,0.725-2.356,2.201-2.358,3.817v22.458l-21.333-10.667v-23.583
			l29.417-14.708c2.89-1.446,4.716-4.401,4.717-7.633v-20.325l21.333,10.667v24.092L49.257,294.781z M55.432,321.056v-19.825
			l31.775-15.883c1.444-0.725,2.356-2.201,2.358-3.817v-22.458l44.917,22.458L55.432,321.056z M390.591,465.448
			c-1.444,0.725-2.356,2.201-2.358,3.817v22.458l-21.333-10.667v-23.583l29.417-14.708c2.891-1.446,4.716-4.401,4.717-7.633v-62.992
			l21.333-10.667v88.092L390.591,465.448z M486.366,446.923l-89.6,44.8v-19.825l31.775-15.883c1.444-0.725,2.356-2.201,2.358-3.817
			v-94.992l21.333-10.667v88.592c0.001,2.958,1.534,5.704,4.05,7.258c2.516,1.55,5.654,1.692,8.3,0.375l21.783-10.892V446.923z
			 M475.816,418.064l-6.517,3.258v-6.517L475.816,418.064z M358.366,374.389l-332.8-166.4v-19.821l330.892,165.446
			c1.201,0.6,2.615,0.6,3.817,0l126.092-63.046v19.821L358.366,374.389z"/>
	</g>
</g>
<g>
</g>
<g>
</g>
<g>
</g>
<g>
</g>
<g>
</g>
<g>
</g>
<g>
</g>
<g>
</g>
<g>
</g>
<g>
</g>
<g>
</g>
<g>
</g>
<g>
</g>
<g>
</g>
<g>
</g>
</svg>
