<?xml version="1.0" encoding="iso-8859-1"?>
<!-- Generator: Adobe Illustrator 19.0.0, SVG Export Plug-In . SVG Version: 6.00 Build 0)  -->
<svg version="1.1" id="Capa_1" xmlns="http://www.w3.org/2000/svg" xmlns:xlink="http://www.w3.org/1999/xlink" x="0px" y="0px"
	 viewBox="0 0 317.6 317.6" style="enable-background:new 0 0 317.6 317.6;" xml:space="preserve">
<g>
	<g>
		<path d="M288.2,10c-6-6-14.8-10-24-10H53.4c-9.2,0-18,4-24,10s-10,14.8-10,24v250c0,9.2,4,18,10,24s14.4,9.6,24,9.6h210.8
			c9.2,0,18-4,24-10s10-14.8,10-24V34C298.2,24.8,294.2,16,288.2,10z M31.8,34c0-6,2.4-11.6,6-15.2c4-4,9.2-6.4,15.2-6.4h99.2v28.4
			H31.8V34z M285.8,284c-0.4,5.6-2.8,11.2-6.4,14.8c-4,4-9.2,6.4-15.2,6.4H53.4c-6,0-11.2-2.4-15.2-6.4s-6.4-9.2-6.4-15.2V53.2h254
			V284z M285.8,40.8H164.6V12.4h99.2c6,0,11.6,2.4,15.6,6.4s6.4,9.2,6.4,15.2V40.8z"/>
	</g>
</g>
<g>
	<g>
		<path d="M87.8,80.4H55.4c-3.6,0-6,2.8-6,6c0,3.6,2.8,6,6,6h32.4c3.2,0.4,6-2.4,6-6C93.8,82.8,91,80.4,87.8,80.4z"/>
	</g>
</g>
<g>
	<g>
		<path d="M206.2,144c-12-12-29.2-19.6-47.6-19.6c-18.4,0-35.6,7.6-47.6,19.6c-10.4,10.4-17.2,24.4-18.8,40
			c-0.4,2.4-0.8,4.8-0.8,7.6c0,18.4,7.6,35.2,19.6,47.6c12,12,29.2,19.6,47.6,19.6c18.8,0,35.6-7.6,47.6-19.6
			c10.4-10.4,17.2-24.4,18.8-40c0.8-2.4,0.8-4.8,0.8-7.6C225.8,173.2,218.2,156.4,206.2,144z M197.4,230.4
			c-10,10.4-23.6,16.4-38.8,16.4s-28.8-6-38.8-16s-16-23.6-16-38.8c0,0,0,0,0-0.4c0-6.8,2.8-12.8,7.2-17.2
			c4.4-4.4,10.4-7.2,17.2-7.2c6.8,0,12.8,2.8,17.2,7.2c4.4,4.4,7.2,10.4,7.2,17.2c0,10,4,19.2,10.8,26s16,10.8,26,10.8
			c4,0,8-0.8,11.6-2C199.8,227.6,199,229.2,197.4,230.4z M213.4,192c0,6.8-2.8,12.8-7.2,17.2c-4.4,4.4-10.4,7.2-17.2,7.2
			c-6.8,0-12.8-2.8-17.2-7.2c-4.4-4.4-7.2-10.4-7.2-17.2c0-10-4-19.2-10.8-26s-16-10.8-26-10.8c-4,0-8,0.8-11.6,2
			c1.2-1.2,2-2.8,3.6-4c10-10.4,23.6-16.4,38.8-16.4s28.8,6,38.8,16s16,23.6,16,38.8C213.4,191.6,213.4,191.6,213.4,192z"/>
	</g>
</g>
<g>
</g>
<g>
</g>
<g>
</g>
<g>
</g>
<g>
</g>
<g>
</g>
<g>
</g>
<g>
</g>
<g>
</g>
<g>
</g>
<g>
</g>
<g>
</g>
<g>
</g>
<g>
</g>
<g>
</g>
</svg>
