<?xml version="1.0" encoding="iso-8859-1"?>
<!-- Generator: Adobe Illustrator 19.0.0, SVG Export Plug-In . SVG Version: 6.00 Build 0)  -->
<svg version="1.1" id="Capa_1" xmlns="http://www.w3.org/2000/svg" xmlns:xlink="http://www.w3.org/1999/xlink" x="0px" y="0px"
	 viewBox="0 0 512 512" style="enable-background:new 0 0 512 512;" xml:space="preserve">
<g>
	<g>
		<g>
			<path d="M436.739,73.849c-0.099-0.259-0.212-0.513-0.337-0.761c-0.345-0.709-0.788-1.365-1.316-1.951
				c-0.135-0.15-0.234-0.319-0.379-0.459c-0.616-0.607-1.321-1.117-2.091-1.511L296.083,0.9c-2.403-1.2-5.23-1.2-7.633,0
				l-102.4,51.2c-0.085,0.042-0.132,0.123-0.215,0.168c-0.148,0.08-0.311,0.118-0.456,0.207c-0.692,0.44-1.317,0.978-1.855,1.596
				c-0.135,0.151-0.229,0.317-0.351,0.477c-0.501,0.647-0.906,1.364-1.201,2.127c-0.076,0.195-0.169,0.372-0.23,0.572
				c-0.26,0.804-0.397,1.641-0.409,2.486v97.629l-4.958,2.479c-0.408-0.649-0.984-1.176-1.667-1.524l-34.133-17.067
				c-1.323-0.663-2.894-0.593-4.153,0.185c-1.258,0.778-2.024,2.152-2.022,3.632v27.229l-27.958-13.979
				c-1.323-0.663-2.894-0.593-4.153,0.185c-1.258,0.778-2.024,2.152-2.022,3.632v22.963l-19.425-9.713
				c-1.323-0.663-2.894-0.593-4.153,0.185s-2.024,2.152-2.022,3.632v59.733c0,1.616,0.913,3.094,2.358,3.817l85.333,42.667
				c0.593,0.296,1.246,0.45,1.908,0.45l0.002-0.001l0.002,0.001c0.661,0.001,1.313-0.153,1.904-0.45l15.158-7.579V435.2
				c0,3.232,1.826,6.187,4.717,7.633L322.583,511.1c0.117,0.058,0.252,0.035,0.371,0.087c1.076,0.507,2.246,0.783,3.434,0.81
				L326.4,512l0.004,0l0.004,0l0.011-0.003c1.178-0.029,2.338-0.303,3.405-0.805c0.128-0.056,0.266-0.03,0.393-0.093l102.4-51.2
				c2.89-1.447,4.716-4.401,4.716-7.633V76.8C437.314,75.789,437.112,74.789,436.739,73.849z M249.604,132.769l4.263,2.131v16.025
				l-56.537,27.279l-19.261-9.667L249.604,132.769z M219.733,138.163v-20.329l20.329,10.165L219.733,138.163z M296.533,177.571
				v7.525l-68.267,34.133v-22.963c0-1.616-0.913-3.094-2.358-3.817l-18.897-9.445l51.087-24.652L296.533,177.571z M262.4,150.963
				v-11.796l34.133,17.067v11.796L262.4,150.963z M142.933,151.967l25.6,12.8v5.9c0,1.615,0.911,3.092,2.354,3.817l24.492,12.292
				c0.16,0.077,0.324,0.143,0.492,0.2l23.862,11.925v24.596l-25.6,12.8v-22.962c0-1.616-0.913-3.094-2.358-3.817L142.933,185.1
				V151.967z M160,274.7l-76.8-38.4v-50.2l76.8,38.4V274.7z M166.175,218.05l-57.674-28.836c0.188-0.471,0.289-0.973,0.299-1.48
				v-18.7l25.6,12.8v5.9c0.016,0.709,0.213,1.402,0.572,2.013c0.089,0.154,0.189,0.302,0.299,0.443
				c0.338,0.473,0.772,0.87,1.274,1.166c0.085,0.051,0.124,0.15,0.213,0.195l48.842,24.417v22.967
				c0.01,0.507,0.111,1.009,0.299,1.48l-17.365,8.682v-27.229C168.533,220.251,167.62,218.773,166.175,218.05z M168.533,274.696
				v-16.058l128-64v16.058L168.533,274.696z M219.733,347.229v-50.192l76.8,38.4v50.192L219.733,347.229z M296.533,395.171v50.196
				l-76.8-38.4v-50.196L296.533,395.171z M219.733,287.496v-28.858l21.333-10.667l55.467,27.733v50.192L219.733,287.496z
				 M250.608,243.2l11.792-5.896l10.892,5.446c1.323,0.663,2.894,0.593,4.153-0.185c1.258-0.778,2.024-2.152,2.022-3.632v-10.163
				l17.067-8.533v45.925L250.608,243.2z M317.867,489.658L198.4,429.925V269.304l12.8-6.4V409.6c0,1.616,0.913,3.094,2.358,3.817
				l85.333,42.667c1.323,0.663,2.894,0.593,4.153-0.185c1.258-0.778,2.024-2.152,2.022-3.632V153.6c0-1.616-0.913-3.094-2.358-3.817
				l-85.333-42.667c-1.323-0.663-2.894-0.593-4.153,0.185s-2.024,2.152-2.022,3.632v31.496l-12.8,6.4V73.542l119.467,59.733V489.658
				z M326.4,118.458L208.95,59.733l83.317-41.658L409.717,76.8L326.4,118.458z M420.267,446.992l-85.333,42.667V133.275
				l85.333-42.667V446.992z"/>
			<path d="M239.158,404.883l34.133,17.067c1.323,0.663,2.894,0.593,4.153-0.185s2.024-2.152,2.022-3.632v-17.067
				c0-1.616-0.913-3.094-2.358-3.817l-34.133-17.067c-1.323-0.663-2.894-0.593-4.153,0.185s-2.024,2.152-2.022,3.632v17.067
				C236.8,402.683,237.713,404.16,239.158,404.883z M245.333,390.9l25.6,12.8v7.533l-25.6-12.8V390.9z"/>
			<path d="M277.108,337.517l-34.133-17.067c-1.323-0.663-2.894-0.593-4.153,0.185s-2.024,2.152-2.022,3.632v17.067
				c0,1.616,0.913,3.094,2.358,3.817l34.133,17.067c1.323,0.663,2.894,0.593,4.153-0.185s2.024-2.152,2.022-3.632v-17.067
				C279.467,339.717,278.554,338.24,277.108,337.517z M270.933,351.5l-25.6-12.8v-7.533l25.6,12.8V351.5z"/>
			<path d="M277.108,277.783l-34.133-17.067c-1.323-0.663-2.894-0.593-4.153,0.185c-1.258,0.778-2.024,2.152-2.022,3.632V281.6
				c0,1.616,0.913,3.094,2.358,3.817l34.133,17.067c1.323,0.663,2.894,0.593,4.153-0.185s2.024-2.152,2.022-3.632V281.6
				C279.467,279.984,278.554,278.506,277.108,277.783z M270.933,291.767l-25.6-12.8v-7.533l25.6,12.8V291.767z"/>
			<path d="M102.625,234.217l34.133,17.067c1.323,0.663,2.894,0.593,4.153-0.185s2.024-2.152,2.022-3.632V230.4
				c0-1.616-0.913-3.094-2.358-3.817l-34.133-17.067c-1.323-0.663-2.894-0.593-4.153,0.185s-2.024,2.152-2.022,3.632V230.4
				C100.267,232.016,101.18,233.494,102.625,234.217z M108.8,220.233l25.6,12.8v7.533l-14.536-7.268l-0.012-0.006l-11.052-5.525
				V220.233z"/>
		</g>
	</g>
</g>
<g>
</g>
<g>
</g>
<g>
</g>
<g>
</g>
<g>
</g>
<g>
</g>
<g>
</g>
<g>
</g>
<g>
</g>
<g>
</g>
<g>
</g>
<g>
</g>
<g>
</g>
<g>
</g>
<g>
</g>
</svg>
