<?xml version="1.0" encoding="iso-8859-1"?>
<!-- Generator: Adobe Illustrator 19.0.0, SVG Export Plug-In . SVG Version: 6.00 Build 0)  -->
<svg version="1.1" id="Capa_1" xmlns="http://www.w3.org/2000/svg" xmlns:xlink="http://www.w3.org/1999/xlink" x="0px" y="0px"
	 viewBox="0 0 366.8 366.8" style="enable-background:new 0 0 366.8 366.8;" xml:space="preserve">
<g>
	<g>
		<path d="M347.6,290.6c-11.2-12-27.6-19.2-45.6-19.2s-34.4,7.2-46,19.2c-2.4,2.4-4.8,5.2-6.8,8V203c12.4-1.6,23.6-6.8,32-15.2
			c10-10,16-23.6,16-38.4V78.6c0-14.8-6-28.4-16-38.4s-23.6-16-38.4-16s-28.4,6-38.4,16s-16,23.6-16,38.4v70.8
			c0,14.8,6,28.4,16,38.4c8.4,8.4,19.6,14,32,15.2v95.6c-2-2.8-4.4-5.6-6.8-8c-11.6-11.6-28-19.2-46-19.2s-34.4,7.2-46,19.2
			c-2.4,2.4-4.8,5.2-6.8,8v-54.4c12.4-1.6,23.6-6.8,32-15.2c10-10,16-23.6,16-38.4v-70.8c0-14.8-6-28.4-16-38.4s-23.6-16-38.4-16
			c-14.8,0-28.4,6-38.4,16S70,105,70,119.8v70.8c0,14.8,6,28.4,16,38.4c8.4,8.4,19.6,14,32,15.2v54.4c-2-2.8-4.4-5.6-6.8-8
			c-11.6-11.6-28-19.2-46-19.2s-34.4,7.2-46,19.2C7.6,302.2,0,318.6,0,336.6c0,3.6,2.8,6,6,6h58.8h58.8h60.8h58.8H302h58.8
			c3.6,0,6-2.8,6-6C366.8,318.6,359.6,302.2,347.6,290.6z M66.8,330.2H14.4c1.6-12,6.8-22.8,15.2-31.2c9.6-9.6,22.8-15.6,37.2-15.6
			c14.4,0,27.6,6,37.2,15.6c8,8,13.6,18.8,15.2,31.2H66.8z M125.6,149.4c-3.6,0-6,2.8-6,6v38v9.6l-4.4-4.4c-2.4-2.4-6.4-2.4-8.8,0
			c-2.4,2.4-2.4,6.4,0,8.8l13.2,13.2v11.6c-9.2-2-17.6-6-23.6-12c-7.6-7.6-12.4-18-12.4-29.6v-70.8c0-11.6,4.8-22,12.4-29.6
			c7.6-7.6,18-12.4,29.6-12.4c11.6,0,22,4.8,29.6,12.4c7.6,7.6,12.4,18,12.4,29.6v70.8c0,11.6-4.8,22-12.4,29.6
			c-6.4,6.4-14.4,10.4-23.6,11.6v-14v-21.6l13.2-13.2c2.4-2.4,2.4-6.4,0-8.8c-2.4-2.4-6.4-2.4-8.8,0l-4.4,4.4v-23.2
			C131.6,151.8,128.8,149.4,125.6,149.4z M184.4,330.2H132c1.6-12,6.8-22.8,15.2-31.2c9.6-9.6,22.8-15.6,37.2-15.6
			c14.4,0,27.6,6,37.2,15.6c8,8,13.6,18.8,15.2,31.2H184.4z M243.2,108.2c-3.2,0-6,2.8-6,6v34.4v9.6l-4.4-4.4
			c-2.4-2.4-6.4-2.4-8.8,0c-2.4,2.4-2.4,6.4,0,8.8l13.2,13.2v15.6c-9.2-2-17.2-6.4-23.6-12.4c-7.6-7.6-12.4-18-12.4-29.6V78.6
			c0-11.6,4.8-22,12.4-29.6c7.6-7.6,18-12.4,29.6-12.4c11.6,0,22,4.8,29.6,12.4c7.6,7.6,12.4,18,12.4,29.6v70.8
			c0,11.6-4.8,22-12.4,29.6c-6.4,6.4-14.4,10.4-23.6,11.6v-18V151l13.2-13.2c2.4-2.4,2.4-6.4,0-8.8c-2.4-2.4-6.4-2.4-8.8,0l-4.4,4.4
			v-19.2C249.2,110.6,246.4,108.2,243.2,108.2z M302,330.2h-52c1.6-12,6.8-22.8,15.2-31.2c9.6-9.6,22.8-15.6,37.2-15.6
			c14.4,0,27.6,6,37.2,15.6c8,8,13.6,18.8,15.2,31.2H302z"/>
	</g>
</g>
<g>
</g>
<g>
</g>
<g>
</g>
<g>
</g>
<g>
</g>
<g>
</g>
<g>
</g>
<g>
</g>
<g>
</g>
<g>
</g>
<g>
</g>
<g>
</g>
<g>
</g>
<g>
</g>
<g>
</g>
</svg>
