<?xml version="1.0" encoding="iso-8859-1"?>
<!-- Generator: Adobe Illustrator 19.0.0, SVG Export Plug-In . SVG Version: 6.00 Build 0)  -->
<svg version="1.1" id="Capa_1" xmlns="http://www.w3.org/2000/svg" xmlns:xlink="http://www.w3.org/1999/xlink" x="0px" y="0px"
	 viewBox="0 0 512 512" style="enable-background:new 0 0 512 512;" xml:space="preserve">
<g>
	<g>
		<g>
			<path d="M383.404,73.845c-0.098-0.256-0.209-0.507-0.333-0.752c-0.347-0.714-0.793-1.376-1.325-1.966
				c-0.132-0.146-0.228-0.311-0.369-0.447c-0.616-0.608-1.322-1.119-2.093-1.514L242.75,0.9c-2.403-1.2-5.23-1.2-7.633,0
				l-102.4,51.2c-0.084,0.042-0.132,0.122-0.214,0.167c-0.148,0.08-0.313,0.118-0.457,0.208c-0.692,0.44-1.317,0.977-1.855,1.596
				c-0.135,0.151-0.229,0.317-0.351,0.477c-0.501,0.647-0.906,1.364-1.201,2.127c-0.076,0.195-0.169,0.372-0.23,0.572
				c-0.26,0.804-0.397,1.642-0.409,2.486V435.2c0,3.232,1.826,6.187,4.717,7.633L269.25,511.1c0.117,0.058,0.252,0.035,0.371,0.087
				c1.076,0.507,2.246,0.783,3.434,0.81l0.011,0.003l0.004,0l0.004,0l0.011-0.003c1.178-0.029,2.338-0.303,3.405-0.805
				c0.128-0.056,0.266-0.03,0.393-0.093l102.4-51.2c2.89-1.447,4.716-4.401,4.716-7.633V76.8
				C383.981,75.787,383.779,74.786,383.404,73.845z M264.533,489.658l-119.467-59.733V73.542l119.467,59.733V489.658z
				 M273.067,118.458l-117.45-58.725l83.317-41.658L356.388,76.8L273.067,118.458z M366.933,446.992L281.6,489.658V133.275
				l85.333-42.667V446.992z"/>
			<path d="M160.225,413.417l85.333,42.667c1.323,0.663,2.894,0.593,4.153-0.185s2.024-2.152,2.022-3.632V153.6
				c0-1.616-0.913-3.094-2.358-3.817l-85.333-42.667c-1.323-0.663-2.894-0.593-4.153,0.185s-2.024,2.152-2.022,3.632V409.6
				C157.867,411.216,158.78,412.694,160.225,413.417z M166.4,117.833l76.8,38.4v50.196l-76.8-38.4V117.833z M166.4,177.571
				l76.8,38.4v50.192l-76.8-38.4V177.571z M166.4,237.304l76.8,38.4v50.192l-76.8-38.4V237.304z M166.4,297.038l76.8,38.4v50.192
				l-76.8-38.4V297.038z M166.4,356.771l76.8,38.4v50.196l-76.8-38.4V356.771z"/>
			<path d="M223.775,397.25l-34.133-17.067c-1.323-0.663-2.894-0.593-4.153,0.185s-2.024,2.152-2.022,3.632v17.067
				c0,1.616,0.913,3.094,2.358,3.817l34.133,17.067c1.323,0.663,2.894,0.593,4.153-0.185s2.024-2.152,2.022-3.632v-17.067
				C226.133,399.451,225.22,397.973,223.775,397.25z M217.6,411.233l-25.6-12.8V390.9l25.6,12.8V411.233z"/>
			<path d="M223.775,337.517l-34.133-17.067c-1.323-0.663-2.894-0.593-4.153,0.185s-2.024,2.152-2.022,3.632v17.067
				c0,1.616,0.913,3.094,2.358,3.817l34.133,17.067c1.323,0.663,2.894,0.593,4.153-0.185s2.024-2.152,2.022-3.632v-17.067
				C226.133,339.717,225.22,338.24,223.775,337.517z M217.6,351.5L192,338.7v-7.533l25.6,12.8V351.5z"/>
			<path d="M223.775,277.783l-34.133-17.067c-1.323-0.663-2.894-0.593-4.153,0.185c-1.258,0.778-2.024,2.152-2.022,3.632V281.6
				c0,1.616,0.913,3.094,2.358,3.817l34.133,17.067c1.323,0.663,2.894,0.593,4.153-0.185s2.024-2.152,2.022-3.632V281.6
				C226.133,279.984,225.22,278.507,223.775,277.783z M217.6,291.767l-25.6-12.8v-7.533l25.6,12.8V291.767z"/>
			<path d="M223.775,218.05l-34.133-17.067c-1.323-0.663-2.894-0.593-4.153,0.185s-2.024,2.152-2.022,3.632v17.067
				c0,1.616,0.913,3.094,2.358,3.817l34.133,17.067c1.323,0.663,2.894,0.593,4.153-0.185s2.024-2.152,2.022-3.632v-17.067
				C226.133,220.251,225.22,218.773,223.775,218.05z M217.6,232.033l-25.6-12.8V211.7l25.6,12.8V232.033z"/>
			<path d="M223.775,158.317l-34.133-17.067c-1.323-0.663-2.894-0.593-4.153,0.185s-2.024,2.152-2.022,3.632v17.067
				c0,1.616,0.913,3.094,2.358,3.817l34.133,17.067c1.323,0.663,2.894,0.593,4.153-0.185s2.024-2.152,2.022-3.632v-17.067
				C226.133,160.517,225.22,159.04,223.775,158.317z M217.6,172.3L192,159.5v-7.533l25.6,12.8V172.3z"/>
		</g>
	</g>
</g>
<g>
</g>
<g>
</g>
<g>
</g>
<g>
</g>
<g>
</g>
<g>
</g>
<g>
</g>
<g>
</g>
<g>
</g>
<g>
</g>
<g>
</g>
<g>
</g>
<g>
</g>
<g>
</g>
<g>
</g>
</svg>
