<?xml version="1.0" encoding="iso-8859-1"?>
<!-- Generator: Adobe Illustrator 19.0.0, SVG Export Plug-In . SVG Version: 6.00 Build 0)  -->
<svg version="1.1" id="Capa_1" xmlns="http://www.w3.org/2000/svg" xmlns:xlink="http://www.w3.org/1999/xlink" x="0px" y="0px"
	 viewBox="0 0 393.2 393.2" style="enable-background:new 0 0 393.2 393.2;" xml:space="preserve">
<g>
	<g>
		<path d="M386.4,168c-3.6-4.4-9.2-6.8-15.6-6.8h-6.4V40.8c0-3.6-2.8-6-6-6h-36c-1.2,0-2.4,0.4-3.2,0.8l-14.4,7.6l-4-4
			c-2.4-2.8-5.6-3.6-9.2-3.6c-3.2,0-6.4,1.2-9.2,2.8l-27.6,18.8c-0.8,0.4-1.2,0.8-1.6,1.2c-2.4,2.4-3.6,5.2-3.6,8.4
			c0,2.8,0.8,5.6,2.4,8c0.4,0.8,1.2,1.2,1.6,2l23.2,23.6c0.8,0.8,1.2,1.2,2,1.6c2.4,1.6,5.2,2.4,8,2.4c3.2,0,6.4-1.2,8.4-3.2
			c0.4-0.4,0.8-1.2,1.2-1.6l18.8-27.2l0.4-0.4c2-2.8,3.2-6,3.2-9.2c0-3.2-1.2-6.4-3.6-9.2l-1.2-1.2l10-5.2h28v114.4H22.8
			c-6.4,0-12,2.4-16,6.8c-4,4-6.8,9.6-6.8,16c0,6.4,2.4,12,6.8,16c4,4,9.6,6.8,16,6.8H28l8.4,82.8c1.2,11.2,6,21.6,13.2,28.8
			s16.8,11.6,27.6,11.6c2.4,0,4.4,0.8,5.6,2.4c1.6,1.6,2.4,3.6,2.4,5.6c0,2.4-0.8,4.4-2.4,5.6c-1.6,1.6-3.6,2.4-5.6,2.4
			c-3.6,0-6,2.8-6,6s2.8,6,6,6c5.6,0,10.8-2.4,14.4-6c3.6-3.6,6-8.8,6-14.4c0-2.8-0.8-5.6-1.6-8h201.2c-1.2,2.4-1.6,5.2-1.6,8
			c0,5.6,2,10.4,5.6,14l0.4,0.4c3.6,3.6,8.8,6,14.4,6c3.6,0,6-2.8,6-6s-2.8-6-6-6c-2.4,0-4.4-0.8-5.6-2.4l-0.4-0.4
			c-1.2-1.6-2-3.2-2-5.6c0-2.4,0.8-4.4,2.4-5.6c1.6-1.6,3.6-2.4,5.6-2.4c11.2,0,20.4-4.4,27.6-11.6s12-17.6,13.2-28.8l8.4-82.8h5.2
			c6.4,0,12-2.4,16-6.8c4-4,6.8-9.6,6.8-16C393.2,177.6,390.8,172,386.4,168z M306.8,63.6c0,0-0.4,0.4-0.8,1.2c0,0,0,0.4-0.4,0.4
			L287.2,92c-0.4,0-0.8,0-0.8-0.4l-23.2-23.2c0-0.4-0.4-0.8-0.4-0.8L290,49.2c0.8-0.4,1.6-0.8,2-0.8h0.4l14.4,14.8V63.6z M344.8,288
			c-0.8,8.4-4.4,16-9.6,21.2c-4.8,4.8-11.6,8-18.8,8H77.2c-7.6,0-14-3.2-18.8-8c-5.6-5.2-8.8-12.8-9.6-21.2l-8.4-81.6h313.2
			L344.8,288z M378,191.2c-2,2-4.4,3.2-7.2,3.2h-10.4H33.2H22.8c-2.8,0-5.6-1.2-7.2-3.2c-1.6-2-3.2-4.4-3.2-7.2
			c0-2.8,1.2-5.6,3.2-7.2c2-2,4.4-3.2,7.2-3.2h335.6h12.8c2.8,0,5.2,1.2,7.2,3.2c1.6,1.6,2.8,4.4,2.8,7.2
			C381.2,186.8,380,189.2,378,191.2z"/>
	</g>
</g>
<g>
	<g>
		<path d="M256.4,97.6c-2.4-2.4-6.4-2.4-8.8,0l-14.4,14c-2.4,2.4-2.4,6.4,0,8.8c2.4,2.4,6.4,2.4,8.8,0l14.4-14
			C258.8,104,258.8,100,256.4,97.6z"/>
	</g>
</g>
<g>
	<g>
		<path d="M267.2,109.6c-3.2-1.6-6.8,0-8,3.2l-6.8,15.2c-1.6,2.8,0,6.4,3.2,8c3.2,1.6,6.8,0,8-3.2l6.8-15.2
			C272,114.4,270.4,110.8,267.2,109.6z"/>
	</g>
</g>
<g>
	<g>
		<path d="M244.4,86.4c-1.2-3.2-5.2-4.4-8-3.2L221.2,90c-3.2,1.2-4.4,5.2-3.2,8c1.2,3.2,5.2,4.4,8,3.2l15.2-6.8
			C244.4,93.2,245.6,89.2,244.4,86.4z"/>
	</g>
</g>
<g>
</g>
<g>
</g>
<g>
</g>
<g>
</g>
<g>
</g>
<g>
</g>
<g>
</g>
<g>
</g>
<g>
</g>
<g>
</g>
<g>
</g>
<g>
</g>
<g>
</g>
<g>
</g>
<g>
</g>
</svg>
