<?xml version="1.0" encoding="iso-8859-1"?>
<!-- Generator: Adobe Illustrator 19.0.0, SVG Export Plug-In . SVG Version: 6.00 Build 0)  -->
<svg version="1.1" id="Capa_1" xmlns="http://www.w3.org/2000/svg" xmlns:xlink="http://www.w3.org/1999/xlink" x="0px" y="0px"
	 viewBox="0 0 512 512" style="enable-background:new 0 0 512 512;" xml:space="preserve">
<g>
	<g>
		<g>
			<path d="M418.089,85.019c-0.009-0.241-0.07-0.469-0.099-0.709c-0.097-0.806-0.31-1.594-0.633-2.339
				c-0.064-0.148-0.05-0.307-0.123-0.454c-0.045-0.091-0.132-0.142-0.18-0.231c-0.465-0.878-1.081-1.668-1.819-2.332
				c-0.149-0.131-0.321-0.21-0.478-0.33c-0.415-0.35-0.864-0.66-1.339-0.923l-153.6-76.8c-2.403-1.2-5.23-1.2-7.633,0l-153.6,76.8
				c-0.477,0.265-0.926,0.575-1.343,0.926c-0.154,0.118-0.325,0.196-0.472,0.326c-0.74,0.665-1.357,1.455-1.822,2.334
				c-0.049,0.089-0.135,0.14-0.18,0.23c-0.073,0.146-0.059,0.305-0.123,0.454c-0.323,0.745-0.536,1.533-0.633,2.339
				c-0.029,0.241-0.091,0.469-0.099,0.709c-0.004,0.108-0.044,0.207-0.044,0.315c0.008,0.866,0.148,1.725,0.417,2.549
				c0.06,0.189,0.165,0.351,0.237,0.536c0.288,0.736,0.679,1.427,1.16,2.054c0.167,0.224,0.345,0.44,0.533,0.645
				c0.673,0.753,1.476,1.38,2.37,1.849L128,107.675v336.058c0,4.713,3.82,8.533,8.533,8.533s8.533-3.82,8.533-8.533V329.538
				l102.4,51.204v122.725c0,4.713,3.82,8.533,8.533,8.533s8.533-3.821,8.533-8.533V380.742l102.4-51.204v114.195
				c0,4.713,3.82,8.533,8.533,8.533s8.533-3.82,8.533-8.533V107.675l29.417-14.708c0.894-0.47,1.697-1.096,2.37-1.85
				c0.189-0.206,0.367-0.421,0.533-0.645c0.481-0.627,0.872-1.318,1.16-2.054c0.072-0.185,0.178-0.347,0.237-0.536
				c0.268-0.823,0.409-1.683,0.417-2.549C418.133,85.226,418.093,85.126,418.089,85.019z M247.467,332.292l-33.117-16.558
				l33.117-16.565V332.292z M247.467,289.63l-44.571,22.287c-1.446,0.723-2.359,2.201-2.358,3.818
				c0.001,1.617,0.916,3.094,2.362,3.815l44.567,22.285v19.825l-91.875-45.918l83.342-41.667l8.533,4.267V289.63z M145.067,301.925
				v-74.787l74.784,37.395L145.067,301.925z M247.467,229.892l-33.117-16.558l33.117-16.565V229.892z M247.467,187.23
				l-44.571,22.287c-1.446,0.723-2.359,2.201-2.358,3.818c0.001,1.617,0.916,3.094,2.362,3.815l44.567,22.285v19.825l-91.875-45.918
				l91.875-45.934V187.23z M145.067,199.525v-83.317L218.05,152.7l10.333,5.167L145.067,199.525z M264.533,361.66v-19.825
				L309.1,319.55c1.447-0.721,2.362-2.199,2.362-3.815c0.001-1.617-0.912-3.095-2.358-3.818l-44.571-22.287v-11.296l8.512-4.27
				l83.363,41.678L264.533,361.66z M264.533,332.292v-33.123l33.117,16.565L264.533,332.292z M309.1,217.15
				c1.447-0.721,2.362-2.199,2.362-3.815c0.001-1.617-0.912-3.095-2.358-3.818l-44.571-22.287v-19.822l91.875,45.934l-77.54,38.752
				c-0.056,0.027-0.117,0.02-0.172,0.048l-14.163,7.103v-19.81L309.1,217.15z M264.533,229.892v-33.123l33.117,16.565
				L264.533,229.892z M366.933,301.925l-74.788-37.394l74.788-37.394V301.925z M366.933,199.525l-83.317-41.658l83.317-41.658
				V199.525z M371.65,94.767l-0.006,0.005L256,152.592l-30.317-15.158l-0.002,0L140.36,94.774l-0.009-0.007l-18.869-9.434
				L256,18.075l134.519,67.257L371.65,94.767z"/>
			<path d="M160.225,81.517c-1.445,0.723-2.358,2.201-2.358,3.817c0,1.616,0.913,3.094,2.358,3.817l93.846,46.933
				c1.214,0.611,2.645,0.611,3.858,0l93.846-46.933c1.445-0.723,2.358-2.201,2.358-3.817c0-1.616-0.913-3.094-2.358-3.817
				l-93.867-46.942c-1.201-0.6-2.615-0.6-3.817,0L160.225,81.517z M340.325,85.333l-63.317,31.65L256,127.492l-84.325-42.158
				L256,43.159L340.325,85.333z"/>
		</g>
	</g>
</g>
<g>
</g>
<g>
</g>
<g>
</g>
<g>
</g>
<g>
</g>
<g>
</g>
<g>
</g>
<g>
</g>
<g>
</g>
<g>
</g>
<g>
</g>
<g>
</g>
<g>
</g>
<g>
</g>
<g>
</g>
</svg>
