<?xml version="1.0" encoding="iso-8859-1"?>
<!-- Generator: Adobe Illustrator 19.0.0, SVG Export Plug-In . SVG Version: 6.00 Build 0)  -->
<svg version="1.1" id="Capa_1" xmlns="http://www.w3.org/2000/svg" xmlns:xlink="http://www.w3.org/1999/xlink" x="0px" y="0px"
	 viewBox="0 0 417.2 417.2" style="enable-background:new 0 0 417.2 417.2;" xml:space="preserve">
<g>
	<g>
		<path d="M138,248l-49.2-0.4c-3.6,0-6,2.8-6,6c0,3.6,2.8,6,6,6L138,260c3.6,0,6-2.8,6-6C144.4,250.8,141.6,248,138,248z"/>
	</g>
</g>
<g>
	<g>
		<path d="M328.8,248.4l-49.2-0.4c-3.6,0-6,2.8-6,6c-0.4,3.2,2.4,6,6,6l49.2,0.4c3.6,0,6-2.8,6-6C334.8,250.8,332,248.4,328.8,248.4
			z"/>
	</g>
</g>
<g>
	<g>
		<path d="M410,292.4c-1.2-1.2-2.8-2-4.4-2.8V218c0-2.4-0.8-4.4-2.4-6c-1.6-1.6-3.6-2.4-5.6-2.4H242.8c1.2-1.6,2.8-2.8,3.6-4.8
			c4-6.8,6.4-14.8,6.4-23.2c0-6.8-1.6-13.2-4.4-18.8c-2.4-4.8-5.2-8.8-8.8-12.4l8.8-31.6c0.4-0.4,0.4-1.2,0.4-2c0-3.6-2.8-6-6-6
			h-22.4c1.2-1.2,2.4-2.4,3.6-4c2,0,4-0.4,6-1.2c3.2-1.2,6.4-3.6,8.4-7.2c0,0,0-0.4,0.4-0.4c2-3.6,2.8-7.6,2-11.2
			c-0.4-2-0.8-4-2-5.6c0.8-1.6,1.6-3.6,2-5.6c0.4-3.6,0-7.6-2-11.2c-2-3.6-5.2-6-8.8-7.6c-2-0.8-4-1.2-6-1.2c-1.2-1.6-2.4-3.2-4-4.4
			c-3.2-2.8-7.2-4-11.2-4s-8,1.6-10.8,3.6c-1.6,1.2-2.8,2.8-4,4.4c-2,0-4,0.4-6,1.2c-3.2,1.2-6.4,3.6-8.4,7.2c0,0,0,0.4-0.4,0.4
			c-2,3.6-2.8,7.6-2,11.2c0.4,2,0.8,4,2,5.6c-0.8,1.6-1.6,3.6-2,5.6c-0.4,3.6,0,7.6,2,11.2s5.2,6,8.8,7.6c2,0.8,4,1.2,6,1.2
			c0.8,1.6,2,2.8,3.6,4h-22.4c-0.4,0-1.2,0-1.6,0.4c-3.2,0.8-5.2,4.4-4.4,7.6l8.8,32c-3.6,3.6-6.8,8-8.8,12.4
			c-2.8,5.6-4.4,12-4.4,18.8c0,8.4,2.4,16.4,6.4,23.2c1.2,1.6,2.4,3.2,3.6,4.8H20c-2.4,0-4.4,0.8-6,2.4c-1.6,1.6-2.4,3.6-2.4,6v71.6
			c-1.6,0.8-3.2,2-4.8,3.2c-4,4-6.8,10-6.8,16c0,6.4,2.4,12,6.8,16c4,4,10,6.8,16,6.8h16.8V364c0,3.6,2.8,6,6,6h17.2
			c2.8,0,5.2-1.6,6-4.4l10.4-34.4H338l10.4,34.4c0.8,2.8,3.2,4.4,6,4.4h17.2c3.6,0,6-2.8,6-6v-32.4h16.8c6.4,0,12-2.4,16-6.8
			c4-4,6.8-10,6.8-16C417.2,302.4,414.8,296.8,410,292.4z M393.2,222.4V286H214.8v-63.6h10.8H393.2z M196,94.4
			c-1.2,0.4-2.4,0.4-3.6,0c-1.2-0.4-2-1.2-2.4-2c-0.4-1.2-0.8-2.4-0.8-3.2c0-1.2,0.8-2,1.6-3.2c2.4-2.4,2.4-6.4,0.4-8.8l-0.4-0.4
			c-0.8-0.8-1.2-2-1.6-2.8c0-1.2,0-2.4,0.8-3.2v-0.4c0.4-0.8,1.6-1.6,2.4-2c1.2-0.4,2.4-0.4,3.6,0c3.2,0.8,6.8-0.8,7.6-4V64
			c0.4-1.2,0.8-2,1.6-2.8c0.8-0.8,2-1.2,3.2-1.2s2.4,0.4,3.2,1.2c0.8,0.8,1.6,1.6,2,2.8c0.8,3.2,4,5.2,7.6,4.4h0.4
			c1.2-0.4,2.4-0.4,3.6,0c1.2,0.4,2,1.2,2.4,2c0.4,1.2,0.8,2.4,0.8,3.2c0,1.2-0.8,2-1.6,3.2c-2.4,2.4-2.4,6.4-0.4,8.8l0.4,0.4
			c0.8,0.8,1.2,2,1.6,2.8c0,1.2,0,2.4-0.8,3.2v0.4c-0.4,0.8-1.6,1.6-2.4,2c-1.2,0.4-2.4,0.4-3.6,0c-3.2-0.8-6.8,0.8-7.6,4v0.4
			c-0.4,1.2-0.8,2-1.6,2.8c-0.8,0.8-2,1.2-3.2,1.2s-2.4-0.4-3.2-1.2c-0.8-0.8-1.6-1.6-2-2.8C202.8,95.6,199.6,93.6,196,94.4z
			 M180,168.4c2-4.4,4.8-8,8.8-10.8c2-1.6,2.8-4.4,2-6.8l-7.6-27.6h51.6l-7.6,28c-0.8,2.4,0.4,4.8,2,6.4c3.6,2.8,6.8,6.8,8.8,10.8
			s3.2,8.8,3.2,13.6c0,6-1.6,11.6-4.8,16.8c-2.8,4.4-6.8,8.4-11.6,11.2h-13.6c-0.8,0-1.6,0-2,0.4c-0.8,0-1.2-0.4-2-0.4h-13.6
			c-5.2-2.8-9.2-6.8-12-11.2c-2.8-4.8-4.8-10.4-4.8-16.8C176.8,177.2,178,172.4,180,168.4z M24,222.4h167.6h10.8V286H24V222.4z
			 M58.8,358h-6.4v-26.4h14.4L58.8,358z M365.2,358h-6.4l-8-26.4h14.4V358z M401.6,316c-2,2-4.4,3.2-7.2,3.2h-22.8h-28.8h-268H46
			H23.2c-2.8,0-5.6-1.2-7.2-3.2c-2-1.6-3.2-4.4-3.2-7.2s1.2-5.6,3.2-7.2c2-2,4.4-3.2,7.2-3.2h183.6h4h183.6c2.8,0,5.2,1.2,7.2,2.8
			c0,0,0,0,0.4,0.4c1.6,1.6,2.8,4.4,2.8,7.2S403.6,314.4,401.6,316z"/>
	</g>
</g>
<g>
	<g>
		<circle cx="208.8" cy="81.2" r="9.2"/>
	</g>
</g>
<g>
</g>
<g>
</g>
<g>
</g>
<g>
</g>
<g>
</g>
<g>
</g>
<g>
</g>
<g>
</g>
<g>
</g>
<g>
</g>
<g>
</g>
<g>
</g>
<g>
</g>
<g>
</g>
<g>
</g>
</svg>
