<?xml version="1.0" encoding="iso-8859-1"?>
<!-- Generator: Adobe Illustrator 19.0.0, SVG Export Plug-In . SVG Version: 6.00 Build 0)  -->
<svg version="1.1" id="Capa_1" xmlns="http://www.w3.org/2000/svg" xmlns:xlink="http://www.w3.org/1999/xlink" x="0px" y="0px"
	 viewBox="0 0 317.2 317.2" style="enable-background:new 0 0 317.2 317.2;" xml:space="preserve">
<g>
	<g>
		<path d="M197.4,52.4c-1.2-1.2-3.2-2.4-5.6-2.4h-66.4c-2,0-4,0.8-5.6,2.4c-1.6,1.6-2.4,3.2-2.4,5.6v51.2c0,2,0.8,4,2.4,5.6
			c1.6,1.2,3.6,2,5.6,2h66.4c2,0,4-0.8,5.6-2.4c1.2-1.2,2.4-3.2,2.4-5.6V58C199.8,56,199,54,197.4,52.4z M187,104h-56.8V62.4H187
			V104z"/>
	</g>
</g>
<g>
	<g>
		<circle cx="119" cy="162" r="6.8"/>
	</g>
</g>
<g>
	<g>
		<path d="M309.8,290c-2.8-2.8-6.8-4.8-11.2-4.8h-22.8v-27.6c0-6.4-2.8-12.4-6.8-16.4c-4.4-4.4-10-6.8-16.4-6.8h-1.2V10.8
			c0-3.2-1.2-5.6-3.2-7.6S243.4,0,240.6,0h-164C73.4,0,71,1.2,69,3.2s-3.2,4.8-3.2,7.6v223.6h-1.2c-6.4,0-12.4,2.8-16.4,6.8
			c-4.4,4.4-6.8,10-6.8,16.4v27.6H18.6c-4.4,0-8.4,1.6-11.2,4.8c-2.8,2.8-4.8,6.8-4.8,11.2c0,4.4,1.6,8.4,4.8,11.2
			c3.2,2.8,6.8,4.8,11.2,4.8h280c4.4,0,8.4-1.6,11.2-4.8c2.8-2.8,4.8-6.8,4.8-11.2S313,292.8,309.8,290z M78.2,12L78.2,12H239v222.4
			h-7.2V28.8c0-2.8-1.2-5.2-2.8-6.8c-1.6-1.6-4.4-2.8-6.8-2.8H95c-2.8,0-5.2,1.2-6.8,2.8c-1.6,1.6-2.8,4.4-2.8,6.8v205.6h-7.2V12z
			 M219.4,31.6v202.8H97.8V31.6H219.4z M53.8,257.6c0-3.2,1.2-5.6,3.2-7.6s4.8-3.2,7.6-3.2h12H95h126.8h18.4h12
			c3.2,0,5.6,1.2,7.6,3.2s3.2,4.8,3.2,7.6v27.6H53.8V257.6z M301,303.6c-0.8,0.8-1.6,1.2-2.4,1.2h-280c-0.8,0-2-0.4-2.4-1.2
			c-0.8-0.8-1.2-1.6-1.2-2.4s0.4-2,1.2-2.4c0.8-0.8,1.6-1.2,2.4-1.2h28.8h222h29.2c0.8,0,2,0.4,2.4,1.2c0.8,0.4,1.2,1.6,1.2,2.4
			S301.8,303.2,301,303.6z"/>
	</g>
</g>
<g>
</g>
<g>
</g>
<g>
</g>
<g>
</g>
<g>
</g>
<g>
</g>
<g>
</g>
<g>
</g>
<g>
</g>
<g>
</g>
<g>
</g>
<g>
</g>
<g>
</g>
<g>
</g>
<g>
</g>
</svg>
