<?xml version="1.0" encoding="iso-8859-1"?>
<!-- Generator: Adobe Illustrator 19.0.0, SVG Export Plug-In . SVG Version: 6.00 Build 0)  -->
<svg version="1.1" id="Capa_1" xmlns="http://www.w3.org/2000/svg" xmlns:xlink="http://www.w3.org/1999/xlink" x="0px" y="0px"
	 viewBox="0 0 512 512" style="enable-background:new 0 0 512 512;" xml:space="preserve">
<g>
	<g>
		<g>
			<path d="M375.15,66.008c-0.07-0.254-0.2-0.479-0.292-0.724c-0.158-0.46-0.355-0.905-0.589-1.331
				c-0.429-0.61-0.891-1.196-1.384-1.755c-0.239-0.218-0.49-0.422-0.753-0.612c-0.226-0.206-0.464-0.399-0.711-0.578
				c-0.118-0.073-0.252-0.102-0.373-0.17c-0.107-0.06-0.188-0.15-0.298-0.205L251.283,0.9c-2.403-1.2-5.23-1.2-7.633,0l-102.4,51.2
				c-0.084,0.042-0.132,0.122-0.214,0.167c-0.148,0.08-0.313,0.118-0.457,0.208c-0.692,0.44-1.317,0.978-1.855,1.596
				c-0.135,0.151-0.229,0.317-0.351,0.477c-0.501,0.647-0.906,1.364-1.201,2.127c-0.076,0.195-0.169,0.372-0.23,0.572
				c-0.26,0.803-0.398,1.641-0.409,2.486v341.333c0.016,3.027,1.641,5.816,4.267,7.323V448c0,1.616,0.913,3.094,2.358,3.817
				l17.067,8.533l0.117,0.028c1.128,0.563,2.455,0.563,3.582,0l0.117-0.028l17.067-8.533c1.445-0.723,2.358-2.201,2.358-3.817
				v-18.192l59.733,29.867V499.2c0,1.616,0.913,3.094,2.358,3.817l17.067,8.533l0.117,0.028c1.128,0.563,2.455,0.563,3.582,0
				l0.117-0.028l17.067-8.533c1.445-0.723,2.358-2.201,2.358-3.817v-39.525l42.667-21.333v18.192c0,1.616,0.913,3.094,2.358,3.817
				l17.067,8.533l0.117,0.028c1.128,0.563,2.455,0.563,3.582,0l0.117-0.028l17.067-8.533c1.445-0.723,2.358-2.201,2.358-3.817
				v-39.61c2.625-1.507,4.251-4.296,4.267-7.323V68.266C375.463,67.503,375.357,66.743,375.15,66.008z M157.866,418.133v31.5
				l-8.533-4.267v-32.625l8.74,4.37C157.961,417.442,157.892,417.785,157.866,418.133z M174.933,445.366l-8.533,4.267v-28.358
				l8.533,4.267V445.366z M153.6,395.791V73.541l102.4,51.2v322.25L153.6,395.791z M260.267,500.833l-8.533-4.267v-32.625
				l8.533,4.267V500.833z M264.533,109.925L164.15,59.733l83.317-41.658l100.385,50.191L264.533,109.925z M277.333,496.566
				l-8.533,4.267v-32.625l8.533-4.267V496.566z M345.6,458.166l-8.533-4.267v-19.825l8.533-4.267V458.166z M273.066,446.991v-322.25
				L358.4,82.075v322.25L273.066,446.991z M362.667,453.9l-8.533,4.267v-31.5c-0.025-0.348-0.094-0.691-0.206-1.022l8.74-4.37V453.9
				z"/>
			<path d="M240.841,132.716l-68.267-34.133c-1.323-0.663-2.894-0.593-4.153,0.185s-2.024,2.152-2.022,3.632V384
				c0,1.616,0.913,3.094,2.358,3.817l68.267,34.133c1.323,0.663,2.894,0.593,4.153-0.185s2.024-2.152,2.022-3.632v-281.6
				C243.2,134.917,242.287,133.439,240.841,132.716z M174.933,254.369l8.533,4.264v33.133l-8.533-4.27V254.369z M234.667,411.233
				l-59.733-29.867v-84.329l10.892,5.446c1.323,0.663,2.894,0.593,4.153-0.185c1.258-0.778,2.024-2.152,2.022-3.632V256
				c0-1.616-0.913-3.094-2.358-3.817l-14.708-7.354V109.3l59.733,29.867V411.233z"/>
		</g>
	</g>
</g>
<g>
</g>
<g>
</g>
<g>
</g>
<g>
</g>
<g>
</g>
<g>
</g>
<g>
</g>
<g>
</g>
<g>
</g>
<g>
</g>
<g>
</g>
<g>
</g>
<g>
</g>
<g>
</g>
<g>
</g>
</svg>
