<?xml version="1.0" encoding="iso-8859-1"?>
<!-- Generator: Adobe Illustrator 19.0.0, SVG Export Plug-In . SVG Version: 6.00 Build 0)  -->
<svg version="1.1" id="Capa_1" xmlns="http://www.w3.org/2000/svg" xmlns:xlink="http://www.w3.org/1999/xlink" x="0px" y="0px"
	 viewBox="0 0 512 512" style="enable-background:new 0 0 512 512;" xml:space="preserve">
<g>
	<g>
		<g>
			<path d="M511.591,227.914c-0.061-0.201-0.154-0.377-0.23-0.572c-0.295-0.763-0.7-1.48-1.201-2.127
				c-0.122-0.159-0.216-0.326-0.351-0.477c-0.538-0.619-1.163-1.156-1.855-1.596c-0.145-0.09-0.308-0.128-0.457-0.208
				c-0.082-0.044-0.129-0.125-0.213-0.167L114.75,26.5c-2.403-1.2-5.23-1.2-7.633,0L4.717,77.7c-0.086,0.043-0.134,0.125-0.218,0.17
				c-0.147,0.08-0.309,0.117-0.453,0.205c-0.692,0.44-1.317,0.977-1.855,1.596c-0.135,0.151-0.229,0.318-0.351,0.477
				c-0.501,0.647-0.906,1.364-1.201,2.127c-0.076,0.195-0.169,0.372-0.23,0.572C0.149,83.651,0.011,84.489,0,85.333V281.6
				c0,3.232,1.826,6.187,4.717,7.633L397.25,485.5c0.117,0.058,0.252,0.035,0.371,0.087c1.076,0.507,2.246,0.783,3.434,0.81
				l0.011,0.003l0.004-0.001l0.004,0.001l0.011-0.003c1.178-0.029,2.338-0.303,3.405-0.805c0.128-0.056,0.266-0.03,0.393-0.093
				l102.4-51.2c2.89-1.447,4.716-4.401,4.716-7.633V230.4C511.989,229.556,511.851,228.718,511.591,227.914z M392.533,464.058
				L17.067,276.325V99.142l375.467,187.733V464.058z M401.067,272.058L27.617,85.333l83.317-41.658L484.383,230.4L401.067,272.058z
				 M494.933,421.392L409.6,464.058V286.875l85.333-42.667V421.392z"/>
			<path d="M98.583,257.908c0.725,1.446,2.204,2.358,3.821,2.358c0.661,0.001,1.313-0.153,1.904-0.45l51.2-25.6
				c1.367-0.68,2.267-2.038,2.36-3.562c0.093-1.524-0.636-2.982-1.911-3.822c-1.275-0.84-2.902-0.935-4.266-0.249l-51.2,25.6
				C98.384,253.238,97.53,255.8,98.583,257.908z"/>
			<path d="M30.317,257.908c0.031,0.062,0.099,0.085,0.133,0.144c0.231,0.34,0.511,0.644,0.832,0.901
				c0.237,0.281,0.509,0.531,0.811,0.741c0.055,0.03,0.077,0.094,0.133,0.122l341.333,170.667l0.117,0.028
				c0.55,0.265,1.152,0.407,1.763,0.417l0.024,0.006l0.002,0l0.002,0.001c0.701-0.015,1.386-0.207,1.993-0.558
				c0.15-0.087,0.293-0.184,0.43-0.29c0.49-0.343,0.9-0.788,1.203-1.304c0.05-0.084,0.146-0.118,0.19-0.206l0.034-0.127
				c0.166-0.542,0.297-1.094,0.39-1.653l0.026-0.128V307.2l-0.026-0.128c-0.023-0.22-0.062-0.439-0.119-0.653
				c-0.031-0.242-0.084-0.482-0.157-0.715c-0.037-0.098-0.07-0.191-0.114-0.286l-0.034-0.127c-0.093-0.135-0.194-0.264-0.303-0.387
				c-0.116-0.204-0.249-0.397-0.398-0.578c-0.08-0.086-0.159-0.164-0.245-0.244c-0.176-0.144-0.364-0.274-0.562-0.387
				c-0.126-0.112-0.26-0.216-0.399-0.312L36.042,132.716c-1.323-0.663-2.894-0.593-4.153,0.185
				c-1.258,0.778-2.024,2.153-2.022,3.632V256l0.029,0.102C29.9,256.728,30.044,257.345,30.317,257.908z M183.467,291.764
				l-8.533-4.264v-33.133l8.533,4.27V291.764z M209.067,271.436l8.533,4.264v33.133l-8.533-4.27V271.436z M209.067,314.104
				l10.892,5.446c1.323,0.663,2.894,0.593,4.153-0.185c1.258-0.778,2.024-2.152,2.022-3.632v-42.667
				c0-1.616-0.913-3.094-2.358-3.817l-14.708-7.354v-33.127l122.726,61.365l-26.501,13.25c-2.108,1.054-2.962,3.617-1.908,5.725
				c0.725,1.446,2.204,2.358,3.821,2.358c0.661,0.001,1.313-0.153,1.904-0.45l32.226-16.112l24.591,12.296l-17.967,8.983
				c-1.771,0.885-2.701,2.872-2.245,4.799c0.456,1.927,2.177,3.287,4.157,3.284c0.661,0.001,1.314-0.153,1.904-0.45l19.425-9.713
				v24.592l-48.842,24.421c-1.771,0.885-2.701,2.872-2.245,4.799c0.456,1.927,2.177,3.287,4.157,3.284
				c0.661,0.001,1.313-0.153,1.904-0.45l45.025-22.513v71.525l-71.523-35.76l2.323-1.161c2.102-1.057,2.951-3.616,1.899-5.72
				c-1.052-2.104-3.609-2.96-5.716-1.913l-8.051,4.022l-24.593-12.297l60.635-30.317c2.102-1.057,2.951-3.616,1.899-5.721
				c-1.052-2.104-3.609-2.96-5.716-1.913l-66.359,33.18l-46.932-23.465V314.104z M192,220.235l8.533,4.267v109.929L192,330.165
				V220.235z M38.4,224.504l23.246-11.621c1.367-0.68,2.267-2.038,2.36-3.562c0.093-1.524-0.636-2.982-1.911-3.822
				c-1.275-0.84-2.902-0.935-4.266-0.249L38.4,214.963v-71.53l71.528,35.765L83.425,192.45c-1.771,0.885-2.701,2.872-2.245,4.799
				s2.177,3.287,4.157,3.284c0.661,0.001,1.313-0.153,1.904-0.45l32.228-16.114l24.591,12.296l-17.969,8.985
				c-1.771,0.885-2.701,2.872-2.245,4.799c0.456,1.927,2.177,3.287,4.157,3.284c0.661,0.001,1.313-0.153,1.904-0.45l23.694-11.847
				l29.864,14.932v33.128l-10.892-5.446c-1.323-0.663-2.894-0.593-4.153,0.185c-1.258,0.778-2.024,2.152-2.022,3.632v42.667
				c0,1.616,0.913,3.094,2.358,3.817l14.708,7.354v24.594L77.808,273.07l2.326-1.162c2.102-1.057,2.951-3.616,1.899-5.72
				s-3.609-2.96-5.716-1.913l-8.053,4.023L43.67,256.002l60.638-30.319c1.367-0.68,2.267-2.038,2.36-3.562
				c0.093-1.524-0.636-2.982-1.911-3.822s-2.902-0.935-4.266-0.249L38.4,249.096V224.504z"/>
			<path d="M257.908,336.617l25.604-12.8c1.367-0.68,2.267-2.038,2.36-3.562c0.093-1.524-0.636-2.982-1.911-3.822
				c-1.275-0.84-2.902-0.935-4.266-0.249l0,0l-25.604,12.8c-1.771,0.885-2.701,2.872-2.245,4.799
				c0.456,1.927,2.177,3.287,4.157,3.284C256.665,337.068,257.318,336.914,257.908,336.617z"/>
		</g>
	</g>
</g>
<g>
</g>
<g>
</g>
<g>
</g>
<g>
</g>
<g>
</g>
<g>
</g>
<g>
</g>
<g>
</g>
<g>
</g>
<g>
</g>
<g>
</g>
<g>
</g>
<g>
</g>
<g>
</g>
<g>
</g>
</svg>
