<?xml version="1.0" encoding="iso-8859-1"?>
<!-- Generator: Adobe Illustrator 19.0.0, SVG Export Plug-In . SVG Version: 6.00 Build 0)  -->
<svg version="1.1" id="Capa_1" xmlns="http://www.w3.org/2000/svg" xmlns:xlink="http://www.w3.org/1999/xlink" x="0px" y="0px"
	 viewBox="0 0 382 382" style="enable-background:new 0 0 382 382;" xml:space="preserve">
<g>
	<g>
		<path d="M377.2,167.8c-2.8-2.8-6.8-4.8-10.8-4.8h-63.2v-10h52c3.2,0,6-1.2,8-3.2l0.4-0.4c2-2,3.6-5.2,3.6-8.4V44.2
			c0-3.2-1.2-6.4-3.6-8.4c-2-2-5.2-3.6-8.4-3.6H198.4c-3.2,0-6.4,1.2-8.4,3.6c-2,2-3.6,5.2-3.6,8.4V141c0,3.2,1.2,6.4,3.6,8.4
			c2,2,5.2,3.6,8.4,3.6h52.4v10H16c-4.4,0-8.4,1.6-11.2,4.8C2,170.6,0,174.6,0,179c0,4.4,1.6,8.4,4.8,11.2c2.4,2.4,6,4,10,4.4v71.6
			v77.6c0,3.6,2.8,6,6,6h170.4h170c3.6,0,6-2.8,6-6V194.6c4-0.4,7.6-2,10-4.4c2.8-2.8,4.8-6.8,4.8-11.2
			C382,174.6,380.4,170.6,377.2,167.8z M198.8,44.6h156.4v75.2H198.8V44.6z M198.8,140.6v-8.4h156.4v8.4h-59.6H258H198.8z
			 M290.8,153v10h-28v-10H290.8z M184.8,337.4H27.2v0v-65.2h157.6V337.4z M27.2,259.8V195h157.6v64.8H27.2z M355.2,337.4h-158v-71.2
			V195h158V337.4z M368.4,181.4c-0.8,0.8-1.6,1.2-2.4,1.2h-4.8h-170h-170h-4.8c-0.8,0-2-0.4-2.4-1.2c-0.8-0.8-1.2-1.6-1.2-2.4
			s0.4-2,1.2-2.4c0.8-0.8,1.6-1.2,2.4-1.2H258h37.6H366c0.8,0,2,0.4,2.4,1.2c0.8,0.4,1.2,1.2,1.2,2.4
			C369.6,179.8,369.2,181,368.4,181.4z"/>
	</g>
</g>
<g>
	<g>
		<path d="M130.8,299l-49.2-0.4c-3.6,0-6,2.8-6,6c0,3.6,2.8,6,6,6l49.2,0.4c3.6,0,6-2.8,6-6C137.2,301.8,134.4,299,130.8,299z"/>
	</g>
</g>
<g>
	<g>
		<path d="M130.8,222.6l-49.2-0.4c-3.6,0-6,2.8-6,6c-0.4,3.2,2.4,6,6,6l49.2,0.4c3.6,0,6-2.8,6-6C136.8,225,134,222.6,130.8,222.6z"
			/>
	</g>
</g>
<g>
</g>
<g>
</g>
<g>
</g>
<g>
</g>
<g>
</g>
<g>
</g>
<g>
</g>
<g>
</g>
<g>
</g>
<g>
</g>
<g>
</g>
<g>
</g>
<g>
</g>
<g>
</g>
<g>
</g>
</svg>
