<?xml version="1.0" encoding="iso-8859-1"?>
<!-- Generator: Adobe Illustrator 19.0.0, SVG Export Plug-In . SVG Version: 6.00 Build 0)  -->
<svg version="1.1" id="Capa_1" xmlns="http://www.w3.org/2000/svg" xmlns:xlink="http://www.w3.org/1999/xlink" x="0px" y="0px"
	 viewBox="0 0 331.2 331.2" style="enable-background:new 0 0 331.2 331.2;" xml:space="preserve">
<g>
	<g>
		<path d="M326,284.8c-3.2-3.2-7.6-5.2-12.4-5.2h-22.8v-56c4-1.2,8-2.8,10.8-6c4.4-4.4,7.2-10.4,7.2-17.2v-16.8
			c0-6.8-2.8-12.8-7.2-17.2l-0.4-0.4c-2.8-2.8-6.4-4.4-10.4-5.6V26c0-6-2.4-11.6-6.4-16c-4-4-9.6-6.4-16-6.4H107.2
			c-6,0-11.6,2.4-16,6.4c-4,4-6.4,9.6-6.4,16v30.8h-4.4c-3.2,0-6,1.2-8,3.6c-2,2-3.6,5.2-3.6,8.4v13.6c0,0.8,0.4,1.6,0.4,2.4
			c-13.2,4-22.8,12.4-29.6,24c-9.2,16-13.6,37.6-17.6,60.8L0.4,285.2c-0.4,2-0.4,3.6-0.4,5.6c0,8.8,4,17.2,10.4,23.2
			c6,6,14.4,10.4,22.8,12c2.4,0.4,5.2,0.8,7.6,0.8h126.4c0.4,0,1.2,0,2,0c0.4,0,1.2,0,1.6,0c1.2,0,2,0.4,3.2,0.4
			c11.6,0,22-4.8,29.6-12.4c7.6-7.6,12.4-18,12.4-29.6c0-11.6-4.8-22-12.4-29.6c-6-6.4-14-10.4-23.2-12v-72.4
			c0-24.8-10-47.2-26.4-63.6c-11.2-11.2-25.2-19.2-41.2-23.2c0-0.8,0.4-1.6,0.4-2.4V68.4c0-3.2-1.2-6-3.6-8c-2-2-5.2-3.6-8.4-3.6
			h-4.4V26c0-2.8,1.2-5.2,2.8-7.2c2-2,4.4-2.8,7.2-2.8H268c2.8,0,5.2,1.2,7.2,2.8c2,2,2.8,4.4,2.8,7.2v135.6c-4,1.2-8,2.8-10.8,6
			c-4.4,4.4-7.2,10.4-7.2,16.8v16.8c0,6.8,2.8,12.8,7.2,17.2c2.8,2.8,6.8,4.8,10.8,6v55.2h-22.8c-4.8,0-9.2,2-12.4,5.2
			s-5.2,7.6-5.2,12.4V310c0,4.8,2,9.2,5.2,12.4c3.2,3.2,7.6,5.2,12.4,5.2h58.4c4.8,0,9.2-2,12.4-5.2s5.2-7.6,5.2-12.4v-12.8
			C331.2,292.4,329.2,288,326,284.8z M84,314.8H40.8c-2,0-4-0.4-5.6-0.8c-6.4-1.2-12-4.4-16.4-8.4c-4-4-6.8-9.2-6.8-14.4
			c0-1.2,0-2.4,0.4-3.2l8-44H84V314.8z M84,231.2H22.8L34,172c4-22,8-42.4,16.4-56.8c6.8-12,17.2-19.6,33.6-21.2V231.2z
			 M195.6,264.8c4.8,4.8,8,12,8,20.4c0,8-3.2,15.6-8.8,20.8c-5.2,5.2-12.8,8.8-20.8,8.8c-1.2,0-2.8-0.4-4-0.4
			c-3.2-0.4-6-1.2-8.8-2.8c-0.4-0.4-0.8-0.4-1.2-0.8c-2.8-1.6-5.2-3.2-7.2-5.6c-0.8-0.8-1.2-1.6-2-2.4c-0.4-0.4-0.8-1.2-1.2-1.6
			c-0.8-0.8-1.2-2-1.6-3.2c-0.4-0.8-0.8-1.2-0.8-1.6c-0.4-1.2-0.8-2.4-1.2-3.6c0-0.4-0.4-1.2-0.4-1.6c-0.4-2-0.4-4-0.4-5.6
			c0-8,3.2-15.6,8.8-20.8c5.2-5.2,12.8-8.8,20.8-8.8S190.4,259.2,195.6,264.8z M145.6,116c13.6,14.4,22.4,33.6,22.4,55.2v72.4
			c-0.4,0-0.8,0.4-1.2,0.4c-0.8,0-1.6,0.4-2.8,0.8c-1.6,0.4-3.2,0.8-4.8,1.6c-0.8,0.4-1.6,0.8-2.4,1.2c-1.6,0.8-3.2,1.6-4.4,2.4
			c-0.8,0.4-1.2,0.8-2,1.2c-2,1.6-4,2.8-5.6,4.8c-7.6,7.6-12.4,18-12.4,29.6c0,2.8,0.4,5.6,0.8,8c0,0.8,0.4,2,0.8,2.8
			c0.4,1.6,0.8,3.2,1.6,4.8c0.4,1.2,0.8,2,1.6,2.8c0.8,1.2,1.2,2.8,2,4c0.8,0.8,1.2,2,2,2.8c0.8,0.8,1.2,1.6,2,2.4
			c0.4,0.4,0.8,1.2,1.6,1.6h-48V94C115.6,95.6,132.8,103.6,145.6,116z M101.2,69.2v12H81.6v-12H101.2z M276.4,209.6
			c-2-2-3.6-5.2-3.6-8.4v-16.8c0-3.2,1.2-6,3.6-8.4c2-2,5.2-3.6,8.4-3.6c3.2,0,6,1.2,8.4,3.6c2,2,3.6,5.2,3.6,8.4v16.8
			c0,3.2-1.2,6-3.6,8.4c-2,2-5.2,3.6-8.4,3.6S278.8,212,276.4,209.6z M319.2,309.2c0,1.6-0.4,2.8-1.6,3.6c-0.8,0.8-2.4,1.6-3.6,1.6
			h-58c-1.6,0-2.8-0.4-3.6-1.6c-0.8-0.8-1.6-2.4-1.6-3.6v-12.8c0-1.6,0.4-2.8,1.6-3.6c0.8-0.8,2.4-1.6,3.6-1.6h57.6
			c1.6,0,2.8,0.8,4,1.6c0.8,0.8,1.6,2.4,1.6,3.6V309.2z"/>
	</g>
</g>
<g>
	<g>
		<circle cx="174" cy="285.2" r="12"/>
	</g>
</g>
<g>
</g>
<g>
</g>
<g>
</g>
<g>
</g>
<g>
</g>
<g>
</g>
<g>
</g>
<g>
</g>
<g>
</g>
<g>
</g>
<g>
</g>
<g>
</g>
<g>
</g>
<g>
</g>
<g>
</g>
</svg>
