<?xml version="1.0" encoding="iso-8859-1"?>
<!-- Generator: Adobe Illustrator 19.0.0, SVG Export Plug-In . SVG Version: 6.00 Build 0)  -->
<svg version="1.1" id="Capa_1" xmlns="http://www.w3.org/2000/svg" xmlns:xlink="http://www.w3.org/1999/xlink" x="0px" y="0px"
	 viewBox="0 0 512 512" style="enable-background:new 0 0 512 512;" xml:space="preserve">
<g>
	<g>
		<g>
			<path d="M511.592,227.915c-0.063-0.201-0.156-0.378-0.232-0.574c-0.295-0.76-0.698-1.474-1.197-2.12
				c-0.126-0.162-0.221-0.332-0.358-0.485c-0.539-0.618-1.163-1.155-1.855-1.594c-0.142-0.087-0.301-0.124-0.446-0.203
				c-0.085-0.046-0.133-0.129-0.221-0.172L114.749,26.5c-2.403-1.2-5.23-1.2-7.633,0L4.716,77.7
				c-0.087,0.044-0.135,0.126-0.221,0.172c-0.145,0.079-0.304,0.115-0.446,0.203c-0.692,0.439-1.316,0.975-1.854,1.593
				c-0.137,0.155-0.235,0.326-0.36,0.489c-0.498,0.644-0.9,1.356-1.194,2.116c-0.077,0.197-0.171,0.375-0.233,0.578
				C0.148,83.652,0.011,84.49,0,85.333V281.6c0,3.232,1.826,6.187,4.717,7.633L397.25,485.5c0.119,0.059,0.254,0.035,0.374,0.088
				c1.075,0.507,2.244,0.782,3.431,0.809l0.012,0.003l0.004-0.001l0.004,0.001l0.011-0.003c1.176-0.029,2.334-0.303,3.399-0.804
				c0.129-0.057,0.271-0.03,0.398-0.094l102.4-51.2c2.89-1.446,4.716-4.401,4.716-7.633V230.4
				C511.989,229.556,511.851,228.718,511.592,227.915z M392.533,464.058L17.067,276.325V99.142l375.467,187.733V464.058z
				 M401.067,272.058L27.617,85.333l83.317-41.658L484.383,230.4L401.067,272.058z M494.933,421.392L409.6,464.058V286.875
				l85.333-42.667V421.392z"/>
			<path d="M30.317,257.908c0.031,0.062,0.1,0.086,0.135,0.146c0.23,0.339,0.509,0.642,0.829,0.898
				c0.236,0.282,0.509,0.532,0.811,0.742c0.054,0.03,0.077,0.094,0.133,0.122l102.4,51.2c1.323,0.663,2.894,0.593,4.152-0.185
				s2.024-2.152,2.022-3.631V187.733c-0.002-1.616-0.914-3.092-2.358-3.817l-102.4-51.2c-1.323-0.663-2.894-0.593-4.153,0.185
				s-2.024,2.152-2.022,3.632V256l0.03,0.107C29.901,256.731,30.044,257.346,30.317,257.908z M132.267,300.3l-88.596-44.298
				l88.596-44.298V300.3z M38.4,143.433l93.867,46.933v11.796L38.4,249.096V143.433z"/>
			<path d="M149.783,317.642c0.031,0.062,0.1,0.086,0.135,0.146c0.5,0.592,1.048,1.14,1.64,1.64c0.054,0.03,0.077,0.094,0.133,0.122
				l102.4,51.2c1.323,0.663,2.894,0.593,4.153-0.185c1.258-0.778,2.024-2.152,2.022-3.632V247.467
				c-0.002-1.616-0.914-3.092-2.358-3.817l-102.4-51.2c-1.323-0.663-2.894-0.593-4.153,0.185s-2.024,2.152-2.022,3.632v119.467
				l0.03,0.107C149.368,316.464,149.511,317.08,149.783,317.642z M251.733,360.033l-88.596-44.298l88.596-44.298V360.033z
				 M157.867,203.167l93.867,46.933v11.796l-93.867,46.933V203.167z"/>
			<path d="M269.25,377.375c0.031,0.062,0.1,0.086,0.135,0.146c0.5,0.592,1.048,1.14,1.64,1.64c0.054,0.03,0.077,0.094,0.133,0.122
				l102.4,51.2c1.323,0.663,2.894,0.593,4.153-0.185c1.258-0.778,2.024-2.152,2.022-3.632V307.2
				c-0.002-1.616-0.914-3.092-2.358-3.817l-102.4-51.2c-1.323-0.663-2.894-0.593-4.153,0.185s-2.024,2.152-2.022,3.632v119.467
				l0.03,0.107C268.834,376.198,268.978,376.813,269.25,377.375z M371.2,419.767l-88.596-44.298l88.596-44.298V419.767z
				 M277.333,262.9l93.867,46.933v11.796l-93.867,46.933V262.9z"/>
		</g>
	</g>
</g>
<g>
</g>
<g>
</g>
<g>
</g>
<g>
</g>
<g>
</g>
<g>
</g>
<g>
</g>
<g>
</g>
<g>
</g>
<g>
</g>
<g>
</g>
<g>
</g>
<g>
</g>
<g>
</g>
<g>
</g>
</svg>
