<?xml version="1.0" encoding="iso-8859-1"?>
<!-- Generator: Adobe Illustrator 19.0.0, SVG Export Plug-In . SVG Version: 6.00 Build 0)  -->
<svg version="1.1" id="Capa_1" xmlns="http://www.w3.org/2000/svg" xmlns:xlink="http://www.w3.org/1999/xlink" x="0px" y="0px"
	 viewBox="0 0 366 366" style="enable-background:new 0 0 366 366;" xml:space="preserve">
<g>
	<g>
		<path d="M145.2,118.6c-1.2-1.2-3.2-2-5.2-2h-2H35.2h-2c-2,0-4,0.8-5.2,2c-1.2,1.2-2,3.2-2,5.2v2v34v2v35.6v2V235v2v35.6v2v34v2
			c0,2,0.8,4,2,5.2c1.2,1.2,3.2,2,5.2,2H140c2,0,4-0.8,5.2-2s2-3.2,2-5.2v-2v-34v-2V237v-2v-35.6v-2v-35.6v-2v-34v-2
			C147.2,121.8,146.4,119.8,145.2,118.6z M134.8,305.4H38.4v-25.6h96.4V305.4z M134.8,267.8H38.4v-25.6h96.4V267.8z M134.8,229.8
			H38.4v-25.6h96.4V229.8z M134.8,191.8H38.4v-25.2h96.4V191.8z M134.8,154.2H38.4v-25.6h96.4V154.2z"/>
	</g>
</g>
<g>
	<g>
		<path d="M170.4,95.8c-2.4-1.6-4.8-2.8-7.6-2.8h-152c-2.8,0-5.6,1.2-7.6,3.2S0,100.6,0,103.8v227.6c0,2.8,1.2,5.6,3.2,7.6
			s4.4,3.2,7.6,3.2h152c2.8,0,5.6-1.2,7.6-3.2s3.2-4.4,3.2-7.6v-228C173.6,100.6,172.4,97.8,170.4,95.8z M160.8,329H12.4V105h148.4
			V329z"/>
	</g>
</g>
<g>
	<g>
		<path d="M365.6,31c0-2-0.8-4-2-5.2s-3.2-2-5.2-2H7.2c-2,0-3.6,0.8-5.2,2C0.8,27,0,29,0,31v38c0,1.6,0.4,3.2,1.6,4.4
			C2,73.8,2,73.8,2.4,74.2c1.2,1.2,3.2,2,5.2,2h351.2c2,0,4-0.8,5.2-2s2-3.2,2-5.2V31H365.6z M83.2,63.8H12.4V36.2h70.8V63.8z
			 M176.8,63.8H95.6V36.2h81.2V63.8z M270,63.8h-81.2V36.2H270V63.8z M353.2,63.8h-70.8V36.2h70.8V63.8z"/>
	</g>
</g>
<g>
	<g>
		<path d="M337.6,118.6c-1.2-1.2-3.2-2-5.2-2h-2H227.6h-2c-2,0-4,0.8-5.2,2c-1.2,1.2-2,3.2-2,5.2v2v34v2v35.6v2V235v2v35.6v2v34v2
			c0,2,0.8,4,2,5.2c1.6,1.2,3.2,2,5.2,2h106.8c2,0,4-0.8,5.2-2s2-3.2,2-5.2v-2v-34v-2V237v-2v-35.6v-2v-35.6v-2v-34v-2
			C339.6,121.8,338.8,119.8,337.6,118.6z M327.2,305.4h-96.4v-25.6h96.4V305.4z M327.2,267.8h-96.4v-25.6h96.4V267.8z M327.2,229.8
			h-96.4v-25.6h96.4V229.8z M327.2,191.8h-96.4v-25.2h96.4V191.8z M327.2,154.2h-96.4v-25.6h96.4V154.2z"/>
	</g>
</g>
<g>
	<g>
		<path d="M362.4,95.8c-2-2-4.4-3.2-7.6-3.2h-152c-2.8,0-5.6,1.2-7.6,3.2s-3.2,4.4-3.2,7.6V331c0,2.8,1.2,5.6,3.2,7.6
			s4.4,3.2,7.6,3.2h152c2.8,0,5.6-1.2,7.6-3.2s3.2-4.4,3.2-7.6V103.4C365.6,100.6,364.4,97.8,362.4,95.8z M353.2,329H204.8V105
			h148.4V329z"/>
	</g>
</g>
<g>
</g>
<g>
</g>
<g>
</g>
<g>
</g>
<g>
</g>
<g>
</g>
<g>
</g>
<g>
</g>
<g>
</g>
<g>
</g>
<g>
</g>
<g>
</g>
<g>
</g>
<g>
</g>
<g>
</g>
</svg>
