<?xml version="1.0" encoding="iso-8859-1"?>
<!-- Generator: Adobe Illustrator 19.0.0, SVG Export Plug-In . SVG Version: 6.00 Build 0)  -->
<svg version="1.1" id="Capa_1" xmlns="http://www.w3.org/2000/svg" xmlns:xlink="http://www.w3.org/1999/xlink" x="0px" y="0px"
	 viewBox="0 0 512.002 512.002" style="enable-background:new 0 0 512.002 512.002;" xml:space="preserve">
<g>
	<g>
		<g>
			<path d="M511.208,96.684c-0.058-0.125-0.117-0.25-0.183-0.375v-0.009c-0.848-1.612-2.188-2.911-3.825-3.708L353.683,15.834
				c-2.403-1.2-5.23-1.2-7.633,0L4.883,186.418c-0.596,0.285-1.158,0.637-1.675,1.05H3.2c-0.418,0.341-0.806,0.717-1.158,1.125
				c-1.313,1.532-2.037,3.483-2.042,5.5v170.708c0.016,3.027,1.641,5.816,4.267,7.323v43.877c0.002,1.616,0.914,3.092,2.358,3.817
				l17.067,8.533c1.201,0.6,2.615,0.6,3.817,0l17.067-8.533c1.444-0.724,2.356-2.201,2.358-3.817v-22.458l93.867,46.933v43.792
				c0.002,1.616,0.914,3.092,2.358,3.817l17.067,8.533c1.201,0.6,2.615,0.6,3.817,0l17.067-8.533
				c1.444-0.725,2.356-2.201,2.358-3.817v-43.792l281.6-140.8v22.458c0.002,1.616,0.914,3.092,2.358,3.817l17.067,8.533
				c1.202,0.6,2.615,0.6,3.817,0l17.067-8.533c1.444-0.725,2.356-2.201,2.358-3.817v-43.877c2.625-1.506,4.251-4.296,4.267-7.323
				V100.443C512.027,99.146,511.756,97.86,511.208,96.684z M349.867,33.009l134.517,67.258l-92.354,46.177L345.6,123.23V57.601
				c0.001-1.479-0.764-2.854-2.022-3.632s-2.83-0.848-4.153-0.185L66.358,190.318c-1.444,0.725-2.356,2.201-2.358,3.817v18.192
				l-36.383-18.192L349.867,33.009z M341.333,130.634l41.155,20.581l-54.464,27.231l-41.154-20.58L341.333,130.634z
				 M277.333,153.097V94.368l25.6-12.8v58.729L277.333,153.097z M311.467,136.03V77.301l25.6-12.8v58.729L311.467,136.03z
				 M268.8,98.634v58.729l-25.6,12.8v-58.729L268.8,98.634z M234.667,115.701v58.729l-25.6,12.8v-58.729L234.667,115.701z
				 M200.533,132.768v58.729l-25.6,12.8v-58.729L200.533,132.768z M166.4,149.834v58.729l-25.6,12.8v-58.729L166.4,149.834z
				 M132.267,166.901v58.729l-20.829,10.415l-4.771-2.385v-53.958L132.267,166.901z M98.133,183.968v45.425l-25.6-12.8v-19.825
				L98.133,183.968z M21.333,417.634l-8.533-4.267v-36.892l8.533,4.267V417.634z M38.4,413.368l-8.533,4.264v-32.622l8.533,4.267
				V413.368z M17.067,359.526V207.943L153.6,276.209v151.583L17.067,359.526z M157.867,485.901l-8.533-4.267v-36.892l8.533,4.267
				V485.901z M162.133,261.393l-41.154-20.577l157.092-78.549c0.388,0.656,0.949,1.192,1.621,1.551l38.793,19.4L162.133,261.393z
				 M174.933,481.634l-8.533,4.264v-36.889l8.533-4.267V481.634z M482.133,323.765l-8.533-4.264v-24.092l8.533-4.267V323.765z
				 M170.667,427.793V276.209l324.267-162.133v151.583L170.667,427.793z M499.2,319.501l-8.533,4.267v-36.892l8.533-4.267V319.501z"
				/>
			<path d="M471.578,147.836c-1.258-0.778-2.83-0.848-4.153-0.185L194.358,284.184c-1.444,0.725-2.356,2.201-2.358,3.817v102.4
				c0,1.479,0.766,2.852,2.024,3.629c1.258,0.777,2.828,0.848,4.151,0.188l273.067-136.533c1.444-0.725,2.356-2.201,2.358-3.817
				v-102.4C473.602,149.988,472.836,148.614,471.578,147.836z M405.333,226.638l20.325,10.163l-20.325,10.162V226.638z
				 M226.133,370.701l-25.6,12.8v-24.596l25.6-12.8V370.701z M226.133,336.563l-25.6,12.8v-58.729l25.6-12.8V336.563z
				 M260.267,353.634l-25.6,12.8v-24.596l25.6-12.8V353.634z M260.267,319.497l-25.6,12.8v-58.729l25.6-12.8V319.497z
				 M294.4,336.568l-25.6,12.8v-24.596l25.6-12.8V336.568z M294.4,302.43l-25.6,12.8v-58.729l25.6-12.8V302.43z M328.533,319.501
				l-25.6,12.8v-24.596l25.6-12.8V319.501z M328.533,285.363l-25.6,12.8v-58.729l25.6-12.8V285.363z M362.667,302.434l-25.6,12.8
				v-24.596l25.6-12.8V302.434z M362.667,268.297l-25.6,12.8v-58.729l25.6-12.8V268.297z M396.8,285.368l-25.6,12.8v-24.596
				l25.6-12.8V285.368z M396.8,251.23l-25.6,12.8v-54.458l25.6,12.8V251.23z M396.8,212.83l-20.329-10.165l20.329-10.165V212.83z
				 M430.933,268.301l-25.6,12.8v-24.596l25.6-12.8V268.301z M430.933,229.897l-25.6-12.8v-28.863l25.6-12.8V229.897z
				 M465.067,251.234l-25.6,12.8v-24.596l25.6-12.8V251.234z M465.067,217.097l-25.6,12.8v-50.192l25.6,12.8V217.097z
				 M465.067,182.963l-24.596-12.298l24.596-12.298V182.963z"/>
		</g>
	</g>
</g>
<g>
</g>
<g>
</g>
<g>
</g>
<g>
</g>
<g>
</g>
<g>
</g>
<g>
</g>
<g>
</g>
<g>
</g>
<g>
</g>
<g>
</g>
<g>
</g>
<g>
</g>
<g>
</g>
<g>
</g>
</svg>
