<?xml version="1.0" encoding="iso-8859-1"?>
<!-- Generator: Adobe Illustrator 19.0.0, SVG Export Plug-In . SVG Version: 6.00 Build 0)  -->
<svg version="1.1" id="Capa_1" xmlns="http://www.w3.org/2000/svg" xmlns:xlink="http://www.w3.org/1999/xlink" x="0px" y="0px"
	 viewBox="0 0 348.82 348.82" style="enable-background:new 0 0 348.82 348.82;" xml:space="preserve">
<g>
	<g>
		<path d="M334.8,75.01c-8.8-8.8-20.4-14-33.6-14c-1.6-11.2-6.4-21.2-14-28.8c-8.8-8.8-21.2-14.4-34.8-14.4H66.8
			c-13.6,0-26,5.6-34.8,14.4c-7.6,7.6-12.4,17.6-14,28.8H6c-3.6,0-6,2.8-6,6c0,3.6,2.8,6,6,6h12c1.6,11.2,6.4,21.2,14,28.8
			c8.8,8.8,21.2,14.4,34.8,14.4h185.6c13.6,0,26-5.6,34.8-14.4c7.6-7.6,12.4-17.6,14-28.8c9.6,0,18.4,4,24.8,10.4
			c6.4,6.4,10.4,15.2,10.4,25.2s-4,18.8-10.4,25.2c-6.4,6.4-15.2,10.4-25.2,10.4H159.2c-0.8,0-1.6,0.4-2,0.8c-0.8,0.4-1.6,0.4-2,0.8
			c-0.4,0.4-0.8,1.6-0.8,2.4c-0.4,0.8-0.8,1.2-0.8,2v34.8h-12.4c-6,0-11.6,2.4-15.6,6.4s-6.4,9.6-6.4,15.6s2.4,11.6,6.4,15.6
			c1.6,1.6,3.2,2.4,5.2,3.6v76c0,8,3.2,15.2,8.4,20.4c5.2,5.2,12.4,8.4,20.4,8.4s15.2-3.2,20.4-8.4s8.4-12.4,8.4-20.4v-76
			c2-1.2,3.6-2,5.2-3.6c4-4,6.4-9.6,6.4-15.6s-2.4-11.6-6.4-15.6s-9.6-6.4-15.6-6.4h-12.4v-28.8h135.2c13.2,0,25.2-5.2,34-14
			c8.8-8.8,14-20.8,14-34C349.2,95.81,343.6,83.81,334.8,75.01z M278.4,93.41c-6.8,6.8-16,10.8-26,10.8H66.8c-10,0-19.6-4-26-10.8
			c-6.8-6.8-10.8-16-10.8-26s4-19.6,10.8-26c6.8-6.8,16-10.8,26-10.8h185.6c10,0,19.6,4,26,10.8c6.8,6.8,10.8,16,10.8,26
			C289.6,77.41,285.2,86.61,278.4,93.41z M171.2,314.61c-2.8,2.8-7.2,4.8-11.6,4.8s-8.4-2-11.6-4.8c-2.8-2.8-4.8-7.2-4.8-11.6v-73.2
			H176v73.2h0C176,307.41,174,311.41,171.2,314.61z M178,198.21c2.8,0,5.2,1.2,6.8,2.8c1.6,1.6,2.8,4,2.8,6.8s-1.2,5.2-2.8,6.8
			c-1.6,1.6-4,2.8-6.8,2.8h-36.8c-2.8,0-5.2-1.2-6.8-2.8c-1.6-1.6-2.8-4-2.8-6.8s1.2-5.2,2.8-6.8c1.6-1.6,4-2.8,6.8-2.8H178z"/>
	</g>
</g>
<g>
</g>
<g>
</g>
<g>
</g>
<g>
</g>
<g>
</g>
<g>
</g>
<g>
</g>
<g>
</g>
<g>
</g>
<g>
</g>
<g>
</g>
<g>
</g>
<g>
</g>
<g>
</g>
<g>
</g>
</svg>
