<?xml version="1.0" encoding="iso-8859-1"?>
<!-- Generator: Adobe Illustrator 19.0.0, SVG Export Plug-In . SVG Version: 6.00 Build 0)  -->
<svg version="1.1" id="Capa_1" xmlns="http://www.w3.org/2000/svg" xmlns:xlink="http://www.w3.org/1999/xlink" x="0px" y="0px"
	 viewBox="0 0 316.8 316.8" style="enable-background:new 0 0 316.8 316.8;" xml:space="preserve">
<g>
	<g>
		<path d="M270.4,46.4C241.6,17.6,202,0,158.4,0c-43.6,0-83.6,17.6-112,46.4C17.6,75.2,0,114.8,0,158.4c0,43.6,17.6,83.6,46.4,112
			c28.4,28.8,68.4,46.4,112,46.4c43.6,0,83.6-17.6,112-46.4c28.8-28.8,46.4-68.4,46.4-112C316.8,114.8,299.2,74.8,270.4,46.4z
			 M261.6,261.6c-26.4,26.4-63.2,42.8-103.2,42.8c-40.4,0-76.8-16.4-103.2-42.8c-26.8-26.4-42.8-62.8-42.8-103.2
			c0-40.4,16-76.8,42.8-103.2c26.4-26.4,63.2-42.8,103.2-42.8c40.4,0,76.8,16.4,103.2,42.8c26.4,26.4,42.8,63.2,42.8,103.2
			S288,235.2,261.6,261.6z"/>
	</g>
</g>
<g>
	<g>
		<path d="M244.8,72c-22-22-52.8-36-86.4-36C124.8,36,94,49.6,72,72c-22,22-36,52.8-36,86.4s13.6,64.4,36,86.4
			c22,22.4,52.8,36,86.4,36c33.6,0,64.4-13.6,86.4-36c22-22,36-52.8,36-86.4C280.8,124.8,267.2,94,244.8,72z M236,236
			c-20,20-47.2,32.4-77.6,32.4c-30.4,0-58-12.4-77.6-32.4c-20-20-32.4-47.2-32.4-77.6c0-30.4,12.4-58,32.4-77.6
			c20-20,47.2-32.4,77.6-32.4s58,12.4,77.6,32.4c20,20,32.4,47.2,32.4,77.6C268.4,188.8,256,216.4,236,236z"/>
	</g>
</g>
<g>
	<g>
		<path d="M202.8,152.4h-27.6c-2-4.8-5.6-8.8-10.4-10.4V82c0-3.6-2.8-6-6-6c-3.6,0-6,2.8-6,6v60c-6.8,2.4-11.6,8.8-11.6,16.8
			c-0.8,9.6,7.2,17.6,17.2,17.6c7.6,0,14-4.8,16.8-12h27.6c3.6,0,6-2.8,6-6S206,152.4,202.8,152.4z"/>
	</g>
</g>
<g>
</g>
<g>
</g>
<g>
</g>
<g>
</g>
<g>
</g>
<g>
</g>
<g>
</g>
<g>
</g>
<g>
</g>
<g>
</g>
<g>
</g>
<g>
</g>
<g>
</g>
<g>
</g>
<g>
</g>
</svg>
