<?xml version="1.0" encoding="iso-8859-1"?>
<!-- Generator: Adobe Illustrator 19.0.0, SVG Export Plug-In . SVG Version: 6.00 Build 0)  -->
<svg version="1.1" id="Capa_1" xmlns="http://www.w3.org/2000/svg" xmlns:xlink="http://www.w3.org/1999/xlink" x="0px" y="0px"
	 viewBox="0 0 403.2 403.2" style="enable-background:new 0 0 403.2 403.2;" xml:space="preserve">
<g>
	<g>
		<path d="M389.2,147.2c-8.8-6.8-18.8-11.6-30-12.8c-4-22-14.8-41.6-30.8-55.6c-17.2-15.2-39.6-24.4-64-24.4H138
			c-24.4,0-46.8,9.2-64,24.4c-16,14.4-27.2,33.6-30.8,55.6c-11.2,1.2-21.6,6-29.2,13.6c-8.8,8.8-14,20.8-14,34
			c0,8.8,2.4,16.8,6.4,24c3.6,6,8.8,11.2,14.4,15.2c-1.6,4.4-2.4,9.2-2.4,14c0,12.4,5.2,24,13.6,32.4c0.8,0.8,1.6,1.6,2.8,2
			c-3.6,0.8-6.8,2.4-9.2,4.8l-0.4,0.4c-4,4-6.4,9.6-6.4,15.6s2.4,11.6,6.4,15.6s9.6,6.4,15.6,6.4h2.8v30.4c0,3.6,2.8,6,6,6h16
			c2.8,0,5.2-1.6,6-4.4l9.6-32H324l9.6,32c0.8,2.8,3.2,4.4,6,4.4h16c3.6,0,6-2.8,6-6v-30.4h2.8c6,0,11.6-2.4,15.6-6.4
			s6.4-9.6,6.4-15.6s-2.4-11.6-6.4-15.6c-2.8-2.8-6-4.4-9.6-5.2c0.8-0.8,2-1.2,2.8-2.4c8.4-8.4,13.6-19.6,13.6-32.4
			c0-5.6-1.2-10.8-2.8-15.6c5.2-4,9.6-8.4,12.8-14c4-7.2,6.4-15.2,6.4-24C403.2,168,398,156,389.2,147.2z M82.4,88
			c14.8-13.2,34.4-21.2,55.6-21.2h126c21.2,0,40.8,8,55.6,21.2c13.6,12,23.2,28,26.8,46.4c-0.4,0-0.8,0.4-1.2,0.4
			c-1.2,0.4-2.4,0.4-3.6,0.8c-1.6,0.4-3.2,0.8-4.8,1.6c-1.2,0.4-2.4,0.8-3.2,1.2c-1.6,0.8-3.2,1.6-4.8,2.4c-0.8,0.4-2,1.2-2.8,1.6
			c-2,1.2-4,2.8-5.6,4.4c-0.4,0.4-0.8,0.4-0.8,0.8c-6.4,6.4-11.2,14.8-13.2,24.4c-0.8,3.2-0.8,6.4-0.8,9.6c0,2.4,0.4,5.2,0.8,7.6H96
			c0.4-2.4,0.8-5.2,0.8-7.6c0-13.2-5.2-25.2-14-34c-0.4-0.4-0.8-0.4-0.8-0.8c-1.6-1.6-3.6-3.2-5.6-4.4c-0.8-0.8-2-1.2-2.8-1.6
			c-1.6-0.8-3.2-1.6-4.8-2.4c-1.2-0.4-2-0.8-3.2-1.2c-1.6-0.8-3.2-1.2-4.8-1.6c-1.2-0.4-2.4-0.8-3.6-0.8c-0.4,0-0.8-0.4-1.2-0.4
			C59.2,116,68.8,100,82.4,88z M16.8,199.6c-2.8-5.2-4.4-11.2-4.4-17.6c0-10,4-18.8,10.4-25.2c6.4-6.4,15.6-10.4,25.2-10.4
			c10,0,18.8,4,25.2,10.4c6.4,6.4,10.4,15.6,10.4,25.2c0,2,0,4-0.4,6c0,0.4-0.4,1.2-0.4,1.6H64h-1.6c-1.2,0-2.4,0.4-4,0.4
			s-3.2,0.4-4.8,0.8c-5.6,1.2-10.8,2.8-15.6,5.6c-5.2,3.2-9.6,7.6-13.2,12.8C21.6,206.4,18.8,203.2,16.8,199.6z M60.8,336.4h-5.2
			v-24H68L60.8,336.4z M349.2,336.4H344l-7.2-24h12.4V336.4z M370.8,284c1.6,1.6,2.8,4,2.8,6.8c0,2.4-1.2,4.8-2.8,6.8
			c-1.6,1.6-4,2.8-6.8,2.8h-8.8H328H76H49.2h-8.8c-2.8,0-4.8-1.2-6.8-2.8c-1.6-1.6-2.8-4-2.8-6.8c0-2.4,1.2-4.8,2.8-6.8l0.4-0.4
			c1.6-1.6,4-2.4,6.4-2.4h24h276H364C366.4,281.2,368.8,282.4,370.8,284z M364,258.8c-6,6-14.4,9.6-23.6,9.6h-276
			c-9.2,0-17.6-3.6-23.6-9.6s-10-14.4-10-23.6s3.6-17.6,10-23.6c4.4-4.4,10.4-7.6,16.8-9.2c0.4,0,0.8,0,1.2,0c2-0.4,3.6-0.4,5.6-0.4
			H88h226.8H340c3.2,0,6.4,0.4,9.2,1.2h0.4c2.8,0.8,5.6,2,8,3.6c5.2,3.2,9.6,8,12.4,13.6c0,0,0,0.4,0.4,0.4c0,0,0.4,0,0.4,0.4
			c2,4.4,3.2,8.8,3.2,13.6C373.6,244.4,370,252.8,364,258.8z M385.2,199.6c-2,3.6-4.8,6.8-7.6,9.2c-1.6-2-3.2-4-4.8-6
			c-5.2-5.2-12-9.2-19.6-11.2c-0.4,0-0.8-0.4-0.8-0.4c-4-1.2-7.6-1.6-12-1.6h-21.2c0-0.4-0.4-1.2-0.4-1.6c-0.4-2-0.4-4-0.4-6
			c0-10,4-18.8,10.4-25.2c3.2-3.2,7.2-6,11.2-7.6h0.4c2-0.8,4-1.6,6.4-2c0.4,0,0.8,0,1.2,0c2-0.4,4-0.8,6-0.8c10,0,18.8,4,25.2,10.4
			c6.4,6.4,10.4,15.6,10.4,25.2C390,188.4,388,194.4,385.2,199.6z"/>
	</g>
</g>
<g>
	<g>
		<path d="M211.2,128.4l4.8-4.8c2.4-2.4,2.4-6.4,0-8.8c-2.4-2.4-6.4-2.4-8.8,0l-4.8,4.8l-5.2-5.2c-2.4-2.4-6.4-2.4-8.8,0
			c-2.4,2.4-2.4,6.4,0,8.8l4.8,4.8l-4.8,4.8c-2.4,2.8-2.4,6.4,0.4,9.2c2.4,2.4,6.4,2.4,8.8,0l4.8-4.8l4.8,4.8c2.4,2.4,6.4,2.4,8.8,0
			c2.4-2.4,2.4-6.4,0-8.8L211.2,128.4z"/>
	</g>
</g>
<g>
	<g>
		<path d="M145.6,128.4l4.8-4.8c2.4-2.4,2.4-6.4,0-8.8c-2.4-2.4-6.4-2.4-8.8,0l-4.8,4.8l-4.8-4.8c-2.4-2.4-6.4-2.4-8.8,0
			c-2.4,2.4-2.4,6.4,0,8.8l4.8,4.8l-4.8,4.8c-2.4,2.4-2.4,6,0,8.8c2.4,2.4,6.4,2.4,8.8,0l4.8-4.8l4.8,4.8c2.4,2.4,6.4,2.4,8.8,0
			c2.4-2.4,2.4-6.4,0-8.8L145.6,128.4z"/>
	</g>
</g>
<g>
	<g>
		<path d="M276.4,128.4l4.8-4.8c2.4-2.4,2.4-6.4,0-8.8c-2.4-2.4-6.4-2.4-8.8,0l-4.8,4.8l-4.8-4.8c-2.4-2.4-6.4-2.4-8.8,0
			c-2.4,2.4-2.4,6.4,0,8.8l4.8,4.8l-4.8,4.8c-2.4,2.4-2.4,6,0,8.8c2.4,2.4,6.4,2.4,8.8,0l4.8-4.8l4.8,4.8c2.4,2.4,6.4,2.4,8.8,0
			c2.4-2.4,2.4-6.4,0-8.8L276.4,128.4z"/>
	</g>
</g>
<g>
</g>
<g>
</g>
<g>
</g>
<g>
</g>
<g>
</g>
<g>
</g>
<g>
</g>
<g>
</g>
<g>
</g>
<g>
</g>
<g>
</g>
<g>
</g>
<g>
</g>
<g>
</g>
<g>
</g>
</svg>
