<?xml version="1.0" encoding="iso-8859-1"?>
<!-- Generator: Adobe Illustrator 19.0.0, SVG Export Plug-In . SVG Version: 6.00 Build 0)  -->
<svg version="1.1" id="Capa_1" xmlns="http://www.w3.org/2000/svg" xmlns:xlink="http://www.w3.org/1999/xlink" x="0px" y="0px"
	 viewBox="0 0 512 512" style="enable-background:new 0 0 512 512;" xml:space="preserve">
<g>
	<g>
		<path d="M426.427,75.608c-0.055-0.612-0.177-1.217-0.363-1.803c-0.219-0.497-0.487-0.972-0.799-1.417
			c-0.257-0.476-0.56-0.925-0.905-1.342c-0.44-0.429-0.926-0.808-1.448-1.13c-0.301-0.274-0.622-0.525-0.961-0.75L285.416,0.9
			c-2.403-1.2-5.23-1.2-7.633,0l-68.267,34.133L90.05,94.767c-2.869,1.458-4.664,4.416-4.631,7.634h-0.085v34.133
			c0,3.232,1.826,6.187,4.717,7.633l44.467,22.233L90.05,188.634c-2.869,1.457-4.664,4.415-4.632,7.633h-0.085V230.4
			c0,3.232,1.826,6.187,4.717,7.633l53,26.5l-53,26.5c-2.869,1.457-4.664,4.415-4.632,7.633h-0.085V332.8
			c0,3.232,1.826,6.187,4.717,7.633l53,26.5l-53,26.5c-0.339,0.226-0.661,0.477-0.963,0.752c-0.522,0.322-1.007,0.701-1.446,1.129
			c-0.64,0.872-1.21,1.794-1.704,2.757c-0.187,0.587-0.309,1.193-0.364,1.807c-0.11,0.39-0.19,0.788-0.24,1.19V435.2
			c0,3.232,1.826,6.187,4.717,7.633L226.583,511.1c2.403,1.2,5.23,1.2,7.633,0l153.6-76.8l34.133-17.067
			c2.891-1.446,4.716-4.401,4.717-7.633V76.8C426.617,76.397,426.537,75.999,426.427,75.608z M102.4,131.259v-19.821l123.733,61.867
			v19.821L102.4,131.259z M102.4,225.125v-19.821l123.733,61.867v19.821L102.4,225.125z M102.4,327.525v-19.821l123.733,61.867
			v19.821L102.4,327.525z M226.134,491.792L102.4,429.925v-19.821l123.733,61.867V491.792z M379.734,419.259l-145.067,72.533
			v-19.821l145.067-72.533V419.259z M379.734,389.896L230.4,464.567l-122.221-61.115l53.955-26.977l64.45,32.225
			c2.403,1.2,5.23,1.2,7.633,0l145.517-72.758V389.896z M379.734,316.859l-145.067,72.533v-19.821l145.067-72.533V316.859z
			 M379.734,287.496L230.4,362.167l-122.221-61.115l53.955-26.977l64.45,32.225c2.403,1.2,5.23,1.2,7.633,0l145.517-72.758V287.496z
			 M379.734,214.459l-145.067,72.533v-19.821l145.067-72.533V214.459z M379.734,185.096L230.4,259.767l-122.221-61.115
			l40.705-20.352c1.344-0.715,2.466-1.786,3.242-3.096l74.458,37.229c2.403,1.2,5.23,1.2,7.633,0l145.517-72.758V185.096z
			 M379.734,120.592l-145.067,72.533v-19.821l145.067-72.533V120.592z M382.092,90.05L230.4,165.9l-122.221-61.115L217.15,50.3
			l64.45-32.225l122.221,61.11L382.092,90.05z M409.6,404.325l-21.333,10.667V96.5L409.6,85.836V404.325z"/>
	</g>
</g>
<g>
</g>
<g>
</g>
<g>
</g>
<g>
</g>
<g>
</g>
<g>
</g>
<g>
</g>
<g>
</g>
<g>
</g>
<g>
</g>
<g>
</g>
<g>
</g>
<g>
</g>
<g>
</g>
<g>
</g>
</svg>
