<?xml version="1.0" encoding="iso-8859-1"?>
<!-- Generator: Adobe Illustrator 19.0.0, SVG Export Plug-In . SVG Version: 6.00 Build 0)  -->
<svg version="1.1" id="Capa_1" xmlns="http://www.w3.org/2000/svg" xmlns:xlink="http://www.w3.org/1999/xlink" x="0px" y="0px"
	 viewBox="0 0 512.242 512.242" style="enable-background:new 0 0 512.242 512.242;" xml:space="preserve">
<g transform="translate(0 -1)">
	<g>
		<g>
			<path d="M422.071,96.008l-32.108-16.05l-18.192-27.292c-19.636-29.363-57.383-40.604-89.883-26.767L234.367,1.917
				c-0.086-0.044-0.18-0.033-0.267-0.073c-0.54-0.209-1.099-0.363-1.67-0.458c-0.531-0.162-1.076-0.272-1.628-0.328
				C230.703,1.053,230.621,1,230.521,1c-0.422,0.051-0.839,0.135-1.248,0.252c-0.581,0.055-1.155,0.171-1.712,0.345
				c-0.528,0.227-1.031,0.509-1.501,0.841c-0.446,0.244-0.868,0.528-1.261,0.849c-0.448,0.452-0.843,0.953-1.178,1.494
				c-0.26,0.286-0.5,0.59-0.717,0.91c-0.042,0.083-0.032,0.175-0.071,0.259c-0.21,0.54-0.364,1.099-0.459,1.67
				c-0.163,0.533-0.274,1.081-0.33,1.635c-0.004,0.097-0.056,0.179-0.056,0.277v114.433L90.171,189.875
				c-0.343,0.227-0.669,0.481-0.973,0.759c-0.517,0.32-0.998,0.695-1.434,1.119c-0.641,0.873-1.211,1.795-1.706,2.758
				c-0.188,0.588-0.311,1.195-0.366,1.81c-0.109,0.389-0.189,0.786-0.239,1.187v93.867c0.05,0.401,0.13,0.797,0.24,1.186
				c0.055,0.615,0.178,1.223,0.366,1.811c0.495,0.963,1.065,1.885,1.706,2.758c0.435,0.423,0.915,0.797,1.431,1.117
				c0.184,0.129,0.329,0.294,0.525,0.41v116.452c0,1.616,0.913,3.094,2.358,3.817l17.067,8.533c0.593,0.296,1.246,0.45,1.908,0.45
				l0.002-0.001l0.002,0.001c0.661,0.001,1.313-0.153,1.904-0.45l17.067-8.533c1.445-0.723,2.358-2.201,2.358-3.817v-94.992l128,64
				v116.325c0,1.616,0.913,3.094,2.358,3.817l17.067,8.533l0.117,0.028c1.128,0.563,2.455,0.563,3.582,0l0.117-0.028l17.067-8.533
				c1.445-0.723,2.358-2.201,2.358-3.817V384.117l76.8-38.4v94.992c0,1.616,0.913,3.094,2.358,3.817l17.067,8.533
				c0.591,0.297,1.243,0.451,1.904,0.45l0.002,0l0.002,0c0.662,0,1.316-0.154,1.908-0.45l17.067-8.533
				c1.444-0.725,2.356-2.201,2.358-3.817v-116.41c2.625-1.507,4.251-4.296,4.267-7.323V103.642
				C426.787,100.41,424.961,97.455,422.071,96.008z M239.054,126.367V23.397l38.825,19.594c2.41,1.209,5.248,1.216,7.662,0.017
				c25.401-12.665,56.256-4.472,72.029,19.125l19.45,29.175c0.825,1.235,1.956,2.234,3.283,2.9l29.417,14.708v105.154l-13.099-6.549
				c0.188-0.471,0.289-0.973,0.299-1.48v-93.867c0-1.616-0.913-3.094-2.358-3.817L361.442,91.8l-12.337-18.508
				c-12.857-19.208-37.655-26.402-58.796-17.058l-32.279-16.142c-1.323-0.663-2.894-0.593-4.153,0.185s-2.024,2.152-2.022,3.632
				v91.229l-12.818-6.409c-0.066-0.337-0.152-0.67-0.257-0.997C238.91,127.285,239.002,126.829,239.054,126.367z M301.091,140.888
				c-1.052-2.104-3.609-2.96-5.716-1.913l-16.317,8.158c-0.476,0.245-0.901,0.577-1.253,0.98l-17.716-8.858
				c0.188-0.472,0.289-0.973,0.299-1.481v-22.963l17.221-8.612c2.102-1.057,2.951-3.616,1.899-5.721
				c-1.052-2.104-3.609-2.96-5.716-1.913l-13.404,6.704V50.808l27.958,13.983c1.201,0.6,2.615,0.6,3.817,0
				c17.577-8.757,38.923-3.09,49.842,13.233l12.967,19.45c0.413,0.617,0.979,1.116,1.642,1.45l9.434,4.716l-44.572,22.284
				c-1.771,0.885-2.701,2.872-2.245,4.799c0.456,1.927,2.177,3.287,4.157,3.284c0.661,0.001,1.314-0.153,1.904-0.45l50.298-25.147
				l12.797,6.397v88.596l-101.394-50.697l12.198-6.099C301.294,145.552,302.143,142.993,301.091,140.888z M106.788,416.742
				l-8.533-4.267V303.05l8.533,4.267V416.742z M123.854,316.975v95.5l-8.533,4.264V311.583l8.74,4.37
				C123.949,316.284,123.879,316.627,123.854,316.975z M183.588,248.708v77.925L102.521,286.1v-79.554l81.365,40.681
				C183.698,247.698,183.597,248.2,183.588,248.708z M277.454,502.075l-8.533-4.267V388.383l8.533,4.267V502.075z M277.454,373.567
				L192.121,330.9v-79.556l85.333,42.665V373.567z M281.721,286.604L108.3,199.894l126.037-63.019
				c0.26-0.179,0.509-0.373,0.745-0.582l173.63,86.815L281.721,286.604z M294.521,497.808l-8.533,4.267V392.65l8.533-4.267V497.808z
				 M396.921,442.339l-8.533-4.264v-95.5c-0.025-0.348-0.094-0.691-0.206-1.022l8.74-4.37V442.339z M285.988,373.567v-79.554
				l123.733-61.867V311.7L285.988,373.567z M413.988,438.075l-8.533,4.267V332.917l8.533-4.267V438.075z"/>
			<polygon points="240.962,313.158 240.962,313.158 240.963,313.158 			"/>
			<path d="M220.079,312.258l17.067,8.533c0.591,0.297,1.243,0.451,1.904,0.45c1.98,0.003,3.702-1.358,4.157-3.284
				c0.456-1.927-0.474-3.914-2.245-4.799l-17.067-8.533c-2.107-1.047-4.664-0.191-5.716,1.913
				C217.128,308.642,217.977,311.201,220.079,312.258z"/>
			<path d="M134.746,269.592l17.067,8.533c0.591,0.297,1.243,0.451,1.904,0.45c1.98,0.003,3.702-1.358,4.157-3.284
				c0.456-1.927-0.474-3.914-2.245-4.799l0,0l-17.067-8.533c-1.364-0.686-2.991-0.591-4.266,0.249
				c-1.275,0.84-2.004,2.298-1.911,3.822C132.478,267.554,133.378,268.912,134.746,269.592z"/>
			<path d="M328.195,76.138c-1.052-2.104-3.609-2.96-5.716-1.913l-26.104,13.05c-1.771,0.885-2.701,2.872-2.245,4.799
				c0.456,1.927,2.177,3.287,4.157,3.284v0c0.661,0.001,1.313-0.153,1.904-0.45l26.104-13.05
				C328.398,80.801,329.247,78.242,328.195,76.138z"/>
			<path d="M322.479,99.825L322.479,99.825l-17.067,8.533c-1.771,0.885-2.701,2.872-2.245,4.799
				c0.456,1.927,2.177,3.287,4.157,3.284c0.661,0.001,1.313-0.153,1.904-0.45l17.067-8.533c2.102-1.057,2.951-3.616,1.899-5.721
				S324.586,98.778,322.479,99.825z"/>
			<path d="M288.346,116.892l-17.067,8.533c-1.771,0.885-2.701,2.872-2.245,4.799c0.456,1.927,2.177,3.287,4.157,3.284
				c0.661,0.001,1.313-0.153,1.904-0.45l17.067-8.533c2.102-1.057,2.951-3.616,1.899-5.721
				C293.01,116.7,290.453,115.845,288.346,116.892z"/>
		</g>
	</g>
</g>
<g>
</g>
<g>
</g>
<g>
</g>
<g>
</g>
<g>
</g>
<g>
</g>
<g>
</g>
<g>
</g>
<g>
</g>
<g>
</g>
<g>
</g>
<g>
</g>
<g>
</g>
<g>
</g>
<g>
</g>
</svg>
