<?xml version="1.0" encoding="iso-8859-1"?>
<!-- Generator: Adobe Illustrator 19.0.0, SVG Export Plug-In . SVG Version: 6.00 Build 0)  -->
<svg version="1.1" id="Capa_1" xmlns="http://www.w3.org/2000/svg" xmlns:xlink="http://www.w3.org/1999/xlink" x="0px" y="0px"
	 viewBox="0 0 512 512" style="enable-background:new 0 0 512 512;" xml:space="preserve">
<g>
	<g>
		<g>
			<path d="M347.95,357.87l34.142,17.067c1.323,0.663,2.894,0.593,4.153-0.185s2.024-2.152,2.022-3.632v-25.6
				c0-1.616-0.913-3.094-2.358-3.817l-34.133-17.067c-1.323-0.663-2.894-0.593-4.153,0.185s-2.024,2.152-2.022,3.632l-0.009,25.6
				C345.592,355.67,346.505,357.147,347.95,357.87z M354.129,335.354l25.604,12.8l0,16.067l-25.609-12.8L354.129,335.354z"/>
			<path d="M385.908,401.437l-34.133-17.067c-1.323-0.663-2.894-0.593-4.153,0.185s-2.024,2.152-2.022,3.632v25.6
				c0,1.616,0.913,3.094,2.358,3.817l34.133,17.067c1.323,0.663,2.894,0.593,4.153-0.185s2.024-2.152,2.022-3.632v-25.6
				C388.266,403.638,387.354,402.16,385.908,401.437z M379.733,423.954l-25.6-12.8v-16.067l25.6,12.8V423.954z"/>
			<path d="M507.283,155.487L259.817,31.754c-0.182-0.091-0.379-0.076-0.563-0.152c-2.094-0.785-4.401-0.786-6.496-0.003
				c-0.188,0.078-0.389,0.063-0.573,0.155L4.717,155.487C1.826,156.933,0,159.888,0,163.12v265.142c0,3.232,1.826,6.187,4.717,7.633
				l88.379,44.192c2.645,1.322,5.787,1.181,8.303-0.374s4.047-4.302,4.047-7.259v-56.899l58.358,29.183
				c2.645,1.322,5.787,1.181,8.303-0.374c2.516-1.555,4.047-4.302,4.047-7.259v-86.371l79.892-40.905l62.125,31.059v87.375
				c0,3.232,1.826,6.187,4.717,7.633l88.383,44.192c0.126,0.062,0.265,0.037,0.393,0.093c1.067,0.501,2.226,0.776,3.405,0.805
				l0.011,0.003l0.004,0l0.004,0l0.011-0.003c1.189-0.027,2.359-0.303,3.434-0.81c0.119-0.053,0.254-0.029,0.371-0.087
				l88.379-44.192c2.89-1.447,4.716-4.401,4.716-7.633V163.12C512,159.888,510.174,156.933,507.283,155.487z M410.821,126.339
				v104.65l-79.846-39.923l-0.004-104.652L410.821,126.339z M260.267,51.062l62.171,31.086l0.004,104.652l-62.174-31.087V51.062z
				 M189.563,82.147l62.171-31.086v104.65l-62.174,31.087L189.563,82.147z M101.179,126.339l79.849-39.925l-0.004,104.652
				l-79.846,39.923V126.339z M17.067,168.395l75.579-37.79v104.65l-75.579,37.79V168.395z M88.379,458.646l-71.313-35.659V300.663
				l71.313,35.658V458.646z M159.087,423.295l-53.642-26.824V336.32l53.642-26.82V423.295z M251.733,292.865l-75.579,38.704
				l0-30.601l75.579-37.789V292.865z M318.171,321.804l-57.904-28.951v-29.675l57.904,28.951V321.804z M406.554,458.646
				l-71.317-35.658V300.663l71.317,35.657V458.646z M415.088,321.504L259.817,243.87c-2.403-1.2-5.23-1.2-7.633,0L96.913,321.504
				l-69.3-34.65L256,172.662l228.388,114.192L415.088,321.504z M494.933,422.987l-71.312,35.658V336.32l71.312-35.657V422.987z
				 M494.933,273.045l-75.579-37.79v-104.65l75.579,37.79V273.045z"/>
		</g>
	</g>
</g>
<g>
</g>
<g>
</g>
<g>
</g>
<g>
</g>
<g>
</g>
<g>
</g>
<g>
</g>
<g>
</g>
<g>
</g>
<g>
</g>
<g>
</g>
<g>
</g>
<g>
</g>
<g>
</g>
<g>
</g>
</svg>
