<?xml version="1.0" encoding="iso-8859-1"?>
<!-- Generator: Adobe Illustrator 19.0.0, SVG Export Plug-In . SVG Version: 6.00 Build 0)  -->
<svg version="1.1" id="Capa_1" xmlns="http://www.w3.org/2000/svg" xmlns:xlink="http://www.w3.org/1999/xlink" x="0px" y="0px"
	 viewBox="0 0 511.839 511.839" style="enable-background:new 0 0 511.839 511.839;" xml:space="preserve">
<g>
	<g>
		<g>
			<path d="M223.695,252.022l-68.267-34.133c-2.107-1.047-4.664-0.192-5.716,1.913c-1.052,2.104-0.203,4.663,1.899,5.72l0,0
				l68.267,34.133c0.591,0.297,1.243,0.451,1.904,0.45c1.98,0.003,3.702-1.357,4.157-3.284
				C226.395,254.895,225.466,252.907,223.695,252.022z"/>
			<path d="M400.986,68.106c0-3.232-1.826-6.187-4.717-7.633L276.803,0.739c-0.188-0.093-0.391-0.078-0.582-0.157
				c-2.086-0.776-4.381-0.776-6.467-0.001c-0.192,0.079-0.396,0.064-0.584,0.157l-19.983,9.992
				c-5.218,2.618-9.675,6.535-12.942,11.374c-0.504,0.379-0.917,0.866-1.208,1.426c-0.116,0.29-0.198,0.592-0.244,0.9
				c-2.925,5.129-4.466,10.93-4.472,16.834v98.367l-100.6,50.3c-11.595,5.749-18.913,17.591-18.867,30.533v18.308
				c0,3.232,1.826,6.187,4.717,7.633l114.75,57.375v41.94c-45.954,9.907-77.247,34.875-80.705,64.327h-0.361v27.433
				c0,41.7,54.35,74.359,123.733,74.359s123.733-32.658,123.733-74.358v-21.95h-4.793l0.003-0.033h4.79
				c0-31.791-32.3-59.264-81.067-69.777V273.41l33.125,16.563l-9.433,4.717c-1.771,0.885-2.701,2.872-2.245,4.799
				c0.456,1.927,2.177,3.287,4.157,3.284c0.661,0.001,1.313-0.153,1.904-0.45l17.067-8.533c1.445-0.723,2.358-2.201,2.358-3.817
				c0-1.616-0.913-3.094-2.358-3.817l-38.796-19.398l74.837-37.419c2.891-1.446,4.716-4.401,4.717-7.633v-34.133l-0.021-0.103
				L400.986,68.106z M256.82,25.997l16.166-8.083L378.14,70.491l-7.579,3.79c-3.704,1.847-6.985,4.442-9.635,7.621
				c-0.212-0.207-0.446-0.39-0.698-0.546L253.739,28.111C254.686,27.296,255.719,26.587,256.82,25.997z M247.386,41.264
				c0.041-2.111,0.476-4.195,1.283-6.146l107.742,53.871l0.13,0.031c-1.645,3.779-2.492,7.856-2.488,11.977v96.742l-106.667-53.338
				V41.264z M127.92,233.497v-13.033c-0.024-6.471,3.635-12.393,9.433-15.267l105.317-52.658c0.26-0.179,0.508-0.373,0.745-0.582
				l105.361,52.681l-97.69,48.826c-10.151,5.034-16.555,15.403-16.513,26.733l0.005,6.629L127.92,233.497z M272.986,494.772
				c-55.439,0-102.502-24.132-106.296-53.494c19.81,22.671,59.969,38.253,106.296,38.253s86.486-15.581,106.296-38.253
				C375.489,470.64,328.425,494.772,272.986,494.772z M379.653,415.498h3.714l-0.003,0.033h-3.71v10.624
				c-13.171,25.835-55.948,44.843-106.667,44.843c-50.719,0-93.495-19.008-106.667-44.843v-10.657c0-22.44,25.864-43.158,64-52.295
				v49.22c0,3.232,1.826,6.187,4.717,7.633l22.625,11.308c9.603,4.885,20.959,4.901,30.575,0.042l22.7-11.35
				c2.891-1.446,4.716-4.401,4.717-7.634v-49.22C353.789,372.339,379.653,393.058,379.653,415.498z M247.386,407.147V303.781
				l21.333-10.667v124.275c-1.159-0.292-2.283-0.711-3.35-1.25L247.386,407.147z M277.253,417.358V288.847l21.333-10.667v128.967
				l-17.983,8.992C279.531,416.659,278.409,417.068,277.253,417.358z M383.92,216.431l-140.808,70.404l-0.005-6.637
				c-0.032-8.095,4.543-15.503,11.796-19.1l105.325-52.642c0.071-0.035,0.112-0.102,0.18-0.14c0.048-0.027,0.107-0.015,0.154-0.043
				c0.12-0.075,0.172-0.212,0.283-0.297c0.387-0.285,0.722-0.636,0.988-1.036c0.108-0.163,0.204-0.333,0.287-0.509
				c0.216-0.461,0.345-0.958,0.382-1.466c0.009-0.114,0.084-0.209,0.084-0.324V100.997c-0.029-8.089,4.544-15.491,11.792-19.083
				l9.541-4.77l-0.02,110.42l0.021,0.103V216.431z"/>
		</g>
	</g>
</g>
<g>
</g>
<g>
</g>
<g>
</g>
<g>
</g>
<g>
</g>
<g>
</g>
<g>
</g>
<g>
</g>
<g>
</g>
<g>
</g>
<g>
</g>
<g>
</g>
<g>
</g>
<g>
</g>
<g>
</g>
</svg>
