<?xml version="1.0" encoding="iso-8859-1"?>
<!-- Generator: Adobe Illustrator 19.0.0, SVG Export Plug-In . SVG Version: 6.00 Build 0)  -->
<svg version="1.1" id="Capa_1" xmlns="http://www.w3.org/2000/svg" xmlns:xlink="http://www.w3.org/1999/xlink" x="0px" y="0px"
	 viewBox="0 0 512 512" style="enable-background:new 0 0 512 512;" xml:space="preserve">
<g>
	<g>
		<path d="M256,0C155.612,0,76.146,44.343,68.973,102.4h-0.706v42.667c0,53.494,61.045,96.924,145.067,108.068v92.747
			c-45.954,9.907-77.247,34.875-80.705,64.327h-0.361v27.433c0,41.7,54.35,74.359,123.733,74.359s123.733-32.658,123.733-74.358
			v-21.95h-4.793l0.003-0.033h4.79c0-31.791-32.3-59.264-81.067-69.777v-92.747c84.022-11.144,145.067-54.575,145.067-108.068
			v-34.133C443.733,48.725,361.271,0,256,0z M256,494.933c-55.439,0-102.502-24.132-106.296-53.494
			c19.81,22.671,59.969,38.253,106.296,38.253s86.486-15.581,106.296-38.253C358.502,470.802,311.439,494.933,256,494.933z
			 M362.667,415.659h3.714l-0.003,0.033h-3.71v10.624c-13.171,25.835-55.948,44.843-106.667,44.843
			c-50.719,0-93.495-19.008-106.667-44.843v-10.657c0-22.44,25.864-43.158,64-52.295v57.795c0,3.232,1.826,6.187,4.717,7.633
			l22.687,11.342c9.616,4.778,20.914,4.778,30.529,0l22.683-11.342c2.891-1.446,4.716-4.401,4.717-7.634v-57.795
			C336.803,372.5,362.667,393.219,362.667,415.659z M230.4,415.883V256h21.333v170.076c-1.162-0.283-2.29-0.689-3.367-1.209
			L230.4,415.883z M260.267,426.078V256H281.6v159.883l-17.963,8.983C262.56,425.389,261.43,425.796,260.267,426.078z M256,238.933
			c-90.694,0-164.882-39.142-170.155-88.31C112.998,189.825,178.973,217.6,256,217.6s143.002-27.776,170.155-66.977
			C420.882,199.791,346.694,238.933,256,238.933z M426.667,132.222C409.27,176.119,339.415,209.067,256,209.067
			s-153.27-32.948-170.667-76.845v-21.289c0-51.758,76.563-93.867,170.667-93.867s170.667,42.108,170.667,93.867V132.222z"/>
	</g>
</g>
<g>
</g>
<g>
</g>
<g>
</g>
<g>
</g>
<g>
</g>
<g>
</g>
<g>
</g>
<g>
</g>
<g>
</g>
<g>
</g>
<g>
</g>
<g>
</g>
<g>
</g>
<g>
</g>
<g>
</g>
</svg>
