<?xml version="1.0" encoding="iso-8859-1"?>
<!-- Generator: Adobe Illustrator 19.0.0, SVG Export Plug-In . SVG Version: 6.00 Build 0)  -->
<svg version="1.1" id="Capa_1" xmlns="http://www.w3.org/2000/svg" xmlns:xlink="http://www.w3.org/1999/xlink" x="0px" y="0px"
	 viewBox="0 0 511.999 511.999" style="enable-background:new 0 0 511.999 511.999;" xml:space="preserve">
<g>
	<g>
		<g>
			<path d="M463.237,102.632L260.608,0.907c-2.402-1.207-5.233-1.21-7.637-0.009L48.879,102.649
				c-15.617,7.714-25.478,23.648-25.412,41.067v247.692c0,3.232,1.826,6.187,4.717,7.633l56,28.017
				c0.284,0.117,0.575,0.218,0.87,0.303c0.718,0.318,1.492,0.489,2.277,0.503c0.229,0.019,0.448,0.093,0.678,0.093l0.116-0.028
				c1.166-0.028,2.313-0.299,3.368-0.796c0.105-0.047,0.22-0.025,0.324-0.077l56-28.017c2.89-1.446,4.716-4.401,4.717-7.633v-42.221
				l38.933,19.48v106.783c0,3.232,1.826,6.187,4.717,7.633l56,28.017c2.403,1.2,5.23,1.2,7.633,0l56-28.017
				c2.891-1.446,4.716-4.401,4.717-7.633V368.666l38.933-19.48v42.222c0,3.232,1.826,6.187,4.717,7.633l56,28.017
				c0.105,0.052,0.219,0.029,0.324,0.077c1.055,0.496,2.202,0.767,3.368,0.796l0.116,0.028c0.23,0,0.448-0.075,0.677-0.093
				c0.462-0.025,0.922-0.088,1.373-0.188c0.592-0.206,1.183-0.412,1.775-0.619l56-28.017c2.891-1.446,4.716-4.401,4.717-7.633
				V143.641C488.594,126.271,478.787,110.372,463.237,102.632z M135.466,344.716v41.417l-38.933,19.479v-84.446l39.811,19.92
				C135.782,342.214,135.482,343.455,135.466,344.716z M251.733,491.789l-43.2-21.615V363.391c0-3.232-1.826-6.187-4.717-7.634
				l-112-56.034c-2.646-1.321-5.786-1.179-8.302,0.376c-2.515,1.555-4.047,4.3-4.048,7.257v98.258l-38.933-19.483V227.786
				l211.2,105.663V491.789z M251.733,260.407v53.957l-211.2-105.665v-64.983v0c-0.042-10.941,6.15-20.952,15.958-25.8
				l200.275-99.842l198.813,99.808h0.004c4.251,2.146,7.902,5.315,10.623,9.223l-191.478,96.077
				C260.595,230.194,251.677,244.63,251.733,260.407z M415.466,405.612l-38.933-19.479v-45.486l38.933-19.48V405.612z
				 M471.466,386.132l-38.933,19.483v-98.258c-0.001-2.957-1.533-5.703-4.048-7.257c-2.515-1.555-5.656-1.697-8.302-0.376
				l-112,56.033c-2.89,1.446-4.716,4.401-4.717,7.633v106.783l-43.2,21.615v-158.34l211.2-105.663V386.132z M471.466,208.699
				l-211.2,105.665v-53.957c-0.047-12.543,7.045-24.021,18.283-29.592l191.476-96.074c0.942,2.873,1.428,5.875,1.441,8.899V208.699z
				"/>
			<path d="M229.908,219.499L80.575,144.791c-1.364-0.686-2.991-0.591-4.266,0.249c-1.275,0.84-2.004,2.298-1.911,3.822
				c0.093,1.524,0.993,2.883,2.36,3.562l0,0l149.333,74.708c0.591,0.297,1.243,0.451,1.904,0.45c1.98,0.002,3.702-1.358,4.157-3.284
				C232.609,222.371,231.679,220.384,229.908,219.499z"/>
		</g>
	</g>
</g>
<g>
</g>
<g>
</g>
<g>
</g>
<g>
</g>
<g>
</g>
<g>
</g>
<g>
</g>
<g>
</g>
<g>
</g>
<g>
</g>
<g>
</g>
<g>
</g>
<g>
</g>
<g>
</g>
<g>
</g>
</svg>
