<?xml version="1.0" encoding="iso-8859-1"?>
<!-- Generator: Adobe Illustrator 19.0.0, SVG Export Plug-In . SVG Version: 6.00 Build 0)  -->
<svg version="1.1" id="Capa_1" xmlns="http://www.w3.org/2000/svg" xmlns:xlink="http://www.w3.org/1999/xlink" x="0px" y="0px"
	 viewBox="0 0 512.037 512.037" style="enable-background:new 0 0 512.037 512.037;" xml:space="preserve">
<g>
	<g>
		<path d="M473.54,203.083c-1.761-2.804-3.854-5.385-6.233-7.687V36.133c-0.005-9.643-5.399-18.475-13.975-22.883l-16.733-8.496
			c-7.22-3.584-15.701-3.579-22.917,0.013l-40.477,20.079C335.671,7.836,294.833-0.637,253.631,0.037
			c-41.134-0.669-81.906,7.776-119.39,24.727L93.923,4.741c-7.243-3.591-15.756-3.554-22.967,0.1l-16.642,8.446
			c-8.62,4.338-14.047,13.175-14.017,22.825V200.56c-0.569,0.786-1.192,1.537-1.7,2.36c-4.455,6.842-6.829,14.831-6.833,22.996
			v260.521c-0.001,3.232,1.825,6.188,4.717,7.633l34.133,17.067c2.403,1.2,5.23,1.2,7.633,0l34.133-17.067
			c2.891-1.446,4.717-4.401,4.717-7.633V249.554c0.001-3.252,1.854-6.22,4.775-7.65l17.024-8.549
			c36.239,15.498,75.325,23.225,114.734,22.683c40.353,0.607,80.361-7.513,117.285-23.803l19.273,9.678
			c2.912,1.432,4.755,4.397,4.75,7.642v236.883c-0.001,3.232,1.825,6.188,4.717,7.633l34.125,17.062
			c2.405,1.204,5.236,1.206,7.642,0.004l34.133-17.067c2.891-1.445,4.718-4.401,4.717-7.633V225.916
			C480.283,217.814,477.944,209.883,473.54,203.083z M414.161,52.897l36.078-16.665v148.271l-16.292-8.148
			c4.802-9.722,7.338-20.407,7.417-31.251v-34.133C440.636,88.703,430.802,67.71,414.161,52.897z M421.24,20.066
			c2.432-1.208,5.287-1.225,7.733-0.046l16.55,8.4c0.186,0.098,0.325,0.245,0.502,0.353l-38.683,17.868
			c-5.099-4.254-10.481-8.159-16.106-11.689L421.24,20.066z M137.228,42.518l0.034-0.017
			c36.289-17.393,76.133-26.088,116.369-25.396c94.108,0,170.667,42.108,170.667,93.867v21.29
			c-17.397,43.898-87.252,76.843-170.667,76.843s-153.27-32.945-170.667-76.843v-21.29C82.964,83.965,103.927,59.659,137.228,42.518
			z M62.031,28.504l16.65-8.446c2.403-1.213,5.236-1.225,7.65-0.033l29.85,14.827c-5.635,3.529-11.025,7.435-16.134,11.69
			l-38.427-17.75C61.765,28.706,61.878,28.582,62.031,28.504z M57.364,36.232L93.21,52.789
			c-14.307,13.003-23.702,30.534-26.606,49.648h-0.706v42.667c0.047,11.575,2.878,22.969,8.254,33.22l-16.788,8.396V36.232z
			 M70.164,243v248.829l-21.333-10.667V225.916c0.008-3.741,0.856-7.432,2.483-10.8l22.636,11.318
			C71.466,231.604,70.173,237.265,70.164,243z M56.32,208.077c1.912-2.059,4.162-3.776,6.653-5.077l20.658-10.332
			c3.808,4.868,8.018,9.408,12.586,13.572l-4.827,2.414c-5.02,2.515-9.428,6.1-12.913,10.502L56.32,208.077z M114.231,226.646
			c-8.716,4.302-14.224,13.189-14.2,22.908v231.608l-21.333,10.667V243c-0.003-5.773,1.673-11.421,4.824-16.258
			c0.048-0.082,0.141-0.114,0.184-0.2l0.025-0.092c2.873-4.331,6.829-7.834,11.475-10.162l8.188-4.094
			c5.285,4.209,10.843,8.064,16.638,11.538L114.231,226.646z M253.631,238.971c-38.153,0.55-75.973-7.173-110.855-22.64h0
			c-0.424-0.262-0.871-0.485-1.334-0.667c-33.369-16.07-55.19-39.125-57.965-65.002c27.152,39.201,93.125,66.976,170.154,66.976
			s143.002-27.775,170.154-66.976C418.512,199.829,344.329,238.971,253.631,238.971z M433.34,491.829l-21.333-10.667V249.554
			c0.027-9.711-5.471-18.593-14.175-22.9h0l-8.521-4.278c5.722-3.512,11.201-7.403,16.402-11.648l11.119,5.559
			c4.646,2.327,8.602,5.83,11.475,10.16l0.025,0.094c0.044,0.089,0.141,0.122,0.19,0.206c3.148,4.836,4.822,10.482,4.819,16.253
			V491.829z M433.562,219.155c-3.485-4.403-7.894-7.987-12.914-10.501l0,0l-7.993-3.996c4.497-4.205,8.627-8.786,12.345-13.694
			L449.064,203c2.489,1.302,4.737,3.02,6.646,5.081L433.562,219.155z M463.206,481.162l-21.333,10.667V243
			c-0.008-5.735-1.302-11.396-3.785-16.566l22.643-11.321c1.623,3.371,2.469,7.063,2.476,10.804V481.162z"/>
	</g>
</g>
<g>
</g>
<g>
</g>
<g>
</g>
<g>
</g>
<g>
</g>
<g>
</g>
<g>
</g>
<g>
</g>
<g>
</g>
<g>
</g>
<g>
</g>
<g>
</g>
<g>
</g>
<g>
</g>
<g>
</g>
</svg>
