<?xml version="1.0" encoding="iso-8859-1"?>
<!-- Generator: Adobe Illustrator 19.0.0, SVG Export Plug-In . SVG Version: 6.00 Build 0)  -->
<svg version="1.1" id="Capa_1" xmlns="http://www.w3.org/2000/svg" xmlns:xlink="http://www.w3.org/1999/xlink" x="0px" y="0px"
	 viewBox="0 0 507.725 507.725" style="enable-background:new 0 0 507.725 507.725;" xml:space="preserve">
<g>
	<g>
		<g>
			<path d="M355.321,78.788L355.321,78.788l-82.967-41.154c-1.365-0.68-2.99-0.58-4.261,0.263s-1.996,2.3-1.901,3.823
				s0.996,2.878,2.362,3.556l82.967,41.154c1.365,0.68,2.99,0.58,4.261-0.263c1.271-0.843,1.996-2.3,1.901-3.823
				S356.688,79.465,355.321,78.788z"/>
			<path d="M222.579,286.5l-82.967-41.154c-1.365-0.68-2.99-0.58-4.261,0.263s-1.996,2.3-1.901,3.823s0.996,2.878,2.362,3.556
				l82.967,41.154c1.365,0.68,2.99,0.58,4.261-0.263c1.271-0.843,1.996-2.3,1.901-3.823
				C224.847,288.534,223.946,287.178,222.579,286.5z"/>
			<path d="M406.988,66.733L274.246,0.887c-2.389-1.183-5.194-1.183-7.583,0L242.654,12.8c-8.536,4.178-13.94,12.862-13.917,22.367
				v88.596c-0.024,9.506,5.379,18.191,13.917,22.371l35.858,17.787v13.869l-37.45-18.577c-2.389-1.183-5.194-1.183-7.583,0
				l-123.567,61.296c-8.538,4.179-13.941,12.865-13.917,22.371v39.208c-0.001,3.243,1.836,6.206,4.742,7.646l94.817,47.033v5.641
				l-20.867-10.349c-2.389-1.183-5.194-1.183-7.583,0l-33.183,16.463c-2.905,1.44-4.743,4.403-4.742,7.646v32.921l0.003,0.022
				c-4.219,3.508-6.773,8.625-7.04,14.105c-0.267,5.48,1.778,10.821,5.637,14.722l1.781,1.828c-0.068,0.347-0.115,0.699-0.14,1.052
				c-0.111,0.392-0.192,0.791-0.242,1.195v32.921c0.027,0.424,0.087,0.846,0.177,1.262c-4.927,5.172-7.086,12.387-5.81,19.415
				c1.276,7.028,5.835,13.023,12.266,16.132l29.7,14.733l0.053,0.013c3.383,1.651,7.34,1.65,10.722-0.004l3.017-1.483
				c7.905-3.877,13.737-10.995,15.983-19.508c1.369-5.414,1.2-11.103-0.488-16.427l42.471-21.068l42.483,21.077
				c-1.672,5.307-1.834,10.974-0.467,16.368c2.247,8.511,8.079,15.626,15.983,19.5l3.008,1.479c3.41,1.661,7.396,1.655,10.8-0.017
				l0.022-0.015l29.653-14.71c7.741-3.792,12.642-11.667,12.625-20.287c-0.037-5.693-2.249-11.157-6.183-15.272
				c0.084-0.391,0.139-0.787,0.167-1.186v-32.921c-0.05-0.405-0.131-0.806-0.242-1.198c-0.055-0.615-0.177-1.222-0.365-1.81
				c-0.215-0.483-0.476-0.944-0.78-1.376c6.881-7.124,7.28-18.291,0.924-25.887c0.295-0.854,0.451-1.75,0.463-2.653v-32.921
				c-0.05-0.405-0.131-0.806-0.242-1.198c-0.055-0.615-0.177-1.222-0.365-1.81c-0.5-0.961-1.072-1.882-1.71-2.757
				c-0.44-0.425-0.925-0.801-1.446-1.121c-0.307-0.278-0.634-0.532-0.979-0.76l-33.192-16.462c-2.389-1.183-5.194-1.183-7.583,0
				l-20.858,10.348v-5.64l94.817-47.033c2.905-1.44,4.743-4.403,4.742-7.646v-49.383c0.001-3.243-1.836-6.206-4.742-7.646
				l-20.149-9.995v-13.868l5.142,2.55c7.069,3.485,15.357,3.483,22.425-0.004l25.767-12.775c2.905-1.44,4.743-4.403,4.742-7.646
				V74.379C411.731,71.137,409.893,68.173,406.988,66.733z M170.896,349.229l24.658,12.231v18.635l-43.444-21.547L170.896,349.229z
				 M146.246,365.163l43.438,21.544l-18.785,9.318l-24.652-12.228L146.246,365.163z M131.046,401.25
				c0.467-1.758,1.356-3.375,2.59-4.711c0.103,0.056,0.18,0.143,0.285,0.195l17.773,8.817l-16.223,8.047l-1.575-1.615
				C131.115,409.161,130.032,405.08,131.046,401.25z M154.45,491.46l-14.838-7.36c-3.804-1.826-6.573-5.28-7.53-9.389
				c-0.957-4.109,0.003-8.431,2.609-11.749l24.107,11.959C154.651,479.347,153.016,485.567,154.45,491.46z M187.03,483.321
				L187.03,483.321c-1.614,6.12-5.808,11.237-11.492,14.021l-3.017,1.483c-1.019,0.503-2.215,0.501-3.233-0.004
				c-3.648-1.78-6.162-5.27-6.695-9.294c-0.533-4.024,0.986-8.048,4.045-10.716l0.467,0.232c2.389,1.183,5.194,1.183,7.583,0
				l12.383-6.143C187.915,476.324,187.9,479.903,187.03,483.321z M233.004,431.06l-62.108,30.81l-24.65-12.229v-18.637
				l22.758,11.287c1.191,0.594,2.592,0.594,3.783,0l60.217-29.867L233.004,431.06z M311.974,489.469
				c-0.534,4.01-3.033,7.488-6.663,9.275l0,0l-0.039,0.019c-1.017,0.499-2.208,0.499-3.226,0.001l-3.008-1.479
				c-5.683-2.784-9.878-7.896-11.5-14.013c-0.862-3.398-0.881-6.955-0.054-10.362l12.363,6.133c0.123,0.061,0.258,0.035,0.382,0.09
				c1.06,0.493,2.21,0.763,3.378,0.792l0.023,0.006l0.009-0.001l0.008,0.001l0.023-0.006c1.169-0.029,2.318-0.299,3.378-0.792
				c0.124-0.055,0.259-0.029,0.382-0.09l0.542-0.268C311.007,481.447,312.508,485.459,311.974,489.469z M342.846,471.396
				L342.846,471.396c0.048,5.389-3.029,10.318-7.892,12.642l-14.835,7.359c1.427-5.879-0.196-12.081-4.318-16.508l24.103-11.954
				C341.801,465.348,342.836,468.327,342.846,471.396z M340.479,401.25L340.479,401.25c1.015,3.829-0.069,7.909-2.85,10.729
				l-0.594,0.609l-14.189-7.038l15.897-7.885C339.532,398.746,340.12,399.961,340.479,401.25z M328.296,383.796l-24.657,12.228
				l-18.78-9.317l43.438-21.544L328.296,383.796z M278.988,361.46l24.65-12.231l18.792,9.321l-43.442,21.546V361.46z
				 M299.846,413.196l28.45,14.111v22.335l-24.657,12.228l-62.101-30.809v-18.632l60.2,29.863c1.365,0.68,2.99,0.58,4.261-0.263
				c1.271-0.843,1.996-2.3,1.901-3.823c-0.095-1.523-0.996-2.878-2.362-3.556l-66.367-32.921c-0.075-0.038-0.162-0.017-0.239-0.051
				c-0.528-0.233-1.098-0.354-1.675-0.356c-0.072,0-0.14-0.032-0.211-0.028c-0.58,0.028-1.147,0.176-1.667,0.434l-64.483,31.979
				l-18.781-9.313l55.765-27.662c0.345-0.228,0.673-0.482,0.979-0.759c0.521-0.32,1.006-0.696,1.446-1.121
				c0.639-0.875,1.21-1.796,1.71-2.757c0.188-0.588,0.31-1.195,0.365-1.81c0.111-0.393,0.192-0.793,0.242-1.198v-43.855
				l20.858,10.347c2.389,1.183,5.194,1.183,7.583,0l20.858-10.347v43.855c0.05,0.404,0.131,0.804,0.242,1.195
				c0.055,0.617,0.177,1.225,0.366,1.815c0.218,0.492,0.485,0.961,0.797,1.399c0.258,0.481,0.564,0.936,0.913,1.356
				c0.439,0.424,0.923,0.8,1.444,1.12c0.307,0.278,0.635,0.533,0.981,0.76L299.846,413.196z M361.479,276.796l-119.942,59.496
				v-27.567c-0.004-4.638,2.639-8.872,6.808-10.904l113.133-56.12L361.479,276.796z M355.611,235.085l-111.056,55.09
				c-7.083,3.464-11.567,10.666-11.55,18.55v27.567l-119.942-59.496v-33.917c0.001-3.014,1.723-5.762,4.433-7.079l119.775-59.417
				L355.611,235.085z M295.579,186.255v-13.868l20.383,10.112v13.868L295.579,186.255z M324.496,200.599v-13.868l12.092,5.998
				v13.868L324.496,200.599z M365.746,101.012v87.128l-115.508-57.299c-2.711-1.317-4.432-4.065-4.433-7.079V35.167
				c0.003-3.012,1.724-5.759,4.433-7.075l20.217-10.033l118.34,58.701l-11.515,5.711C370.205,85.936,365.727,93.134,365.746,101.012
				z M394.663,178.029l-20.383,10.107v-87.123c-0.003-4.634,2.636-8.865,6.8-10.9l13.583-6.737V178.029z"/>
		</g>
	</g>
</g>
<g>
</g>
<g>
</g>
<g>
</g>
<g>
</g>
<g>
</g>
<g>
</g>
<g>
</g>
<g>
</g>
<g>
</g>
<g>
</g>
<g>
</g>
<g>
</g>
<g>
</g>
<g>
</g>
<g>
</g>
</svg>
