<?xml version="1.0" encoding="iso-8859-1"?>
<!-- Generator: Adobe Illustrator 19.0.0, SVG Export Plug-In . SVG Version: 6.00 Build 0)  -->
<svg version="1.1" id="Capa_1" xmlns="http://www.w3.org/2000/svg" xmlns:xlink="http://www.w3.org/1999/xlink" x="0px" y="0px"
	 viewBox="0 0 512 512" style="enable-background:new 0 0 512 512;" xml:space="preserve">
<g>
	<g>
		<path d="M503.227,135.343c-0.055-0.613-0.177-1.219-0.364-1.806c-0.495-0.963-1.065-1.886-1.706-2.759
			c-0.436-0.424-0.917-0.799-1.434-1.119c-0.305-0.278-0.63-0.532-0.973-0.76l-256-128c-2.403-1.2-5.23-1.2-7.633,0L13.25,111.833
			c-0.344,0.228-0.67,0.483-0.975,0.761c-0.516,0.32-0.996,0.695-1.432,1.118c-0.349,0.421-0.656,0.876-0.915,1.358
			c-0.309,0.44-0.573,0.908-0.791,1.399c-0.188,0.588-0.31,1.195-0.365,1.81c-0.109,0.389-0.19,0.786-0.239,1.187v256
			c-0.001,3.232,1.825,6.188,4.717,7.633l256,128c0.345,0.152,0.699,0.28,1.061,0.383c0.22,0.076,0.428,0.179,0.654,0.236
			c0.683,0.18,1.387,0.275,2.094,0.281l0.008-0.001l0.009,0.001c0.737-0.005,1.471-0.107,2.182-0.302
			c0.25-0.066,0.475-0.19,0.717-0.279c0.389-0.118,0.768-0.266,1.134-0.441l221.867-119.467c2.766-1.487,4.491-4.373,4.492-7.513
			V136.533C503.417,136.131,503.337,135.733,503.227,135.343z M268.8,491.792l-243.2-121.6V128.504l21.333,10.667v122.725
			l-14.708,7.354c-0.107,0.054-0.154,0.172-0.255,0.234c-0.581,0.41-1.09,0.912-1.507,1.487c-0.041,0.071-0.109,0.113-0.146,0.187
			c-0.272,0.562-0.415,1.177-0.42,1.802l-0.03,0.107V307.2c0.002,1.616,0.914,3.092,2.358,3.817l153.6,76.8l0.117,0.028
			c1.128,0.563,2.455,0.563,3.582,0l0.117-0.028l51.2-25.6c0.169-0.113,0.329-0.238,0.48-0.375c0.262-0.161,0.505-0.351,0.725-0.566
			c0.17-0.206,0.32-0.427,0.446-0.662c0.159-0.226,0.295-0.467,0.406-0.72c0.09-0.284,0.149-0.578,0.176-0.875
			c0.058-0.203,0.1-0.41,0.125-0.619V237.304l25.6,12.8V491.792z M187.733,201.037l50.192,25.096l-0.9,0.45
			c-0.07,0.035-0.111,0.101-0.179,0.14c-0.048,0.028-0.107,0.018-0.155,0.048c-0.117,0.072-0.167,0.206-0.275,0.287
			c-0.388,0.285-0.724,0.636-0.992,1.037c-0.111,0.166-0.209,0.341-0.294,0.522c-0.211,0.454-0.338,0.943-0.375,1.443
			c-0.01,0.12-0.089,0.219-0.089,0.34v91.229l-46.933,23.467L43.675,273.067L187.733,201.037z M55.467,257.629V139.171l128-64
			v118.458L55.467,257.629z M341.333,131.762L197.275,59.733l24.592-12.296l144.142,71.987L341.333,131.762z M371.2,126.371v33.125
			l-25.6,12.8v-33.125L371.2,126.371z M337.067,139.171v37.392l-89.6,44.8L192,193.629V66.638L337.067,139.171z M234.667,331.171
			v24.592L192,377.096v-24.592L234.667,331.171z M183.467,352.504v24.592L38.4,304.563v-24.592L183.467,352.504z M273.067,242.696
			L248.475,230.4l163.033-81.517c1.445-0.723,2.358-2.201,2.358-3.817c0-1.616-0.913-3.094-2.358-3.817l-31.775-15.888v-5.988
			c-0.002-1.613-0.915-3.087-2.358-3.808l-153.6-76.717c-1.201-0.6-2.615-0.6-3.817,0l-34.133,17.067
			c-0.089,0.045-0.128,0.144-0.213,0.195c-0.503,0.296-0.938,0.694-1.278,1.169c-0.108,0.139-0.206,0.285-0.294,0.437
			c-0.36,0.612-0.558,1.306-0.574,2.016v5.896L51.2,131.762l-19.821-9.91L238.933,18.075l241.687,120.844L273.067,242.696z
			 M379.733,155.229v-20.325l20.325,10.162L379.733,155.229z M486.4,378.904L277.333,491.48V250.104L486.4,145.571V378.904z"/>
	</g>
</g>
<g>
</g>
<g>
</g>
<g>
</g>
<g>
</g>
<g>
</g>
<g>
</g>
<g>
</g>
<g>
</g>
<g>
</g>
<g>
</g>
<g>
</g>
<g>
</g>
<g>
</g>
<g>
</g>
<g>
</g>
</svg>
