<?xml version="1.0" encoding="iso-8859-1"?>
<!-- Generator: Adobe Illustrator 19.0.0, SVG Export Plug-In . SVG Version: 6.00 Build 0)  -->
<svg version="1.1" id="Capa_1" xmlns="http://www.w3.org/2000/svg" xmlns:xlink="http://www.w3.org/1999/xlink" x="0px" y="0px"
	 viewBox="0 0 512 512" style="enable-background:new 0 0 512 512;" xml:space="preserve">
<g>
	<g>
		<path d="M511.738,203.501c-0.055-0.57-0.169-1.133-0.339-1.68c-0.494-0.967-1.064-1.893-1.705-2.77
			c-0.443-0.432-0.932-0.814-1.459-1.138c-0.301-0.274-0.622-0.524-0.96-0.749l-51.191-25.596c-2.403-1.2-5.23-1.2-7.633,0
			l-30.317,15.158v-23.583l20.883-10.442c2.891-1.446,4.717-4.401,4.717-7.633v-34.133c-0.05-0.402-0.13-0.8-0.24-1.19
			c-0.055-0.613-0.177-1.219-0.364-1.806c-0.495-0.963-1.065-1.886-1.706-2.759c-0.436-0.424-0.917-0.799-1.434-1.119
			c-0.305-0.278-0.63-0.532-0.973-0.76L319.55,43.567c-2.403-1.2-5.23-1.2-7.633,0l-256,128c-0.344,0.228-0.67,0.483-0.975,0.761
			c-0.516,0.32-0.996,0.695-1.432,1.118c-0.64,0.873-1.21,1.795-1.705,2.757c-0.188,0.588-0.31,1.195-0.365,1.81
			c-0.109,0.389-0.19,0.786-0.239,1.187v20.325L4.717,222.767c-2.869,1.457-4.664,4.415-4.632,7.633H0v34.133
			c-0.001,3.232,1.825,6.188,4.717,7.633L25.6,282.608v84.325c-0.001,3.232,1.825,6.188,4.717,7.633l187.733,93.867
			c0.335,0.147,0.679,0.271,1.031,0.372c0.218,0.076,0.422,0.175,0.645,0.233c0.695,0.188,1.412,0.287,2.132,0.295l0.009-0.001
			l0.008,0.001c0.72-0.008,1.437-0.107,2.132-0.295c0.224-0.058,0.43-0.158,0.648-0.234c0.351-0.101,0.694-0.225,1.029-0.371
			l256-128c2.891-1.446,4.717-4.401,4.716-7.633v-75.792l20.883-10.442c2.891-1.445,4.717-4.401,4.717-7.633V204.8
			C511.949,204.36,511.861,203.926,511.738,203.501z M452.267,188.742l36.888,18.444L230.4,336.563l-36.888-18.444L452.267,188.742z
			 M175.383,308.1c-0.344,0.228-0.67,0.483-0.975,0.761c-0.516,0.32-0.996,0.695-1.432,1.118c-0.64,0.873-1.21,1.795-1.705,2.757
			c-0.188,0.588-0.31,1.195-0.365,1.81c-0.11,0.389-0.19,0.786-0.239,1.187v34.133c0.024,1.166,0.29,2.314,0.781,3.372
			L140.8,368.563V263.408l34.583,17.292c2.403,1.2,5.23,1.2,7.633,0l218.05-109.025v23.583L175.383,308.1z M183.467,361.542v32.621
			l-37.392-18.696l32.621-16.31L183.467,361.542z M315.733,60.742l105.154,52.577L179.2,234.163L74.046,181.585L315.733,60.742z
			 M68.267,188.237l109.025,54.512c1.201,0.6,2.615,0.6,3.817,0l245.558-122.779v19.821L179.2,263.525L68.267,208.058V188.237z
			 M52.563,217.927c0.823,1.298,1.982,2.348,3.354,3.04l32.171,16.085l-28.354,14.177l-36.887-18.444L52.563,217.927z
			 M17.067,259.258l0-19.821l40.758,20.379c1.201,0.6,2.615,0.6,3.817,0l34.133-17.067c0.545-0.278,1.022-0.672,1.398-1.155
			l0.96,0.48v19.317l-38.4,19.2L17.067,259.258z M98.133,280.475v71.021l-25.6-12.8v-45.421L98.133,280.475z M217.6,449.125
			L42.667,361.658v-70.517l13.25,6.625c2.403,1.2,5.23,1.2,7.633,0l0.45-0.225v43.792c0.002,1.616,0.914,3.092,2.358,3.817
			l34.133,17.067c0.593,0.296,1.246,0.45,1.908,0.45c2.356-0.001,4.265-1.911,4.267-4.267V246.342l25.6,12.8v116.325l0.03,0.107
			c0.005,0.624,0.148,1.24,0.42,1.802c0.032,0.063,0.101,0.086,0.135,0.146c0.229,0.337,0.507,0.637,0.823,0.893
			c0.239,0.285,0.514,0.537,0.819,0.749c0.054,0.03,0.076,0.093,0.131,0.12l51.2,25.6c0.593,0.296,1.246,0.45,1.908,0.45
			c2.356-0.001,4.265-1.911,4.267-4.267v-35.258l25.6,12.8V449.125z M469.333,327.525l-243.2,121.6v-66.25l0.45,0.225
			c2.403,1.2,5.23,1.2,7.633,0l235.117-117.558V327.525z M494.933,233.658L230.4,365.925l-42.667-21.333v-19.821l40.758,20.379
			c1.201,0.6,2.615,0.6,3.817,0l262.625-131.32V233.658z"/>
	</g>
</g>
<g>
</g>
<g>
</g>
<g>
</g>
<g>
</g>
<g>
</g>
<g>
</g>
<g>
</g>
<g>
</g>
<g>
</g>
<g>
</g>
<g>
</g>
<g>
</g>
<g>
</g>
<g>
</g>
<g>
</g>
</svg>
