<?xml version="1.0" encoding="iso-8859-1"?>
<!-- Generator: Adobe Illustrator 19.0.0, SVG Export Plug-In . SVG Version: 6.00 Build 0)  -->
<svg version="1.1" id="Capa_1" xmlns="http://www.w3.org/2000/svg" xmlns:xlink="http://www.w3.org/1999/xlink" x="0px" y="0px"
	 viewBox="0 0 512 512" style="enable-background:new 0 0 512 512;" xml:space="preserve">
<g>
	<g>
		<g>
			<path d="M503.227,178.01c-0.055-0.613-0.177-1.219-0.364-1.806c-0.495-0.963-1.065-1.886-1.706-2.759
				c-0.436-0.424-0.917-0.799-1.434-1.119c-0.305-0.278-0.63-0.532-0.973-0.76L157.416,0.9c-2.403-1.2-5.23-1.2-7.633,0
				L115.65,17.967c-2.891,1.446-4.717,4.401-4.716,7.633V128c0.008,0.866,0.149,1.726,0.417,2.55
				c0.058,0.187,0.162,0.347,0.234,0.53c0.289,0.739,0.682,1.434,1.165,2.064c0.165,0.221,0.34,0.433,0.526,0.636
				c0.674,0.755,1.478,1.383,2.374,1.853l12.35,6.175v15.05l-4.717-2.358c-2.403-1.2-5.23-1.2-7.633,0l-102.4,51.2
				c-2.891,1.445-4.717,4.401-4.717,7.633v34.133c-0.001,3.232,1.825,6.188,4.717,7.633l29.417,14.708V358.4
				c0,4.713,3.82,8.533,8.533,8.533s8.533-3.82,8.533-8.533v-28.858l46.483-23.242c1.344-0.715,2.466-1.786,3.242-3.096
				L332.8,414.875v88.592c0,4.713,3.821,8.533,8.533,8.533c4.713,0,8.533-3.82,8.533-8.533v-28.858l85.333-42.667v20.325
				c0,4.713,3.82,8.533,8.533,8.533s8.533-3.821,8.533-8.533v-71.525l12.35-6.175c2.891-1.446,4.717-4.401,4.717-7.633V332.8
				c-0.05-0.402-0.13-0.8-0.24-1.19c-0.055-0.613-0.177-1.219-0.364-1.806c-0.495-0.963-1.065-1.886-1.706-2.759
				c-0.436-0.424-0.917-0.799-1.434-1.119c-0.305-0.278-0.63-0.532-0.973-0.76l-12.35-6.175v-15.05l4.717,2.358
				c2.403,1.2,5.23,1.2,7.633,0l34.133-17.067c2.891-1.445,4.717-4.401,4.717-7.633V179.2
				C503.417,178.798,503.337,178.4,503.227,178.01z M55.971,203.423l78.654,39.327c1.364,0.686,2.991,0.591,4.266-0.249
				c1.275-0.84,2.004-2.298,1.911-3.822c-0.093-1.524-0.993-2.883-2.36-3.562l-72.929-36.465l24.592-12.296l95.721,47.86
				c1.364,0.686,2.991,0.591,4.266-0.249c1.275-0.84,2.004-2.298,1.911-3.822c-0.093-1.524-0.993-2.883-2.36-3.562l-89.996-44.998
				l19.821-9.91l30.317,15.158l296.704,148.352l-19.821,9.911l-134.625-67.313c-1.364-0.686-2.991-0.591-4.266,0.249
				c-1.275,0.84-2.004,2.298-1.911,3.822c0.093,1.524,0.993,2.883,2.36,3.562l128.9,64.45l-24.592,12.296l-49.292-24.646
				c-1.364-0.686-2.991-0.591-4.266,0.249s-2.004,2.298-1.911,3.822s0.993,2.883,2.36,3.562l43.567,21.783L358.4,379.229
				L31.379,215.719L55.971,203.423z M145.067,165.392v-15.05l4.717,2.358L435.2,295.408v15.05L157.417,171.567L145.067,165.392z
				 M59.733,310.458v-32.117L91.85,294.4L59.733,310.458z M25.6,242.192v-19.821l328.533,164.267v19.821L25.6,242.192z M384,438.458
				l-34.133,17.067v-32.117l4.717,2.358c2.403,1.2,5.23,1.2,7.633,0L384,414.875V438.458z M435.2,412.858l-34.133,17.067v-23.583
				l34.133-17.067V412.858z M452.267,361.658l-89.6,44.8v-19.821l89.6-44.8V361.658z M456.533,223.496l-62.092-31.046
				c-1.364-0.686-2.991-0.591-4.266,0.249c-1.275,0.84-2.004,2.298-1.911,3.822c0.093,1.524,0.993,2.883,2.36,3.562l65.908,32.954
				v24.592l-45.025-22.513c-1.364-0.686-2.991-0.591-4.266,0.249c-1.275,0.84-2.004,2.298-1.911,3.822s0.993,2.883,2.36,3.562
				l48.842,24.421v19.821L157.417,137.433L128,122.725v-19.821l57.825,28.912c2.107,1.047,4.664,0.191,5.716-1.913
				c1.052-2.104,0.203-4.663-1.899-5.721L128,93.362V68.771l23.692,11.846c2.107,1.047,4.664,0.192,5.716-1.913
				s0.203-4.663-1.899-5.721L128,59.229V34.637l328.533,164.267V223.496z M460.8,191.496L133.779,27.985l19.821-9.91l327.021,163.51
				L460.8,191.496z M486.4,276.325l-21.333,10.667v-88.087l21.333-10.667V276.325z"/>
			<path d="M240.842,286.317l-68.267-34.133c-2.107-1.047-4.664-0.191-5.716,1.913c-1.052,2.104-0.203,4.663,1.899,5.721
				l68.267,34.133c1.364,0.686,2.991,0.591,4.266-0.249c1.275-0.84,2.004-2.298,1.911-3.822
				C243.109,288.355,242.209,286.996,240.842,286.317z"/>
			<path d="M309.108,320.45l-34.133-17.067c-2.107-1.047-4.664-0.191-5.716,1.913c-1.052,2.104-0.203,4.663,1.899,5.72
				l34.133,17.067c2.107,1.047,4.664,0.192,5.716-1.913C312.06,324.066,311.21,321.507,309.108,320.45z"/>
			<path d="M257.908,260.717l-34.133-17.067c-2.107-1.047-4.664-0.192-5.716,1.913c-1.052,2.104-0.203,4.663,1.899,5.72
				l34.133,17.067c1.364,0.686,2.991,0.591,4.266-0.249c1.275-0.84,2.004-2.298,1.911-3.822
				C260.176,262.755,259.276,261.396,257.908,260.717z"/>
			<path d="M257.908,158.317l-34.133-17.067c-2.107-1.047-4.664-0.192-5.716,1.913c-1.052,2.104-0.203,4.663,1.899,5.721
				l34.133,17.067c1.364,0.686,2.991,0.591,4.266-0.249c1.275-0.84,2.004-2.298,1.911-3.822
				C260.176,160.355,259.276,158.996,257.908,158.317z"/>
			<path d="M288.225,183.017l85.333,42.667c2.107,1.047,4.664,0.192,5.716-1.913c1.052-2.104,0.203-4.663-1.899-5.72l-85.333-42.667
				c-1.364-0.686-2.991-0.591-4.266,0.249c-1.275,0.84-2.004,2.298-1.911,3.822S286.858,182.337,288.225,183.017z"/>
			<path d="M185.825,97.683l85.333,42.667c1.364,0.686,2.991,0.591,4.266-0.249c1.275-0.84,2.004-2.298,1.911-3.822
				c-0.093-1.524-0.993-2.883-2.36-3.562L189.642,90.05c-1.364-0.686-2.991-0.591-4.266,0.249c-1.275,0.84-2.004,2.298-1.911,3.822
				C183.558,95.645,184.458,97.004,185.825,97.683z"/>
			<path d="M305.292,157.417l51.2,25.6c2.107,1.047,4.664,0.192,5.716-1.913s0.203-4.663-1.899-5.721l-51.2-25.6
				c-2.107-1.047-4.664-0.192-5.716,1.913S303.19,156.359,305.292,157.417z"/>
		</g>
	</g>
</g>
<g>
</g>
<g>
</g>
<g>
</g>
<g>
</g>
<g>
</g>
<g>
</g>
<g>
</g>
<g>
</g>
<g>
</g>
<g>
</g>
<g>
</g>
<g>
</g>
<g>
</g>
<g>
</g>
<g>
</g>
</svg>
