<?xml version="1.0" encoding="iso-8859-1"?>
<!-- Generator: Adobe Illustrator 19.0.0, SVG Export Plug-In . SVG Version: 6.00 Build 0)  -->
<svg version="1.1" id="Capa_1" xmlns="http://www.w3.org/2000/svg" xmlns:xlink="http://www.w3.org/1999/xlink" x="0px" y="0px"
	 viewBox="0 0 512 512" style="enable-background:new 0 0 512 512;" xml:space="preserve">
<g>
	<g>
		<g>
			<path d="M507.283,145.967L319.55,52.1c-2.403-1.2-5.23-1.2-7.633,0L4.717,205.7C1.826,207.146,0,210.101,0,213.333
				c0,3.232,1.826,6.187,4.717,7.633l37.95,18.975V384c-0.001,3.232,1.825,6.188,4.717,7.633l17.067,8.533
				c2.403,1.2,5.23,1.2,7.633,0l17.067-8.533c2.891-1.446,4.717-4.401,4.717-7.633v-25.096l68.267,34.133v50.696
				c-0.001,3.232,1.825,6.188,4.717,7.633l17.067,8.533c2.403,1.2,5.23,1.2,7.633,0l17.067-8.533
				c2.891-1.446,4.717-4.401,4.717-7.633v-50.696l187.733-93.867v25.096c-0.001,3.232,1.825,6.188,4.717,7.633l17.067,8.533
				c2.403,1.2,5.23,1.2,7.633,0l17.067-8.533c2.891-1.446,4.717-4.401,4.717-7.633V188.742l55.017-27.508
				c2.891-1.446,4.717-4.401,4.717-7.633S510.174,147.413,507.283,145.967z M76.8,378.725l-8.533,4.267l-8.533-4.267v-130.25
				l17.067,8.533v58.221l-10.442,5.221c-1.445,0.723-2.358,2.201-2.358,3.817v17.067c0,1.616,0.913,3.094,2.358,3.817l10.442,5.221
				V378.725z M162.133,383.496l-89.6-44.8v-11.792l12.8-6.4l76.8,38.4V383.496z M162.133,349.363l-68.267-34.133v-49.688
				l68.267,34.133V349.363z M196.267,438.458l-8.533,4.267l-8.533-4.267v-130.25l13.25,6.625c1.185,0.592,2.492,0.9,3.817,0.9
				V438.458z M213.333,383.496v-24.592L409.6,260.771l12.8,6.4v11.792L213.333,383.496z M213.333,349.363v-41.154l187.733-93.867
				v41.154v0L213.333,349.363z M435.2,318.992l-8.533,4.267l-8.533-4.267v-28.354l10.442-5.221c1.445-0.723,2.358-2.201,2.358-3.817
				v-17.067c0-1.616-0.913-3.094-2.358-3.817l-10.442-5.221v-49.688l17.067-8.533V318.992z M196.267,297.658l-28.355-14.177
				l30.263-15.131c1.367-0.68,2.267-2.038,2.36-3.562s-0.636-2.982-1.911-3.822c-1.275-0.84-2.902-0.935-4.266-0.249l-34.133,17.067
				c-0.545,0.279-1.022,0.673-1.399,1.155l-29.314-14.657l94.264-47.132c1.367-0.68,2.267-2.038,2.36-3.562
				c0.093-1.524-0.636-2.982-1.911-3.822c-1.275-0.84-2.902-0.935-4.266-0.249l-99.988,49.994l-58.726-29.362l60.131-30.066
				c1.367-0.68,2.267-2.038,2.36-3.562s-0.636-2.982-1.911-3.822c-1.275-0.84-2.902-0.935-4.266-0.249l-65.856,32.928l-24.09-12.045
				L315.733,69.275l24.088,12.044l-102.796,51.398c-2.102,1.057-2.951,3.616-1.899,5.721c1.052,2.104,3.609,2.96,5.716,1.913
				l108.521-54.26l24.592,12.295l-34.53,17.265c-2.102,1.057-2.951,3.616-1.899,5.72s3.609,2.96,5.716,1.913l40.255-20.128
				l24.592,12.296l-68.664,34.332c-2.102,1.057-2.951,3.616-1.899,5.721c1.052,2.104,3.609,2.96,5.716,1.913l74.389-37.194
				l28.859,14.429l-30.264,15.132c-2.102,1.057-2.951,3.616-1.899,5.72c1.052,2.104,3.609,2.96,5.716,1.913l35.989-17.995
				l28.357,14.178L196.267,297.658z"/>
			<path d="M207.157,150.033c-1.275-0.84-2.902-0.935-4.266-0.249l-51.2,25.6c-2.102,1.057-2.951,3.616-1.899,5.72
				c1.052,2.104,3.609,2.96,5.716,1.913l51.2-25.6c1.367-0.68,2.267-2.038,2.36-3.562
				C209.161,152.33,208.432,150.873,207.157,150.033z"/>
			<path d="M190.091,192.699c-1.275-0.84-2.902-0.935-4.266-0.249l-51.2,25.6c-2.102,1.057-2.951,3.616-1.899,5.72
				s3.609,2.96,5.716,1.913l51.2-25.6c1.367-0.68,2.267-2.038,2.36-3.562C192.094,194.997,191.366,193.539,190.091,192.699z"/>
			<path d="M311.248,137.883c0.358-1.074,0.275-2.246-0.232-3.258c-0.506-1.012-1.394-1.782-2.467-2.14
				c-1.074-0.358-2.246-0.275-3.258,0.232l-85.333,42.667c-2.102,1.057-2.951,3.616-1.899,5.721c1.052,2.104,3.609,2.96,5.716,1.913
				l85.333-42.667C310.121,139.844,310.891,138.956,311.248,137.883z"/>
			<path d="M309.557,167.099c-1.275-0.84-2.902-0.935-4.266-0.249l-51.2,25.6c-2.102,1.057-2.951,3.616-1.899,5.72
				c1.052,2.104,3.609,2.96,5.716,1.913l51.2-25.6c1.367-0.68,2.267-2.038,2.36-3.562
				C311.561,169.397,310.832,167.94,309.557,167.099z"/>
			<path d="M318.091,201.233c-1.275-0.84-2.902-0.935-4.266-0.249l-85.333,42.667c-2.102,1.057-2.951,3.616-1.899,5.72
				c1.052,2.104,3.609,2.96,5.716,1.913l85.333-42.667c1.367-0.68,2.267-2.038,2.36-3.562
				C320.094,203.53,319.366,202.073,318.091,201.233z"/>
			<path d="M386.357,167.099c-1.275-0.84-2.902-0.935-4.266-0.249l-34.133,17.067c-2.102,1.057-2.951,3.616-1.899,5.72
				c1.052,2.104,3.609,2.96,5.716,1.913l34.133-17.067c1.367-0.68,2.267-2.038,2.36-3.562S387.632,167.94,386.357,167.099z"/>
		</g>
	</g>
</g>
<g>
</g>
<g>
</g>
<g>
</g>
<g>
</g>
<g>
</g>
<g>
</g>
<g>
</g>
<g>
</g>
<g>
</g>
<g>
</g>
<g>
</g>
<g>
</g>
<g>
</g>
<g>
</g>
<g>
</g>
</svg>
