<?xml version="1.0" encoding="iso-8859-1"?>
<!-- Generator: Adobe Illustrator 19.0.0, SVG Export Plug-In . SVG Version: 6.00 Build 0)  -->
<svg version="1.1" id="Capa_1" xmlns="http://www.w3.org/2000/svg" xmlns:xlink="http://www.w3.org/1999/xlink" x="0px" y="0px"
	 viewBox="0 0 512 512" style="enable-background:new 0 0 512 512;" xml:space="preserve">
<g>
	<g>
		<g>
			<path d="M383.55,60.634L264.084,0.9c-2.474-1.236-5.393-1.197-7.834,0.104l-128,68.267c-2.78,1.484-4.516,4.378-4.516,7.529
				v362.667c-0.001,3.232,1.825,6.188,4.717,7.633l128,64c2.403,1.2,5.23,1.2,7.633,0l119.467-59.733
				c2.891-1.445,4.717-4.401,4.717-7.633V68.267C388.268,65.034,386.441,62.079,383.55,60.634z M256,20.48v19.549l-81.067,40.533
				l-16.303-8.152L256,20.48z M256,49.571v71.525l-71.525-35.763L256,49.571z M256,132.267v359.525l-115.2-57.6V81.921l8.597-4.585
				l106.902,53.451C256.111,131.258,256.01,131.76,256,132.267z M264.534,20.209l100.887,50.444l-19.821,9.91l-81.067-40.533V20.209
				z M264.534,49.571l71.525,35.763l-71.525,35.763V49.571z M371.2,438.459l-106.667,53.333V132.267
				c-0.01-0.507-0.111-1.009-0.299-1.48L371.2,77.304V438.459z"/>
			<path d="M155.959,426.217l76.8,38.4c1.323,0.661,2.893,0.589,4.151-0.188c1.258-0.777,2.023-2.15,2.024-3.629V149.334
				l-0.029-0.102c-0.004-0.626-0.148-1.243-0.421-1.806c-0.036-0.073-0.104-0.115-0.144-0.185c-0.093-0.136-0.195-0.265-0.304-0.388
				c-0.326-0.447-0.738-0.824-1.212-1.108c-0.098-0.06-0.144-0.174-0.248-0.227l-76.8-38.4c-1.323-0.661-2.893-0.59-4.151,0.188
				c-1.258,0.777-2.023,2.15-2.024,3.629V422.4C153.6,424.016,154.513,425.494,155.959,426.217z M162.133,331.171l14.708-7.354
				c2.102-1.057,2.951-3.616,1.899-5.721c-1.052-2.104-3.609-2.96-5.716-1.913l-10.892,5.446v-24.592l57.375-28.688
				c1.367-0.68,2.267-2.038,2.36-3.562c0.093-1.524-0.636-2.982-1.911-3.822c-1.275-0.84-2.902-0.935-4.266-0.249l-53.558,26.779
				v-24.592l14.708-7.354c1.367-0.68,2.267-2.038,2.36-3.562c0.093-1.524-0.636-2.982-1.911-3.822
				c-1.275-0.84-2.902-0.935-4.266-0.249l-10.892,5.446v-28.858l23.242-11.621c1.367-0.68,2.267-2.038,2.36-3.562
				s-0.636-2.982-1.911-3.822c-1.275-0.84-2.902-0.935-4.266-0.249l-19.425,9.713v-24.592l31.775-15.888
				c1.367-0.68,2.267-2.038,2.36-3.562c0.093-1.524-0.636-2.982-1.911-3.822c-1.275-0.84-2.902-0.935-4.266-0.249l-27.958,13.979
				v-20.325l14.708-7.354c1.367-0.68,2.267-2.038,2.36-3.562c0.093-1.524-0.636-2.982-1.911-3.822
				c-1.275-0.84-2.902-0.935-4.266-0.249l-10.892,5.446v-33.125l28.858,14.429l-0.9,0.45c-2.102,1.057-2.951,3.616-1.899,5.721
				s3.609,2.96,5.716,1.913l6.625-3.313l24.592,12.296l-9.433,4.717c-2.102,1.057-2.951,3.616-1.899,5.72s3.609,2.96,5.716,1.913
				l10.892-5.446v24.592l-23.242,11.621c-2.102,1.057-2.951,3.616-1.899,5.72s3.609,2.96,5.716,1.913l19.425-9.713v28.858
				l-31.775,15.888c-2.102,1.057-2.951,3.616-1.899,5.721s3.609,2.96,5.716,1.913l27.958-13.979v58.725l-31.775,15.887
				c-2.102,1.057-2.951,3.616-1.899,5.721c1.052,2.104,3.609,2.96,5.716,1.913l27.958-13.979v156.858l-68.267-34.133V331.171z"/>
			<path d="M279.357,464.43c1.258,0.777,2.828,0.848,4.151,0.188l76.8-38.4c1.445-0.723,2.358-2.201,2.358-3.817V110.934
				c-0.001-1.479-0.767-2.851-2.024-3.629c-1.258-0.777-2.828-0.848-4.151-0.188l-76.8,38.4c-1.445,0.723-2.358,2.201-2.358,3.817
				V460.8C277.334,462.279,278.1,463.652,279.357,464.43z M332.8,233.038l8.533-4.267v33.125l-8.533,4.267V233.038z M332.8,275.704
				l14.708-7.354c1.445-0.723,2.358-2.201,2.358-3.817v-42.667c-0.001-1.479-0.767-2.852-2.025-3.629
				c-1.255-0.785-2.829-0.857-4.15-0.188l-10.892,5.446v-94.992l21.333-10.667v301.925L332.8,430.43V275.704z M307.2,141.304
				l17.067-8.533v301.925L307.2,443.23V141.304z M285.867,151.971l12.8-6.4v301.925l-12.8,6.4V151.971z"/>
		</g>
	</g>
</g>
<g>
</g>
<g>
</g>
<g>
</g>
<g>
</g>
<g>
</g>
<g>
</g>
<g>
</g>
<g>
</g>
<g>
</g>
<g>
</g>
<g>
</g>
<g>
</g>
<g>
</g>
<g>
</g>
<g>
</g>
</svg>
