<?xml version="1.0" encoding="iso-8859-1"?>
<!-- Generator: Adobe Illustrator 19.0.0, SVG Export Plug-In . SVG Version: 6.00 Build 0)  -->
<svg version="1.1" id="Capa_1" xmlns="http://www.w3.org/2000/svg" xmlns:xlink="http://www.w3.org/1999/xlink" x="0px" y="0px"
	 viewBox="0 0 512 512" style="enable-background:new 0 0 512 512;" xml:space="preserve">
<g>
	<g>
		<g>
			<path d="M430.484,60.633L311.017,0.9c-2.403-1.2-5.23-1.2-7.633,0l-51.2,25.6c-2.891,1.445-4.717,4.401-4.717,7.633v165.392
				L95.384,275.567c-5.203,2.611-9.637,6.531-12.866,11.375c-0.414,0.359-0.754,0.794-1.001,1.283
				c-0.059,0.17-0.106,0.344-0.141,0.521c-2.995,5.135-4.574,10.973-4.575,16.917c-0.118,35.588,20.005,68.148,51.888,83.958
				l16.379,8.188V460.8c-0.001,3.232,1.825,6.188,4.717,7.633l85.333,42.667c2.403,1.2,5.23,1.2,7.633,0l170.667-85.333
				c2.891-1.445,4.717-4.401,4.717-7.633v-97.125l12.35-6.175c2.891-1.446,4.717-4.401,4.717-7.633V68.267
				C435.201,65.034,433.375,62.079,430.484,60.633z M307.2,18.075l105.154,52.577l-36.887,18.444L270.313,36.519L307.2,18.075z
				 M264.534,43.171L371.2,96.504v161.125l-106.667-53.333V43.171z M103.017,290.833l156.8-78.4
				c0.278-0.169,0.546-0.353,0.803-0.553l105.306,52.653L225.788,334.6c-13.219,6.575-28.756,6.575-41.975,0l-83.636-41.816
				C101.053,292.036,102.005,291.382,103.017,290.833z M234.667,491.792l-72.533-36.267v-50.072
				c23.225,8.619,48.52,9.976,72.533,3.892V491.792z M401.067,412.858L243.2,491.792v-84.966c5.695-1.807,11.249-4.033,16.617-6.659
				l141.25-70.625V412.858z M418.134,301.925l-12.35,6.175l-153.6,76.8c-29.846,14.842-64.921,14.842-94.767,0l-21.096-10.546
				c-26.094-12.94-42.559-39.591-42.454-68.717c0.038-2.012,0.446-4,1.204-5.865l84.925,42.46c15.624,7.767,33.984,7.767,49.608,0
				l147.771-73.883c0.074-0.037,0.116-0.105,0.187-0.146c0.045-0.026,0.102-0.014,0.146-0.042c0.116-0.072,0.166-0.205,0.274-0.286
				c0.39-0.286,0.726-0.638,0.995-1.04c0.11-0.165,0.207-0.337,0.291-0.516c0.214-0.46,0.343-0.955,0.38-1.461
				c0.009-0.114,0.085-0.209,0.085-0.326V96.504l38.4-19.2V301.925z"/>
			<path d="M195.259,324.267c6.01,2.989,13.073,2.989,19.083,0l111.833-55.917c1.445-0.723,2.358-2.201,2.358-3.817
				s-0.913-3.094-2.358-3.817l-68.267-34.133c-1.201-0.6-2.615-0.6-3.817,0l-104.2,52.1c-4.336,2.169-7.075,6.602-7.075,11.45
				c0,4.848,2.739,9.281,7.075,11.45v0L195.259,324.267z M210.525,316.633c-3.605,1.796-7.845,1.796-11.45,0l-27.362-13.681
				L256,260.771l33.125,16.563L210.525,316.633z M153.709,286.317L153.709,286.317L256,235.171l58.725,29.363l-16.058,8.029
				l-40.758-20.379c-1.202-0.6-2.615-0.6-3.817,0l-91.918,45.999l-8.466-4.232c-1.445-0.723-2.358-2.201-2.358-3.817
				S152.263,287.04,153.709,286.317z"/>
			<path d="M343.242,47.383l-17.067-8.533c-2.107-1.047-4.664-0.192-5.716,1.913s-0.203,4.663,1.899,5.721l17.067,8.533
				c2.107,1.047,4.664,0.192,5.716-1.913S345.344,48.441,343.242,47.383z"/>
		</g>
	</g>
</g>
<g>
</g>
<g>
</g>
<g>
</g>
<g>
</g>
<g>
</g>
<g>
</g>
<g>
</g>
<g>
</g>
<g>
</g>
<g>
</g>
<g>
</g>
<g>
</g>
<g>
</g>
<g>
</g>
<g>
</g>
</svg>
