<?xml version="1.0" encoding="iso-8859-1"?>
<!-- Generator: Adobe Illustrator 19.0.0, SVG Export Plug-In . SVG Version: 6.00 Build 0)  -->
<svg version="1.1" id="Capa_1" xmlns="http://www.w3.org/2000/svg" xmlns:xlink="http://www.w3.org/1999/xlink" x="0px" y="0px"
	 viewBox="0 0 512 512" style="enable-background:new 0 0 512 512;" xml:space="preserve">
<g>
	<g>
		<g>
			<path d="M507.283,150.233L336.617,64.9c-2.403-1.2-5.23-1.2-7.633,0L4.717,227.033c-2.891,1.445-4.717,4.401-4.717,7.633v119.467
				c-0.001,3.232,1.825,6.188,4.717,7.633L175.383,447.1c2.403,1.2,5.23,1.2,7.633,0l324.267-162.133
				c2.891-1.445,4.717-4.401,4.717-7.633V157.867C512.001,154.634,510.175,151.679,507.283,150.233z M174.933,427.792
				L17.067,348.858v-45.421l157.867,78.933V427.792z M174.933,372.829L17.067,293.896v-41.658l157.867,78.933V372.829z
				 M494.933,272.058L183.467,427.792v-45.421l311.467-155.733V272.058z M494.933,217.096L183.467,372.829v-41.658l311.467-155.733
				V217.096z M494.933,165.896L179.2,323.762L17.067,242.696v-2.754L332.8,82.075l162.133,81.067V165.896z"/>
			<path d="M153.6,191.496l-6.625-3.313c-1.201-0.6-2.615-0.6-3.817,0l-34.133,17.067c-1.445,0.723-2.358,2.201-2.358,3.817V268.8
				c0,1.616,0.913,3.094,2.358,3.817l34.133,17.067c1.188,0.629,2.616,0.599,3.776-0.081l0.041,0.081l15.158-7.579l32.225,16.112
				c1.202,0.6,2.615,0.6,3.817,0l256-128c1.445-0.723,2.358-2.201,2.358-3.817c0-1.616-0.913-3.094-2.358-3.817L334.708,102.85
				c-1.202-0.6-2.615-0.6-3.817,0L153.6,191.496z M328.533,113.571v33.125L166.4,227.763v-7.525l14.708-7.354
				c1.445-0.723,2.358-2.201,2.358-3.817c0-1.616-0.913-3.094-2.358-3.817l-17.967-8.983L328.533,113.571z M328.533,156.238v24.592
				L166.4,261.896v-24.592L328.533,156.238z M157.867,274.696l-8.533,4.267v-50.192l8.533-4.267V274.696z M143.158,222.317
				c-1.445,0.723-2.358,2.201-2.358,3.817v52.829l-25.6-12.8v-54.458l29.867-14.933l24.592,12.296L143.158,222.317z
				 M337.067,113.571L442.725,166.4L409.6,182.963l-72.533-36.267V113.571z M337.067,156.238l62.992,31.496l-24.592,12.296
				l-38.4-19.2V156.238z M365.925,204.8l-169.658,84.829L166.4,274.696v-3.258l166.4-83.2L365.925,204.8z"/>
		</g>
	</g>
</g>
<g>
</g>
<g>
</g>
<g>
</g>
<g>
</g>
<g>
</g>
<g>
</g>
<g>
</g>
<g>
</g>
<g>
</g>
<g>
</g>
<g>
</g>
<g>
</g>
<g>
</g>
<g>
</g>
<g>
</g>
</svg>
