<?xml version="1.0" encoding="iso-8859-1"?>
<!-- Generator: Adobe Illustrator 19.0.0, SVG Export Plug-In . SVG Version: 6.00 Build 0)  -->
<svg version="1.1" id="Capa_1" xmlns="http://www.w3.org/2000/svg" xmlns:xlink="http://www.w3.org/1999/xlink" x="0px" y="0px"
	 viewBox="0 0 512.005 512.005" style="enable-background:new 0 0 512.005 512.005;" xml:space="preserve">
<g transform="translate(0 -1)">
	<g>
		<g>
			<path d="M460.559,85.132c-0.054-0.61-0.175-1.212-0.361-1.796c-0.223-0.504-0.496-0.984-0.816-1.433
				c-0.253-0.469-0.552-0.912-0.891-1.323c-0.452-0.441-0.953-0.829-1.493-1.157c-0.294-0.265-0.607-0.508-0.938-0.727
				l-154.667-76.8c-2.431-1.215-5.296-1.193-7.708,0.059l-33.067,17.067l-0.105,0.085c-0.577,0.359-1.109,0.786-1.584,1.271
				c-0.349,0.251-0.679,0.527-0.986,0.827c-0.215,0.335-0.406,0.685-0.573,1.046c-0.403,0.584-0.732,1.216-0.977,1.881l-0.066,0.127
				l-16.033,56.125L55.919,172.571c-0.344,0.228-0.67,0.482-0.975,0.761c-0.516,0.32-0.996,0.694-1.431,1.118
				c-0.35,0.42-0.657,0.875-0.915,1.358c-0.309,0.44-0.574,0.908-0.792,1.399c-0.188,0.588-0.31,1.195-0.365,1.81
				c-0.109,0.389-0.189,0.786-0.24,1.187v68.267c0.05,0.401,0.13,0.798,0.24,1.188c0.055,0.615,0.177,1.222,0.365,1.81
				c0.218,0.491,0.483,0.96,0.792,1.399c0.258,0.482,0.564,0.937,0.915,1.358c0.435,0.423,0.915,0.798,1.431,1.118
				c0.305,0.279,0.631,0.533,0.975,0.761l153.6,76.8c0.335,0.147,0.68,0.271,1.031,0.372c0.217,0.076,0.422,0.175,0.645,0.233
				c0.695,0.188,1.412,0.287,2.132,0.295l0.009-0.001l0.009,0.001c0.72-0.007,1.436-0.107,2.131-0.295
				c0.225-0.058,0.43-0.158,0.648-0.234c0.351-0.101,0.695-0.225,1.029-0.371l4.716-2.358v66.25l-29.417,14.708
				c-2.891,1.446-4.717,4.401-4.717,7.633v34.133c-0.001,3.233,1.825,6.188,4.717,7.633l102.4,51.2c2.403,1.2,5.23,1.2,7.633,0
				l68.267-34.133c2.891-1.445,4.717-4.401,4.717-7.633v-34.133c0.001-3.232-1.825-6.188-4.717-7.633l-29.417-14.708v-143.05
				l114.75-57.375c2.891-1.446,4.717-4.401,4.717-7.633V86.338C460.752,85.93,460.671,85.527,460.559,85.132z M297.677,19.1
				l140.247,69.639l-19.789,9.894L278.681,28.907L297.677,19.1z M271.112,34.663l141.949,70.974l-14.678,51.386l-78.38-39.19V69.271
				c-0.016-0.71-0.213-1.404-0.574-2.016c-0.088-0.152-0.187-0.298-0.295-0.437c-0.339-0.475-0.774-0.873-1.277-1.169
				c-0.085-0.05-0.123-0.15-0.212-0.195l-17.067-8.533c-1.201-0.6-2.615-0.6-3.817,0l-34.133,17.067
				c-1.445,0.723-2.358,2.201-2.358,3.817s0.913,3.094,2.358,3.817l16.45,8.225l1.035,1.035l-7.014,3.5l-16.668-8.334
				L271.112,34.663z M302.909,120.338c-0.028-0.277-0.083-0.55-0.165-0.816c-0.047-0.284-0.122-0.563-0.224-0.832l-0.034-0.127
				c-0.112-0.169-0.237-0.329-0.374-0.479c-0.162-0.263-0.352-0.506-0.568-0.727c-0.207-0.172-0.431-0.322-0.668-0.45
				c-0.459-0.358-1.019-0.561-1.601-0.58c-0.199-0.056-0.401-0.097-0.606-0.122l-0.131,0.027c-0.558,0.094-1.109,0.224-1.65,0.389
				l-0.127,0.034l-27.958,13.979v-7.525l31.775-15.888c0.195-0.126,0.378-0.27,0.548-0.428c0.197-0.108,0.384-0.233,0.56-0.372
				c0.04-0.04,0.052-0.095,0.09-0.136c0.197-0.234,0.367-0.49,0.507-0.763c0.142-0.206,0.265-0.424,0.368-0.652
				c0.075-0.255,0.126-0.516,0.152-0.78c0.155-0.506,0.143-1.048-0.034-1.547c-0.047-0.303-0.127-0.6-0.239-0.885
				c-0.023-0.053-0.018-0.11-0.044-0.162c-0.295-0.348-0.562-0.719-0.8-1.108l-12.881-12.881l22.665-11.332v75.792l-8.533,4.267
				v-35.763L302.909,120.338z M294.402,127.375v28.858l-8.533-4.267v-20.325L294.402,127.375z M257.011,111.938l29.464-14.694
				l4.992,4.992L264.536,115.7L257.011,111.938z M260.269,123.109v7.525l-8.533-4.267v-7.525L260.269,123.109z M281.602,81.567
				l-7.525-3.763l24.592-12.296l7.525,3.763L281.602,81.567z M209.069,313.596l-140.8-70.4v-53.954l140.8,70.4V313.596z
				 M213.336,252.234L74.048,182.59l177.238-88.619c0.257-0.181,0.503-0.376,0.738-0.585l11.523,5.761l-17.985,8.974
				c-0.09,0.045-0.127,0.144-0.212,0.195c-0.503,0.296-0.938,0.694-1.277,1.169c-0.108,0.139-0.207,0.285-0.295,0.437
				c-0.361,0.612-0.558,1.306-0.574,2.016v17.067c0.002,1.616,0.914,3.092,2.358,3.817l17.067,8.533c1.201,0.6,2.615,0.6,3.817,0
				l10.892-5.446v18.696c0.002,1.616,0.914,3.092,2.358,3.817l17.067,8.533c1.201,0.6,2.615,0.6,3.817,0l17.067-8.533
				c1.444-0.725,2.356-2.201,2.358-3.817v-27.229l71.529,35.765L213.336,252.234z M294.402,492.796l-89.6-44.8v-19.821l89.6,44.8
				V492.796z M294.402,463.434l-83.821-41.91l23.638-11.819c0.278-0.169,0.546-0.353,0.802-0.553l59.381,29.69V463.434z
				 M298.669,431.434l-59.733-29.867v-79.554l85.333-42.667v139.288L298.669,431.434z M358.402,465.063l-55.467,27.733v-19.821
				l55.467-27.733V465.063z M352.623,438.59l-49.687,24.844v-24.592l25.248-12.624c0.256,0.2,0.524,0.385,0.802,0.553
				L352.623,438.59z M443.736,200.53L217.602,313.596v-53.954l185.375-92.688c0.062-0.031,0.101-0.094,0.162-0.129
				c0.136-0.096,0.267-0.2,0.392-0.311c0.447-0.323,0.825-0.732,1.11-1.204c0.065-0.106,0.188-0.151,0.244-0.264
				c0.066-0.132,0.058-0.274,0.11-0.408c0.044-0.117,0.139-0.207,0.173-0.329l16.55-57.925l22.017-11.008V200.53z"/>
			<path d="M292.044,184.921l-85.333-42.667c-1.201-0.6-2.615-0.6-3.817,0l-85.333,42.667c-1.445,0.723-2.358,2.201-2.358,3.817
				c0,1.616,0.913,3.094,2.358,3.817l85.333,42.667c1.201,0.6,2.615,0.6,3.817,0l85.333-42.667c1.445-0.723,2.358-2.201,2.358-3.817
				C294.402,187.122,293.489,185.644,292.044,184.921z M204.802,226.634l-75.792-37.896l75.792-37.896l75.792,37.896
				L204.802,226.634z"/>
			<path d="M191.494,185.646c-4.176,0.51-7.65,3.449-8.845,7.483c-1.194,4.034,0.12,8.391,3.345,11.092
				c4.787,4.507,11.054,7.113,17.625,7.329c2.448-0.004,4.879-0.404,7.2-1.183v-0.004c4.177-0.505,7.656-3.443,8.852-7.477
				c1.197-4.034-0.117-8.393-3.344-11.094C209.749,185.441,200.275,183.097,191.494,185.646z M210.294,197.825
				c0.55,0.554,1.367,1.921,1.242,2.433c-0.058,0.246-0.808,1.142-3.417,2.008v0.004c-5.709,1.564-11.82,0.014-16.092-4.083
				c-0.666-0.658-1.104-1.512-1.25-2.438c0.058-0.246,0.808-1.142,3.417-2.008c1.447-0.487,2.964-0.737,4.492-0.738
				C203.005,193.18,207.121,194.889,210.294,197.825z"/>
		</g>
	</g>
</g>
<g>
</g>
<g>
</g>
<g>
</g>
<g>
</g>
<g>
</g>
<g>
</g>
<g>
</g>
<g>
</g>
<g>
</g>
<g>
</g>
<g>
</g>
<g>
</g>
<g>
</g>
<g>
</g>
<g>
</g>
</svg>
