<?xml version="1.0" encoding="iso-8859-1"?>
<!-- Generator: Adobe Illustrator 19.0.0, SVG Export Plug-In . SVG Version: 6.00 Build 0)  -->
<svg version="1.1" id="Capa_1" xmlns="http://www.w3.org/2000/svg" xmlns:xlink="http://www.w3.org/1999/xlink" x="0px" y="0px"
	 viewBox="0 0 512 512" style="enable-background:new 0 0 512 512;" xml:space="preserve">
<g>
	<g>
		<g>
			<path d="M456.083,120.367L217.15,0.9c-2.403-1.2-5.23-1.2-7.633,0l-153.6,76.8c-2.891,1.445-4.717,4.401-4.717,7.633V384
				c-0.001,3.232,1.825,6.188,4.717,7.633L294.85,511.1c2.403,1.2,5.23,1.2,7.633,0l153.6-76.8c2.891-1.446,4.717-4.401,4.717-7.633
				V128C460.801,124.768,458.975,121.812,456.083,120.367z M174.933,432.058L68.267,378.725V94.371l106.667,53.333V432.058z
				 M294.4,491.792l-111.14-55.57c0.112-0.33,0.181-0.674,0.206-1.022V151.971L294.4,207.437V491.792z M298.667,200.029
				L74.046,87.719l139.287-69.644l224.621,112.31L298.667,200.029z M443.733,421.392l-140.8,70.4V207.437l140.8-70.4V421.392z"/>
			<path d="M83.425,345.15l68.267,34.133c0.593,0.296,1.246,0.45,1.908,0.45c2.356-0.001,4.265-1.911,4.267-4.267v-204.8
				c-0.002-1.616-0.914-3.092-2.358-3.817l-68.267-34.133c-1.323-0.66-2.893-0.589-4.151,0.188c-1.258,0.777-2.023,2.15-2.024,3.629
				v204.8C81.069,342.949,81.981,344.425,83.425,345.15z M89.6,271.438l14.708-7.354c1.367-0.68,2.267-2.038,2.36-3.562
				c0.093-1.524-0.636-2.982-1.911-3.822c-1.275-0.84-2.902-0.935-4.266-0.249L89.6,261.896v-24.592l31.775-15.888
				c1.367-0.68,2.267-2.038,2.36-3.562c0.093-1.524-0.636-2.982-1.911-3.822c-1.275-0.84-2.902-0.935-4.266-0.249L89.6,227.762
				v-24.592l14.708-7.354c1.367-0.68,2.267-2.038,2.36-3.562c0.093-1.524-0.636-2.982-1.911-3.822s-2.902-0.935-4.266-0.249
				L89.6,193.629v-50.192l50.192,25.096l-13.7,6.85c-2.102,1.057-2.951,3.616-1.899,5.72c1.052,2.104,3.609,2.96,5.716,1.913
				l19.425-9.712v24.592l-14.708,7.354c-2.102,1.057-2.951,3.616-1.899,5.721c1.052,2.104,3.609,2.96,5.716,1.913l10.892-5.446
				v24.592l-23.242,11.621c-2.102,1.057-2.951,3.616-1.899,5.72s3.609,2.96,5.716,1.913l19.425-9.713v126.992L89.6,338.696V271.438z
				"/>
			<path d="M129.908,380.183l-17.067-8.533c-1.364-0.686-2.991-0.591-4.266,0.249s-2.004,2.298-1.911,3.822
				c0.093,1.524,0.993,2.883,2.36,3.562l17.067,8.533c2.107,1.047,4.664,0.192,5.716-1.913S132.01,381.24,129.908,380.183z"/>
			<path d="M202.892,404.883l68.267,34.133c0.593,0.296,1.246,0.45,1.908,0.45c2.356-0.001,4.265-1.911,4.267-4.267V230.4
				c-0.002-1.616-0.914-3.092-2.358-3.817l-68.267-34.133c-1.323-0.66-2.893-0.589-4.151,0.188c-1.258,0.777-2.023,2.15-2.024,3.629
				v204.8C200.535,402.682,201.448,404.159,202.892,404.883z M209.067,331.171l14.708-7.354c2.102-1.057,2.951-3.616,1.899-5.721
				c-1.052-2.104-3.609-2.96-5.716-1.913l-10.892,5.446v-24.592l31.775-15.888c2.102-1.057,2.951-3.616,1.899-5.72
				c-1.052-2.104-3.609-2.96-5.716-1.913l-27.958,13.979v-24.592l14.708-7.354c1.367-0.68,2.267-2.038,2.36-3.562
				c0.093-1.524-0.636-2.982-1.911-3.822c-1.275-0.84-2.902-0.935-4.266-0.249l-10.892,5.446v-50.192l50.192,25.096l-13.7,6.85
				c-2.102,1.057-2.951,3.616-1.899,5.72c1.052,2.104,3.609,2.96,5.716,1.913l19.425-9.712v24.592l-14.708,7.354
				c-2.102,1.057-2.951,3.616-1.899,5.72c1.052,2.104,3.609,2.96,5.716,1.913l10.892-5.446v24.592l-23.242,11.621
				c-2.102,1.057-2.951,3.616-1.899,5.721c1.052,2.104,3.609,2.96,5.716,1.913l19.425-9.713v126.992l-59.733-29.867V331.171z"/>
			<path d="M249.375,439.917l-17.067-8.533c-2.107-1.047-4.664-0.191-5.716,1.913c-1.052,2.104-0.203,4.663,1.899,5.721
				l17.067,8.533c1.364,0.686,2.991,0.591,4.266-0.249s2.004-2.298,1.911-3.822C251.642,441.955,250.742,440.596,249.375,439.917z"
				/>
		</g>
	</g>
</g>
<g>
</g>
<g>
</g>
<g>
</g>
<g>
</g>
<g>
</g>
<g>
</g>
<g>
</g>
<g>
</g>
<g>
</g>
<g>
</g>
<g>
</g>
<g>
</g>
<g>
</g>
<g>
</g>
<g>
</g>
</svg>
