<?xml version="1.0" encoding="iso-8859-1"?>
<!-- Generator: Adobe Illustrator 19.0.0, SVG Export Plug-In . SVG Version: 6.00 Build 0)  -->
<svg version="1.1" id="Capa_1" xmlns="http://www.w3.org/2000/svg" xmlns:xlink="http://www.w3.org/1999/xlink" x="0px" y="0px"
	 viewBox="0 0 512 512" style="enable-background:new 0 0 512 512;" xml:space="preserve">
<g>
	<g>
		<path d="M469.093,160.943c-0.055-0.613-0.177-1.219-0.364-1.806c-0.495-0.963-1.065-1.886-1.706-2.759
			c-0.436-0.424-0.917-0.799-1.434-1.119c-0.305-0.278-0.63-0.532-0.973-0.76L264.533,54.458V25.6c-0.05-0.402-0.13-0.8-0.24-1.19
			c-0.055-0.613-0.177-1.219-0.364-1.806c-0.217-0.493-0.483-0.963-0.793-1.404c-0.258-0.481-0.564-0.935-0.913-1.355
			c-0.436-0.424-0.917-0.799-1.434-1.119c-0.305-0.278-0.63-0.532-0.973-0.76L225.683,0.9c-2.403-1.2-5.23-1.2-7.633,0
			L47.383,86.233c-0.344,0.228-0.67,0.483-0.975,0.761c-0.516,0.32-0.996,0.695-1.432,1.118c-0.64,0.873-1.21,1.795-1.705,2.757
			c-0.188,0.588-0.31,1.195-0.365,1.81c-0.109,0.389-0.189,0.786-0.239,1.187v324.267c-0.001,3.232,1.825,6.188,4.717,7.633
			l34.133,17.067L218.05,511.1c1.185,0.592,2.492,0.9,3.817,0.9H358.4c1.325,0,2.631-0.308,3.817-0.9l102.4-51.2
			c2.891-1.446,4.717-4.401,4.717-7.633V162.133C469.284,161.731,469.203,161.333,469.093,160.943z M252.183,67.367l194.304,97.152
			l-89.096,44.548H222.875l-128-64l156.506-78.253C251.637,67.013,251.905,67.198,252.183,67.367z M222.875,337.067L89.6,270.429
			v-3.258l81.067-40.533l49.292,24.646l0.117,0.028c0.559,0.271,1.17,0.416,1.791,0.422H358.4c0.621-0.007,1.233-0.151,1.791-0.422
			l0.117-0.028l6.625-3.313l84.325,42.163l-93.867,46.933H222.875z M354.133,345.6v25.6h-128v-25.6H354.133z M89.6,304.563v-24.592
			l128,64v24.592L89.6,304.563z M169.658,354.133L89.6,394.163v-80.058L169.658,354.133z M161.125,221.867L89.6,257.629v-71.525
			L161.125,221.867z M89.6,176.562v-24.592l128,64v24.592L89.6,176.562z M226.133,243.2v-25.6h128v25.6H226.133z M247.467,59.229
			L89.6,138.163v-24.592l157.867-78.933V59.229z M81.067,423.525l-21.333-10.667V102.904l21.333,10.667V423.525z M65.513,96.252
			l156.354-78.177l19.821,9.91L85.333,106.163L65.513,96.252z M217.6,491.792l-128-64v-19.821l128,64V491.792z M354.133,494.933
			h-128V473.6h128V494.933z M357.392,465.067H222.875l-128-64l84.325-42.163l40.758,20.379l0.117,0.028
			c0.559,0.271,1.17,0.416,1.791,0.422H358.4c0.621-0.007,1.233-0.151,1.791-0.422l0.117-0.028l7.416-3.708l83.599,42.526
			L357.392,465.067z M452.267,446.992l-89.6,44.8v-19.821l89.6-44.8V446.992z M452.267,409.005l-75.049-38.177l75.049-37.524
			V409.005z M452.267,323.763l-89.6,44.8v-24.592l89.6-44.8V323.763z M452.267,281.096L376.475,243.2l75.792-37.896V281.096z
			 M452.267,195.762l-89.6,44.8v-24.592l89.6-44.8V195.762z"/>
	</g>
</g>
<g>
</g>
<g>
</g>
<g>
</g>
<g>
</g>
<g>
</g>
<g>
</g>
<g>
</g>
<g>
</g>
<g>
</g>
<g>
</g>
<g>
</g>
<g>
</g>
<g>
</g>
<g>
</g>
<g>
</g>
</svg>
