<?xml version="1.0" encoding="iso-8859-1"?>
<!-- Generator: Adobe Illustrator 19.0.0, SVG Export Plug-In . SVG Version: 6.00 Build 0)  -->
<svg version="1.1" id="Capa_1" xmlns="http://www.w3.org/2000/svg" xmlns:xlink="http://www.w3.org/1999/xlink" x="0px" y="0px"
	 viewBox="0 0 512 512" style="enable-background:new 0 0 512 512;" xml:space="preserve">
<g>
	<g>
		<path d="M511.956,251.34c-0.008-0.241-0.07-0.469-0.099-0.709c-0.097-0.807-0.311-1.596-0.634-2.342
			c-0.064-0.147-0.05-0.306-0.122-0.451c-0.045-0.09-0.13-0.141-0.178-0.228c-0.468-0.885-1.089-1.679-1.835-2.347
			c-0.135-0.119-0.294-0.19-0.435-0.299c-0.424-0.359-0.882-0.675-1.368-0.943L409.6,195.18v-45.925c-0.05-0.402-0.13-0.8-0.24-1.19
			c-0.055-0.613-0.177-1.219-0.364-1.806c-0.495-0.963-1.065-1.886-1.706-2.759c-0.436-0.424-0.917-0.799-1.434-1.119
			c-0.305-0.278-0.63-0.532-0.973-0.76L183.016,30.688c-0.187-0.093-0.39-0.078-0.58-0.157c-2.089-0.782-4.391-0.782-6.479,0.002
			c-0.188,0.078-0.389,0.063-0.574,0.155l-128,64c-0.344,0.228-0.67,0.483-0.975,0.761c-0.516,0.32-0.996,0.695-1.432,1.118
			c-0.64,0.873-1.21,1.795-1.705,2.757c-0.188,0.588-0.31,1.195-0.365,1.81c-0.109,0.389-0.189,0.786-0.239,1.187v45.925
			l-37.95,18.975c-0.276,0.188-0.539,0.394-0.789,0.616c-0.402,0.231-0.783,0.495-1.141,0.789c-0.168,0.155-0.322,0.306-0.477,0.474
			c-0.303,0.365-0.573,0.757-0.808,1.169c-0.216,0.244-0.417,0.501-0.602,0.769c-0.042,0.083-0.031,0.174-0.07,0.258
			c-0.086,0.186-0.153,0.369-0.226,0.561c-0.148,0.47-0.254,0.953-0.317,1.442c-0.112,0.426-0.191,0.861-0.236,1.299
			C0.049,174.689,0,174.764,0,174.855v136.533c-0.001,3.232,1.825,6.188,4.717,7.633l34.133,17.067
			c0.074,0.037,0.161,0.021,0.236,0.056c2.254,1.126,4.907,1.126,7.161,0c0.075-0.035,0.162-0.019,0.236-0.056l34.133-17.067
			c1.372-0.692,2.531-1.742,3.354-3.04l206.163,103.081v37.392c-0.001,3.232,1.825,6.188,4.717,7.633l34.133,17.067
			c0.074,0.037,0.161,0.021,0.236,0.056c2.254,1.126,4.907,1.126,7.161,0c0.075-0.035,0.162-0.019,0.236-0.056l34.133-17.067
			c2.891-1.445,4.717-4.401,4.717-7.633v-37.392l52.563-26.281c0.823,1.298,1.982,2.348,3.354,3.04l34.133,17.067
			c0.075,0.037,0.161,0.021,0.236,0.056c2.254,1.126,4.907,1.126,7.161,0c0.075-0.035,0.162-0.019,0.236-0.056l34.133-17.067
			c2.891-1.446,4.717-4.401,4.717-7.633V251.655C512,251.547,511.96,251.448,511.956,251.34z M179.2,47.863L386.754,151.64
			L358.4,165.817L181.108,77.171l-0.126-0.034c-0.094-0.044-0.189-0.078-0.286-0.115c-0.24-0.075-0.486-0.128-0.736-0.158
			c-0.201-0.053-0.405-0.091-0.612-0.114c-0.052-0.002-0.096-0.029-0.148-0.029l-0.135,0.027c-0.225,0.024-0.447,0.066-0.666,0.126
			c-0.229,0.03-0.456,0.078-0.678,0.145c-0.104,0.039-0.203,0.072-0.303,0.118l-0.127,0.034l-83.425,41.713l-28.354-14.177
			L179.2,47.863z M392.533,158.292v41.658l-29.867,14.933v-41.658L392.533,158.292z M129.513,225.803l111.329-55.665
			c0.672-0.357,1.233-0.893,1.62-1.548v0l93.596,46.797l-113.688,56.844L129.513,225.803z M217.6,288.93v45.421l-94.165-47.082
			c0.188-0.471,0.289-0.973,0.299-1.48v-43.792L217.6,288.93z M183.467,129.551V87.892l170.667,85.333v41.658L183.467,129.551z
			 M174.933,87.892v41.658l-76.8,38.4v-41.658L174.933,87.892z M59.733,111.359L89.6,126.292v41.658l-29.867-14.933V111.359z
			 M55.017,161.155c0.26-0.179,0.509-0.373,0.745-0.582l36.196,18.098l0.117,0.028c1.128,0.563,2.455,0.563,3.582,0l0.117-0.028
			l83.425-41.712l54.458,27.229l-113.688,56.844l-92.354-46.177L55.017,161.155z M17.067,188.663L115.2,237.73v45.421
			l-98.133-49.067V188.663z M34.133,314.646l-17.067-8.533V282.53l17.067,8.533V314.646z M51.2,314.646v-15.05l15.05,7.525
			L51.2,314.646z M324.267,459.713L307.2,451.18v-23.583l17.067,8.533V459.713z M324.267,417.046l-307.2-153.6v-19.821l307.2,153.6
			V417.046z M324.267,387.684l-98.432-49.216c0.188-0.471,0.289-0.973,0.299-1.48v-43.792l98.133,49.067V387.684z M332.8,327.447
			l-100.887-50.444l111.329-55.665c0.672-0.357,1.233-0.893,1.62-1.548l11.63,5.815l0.117,0.028c1.128,0.563,2.455,0.563,3.582,0
			l0.117-0.028l36.196-18.098c0.237,0.208,0.486,0.403,0.745,0.582l87.133,43.567L332.8,327.447z M358.4,451.18l-17.067,8.533
			V436.13l17.067-8.533V451.18z M460.8,391.446l-15.05-7.525l15.05-7.525V391.446z M494.933,382.913l-17.067,8.533v-23.583
			l17.067-8.533V382.913z M494.933,340.246l-153.6,76.8v-19.821l153.6-76.8V340.246z M494.933,310.884l-153.6,76.8v-45.421
			l153.6-76.8V310.884z"/>
	</g>
</g>
<g>
</g>
<g>
</g>
<g>
</g>
<g>
</g>
<g>
</g>
<g>
</g>
<g>
</g>
<g>
</g>
<g>
</g>
<g>
</g>
<g>
</g>
<g>
</g>
<g>
</g>
<g>
</g>
<g>
</g>
</svg>
