<?xml version="1.0" encoding="iso-8859-1"?>
<!-- Generator: Adobe Illustrator 19.0.0, SVG Export Plug-In . SVG Version: 6.00 Build 0)  -->
<svg version="1.1" id="Capa_1" xmlns="http://www.w3.org/2000/svg" xmlns:xlink="http://www.w3.org/1999/xlink" x="0px" y="0px"
	 viewBox="0 0 512 512" style="enable-background:new 0 0 512 512;" xml:space="preserve">
<g>
	<g>
		<g>
			<path d="M494.889,221.552c-0.009-0.241-0.07-0.469-0.099-0.709c-0.097-0.807-0.311-1.596-0.634-2.342
				c-0.064-0.147-0.049-0.306-0.122-0.451c-0.045-0.09-0.13-0.141-0.178-0.228c-0.468-0.885-1.089-1.679-1.835-2.347
				c-0.137-0.12-0.296-0.191-0.439-0.302c-0.423-0.358-0.88-0.673-1.365-0.941L63.55,0.9c-2.403-1.2-5.23-1.2-7.633,0L21.784,17.967
				c-0.486,0.268-0.945,0.584-1.368,0.943c-0.142,0.109-0.3,0.181-0.435,0.3c-0.746,0.667-1.367,1.462-1.835,2.347
				c-0.048,0.087-0.133,0.138-0.178,0.228c-0.073,0.145-0.059,0.304-0.122,0.451c-0.323,0.746-0.537,1.535-0.634,2.342
				c-0.029,0.24-0.091,0.469-0.099,0.709c-0.004,0.107-0.044,0.207-0.044,0.315v264.533c-0.001,3.232,1.825,6.188,4.717,7.633
				L448.45,511.1c0.075,0.037,0.161,0.021,0.237,0.056c2.254,1.126,4.907,1.126,7.161,0c0.075-0.035,0.162-0.019,0.236-0.056
				l34.133-17.067c2.891-1.446,4.717-4.401,4.717-7.633V221.867C494.934,221.759,494.893,221.66,494.889,221.552z M443.734,489.659
				l-409.6-204.8V39.409l409.6,204.8V489.659z M452.267,229.392L44.684,25.6l15.05-7.525l407.583,203.792L452.267,229.392z
				 M477.867,481.125l-17.067,8.533v-245.45l17.067-8.533V481.125z"/>
			<path d="M55.917,274.975c0.032,0.063,0.101,0.086,0.135,0.146c0.229,0.336,0.507,0.637,0.823,0.893
				c0.239,0.285,0.514,0.537,0.819,0.749c0.054,0.03,0.076,0.093,0.131,0.12l358.4,179.2c0.593,0.296,1.246,0.45,1.908,0.45
				c2.356-0.001,4.265-1.911,4.267-4.267V256c-0.002-1.616-0.914-3.092-2.358-3.817l-358.4-179.2
				c-1.323-0.66-2.893-0.589-4.151,0.188c-1.258,0.777-2.023,2.15-2.024,3.629v196.267l0.03,0.107
				C55.502,273.798,55.645,274.413,55.917,274.975z M81.067,92.238l332.8,166.4v169.658l-332.8-166.4V92.238z M413.867,437.838
				v7.525L69.275,273.067l7.525-3.763L413.867,437.838z M64,83.704l8.533,4.267v173.925L64,266.163V83.704z"/>
			<path d="M164.042,149.784l-51.2-25.6c-1.323-0.66-2.893-0.589-4.151,0.188c-1.258,0.777-2.023,2.15-2.024,3.629v68.267
				c0.002,1.616,0.914,3.092,2.358,3.817l51.2,25.6c0.593,0.296,1.246,0.45,1.908,0.45c2.356-0.001,4.265-1.911,4.267-4.267V153.6
				C166.398,151.985,165.486,150.508,164.042,149.784z M157.867,214.963L115.2,193.63v-58.725l42.667,21.333V214.963z"/>
			<path d="M126.092,165.95l17.067,8.533c1.364,0.686,2.991,0.591,4.266-0.249c1.275-0.84,2.004-2.298,1.911-3.822
				c-0.093-1.524-0.993-2.883-2.36-3.562l-17.067-8.533c-1.364-0.686-2.991-0.591-4.266,0.249c-1.275,0.84-2.004,2.298-1.911,3.822
				C123.824,163.912,124.724,165.271,126.092,165.95z"/>
			<path d="M126.092,183.017l17.067,8.533c1.364,0.686,2.991,0.591,4.266-0.249s2.004-2.298,1.911-3.822
				c-0.093-1.524-0.993-2.883-2.36-3.562l-17.067-8.533c-1.364-0.686-2.991-0.591-4.266,0.249c-1.275,0.84-2.004,2.298-1.911,3.822
				C123.824,180.979,124.724,182.337,126.092,183.017z"/>
			<path d="M394.442,286.317l-51.2-25.6c-1.323-0.661-2.893-0.589-4.151,0.188s-2.023,2.15-2.024,3.629V332.8
				c0.002,1.616,0.914,3.092,2.358,3.817l51.2,25.6c0.593,0.296,1.246,0.45,1.908,0.45c2.356-0.001,4.265-1.911,4.267-4.267v-68.267
				C396.798,288.518,395.886,287.042,394.442,286.317z M388.267,351.496L345.6,330.163v-58.725l42.667,21.333V351.496z"/>
			<path d="M356.492,302.484l17.067,8.533c2.107,1.047,4.664,0.191,5.716-1.913c1.052-2.104,0.203-4.663-1.899-5.721l-17.067-8.533
				c-1.364-0.686-2.991-0.591-4.266,0.249c-1.275,0.84-2.004,2.298-1.911,3.822S355.124,301.804,356.492,302.484z"/>
			<path d="M356.492,319.55l17.067,8.533c2.107,1.047,4.664,0.192,5.716-1.913s0.203-4.663-1.899-5.72l-17.067-8.533
				c-1.364-0.686-2.991-0.591-4.266,0.249c-1.275,0.84-2.004,2.298-1.911,3.822S355.124,318.871,356.492,319.55z"/>
			<path d="M257.909,200.984l-68.267-34.133c-1.323-0.66-2.893-0.589-4.151,0.188c-1.258,0.777-2.023,2.15-2.024,3.629v119.467
				c0.002,1.616,0.914,3.092,2.358,3.817l68.267,34.133c0.593,0.296,1.246,0.45,1.908,0.45c2.356-0.001,4.265-1.911,4.267-4.267
				V204.8C260.265,203.185,259.353,201.708,257.909,200.984z M251.734,317.363L192,287.496V177.571l59.733,29.867V317.363z"/>
			<path d="M202.892,204.35l34.133,17.067c1.364,0.686,2.991,0.591,4.266-0.249c1.275-0.84,2.004-2.298,1.911-3.822
				c-0.093-1.524-0.993-2.883-2.36-3.562l-34.133-17.067c-2.107-1.047-4.664-0.192-5.716,1.913
				C199.94,200.734,200.79,203.293,202.892,204.35z"/>
			<path d="M202.892,225.684l34.133,17.067c1.364,0.686,2.991,0.591,4.266-0.249c1.275-0.84,2.004-2.298,1.911-3.822
				c-0.093-1.524-0.993-2.883-2.36-3.562l-34.133-17.067c-2.107-1.047-4.664-0.192-5.716,1.913
				C199.94,222.067,200.79,224.626,202.892,225.684z"/>
			<path d="M202.892,251.284l34.133,17.067c1.364,0.686,2.991,0.591,4.266-0.249c1.275-0.84,2.004-2.298,1.911-3.822
				c-0.093-1.524-0.993-2.883-2.36-3.562l-34.133-17.067c-2.107-1.047-4.664-0.192-5.716,1.913
				C199.94,247.668,200.79,250.226,202.892,251.284z"/>
			<path d="M202.892,276.884l34.133,17.067c1.364,0.686,2.991,0.591,4.266-0.249c1.275-0.84,2.004-2.298,1.911-3.822
				c-0.093-1.524-0.993-2.883-2.36-3.562l-34.133-17.067c-2.107-1.047-4.664-0.192-5.716,1.913
				C199.94,273.267,200.79,275.826,202.892,276.884z"/>
			<path d="M326.175,226.584l-34.133-17.067c-1.323-0.66-2.893-0.589-4.151,0.188c-1.258,0.777-2.023,2.15-2.024,3.629v51.2
				c0.002,1.616,0.914,3.092,2.358,3.817l34.133,17.067c0.593,0.296,1.246,0.45,1.908,0.45c2.356-0.001,4.265-1.911,4.267-4.267
				v-51.2C328.532,228.785,327.619,227.308,326.175,226.584z M320,274.696l-25.6-12.8v-41.658l25.6,12.8V274.696z"/>
			<path d="M305.575,242.859c1.033,0.456,2.209,0.456,3.242,0c0.535-0.179,1.009-0.506,1.367-0.942
				c0.833-0.767,1.299-1.852,1.283-2.983c0.012-0.559-0.105-1.114-0.341-1.621c-0.183-0.533-0.509-1.006-0.942-1.367
				c-0.358-0.435-0.832-0.76-1.367-0.937c-1.038-0.429-2.204-0.429-3.242,0c-0.534,0.18-1.007,0.504-1.367,0.937
				c-0.433,0.359-0.756,0.833-0.933,1.367c-0.237,0.507-0.353,1.062-0.342,1.621c-0.015,1.13,0.448,2.213,1.275,2.983
				C304.568,242.351,305.041,242.677,305.575,242.859z"/>
			<path d="M155.508,235.117l-34.133-17.067c-1.323-0.66-2.893-0.589-4.151,0.188c-1.258,0.777-2.023,2.15-2.024,3.629v42.667
				c0.002,1.616,0.914,3.092,2.358,3.817l34.133,17.067c0.593,0.296,1.246,0.45,1.908,0.45c2.356-0.001,4.265-1.911,4.267-4.267
				v-42.667C157.865,237.318,156.952,235.842,155.508,235.117z M149.333,274.696l-25.6-12.8v-33.125l25.6,12.8V274.696z"/>
			<path d="M134.908,251.392c0.509,0.234,1.065,0.351,1.625,0.341c1.728,0.018,3.292-1.018,3.95-2.616
				c0.657-1.598,0.274-3.435-0.966-4.638c-1.203-1.22-3.024-1.59-4.608-0.938c-0.534,0.18-1.007,0.504-1.367,0.938
				c-0.814,0.78-1.275,1.858-1.275,2.985c0,1.127,0.461,2.206,1.275,2.985C133.902,250.885,134.375,251.211,134.908,251.392z"/>
			<path d="M326.175,303.384l-34.133-17.067c-1.323-0.66-2.893-0.589-4.151,0.188c-1.258,0.777-2.023,2.15-2.024,3.629v51.2
				c0.002,1.616,0.914,3.092,2.358,3.817l34.133,17.067c0.593,0.296,1.246,0.45,1.908,0.45c2.356-0.001,4.265-1.911,4.267-4.267
				v-51.2C328.532,305.585,327.619,304.108,326.175,303.384z M320,351.496l-25.6-12.8v-41.658l25.6,12.8V351.496z"/>
			<path d="M305.575,319.659c1.033,0.456,2.209,0.456,3.242,0c0.535-0.179,1.009-0.505,1.367-0.942
				c0.833-0.767,1.299-1.852,1.283-2.983c0.012-0.559-0.105-1.114-0.341-1.621c-0.183-0.533-0.509-1.006-0.942-1.367
				c-0.358-0.435-0.832-0.76-1.367-0.937c-1.582-0.669-3.413-0.296-4.608,0.937c-0.433,0.359-0.756,0.833-0.933,1.367
				c-0.237,0.507-0.354,1.062-0.342,1.621c-0.015,1.13,0.448,2.214,1.275,2.983C304.568,319.151,305.041,319.477,305.575,319.659z"
				/>
		</g>
	</g>
</g>
<g>
</g>
<g>
</g>
<g>
</g>
<g>
</g>
<g>
</g>
<g>
</g>
<g>
</g>
<g>
</g>
<g>
</g>
<g>
</g>
<g>
</g>
<g>
</g>
<g>
</g>
<g>
</g>
<g>
</g>
</svg>
