<?xml version="1.0" encoding="iso-8859-1"?>
<!-- Generator: Adobe Illustrator 19.0.0, SVG Export Plug-In . SVG Version: 6.00 Build 0)  -->
<svg version="1.1" id="Capa_1" xmlns="http://www.w3.org/2000/svg" xmlns:xlink="http://www.w3.org/1999/xlink" x="0px" y="0px"
	 viewBox="0 0 512 512" style="enable-background:new 0 0 512 512;" xml:space="preserve">
<g>
	<g>
		<g>
			<path d="M511.404,214.646c-0.098-0.263-0.21-0.501-0.332-0.75c-0.348-0.718-0.796-1.383-1.331-1.975
				c-0.129-0.143-0.224-0.304-0.362-0.438c-0.617-0.61-1.324-1.122-2.096-1.517L114.75,13.7c-2.403-1.2-5.23-1.2-7.633,0L4.717,64.9
				c-0.773,0.396-1.481,0.908-2.098,1.519c-0.134,0.13-0.226,0.288-0.352,0.426c-0.54,0.596-0.991,1.265-1.341,1.989
				c-0.12,0.247-0.231,0.482-0.328,0.742C0.222,70.518,0.02,71.52,0,72.533V294.4c-0.001,3.232,1.825,6.188,4.717,7.633
				L397.25,498.3c0.075,0.037,0.163,0.021,0.239,0.056c2.254,1.125,4.905,1.125,7.158-0.001c0.075-0.035,0.162-0.019,0.236-0.056
				l102.4-51.2c2.891-1.445,4.718-4.401,4.717-7.633V217.6C511.98,216.588,511.779,215.587,511.404,214.646z M392.533,476.858
				L17.067,289.125V86.342l375.467,187.733V476.858z M401.067,259.258L27.612,72.533l83.321-41.658L484.383,217.6L401.067,259.258z
				 M494.933,434.192L409.6,476.858V274.075l85.333-42.667V434.192z"/>
			<path d="M209.369,283.098c0.037,0.097,0.07,0.19,0.114,0.284l0.034,0.127c0.045,0.089,0.141,0.122,0.191,0.207l0.06,0.09
				c0.128,0.238,0.28,0.464,0.452,0.672c0.209,0.203,0.439,0.384,0.686,0.54c0.112,0.097,0.23,0.187,0.353,0.271
				c0.063,0.035,0.101,0.097,0.166,0.13l68.267,34.133l0.117,0.028c0.55,0.265,1.152,0.407,1.763,0.417l0.024,0.006l0.002,0l0.003,0
				c0.699-0.015,1.384-0.206,1.99-0.556c0.152-0.088,0.298-0.187,0.438-0.294c0.488-0.343,0.897-0.787,1.199-1.301
				c0.05-0.084,0.146-0.118,0.191-0.207l0.034-0.127c0.1-0.264,0.174-0.537,0.221-0.815c0.085-0.273,0.142-0.554,0.17-0.838
				l0.026-0.128v-69.896l8.533,4.267v74.163l0.026,0.128c0.075,0.46,0.168,0.917,0.277,1.37c0.037,0.097,0.07,0.19,0.114,0.284
				l0.034,0.127c0.045,0.089,0.141,0.122,0.191,0.207l0.06,0.09c0.128,0.238,0.28,0.464,0.452,0.672
				c0.209,0.203,0.439,0.384,0.686,0.54c0.112,0.097,0.23,0.187,0.353,0.271c0.063,0.035,0.101,0.097,0.166,0.13l76.8,38.4
				l0.117,0.028c0.55,0.265,1.152,0.407,1.763,0.417l0.025,0.005l0.002-0.001l0.003,0.001c0.699-0.015,1.384-0.206,1.99-0.556
				c0.152-0.088,0.298-0.187,0.438-0.294c0.488-0.343,0.897-0.787,1.199-1.301c0.05-0.084,0.146-0.118,0.191-0.207l0.034-0.127
				c0.1-0.264,0.174-0.537,0.221-0.815c0.085-0.273,0.142-0.554,0.169-0.838l0.026-0.128v-76.8l-0.029-0.102
				c-0.004-0.626-0.148-1.243-0.421-1.806c-0.036-0.073-0.104-0.115-0.144-0.185c-0.093-0.136-0.195-0.266-0.305-0.389
				c-0.326-0.446-0.737-0.823-1.211-1.107c-0.099-0.06-0.144-0.174-0.248-0.227l-162.133-81.067l-0.127-0.034
				c-0.542-0.166-1.094-0.296-1.653-0.39l-0.129-0.026c-0.206,0.025-0.409,0.066-0.608,0.122c-0.301,0.028-0.597,0.088-0.885,0.179
				c-0.481,0.247-0.942,0.531-1.379,0.85c-0.218,0.222-0.41,0.468-0.573,0.733c-0.135,0.148-0.259,0.307-0.371,0.474l-0.034,0.127
				c-0.1,0.264-0.174,0.537-0.221,0.815c-0.085,0.273-0.141,0.554-0.169,0.839l-0.026,0.128v76.8l0.026,0.128
				C209.168,282.188,209.26,282.645,209.369,283.098z M371.2,355.762l-62.992-31.496l62.992-31.496V355.762z M302.933,254.371
				l62.992,31.496l-62.992,31.496V254.371z M277.333,308.829L222.875,281.6l54.458-27.229V308.829z M217.6,211.704l59.733,29.867
				v3.258L217.6,274.696V211.704z"/>
			<path d="M379.431,378.236c-0.247-0.482-0.532-0.943-0.852-1.379c-0.22-0.214-0.463-0.403-0.723-0.565
				c-0.151-0.137-0.311-0.263-0.481-0.375l-76.8-38.4l-0.126-0.034c-0.277-0.107-0.565-0.184-0.859-0.23
				c-0.255-0.076-0.516-0.129-0.78-0.157c-0.051-0.001-0.092-0.028-0.143-0.028c-0.225,0.026-0.448,0.071-0.666,0.134
				c-0.277,0.028-0.551,0.083-0.817,0.165c-0.267,0.115-0.52,0.257-0.757,0.426c-0.223,0.122-0.434,0.264-0.631,0.425
				c-0.22,0.224-0.413,0.472-0.578,0.739c-0.134,0.147-0.257,0.305-0.368,0.47l-0.034,0.127c-0.1,0.264-0.174,0.537-0.221,0.815
				c-0.085,0.273-0.141,0.554-0.169,0.839l-0.026,0.128V409.6l0.026,0.128c0.075,0.46,0.168,0.917,0.277,1.37
				c0.037,0.097,0.07,0.19,0.114,0.284l0.034,0.127c0.045,0.089,0.141,0.122,0.191,0.207l0.06,0.09
				c0.128,0.238,0.28,0.464,0.452,0.672c0.209,0.203,0.439,0.384,0.686,0.54c0.112,0.097,0.23,0.187,0.353,0.271
				c0.063,0.035,0.101,0.097,0.166,0.13l76.8,38.4c1.323,0.661,2.893,0.59,4.151-0.188c1.258-0.777,2.024-2.151,2.024-3.629v-68.267
				c-0.025-0.201-0.065-0.399-0.119-0.594C379.586,378.833,379.525,378.529,379.431,378.236z M302.933,348.237l54.458,27.229
				l-54.458,27.229V348.237z M371.2,441.096L308.208,409.6l58.725-29.363l4.267,2.133V441.096z"/>
			<path d="M200.231,288.636c-0.247-0.482-0.532-0.943-0.852-1.379c-0.22-0.214-0.463-0.403-0.724-0.565
				c-0.151-0.137-0.311-0.263-0.481-0.375l-76.8-38.4l-0.127-0.034c-0.264-0.101-0.538-0.175-0.817-0.221
				c-0.274-0.084-0.555-0.141-0.84-0.169l-0.125-0.025c-0.194,0.025-0.387,0.063-0.576,0.116c-0.316,0.027-0.627,0.09-0.929,0.187
				c-0.479,0.247-0.939,0.532-1.373,0.852c-0.213,0.219-0.401,0.46-0.562,0.72c-0.138,0.151-0.264,0.313-0.377,0.484l-0.034,0.127
				c-0.1,0.264-0.174,0.537-0.221,0.815c-0.085,0.273-0.141,0.554-0.169,0.839l-0.026,0.128V320l0.026,0.128
				c0.075,0.46,0.168,0.917,0.277,1.37c0.037,0.097,0.07,0.19,0.114,0.284l0.034,0.127c0.045,0.089,0.141,0.122,0.191,0.207
				l0.06,0.09c0.128,0.238,0.28,0.464,0.452,0.672c0.209,0.203,0.439,0.384,0.686,0.54c0.112,0.097,0.23,0.187,0.353,0.271
				c0.063,0.035,0.101,0.097,0.166,0.13l76.8,38.4l0.117,0.028c0.55,0.265,1.152,0.407,1.763,0.417l0.024,0.006l0.002,0l0.003,0
				c0.699-0.015,1.384-0.206,1.99-0.556c0.152-0.088,0.298-0.187,0.438-0.294c0.488-0.343,0.897-0.787,1.199-1.301
				c0.05-0.084,0.146-0.118,0.191-0.207l0.034-0.127c0.1-0.264,0.174-0.537,0.221-0.815c0.085-0.273,0.142-0.554,0.169-0.838
				l0.026-0.128v-68.267c-0.025-0.201-0.065-0.399-0.119-0.594C200.386,289.233,200.325,288.929,200.231,288.636z M123.733,258.637
				l54.458,27.229l-54.458,27.229V258.637z M192,351.496L129.008,320l58.725-29.363l4.267,2.133V351.496z"/>
			<path d="M30.317,279.242c0.031,0.062,0.099,0.084,0.133,0.144c0.23,0.338,0.508,0.64,0.827,0.896
				c0.238,0.285,0.513,0.536,0.818,0.748c0.054,0.03,0.076,0.092,0.131,0.12l68.267,34.133l0.117,0.028
				c0.55,0.265,1.152,0.407,1.763,0.417l0.024,0.006l0.002,0l0.003,0c0.699-0.015,1.384-0.206,1.99-0.556
				c0.152-0.088,0.298-0.187,0.438-0.294c0.488-0.343,0.897-0.787,1.199-1.301c0.05-0.084,0.146-0.118,0.191-0.207l0.034-0.127
				c0.1-0.264,0.174-0.537,0.221-0.815c0.085-0.273,0.142-0.554,0.169-0.838l0.026-0.128V243.2l-0.026-0.128
				c-0.022-0.219-0.062-0.437-0.118-0.65c-0.032-0.244-0.085-0.485-0.158-0.72c-0.037-0.097-0.07-0.19-0.114-0.284l-0.034-0.127
				c-0.254-0.308-0.489-0.631-0.704-0.968c-0.081-0.087-0.161-0.164-0.248-0.244c-0.171-0.139-0.353-0.264-0.544-0.374
				c-0.13-0.116-0.268-0.223-0.412-0.321L36.042,205.25l-0.127-0.034c-0.272-0.104-0.553-0.18-0.841-0.227
				c-0.262-0.079-0.53-0.133-0.802-0.161l-0.139-0.028c-0.219,0.026-0.435,0.069-0.646,0.13c-0.284,0.028-0.565,0.085-0.839,0.169
				c-0.264,0.114-0.516,0.256-0.751,0.422c-0.224,0.122-0.436,0.266-0.634,0.428c-0.22,0.224-0.414,0.472-0.579,0.739
				c-0.134,0.147-0.257,0.304-0.368,0.47l-0.034,0.127c-0.1,0.264-0.174,0.537-0.221,0.815c-0.085,0.273-0.142,0.554-0.17,0.838
				l-0.026,0.128v68.267l0.029,0.102C29.9,278.062,30.043,278.679,30.317,279.242z M98.133,304.563l-54.458-27.229l54.458-27.229
				V304.563z M38.4,215.971L92.858,243.2L38.4,270.429V215.971z"/>
			<path d="M30.169,193.498c0.037,0.097,0.07,0.19,0.114,0.284l0.034,0.127c0.045,0.089,0.141,0.122,0.191,0.207l0.06,0.09
				c0.128,0.238,0.28,0.464,0.452,0.672c0.209,0.203,0.439,0.384,0.686,0.54c0.112,0.097,0.23,0.187,0.353,0.271
				c0.063,0.035,0.101,0.097,0.166,0.13l68.267,34.133l0.117,0.028c0.55,0.265,1.152,0.407,1.763,0.417l0.024,0.005l0.002-0.001
				l0.003,0.001c0.699-0.015,1.384-0.206,1.99-0.556c0.152-0.088,0.298-0.187,0.438-0.294c0.488-0.343,0.897-0.787,1.199-1.301
				c0.05-0.084,0.146-0.118,0.191-0.207l0.034-0.127c0.1-0.264,0.174-0.537,0.221-0.815c0.085-0.273,0.142-0.554,0.169-0.838
				l0.026-0.128v-69.896l8.533,4.267v74.163l0.026,0.128c0.075,0.46,0.168,0.917,0.277,1.37c0.037,0.097,0.07,0.19,0.114,0.284
				l0.034,0.127c0.045,0.089,0.141,0.122,0.191,0.207l0.06,0.09c0.128,0.238,0.28,0.464,0.452,0.672
				c0.209,0.203,0.439,0.384,0.686,0.54c0.112,0.097,0.23,0.187,0.353,0.271c0.063,0.035,0.101,0.097,0.166,0.13l76.8,38.4
				l0.117,0.028c0.55,0.265,1.152,0.407,1.763,0.417l0.024,0.006l0.002,0l0.003,0c0.699-0.015,1.384-0.206,1.99-0.556
				c0.152-0.088,0.298-0.187,0.438-0.294c0.488-0.343,0.897-0.787,1.199-1.301c0.05-0.084,0.146-0.118,0.191-0.207l0.034-0.127
				c0.1-0.264,0.174-0.537,0.221-0.815c0.085-0.273,0.142-0.554,0.169-0.838l0.026-0.128v-76.8l-0.026-0.128
				c-0.022-0.219-0.062-0.437-0.118-0.65c-0.032-0.244-0.085-0.485-0.158-0.72c-0.037-0.097-0.07-0.19-0.114-0.284l-0.034-0.127
				c-0.092-0.134-0.193-0.262-0.301-0.384c-0.117-0.206-0.252-0.401-0.403-0.584c-0.079-0.085-0.156-0.161-0.241-0.24
				c-0.18-0.148-0.372-0.281-0.574-0.396c-0.124-0.109-0.254-0.211-0.39-0.304L36.042,111.384c-1.323-0.661-2.893-0.59-4.151,0.188
				c-1.258,0.777-2.024,2.15-2.024,3.629V192l0.026,0.128C29.968,192.588,30.06,193.045,30.169,193.498z M192,266.163
				l-62.992-31.496L192,203.171V266.163z M123.733,164.771l62.992,31.496l-62.992,31.496V164.771z M98.133,219.229L43.675,192
				l54.458-27.229V219.229z M38.4,122.104l59.733,29.867v3.258L38.4,185.096V122.104z"/>
			<path d="M209.369,368.431c0.037,0.097,0.07,0.19,0.114,0.284l0.034,0.127c0.045,0.089,0.141,0.122,0.191,0.207l0.06,0.09
				c0.128,0.238,0.28,0.464,0.452,0.672c0.209,0.203,0.439,0.384,0.686,0.54c0.112,0.097,0.23,0.187,0.353,0.271
				c0.063,0.035,0.101,0.097,0.166,0.13l68.267,34.133l0.117,0.028c0.55,0.265,1.152,0.407,1.763,0.417l0.024,0.006l0.002,0l0.003,0
				c0.699-0.015,1.384-0.206,1.99-0.556c0.152-0.088,0.298-0.187,0.438-0.294c0.488-0.343,0.897-0.787,1.199-1.301
				c0.05-0.084,0.146-0.118,0.191-0.207l0.034-0.127c0.1-0.264,0.174-0.537,0.221-0.815c0.085-0.273,0.142-0.554,0.17-0.838
				l0.026-0.128V332.8l-0.026-0.128c-0.022-0.219-0.062-0.437-0.118-0.65c-0.032-0.244-0.085-0.485-0.158-0.72
				c-0.037-0.097-0.07-0.19-0.114-0.284l-0.034-0.127c-0.092-0.134-0.193-0.262-0.301-0.384c-0.117-0.206-0.252-0.401-0.403-0.584
				c-0.079-0.085-0.156-0.161-0.241-0.239c-0.335-0.214-0.657-0.448-0.964-0.701l-68.267-34.133l-0.127-0.034
				c-0.54-0.165-1.09-0.295-1.647-0.389l-0.135-0.027c-0.214,0.026-0.426,0.068-0.634,0.128c-0.29,0.028-0.577,0.085-0.855,0.172
				c-0.482,0.247-0.944,0.531-1.382,0.85c-0.219,0.223-0.413,0.471-0.577,0.737c-0.135,0.148-0.258,0.305-0.369,0.471l-0.034,0.127
				c-0.1,0.264-0.174,0.537-0.221,0.815c-0.085,0.273-0.141,0.554-0.169,0.839l-0.026,0.127v68.267l0.026,0.128
				C209.168,367.521,209.26,367.978,209.369,368.431z M277.333,394.163l-54.458-27.229l54.458-27.229V394.163z M217.6,305.571
				l54.458,27.229L217.6,360.029V305.571z"/>
		</g>
	</g>
</g>
<g>
</g>
<g>
</g>
<g>
</g>
<g>
</g>
<g>
</g>
<g>
</g>
<g>
</g>
<g>
</g>
<g>
</g>
<g>
</g>
<g>
</g>
<g>
</g>
<g>
</g>
<g>
</g>
<g>
</g>
</svg>
