<?xml version="1.0" encoding="iso-8859-1"?>
<!-- Generator: Adobe Illustrator 19.0.0, SVG Export Plug-In . SVG Version: 6.00 Build 0)  -->
<svg version="1.1" id="Capa_1" xmlns="http://www.w3.org/2000/svg" xmlns:xlink="http://www.w3.org/1999/xlink" x="0px" y="0px"
	 viewBox="0 0 512 512" style="enable-background:new 0 0 512 512;" xml:space="preserve">
<g>
	<g>
		<g>
			<path d="M507.283,180.1L148.883,0.9c-2.403-1.2-5.23-1.2-7.633,0L4.717,69.167C1.825,70.612-0.001,73.567,0,76.8v247.467
				c0.05,0.4,0.13,0.797,0.24,1.185c0.055,0.616,0.178,1.224,0.366,1.814c0.216,0.488,0.478,0.953,0.784,1.39
				c0.261,0.486,0.57,0.945,0.923,1.369c0.432,0.419,0.908,0.79,1.419,1.107c0.308,0.281,0.637,0.539,0.985,0.769l110.933,55.467
				c0.117,0.058,0.252,0.035,0.371,0.087c1.076,0.507,2.246,0.783,3.434,0.81l0.011,0.003l0.004,0l0.004,0
				c0.722-0.008,1.44-0.108,2.137-0.297c0.222-0.058,0.429-0.158,0.647-0.234c0.349-0.1,0.691-0.224,1.024-0.369l124.183-62.092V448
				c0.05,0.4,0.13,0.797,0.24,1.185c0.055,0.616,0.178,1.224,0.366,1.814c0.495,0.963,1.066,1.886,1.707,2.759
				c0.432,0.419,0.908,0.79,1.419,1.107c0.308,0.281,0.637,0.539,0.985,0.769L363.117,511.1c0.109,0.054,0.225,0.071,0.334,0.121
				c0.157,0.071,0.318,0.111,0.479,0.172l0.184,0.067c0.232,0.082,0.45,0.187,0.688,0.248c0.692,0.186,1.406,0.284,2.123,0.292
				l0.005,0l0.003,0l0.003,0l0.005,0c0.719-0.008,1.435-0.107,2.13-0.294c0.228-0.059,0.437-0.16,0.659-0.238l0.206-0.074
				c0.161-0.061,0.322-0.102,0.479-0.172c0.11-0.049,0.226-0.067,0.334-0.121l136.533-68.267c2.891-1.446,4.717-4.401,4.716-7.633
				V187.733C512.001,184.501,510.175,181.546,507.283,180.1z M110.933,365.925l-93.867-46.933V116.208l93.867,46.933V365.925z
				 M247.467,306.192L128,365.925v-194.25l119.467,59.733V306.192z M358.4,489.658l-93.867-46.933V239.942l93.867,46.933V489.658z
				 M362.667,269.925l-345.6-172.8V85.837l345.6,172.8V269.925z M366.933,251.229L22.846,79.185l122.221-61.11l344.088,172.044
				L366.933,251.229z M494.933,429.925l-119.467,59.733V286.875l119.467-59.733V429.925z M494.933,208.058L371.2,269.925v-11.287
				l123.733-61.867V208.058z"/>
			<path d="M277.635,423.897c0.247,0.482,0.532,0.943,0.852,1.379c0.22,0.214,0.463,0.403,0.723,0.565
				c0.151,0.137,0.311,0.263,0.481,0.375l59.733,29.867c1.323,0.661,2.893,0.59,4.151-0.188s2.024-2.15,2.024-3.629V307.2
				c0-1.616-0.913-3.094-2.358-3.817l-59.733-29.867l-0.126-0.033c-0.283-0.109-0.577-0.188-0.878-0.234
				c-0.248-0.074-0.502-0.125-0.76-0.153c-0.051-0.002-0.094-0.029-0.145-0.029c-0.23,0.026-0.456,0.072-0.678,0.137
				c-0.273,0.028-0.543,0.082-0.805,0.162c-0.484,0.246-0.948,0.531-1.387,0.851c-0.22,0.224-0.414,0.472-0.578,0.739
				c-0.134,0.148-0.257,0.305-0.368,0.47l-0.034,0.127c-0.1,0.264-0.174,0.537-0.221,0.815c-0.085,0.273-0.141,0.554-0.169,0.839
				l-0.026,0.128V422.4c0.025,0.201,0.065,0.399,0.119,0.594C277.48,423.301,277.541,423.604,277.635,423.897z M285.867,284.237
				l51.2,25.6v67.258l-51.2-25.6V284.237z M285.867,361.037l51.2,25.6v58.725l-51.2-25.6V361.037z"/>
			<path d="M317.642,316.183l-8.533-4.267c-1.364-0.686-2.991-0.591-4.266,0.249c-1.275,0.84-2.004,2.298-1.911,3.822
				c0.093,1.524,0.993,2.883,2.36,3.562l8.533,4.267c2.107,1.047,4.664,0.192,5.716-1.913S319.744,317.241,317.642,316.183z"/>
			<path d="M317.642,392.983l-8.533-4.267c-1.364-0.686-2.991-0.591-4.266,0.249s-2.004,2.298-1.911,3.822
				c0.093,1.524,0.993,2.883,2.36,3.562l8.533,4.267c2.107,1.047,4.664,0.192,5.716-1.913
				C320.593,396.599,319.744,394.04,317.642,392.983z"/>
			<path d="M30.168,300.164c0.247,0.482,0.532,0.943,0.852,1.379c0.22,0.214,0.463,0.403,0.723,0.565
				c0.151,0.137,0.311,0.263,0.481,0.375l59.733,29.867c1.323,0.661,2.893,0.59,4.151-0.188s2.024-2.15,2.024-3.629V183.467
				c0-1.616-0.913-3.094-2.358-3.817l-59.733-29.867l-0.127-0.034c-0.273-0.105-0.556-0.181-0.844-0.227
				c-0.261-0.079-0.528-0.133-0.799-0.161l-0.138-0.028c-0.218,0.026-0.433,0.069-0.644,0.13c-0.286,0.028-0.569,0.085-0.843,0.171
				c-0.262,0.113-0.511,0.254-0.744,0.419c-0.226,0.124-0.44,0.268-0.64,0.431c-0.219,0.223-0.413,0.47-0.577,0.736
				c-0.135,0.148-0.258,0.306-0.369,0.472l-0.034,0.127c-0.1,0.264-0.174,0.537-0.221,0.815c-0.085,0.273-0.141,0.554-0.169,0.838
				l-0.026,0.128v145.067c0.025,0.201,0.065,0.399,0.12,0.594C30.013,299.567,30.075,299.871,30.168,300.164z M38.4,160.504
				l51.2,25.6v67.258l-51.2-25.6V160.504z M38.4,237.304l51.2,25.6v58.725l-51.2-25.6V237.304z"/>
			<path d="M70.175,192.45l-8.533-4.267c-1.364-0.686-2.991-0.591-4.266,0.249c-1.275,0.84-2.004,2.298-1.911,3.822
				c0.093,1.524,0.993,2.883,2.36,3.562l8.533,4.267c1.364,0.686,2.991,0.591,4.266-0.249c1.275-0.84,2.004-2.298,1.911-3.822
				C72.442,194.488,71.542,193.13,70.175,192.45z"/>
			<path d="M70.175,269.25l-8.533-4.267c-1.364-0.686-2.991-0.591-4.266,0.249c-1.275,0.84-2.004,2.298-1.911,3.822
				c0.093,1.524,0.993,2.883,2.36,3.562l8.533,4.267c1.364,0.686,2.991,0.591,4.266-0.249c1.275-0.84,2.004-2.298,1.911-3.822
				C72.442,271.288,71.542,269.93,70.175,269.25z"/>
		</g>
	</g>
</g>
<g>
</g>
<g>
</g>
<g>
</g>
<g>
</g>
<g>
</g>
<g>
</g>
<g>
</g>
<g>
</g>
<g>
</g>
<g>
</g>
<g>
</g>
<g>
</g>
<g>
</g>
<g>
</g>
<g>
</g>
</svg>
