<?xml version="1.0" encoding="iso-8859-1"?>
<!-- Generator: Adobe Illustrator 19.0.0, SVG Export Plug-In . SVG Version: 6.00 Build 0)  -->
<svg version="1.1" id="Capa_1" xmlns="http://www.w3.org/2000/svg" xmlns:xlink="http://www.w3.org/1999/xlink" x="0px" y="0px"
	 viewBox="0 0 512 512" style="enable-background:new 0 0 512 512;" xml:space="preserve">
<g>
	<g>
		<path d="M511.403,182.643c-0.097-0.26-0.208-0.495-0.328-0.742c-0.35-0.724-0.802-1.393-1.341-1.989
			c-0.126-0.138-0.217-0.296-0.352-0.426c-0.617-0.611-1.325-1.123-2.098-1.519l-307.2-153.6c-2.403-1.2-5.23-1.2-7.633,0
			L4.717,118.234c-0.773,0.396-1.481,0.908-2.098,1.519c-0.134,0.13-0.226,0.288-0.352,0.426c-0.54,0.596-0.991,1.265-1.341,1.989
			c-0.12,0.247-0.231,0.482-0.328,0.742c-0.375,0.942-0.578,1.944-0.597,2.957V160c0.05,0.4,0.13,0.796,0.24,1.185
			c0.055,0.616,0.178,1.224,0.366,1.814c0.216,0.488,0.478,0.953,0.784,1.39c0.261,0.486,0.57,0.945,0.923,1.369
			c0.432,0.419,0.908,0.79,1.419,1.107c0.308,0.282,0.637,0.539,0.985,0.769l8.083,4.042v150.458c0,1.616,0.913,3.094,2.358,3.817
			l17.067,8.533l0.117,0.028c1.128,0.563,2.455,0.563,3.582,0l0.117-0.028l17.067-8.533c1.445-0.723,2.358-2.201,2.358-3.817
			V193.008l76.8,38.4V262.4c0,1.616,0.913,3.094,2.358,3.817l17.067,8.533l0.117,0.028c1.128,0.563,2.455,0.563,3.582,0l0.117-0.028
			l17.067-8.533c1.445-0.723,2.358-2.201,2.358-3.817v-9.658l136.983,68.492c0.075,0.037,0.163,0.021,0.239,0.056
			c2.252,1.125,4.903,1.125,7.155,0c0.076-0.035,0.164-0.019,0.239-0.056l0.45-0.225v154.725c0,1.616,0.913,3.094,2.358,3.817
			l17.067,8.533l0.117,0.028c1.128,0.563,2.455,0.563,3.582,0l0.117-0.028l17.067-8.533c1.445-0.723,2.358-2.201,2.358-3.817
			V299.675l76.8-38.4V416c0,1.616,0.913,3.094,2.358,3.817l17.067,8.533l0.117,0.028c1.128,0.563,2.455,0.563,3.582,0l0.117-0.028
			l17.067-8.533c1.445-0.723,2.358-2.201,2.358-3.817V239.941l25.15-12.575c0.348-0.23,0.677-0.487,0.985-0.769
			c0.511-0.317,0.987-0.689,1.419-1.107c0.641-0.873,1.212-1.795,1.707-2.759c0.188-0.589,0.311-1.197,0.366-1.813
			c0.11-0.388,0.19-0.784,0.24-1.185V185.6C511.98,184.586,511.778,183.584,511.403,182.643z M29.867,323.762l-8.533-4.267V175.941
			l8.533,4.267V323.762z M46.933,319.496l-8.533,4.267V184.475l8.533,4.267V319.496z M149.333,264.029l-8.533-4.267v-24.087
			l8.533,4.267V264.029z M166.4,259.762l-8.533,4.267v-19.821l8.533,4.267V259.762z M307.2,299.791L17.067,154.725v-15.05
			L307.2,284.742V299.791z M315.733,269.925L27.612,125.867l168.654-84.325L484.388,185.6L315.733,269.925z M337.067,477.362
			l-8.533-4.267V316.742l8.533-4.267V477.362z M354.133,473.096l-8.533,4.267V308.208l8.533-4.267V473.096z M456.533,417.629
			L448,413.362V257.008l8.533-4.267V417.629z M473.6,413.362l-8.533,4.267V248.475l8.533-4.267V413.362z M494.933,214.458
			l-170.667,85.333v-15.05l170.667-85.333V214.458z"/>
	</g>
</g>
<g>
</g>
<g>
</g>
<g>
</g>
<g>
</g>
<g>
</g>
<g>
</g>
<g>
</g>
<g>
</g>
<g>
</g>
<g>
</g>
<g>
</g>
<g>
</g>
<g>
</g>
<g>
</g>
<g>
</g>
</svg>
