<?xml version="1.0" encoding="iso-8859-1"?>
<!-- Generator: Adobe Illustrator 19.0.0, SVG Export Plug-In . SVG Version: 6.00 Build 0)  -->
<svg version="1.1" id="Capa_1" xmlns="http://www.w3.org/2000/svg" xmlns:xlink="http://www.w3.org/1999/xlink" x="0px" y="0px"
	 viewBox="0 0 512 512" style="enable-background:new 0 0 512 512;" xml:space="preserve">
<g>
	<g>
		<g>
			<path d="M511.627,98.86c0.933-3.792-0.866-7.728-4.344-9.503L349.417,10.424c-0.18-0.09-0.374-0.075-0.556-0.151
				c-2.099-0.794-4.416-0.795-6.515-0.002c-0.184,0.077-0.381,0.062-0.562,0.153L4.717,178.957
				c-0.264,0.182-0.517,0.379-0.757,0.591c-0.421,0.24-0.82,0.517-1.192,0.828c-0.16,0.149-0.305,0.296-0.454,0.457
				c-0.301,0.363-0.57,0.75-0.804,1.159c-0.219,0.247-0.422,0.508-0.609,0.781c-0.042,0.084-0.031,0.176-0.07,0.26
				c-0.085,0.184-0.152,0.367-0.224,0.558c-0.148,0.471-0.255,0.954-0.318,1.443c-0.112,0.426-0.191,0.861-0.236,1.299
				C0.049,186.424,0,186.5,0,186.59v196.267c0.05,0.4,0.13,0.797,0.24,1.185c0.055,0.616,0.178,1.224,0.366,1.813
				c0.216,0.488,0.478,0.953,0.784,1.39c0.261,0.486,0.57,0.945,0.923,1.369c0.432,0.419,0.908,0.79,1.419,1.107
				c0.187,0.132,0.335,0.3,0.535,0.418v31.117c0,1.616,0.913,3.094,2.358,3.817l17.067,8.533l0.117,0.028
				c1.128,0.563,2.455,0.563,3.582,0l0.117-0.028l17.067-8.533c1.445-0.723,2.358-2.201,2.358-3.817v-9.658l93.867,46.933v30.992
				c0,1.616,0.913,3.094,2.358,3.817l17.067,8.533l0.117,0.028c1.128,0.563,2.455,0.563,3.582,0l0.117-0.028l17.067-8.533
				c1.445-0.723,2.358-2.201,2.358-3.817v-22.458L448,334.799v9.658c0,1.616,0.913,3.094,2.358,3.817l17.067,8.533l0.117,0.028
				c1.128,0.563,2.455,0.563,3.582,0l0.117-0.028l17.067-8.533c1.445-0.723,2.358-2.201,2.358-3.817v-30.992l16.617-8.308
				c2.891-1.446,4.717-4.401,4.717-7.633V101.257C511.991,100.444,511.866,99.637,511.627,98.86z M21.333,422.886l-8.533-4.267
				v-24.087l8.533,4.267V422.886z M38.4,418.619l-8.533,4.267v-19.821l8.533,4.267V418.619z M157.867,491.153l-8.533-4.267v-24.087
				l8.533,4.267V491.153z M162.133,450.115L17.067,377.582V200.399l145.067,72.533V450.115z M27.617,186.59L345.6,27.599
				l143.05,71.525L170.667,258.115L27.617,186.59z M174.933,486.886l-8.533,4.267v-19.821l0.45,0.225
				c0.333,0.145,0.675,0.269,1.024,0.369c0.218,0.076,0.425,0.176,0.647,0.234c0.697,0.189,1.415,0.289,2.137,0.297l0.004,0l0.004,0
				l0.011-0.003c1.189-0.027,2.359-0.303,3.434-0.81c0.119-0.053,0.254-0.029,0.371-0.087l0.45-0.225V486.886z M465.067,346.086
				l-8.533-4.267v-11.287l8.533-4.267V346.086z M482.133,341.819l-8.533,4.267v-24.088l8.533-4.267V341.819z M494.933,292.249
				L179.2,450.115V272.932l315.733-157.867V292.249z"/>
			<path d="M32.225,297.074l110.933,55.467c1.323,0.661,2.893,0.589,4.151-0.188c1.258-0.777,2.023-2.15,2.024-3.629V288.99
				c0-1.616-0.913-3.094-2.358-3.817L36.042,229.707c-1.323-0.66-2.893-0.589-4.151,0.188c-1.258,0.777-2.023,2.15-2.024,3.629
				v59.733C29.867,294.873,30.78,296.35,32.225,297.074z M38.4,240.428l102.4,51.2v50.192l-102.4-51.2V240.428z"/>
			<path d="M32.225,373.874l110.933,55.467c1.323,0.66,2.893,0.589,4.151-0.188c1.258-0.777,2.023-2.15,2.024-3.629V365.79
				c0-1.616-0.913-3.094-2.358-3.817L36.042,306.507c-1.323-0.66-2.893-0.589-4.151,0.188c-1.258,0.777-2.023,2.15-2.024,3.629
				v59.733C29.867,371.673,30.78,373.15,32.225,373.874z M38.4,317.228l102.4,51.2v50.192l-102.4-51.2V317.228z"/>
			<path d="M104.308,280.907l-17.067-8.533c-1.364-0.686-2.991-0.591-4.266,0.249s-2.004,2.298-1.911,3.822
				c0.093,1.524,0.993,2.883,2.36,3.562l17.067,8.533c2.107,1.047,4.664,0.192,5.716-1.913
				C107.26,284.523,106.41,281.964,104.308,280.907z"/>
			<path d="M104.308,357.707l-17.067-8.533c-1.364-0.686-2.991-0.591-4.266,0.249c-1.275,0.84-2.004,2.298-1.911,3.822
				c0.093,1.524,0.993,2.883,2.36,3.562l17.067,8.533c2.107,1.047,4.664,0.192,5.716-1.913
				C107.26,361.323,106.41,358.764,104.308,357.707z"/>
		</g>
	</g>
</g>
<g>
</g>
<g>
</g>
<g>
</g>
<g>
</g>
<g>
</g>
<g>
</g>
<g>
</g>
<g>
</g>
<g>
</g>
<g>
</g>
<g>
</g>
<g>
</g>
<g>
</g>
<g>
</g>
<g>
</g>
</svg>
