<?xml version="1.0" encoding="iso-8859-1"?>
<!-- Generator: Adobe Illustrator 19.0.0, SVG Export Plug-In . SVG Version: 6.00 Build 0)  -->
<svg version="1.1" id="Capa_1" xmlns="http://www.w3.org/2000/svg" xmlns:xlink="http://www.w3.org/1999/xlink" x="0px" y="0px"
	 viewBox="0 0 512 512" style="enable-background:new 0 0 512 512;" xml:space="preserve">
<g>
	<g>
		<path d="M413.417,248.367L281.6,182.458V17.067c0.001-3.232-1.825-6.188-4.717-7.633L259.817,0.9c-2.403-1.2-5.23-1.2-7.633,0
			l-17.067,8.533c-2.891,1.445-4.717,4.401-4.717,7.633v20.325L143.704,80.74c-0.823-1.298-1.982-2.348-3.354-3.04l-17.067-8.533
			c-2.403-1.2-5.23-1.2-7.633,0L98.583,77.7c-2.891,1.445-4.717,4.401-4.717,7.633v341.333c-0.001,3.232,1.825,6.188,4.717,7.633
			l17.067,8.533c2.403,1.2,5.23,1.2,7.633,0l17.067-8.533c2.891-1.446,4.717-4.401,4.717-7.633v-25.096l85.333,42.667v50.696
			c-0.001,3.232,1.825,6.188,4.717,7.633l17.067,8.533c2.403,1.2,5.23,1.2,7.633,0l17.067-8.533
			c2.891-1.446,4.717-4.401,4.717-7.633V355.142l21.838-10.919l63.496,31.748v50.696h0.085c-0.032,3.218,1.763,6.176,4.632,7.633
			l17.067,8.533c2.403,1.2,5.23,1.2,7.633,0l17.067-8.533c2.891-1.446,4.717-4.401,4.717-7.633V256
			C418.134,252.768,416.308,249.812,413.417,248.367z M247.467,22.342L256,18.075l8.533,4.267v160.117L256,186.725l-8.533-4.267
			V22.342z M145.067,99.142L230.4,56.475v40.65l-85.333,42.667V99.142z M145.067,158.875l85.333-42.667v3.258v62.992l-85.333,42.667
			V158.875z M145.067,264.533v-20.325l93.867-46.933l13.25,6.625c2.403,1.2,5.23,1.2,7.633,0l13.25-6.625l122.221,61.11L256,328.029
			l-113.999-57C143.933,269.424,145.055,267.046,145.067,264.533z M128,421.392l-8.533,4.267l-8.533-4.267V90.608l8.533-4.267
			L128,90.608v168.65l-3.817,1.908c-2.891,1.446-4.717,4.401-4.717,7.633v25.6c-0.001,3.232,1.825,6.188,4.717,7.633l3.817,1.908
			v45.421l-10.417,5.208c-0.112,0.054-0.225,0.117-0.338,0.183v0.004l-0.012,0.004l-0.009,0.008l-0.017,0.009
			c-0.416,0.259-0.784,0.587-1.088,0.971l-0.009,0.012l-0.008,0.013l-0.013,0.012v0.004l-0.008,0.012h-0.003l-0.009,0.013
			l-0.009,0.012l-0.004,0.004l-0.009,0.013l-0.058,0.079l-0.009,0.012l-0.012,0.012v0.004l-0.009,0.013l-0.009,0.012l-0.004,0.004
			l-0.009,0.012c-0.449,0.66-0.704,1.432-0.738,2.229v0.037l-0.002,0.013V384c0,1.616,0.913,3.094,2.358,3.817L128,393.037V421.392z
			 M230.4,434.696l-106.667-53.333v-16.058L230.4,418.638V434.696z M230.4,409.096L129.008,358.4l7.525-3.763l93.867,46.933V409.096
			z M145.067,349.363v-36.888l71.021,35.51L179.2,366.429L145.067,349.363z M230.4,392.029l-22.379-11.19l22.379-11.208V392.029z
			 M230.4,360.082l-31.92,15.986l-9.738-4.869l36.887-18.444l4.771,2.385V360.082z M140.35,291.033l-3.817-1.908v-11.288l115.2,57.6
			v11.287L140.35,291.033z M264.533,489.658L256,493.925l-8.533-4.267V363.675l4.717,2.358c2.403,1.2,5.23,1.2,7.633,0l4.717-2.358
			V489.658z M366.933,366.429l-53.954-26.977l16.058-8.029l37.896,18.948V366.429z M366.933,340.829l-28.354-14.177l7.525-3.763
			l20.829,10.415V340.829z M366.933,323.763l-11.287-5.644l11.287-5.644V323.763z M401.067,421.392l-8.533,4.267L384,421.392
			v-117.45l17.067-8.533V421.392z M401.067,276.325l-55.017,27.508l-76.8,38.4l-8.983,4.492v-11.288l140.8-70.4V276.325z"/>
	</g>
</g>
<g>
</g>
<g>
</g>
<g>
</g>
<g>
</g>
<g>
</g>
<g>
</g>
<g>
</g>
<g>
</g>
<g>
</g>
<g>
</g>
<g>
</g>
<g>
</g>
<g>
</g>
<g>
</g>
<g>
</g>
</svg>
