<?xml version="1.0" encoding="iso-8859-1"?>
<!-- Generator: Adobe Illustrator 19.0.0, SVG Export Plug-In . SVG Version: 6.00 Build 0)  -->
<svg version="1.1" id="Capa_1" xmlns="http://www.w3.org/2000/svg" xmlns:xlink="http://www.w3.org/1999/xlink" x="0px" y="0px"
	 viewBox="0 0 512 512" style="enable-background:new 0 0 512 512;" xml:space="preserve">
<g>
	<g>
		<g>
			<path d="M511.627,215.159c0.933-3.792-0.865-7.728-4.344-9.503l-29.867-14.933c-0.181-0.091-0.379-0.076-0.563-0.153
				c-2.095-0.792-4.407-0.792-6.503-0.001c-0.186,0.077-0.384,0.062-0.568,0.154l-27.929,13.965L213.333,90.676V27.689
				c-0.011-0.844-0.149-1.683-0.408-2.486c-0.063-0.2-0.154-0.376-0.23-0.571c-0.295-0.764-0.7-1.481-1.201-2.129
				c-0.123-0.159-0.217-0.326-0.352-0.477c-0.539-0.619-1.165-1.156-1.858-1.596c-0.142-0.087-0.301-0.125-0.446-0.203
				c-0.085-0.046-0.133-0.128-0.221-0.172L174.483,2.99c-0.186-0.093-0.39-0.079-0.579-0.157c-0.54-0.209-1.101-0.36-1.673-0.452
				c-1.025-0.271-2.102-0.271-3.127,0c-0.571,0.092-1.131,0.243-1.671,0.451c-0.192,0.079-0.396,0.064-0.583,0.158L4.717,84.056
				c-0.275,0.189-0.539,0.394-0.789,0.615c-0.402,0.231-0.785,0.496-1.143,0.791c-0.167,0.155-0.321,0.305-0.475,0.473
				C2.007,86.3,1.737,86.69,1.502,87.103c-0.216,0.244-0.417,0.501-0.602,0.77c-0.042,0.083-0.031,0.174-0.07,0.258
				c-0.086,0.186-0.153,0.369-0.226,0.561c-0.148,0.471-0.254,0.953-0.317,1.442c-0.112,0.426-0.191,0.861-0.236,1.299
				C0.049,91.523,0,91.599,0,91.689v243.2c-0.001,3.232,1.825,6.188,4.717,7.633l332.8,166.4c0.108,0.054,0.223,0.071,0.331,0.119
				c0.157,0.071,0.32,0.112,0.482,0.174l0.218,0.079c0.217,0.076,0.422,0.175,0.645,0.233c0.695,0.188,1.412,0.287,2.132,0.295
				l0.005,0l0.003,0l0.003,0l0.005,0c0.72-0.007,1.436-0.107,2.131-0.295c0.225-0.058,0.43-0.158,0.648-0.234l0.215-0.078
				c0.162-0.061,0.327-0.103,0.484-0.174c0.108-0.049,0.223-0.066,0.33-0.119l162.133-81.067c0.343-0.228,0.668-0.482,0.973-0.76
				c0.517-0.32,0.998-0.695,1.434-1.119c0.641-0.873,1.212-1.795,1.707-2.759c0.187-0.587,0.309-1.192,0.365-1.806
				c0.109-0.39,0.189-0.788,0.239-1.19V217.556C511.991,216.743,511.866,215.936,511.627,215.159z M361.783,183.814l60.975,30.421
				l-119.375,59.687c-0.087,0.044-0.137,0.128-0.223,0.174c-0.144,0.078-0.303,0.114-0.444,0.201
				c-0.693,0.439-1.319,0.976-1.857,1.595c-0.135,0.152-0.23,0.32-0.353,0.48c-0.501,0.646-0.905,1.362-1.2,2.125
				c-0.075,0.196-0.169,0.373-0.231,0.574c-0.259,0.803-0.397,1.641-0.408,2.485v18.714l-84.452-42.117l146.094-73.047
				C360.896,184.799,361.402,184.356,361.783,183.814z M298.666,309.798v11.283l-89.6-44.8v-11.167l83.468,41.626l0.193,0.096
				L298.666,309.798z M327.634,166.777l25.152,12.548L204.66,253.387l-24.623-12.279l146.138-73.069
				C326.753,167.738,327.253,167.306,327.634,166.777z M200.533,260.858v11.156l-25.6-12.8v-11.123L200.533,260.858z
				 M242.26,124.183l76.355,38.094l-148.132,74.066l-75.89-37.847l16.474-8.237c6.545,5.232,13.755,9.574,21.441,12.913
				c9.994,4.703,20.817,7.392,31.85,7.913c4.693,0.304,9.349-0.999,13.202-3.695l81.423-43.867l0.592-1.354
				c4.31-9.932-11.502-22.821-29.282-31.521l10.549-5.274C241.397,125.087,241.882,124.68,242.26,124.183z M166.4,243.835v11.113
				l-76.8-38.4v-11.013L166.4,243.835z M107.692,171.352c0.533-1.213,3.367-2.358,8.408-2.358c0.725,0,1.5,0.021,2.325,0.075
				c9.024,0.874,17.833,3.278,26.05,7.108c8.357,3.516,16.053,8.431,22.758,14.533c4.667,4.542,6.133,8.1,5.517,9.488
				c-1.5,3.383-16.617,4.112-36.783-4.825c-8.358-3.514-16.055-8.429-22.758-14.533
				C108.542,176.297,107.075,172.739,107.692,171.352L107.692,171.352z M126.115,161.469l65.626-32.88
				c10.712,0.533,21.209,3.211,30.867,7.875v0c18.75,8.337,27.925,17.704,29.058,21.308l-70.791,38.14
				c-1.558-4.365-4.202-8.261-7.684-11.319c-7.434-6.805-15.977-12.289-25.259-16.217
				C140.955,165.23,133.633,162.912,126.115,161.469z M233.19,119.657l-13.21,6.605c-9.367-3.996-19.437-6.086-29.621-6.148
				l-84.233,41.834l0.087,0.175c-2.781,1.022-5.051,3.094-6.321,5.771c-1.49,3.353-1.696,8.75,4.602,16.112l-19.454,9.727
				l-28.39-14.159l148.155-74.078L233.19,119.657z M81.067,201.278v11.003L51.2,197.348v-10.964L81.067,201.278z M196.267,90.681
				L51.2,163.214v-49.183l145.067-72.533V90.681z M170.667,20.164l15.05,7.525L42.667,99.214l-15.05-7.525L170.667,20.164z
				 M123.733,382.948l-76.8-38.4v-96.621l76.8,38.4V382.948z M200.533,421.348l-66.754-33.377l45.421-22.71l21.333,10.667V421.348z
				 M132.267,379.185v-37.392l37.392,18.696L132.267,379.185z M200.533,366.385l-62.992-31.496L179.2,314.06l21.333,10.667V366.385z
				 M132.267,327.985v-37.392l37.392,18.696L132.267,327.985z M302.933,472.548l-93.867-46.933v-96.621l93.867,46.933V472.548z
				 M332.8,487.481l-21.333-10.667V373.289c-0.002-1.616-0.914-3.092-2.358-3.817L44.575,237.206l-0.125-0.033
				c-0.286-0.111-0.583-0.19-0.885-0.236c-0.242-0.071-0.491-0.121-0.742-0.149c-0.055-0.002-0.101-0.031-0.156-0.031
				c-0.243,0.027-0.483,0.075-0.718,0.145c-0.255,0.028-0.507,0.078-0.753,0.152c-0.487,0.245-0.954,0.53-1.395,0.85
				c-0.224,0.226-0.421,0.478-0.588,0.749c-0.133,0.145-0.254,0.3-0.364,0.463l-0.034,0.127c-0.102,0.269-0.177,0.548-0.224,0.832
				c-0.081,0.266-0.137,0.539-0.165,0.816l-0.027,0.133v99.258l-21.333-10.667V105.498l17.067,8.533v88.592
				c0.05,0.401,0.13,0.798,0.24,1.188c0.055,0.615,0.177,1.222,0.365,1.81c0.218,0.491,0.483,0.96,0.792,1.399
				c0.258,0.482,0.564,0.937,0.915,1.358c0.435,0.423,0.915,0.798,1.431,1.118c0.305,0.279,0.631,0.533,0.975,0.761l264.533,132.267
				c0.108,0.054,0.223,0.071,0.331,0.119c0.157,0.071,0.32,0.112,0.482,0.174c0.954,0.381,1.968,0.586,2.995,0.606l0.005,0
				l0.003,0.001l0.018-0.004c1-0.023,1.988-0.222,2.918-0.589c0.257-0.096,0.51-0.205,0.756-0.327
				c0.733-0.352,1.41-0.809,2.011-1.356c0.129-0.118,0.277-0.2,0.4-0.325c0.616-0.622,1.131-1.336,1.529-2.116
				c0.042-0.083,0.031-0.173,0.07-0.257c0.332-1.083,0.592-2.187,0.778-3.304c0.003-0.09,0.052-0.165,0.052-0.256v-39.525
				l17.067,8.533V487.481z M341.333,289.081l-15.05-7.525L473.6,207.898l15.05,7.525L341.333,289.081z M494.933,414.948
				l-145.067,72.533V303.898l145.067-72.533V414.948z"/>
			<path d="M221.867,377.556c2.356,0,4.267-1.91,4.267-4.267v-17.067c0.001-1.132-0.449-2.217-1.249-3.018s-1.886-1.25-3.018-1.249
				c-1.132-0.001-2.217,0.449-3.018,1.249c-0.8,0.8-1.25,1.886-1.249,3.018v17.067C217.6,375.646,219.51,377.556,221.867,377.556z"
				/>
			<path d="M110.933,317.823c2.356,0,4.267-1.91,4.267-4.267v-17.067c0.001-1.132-0.449-2.217-1.249-3.018s-1.886-1.25-3.018-1.249
				c-1.132-0.001-2.217,0.449-3.018,1.249s-1.25,1.886-1.249,3.018v17.067C106.667,315.912,108.577,317.823,110.933,317.823z"/>
		</g>
	</g>
</g>
<g>
</g>
<g>
</g>
<g>
</g>
<g>
</g>
<g>
</g>
<g>
</g>
<g>
</g>
<g>
</g>
<g>
</g>
<g>
</g>
<g>
</g>
<g>
</g>
<g>
</g>
<g>
</g>
<g>
</g>
</svg>
