<?xml version="1.0" encoding="iso-8859-1"?>
<!-- Generator: Adobe Illustrator 19.0.0, SVG Export Plug-In . SVG Version: 6.00 Build 0)  -->
<svg version="1.1" id="Capa_1" xmlns="http://www.w3.org/2000/svg" xmlns:xlink="http://www.w3.org/1999/xlink" x="0px" y="0px"
	 viewBox="0 0 512 512" style="enable-background:new 0 0 512 512;" xml:space="preserve">
<g>
	<g>
		<path d="M511.627,215.159c0.933-3.792-0.866-7.728-4.344-9.503l-29.867-14.933c-0.183-0.092-0.381-0.077-0.568-0.154
			c-2.095-0.792-4.408-0.791-6.503,0.001c-0.183,0.077-0.381,0.062-0.563,0.153l-27.929,13.965L213.333,90.676V27.69
			c-0.011-0.844-0.149-1.683-0.408-2.486c-0.063-0.2-0.154-0.376-0.23-0.571c-0.295-0.764-0.7-1.481-1.201-2.129
			c-0.123-0.159-0.217-0.326-0.352-0.477c-0.539-0.619-1.165-1.156-1.858-1.596c-0.142-0.087-0.3-0.123-0.446-0.202
			c-0.085-0.046-0.133-0.129-0.221-0.173L174.483,2.99c-0.186-0.093-0.39-0.078-0.579-0.156c-1.045-0.363-2.134-0.584-3.237-0.656
			c-1.106,0.072-2.197,0.294-3.244,0.658c-0.188,0.078-0.389,0.062-0.573,0.155L4.717,84.056c-0.277,0.189-0.542,0.396-0.793,0.619
			c-0.4,0.229-0.78,0.492-1.136,0.785c-0.169,0.155-0.323,0.306-0.477,0.474c-0.304,0.365-0.574,0.756-0.809,1.169
			c-0.216,0.244-0.417,0.5-0.601,0.769c-0.042,0.083-0.031,0.174-0.07,0.258c-0.086,0.186-0.153,0.369-0.226,0.561
			c-0.148,0.47-0.254,0.953-0.317,1.442c-0.112,0.427-0.191,0.861-0.235,1.3C0.049,91.523,0,91.599,0,91.69v243.2
			c-0.001,3.232,1.825,6.188,4.717,7.633l332.8,166.4c0.108,0.054,0.223,0.071,0.331,0.119c0.157,0.071,0.32,0.112,0.482,0.174
			l0.218,0.079c0.217,0.076,0.422,0.175,0.645,0.233c0.695,0.188,1.412,0.287,2.132,0.295l0.005,0l0.003,0l0.003,0l0.005,0
			c0.72-0.007,1.436-0.107,2.131-0.295c0.225-0.058,0.43-0.158,0.648-0.234l0.215-0.078c0.162-0.061,0.327-0.103,0.484-0.174
			c0.108-0.049,0.223-0.066,0.33-0.119l162.133-81.067c0.343-0.228,0.668-0.482,0.973-0.76c0.517-0.32,0.998-0.695,1.434-1.119
			c0.641-0.873,1.212-1.795,1.707-2.759c0.187-0.587,0.309-1.192,0.365-1.806c0.109-0.39,0.189-0.788,0.239-1.19V217.556
			C511.991,216.744,511.866,215.936,511.627,215.159z M327.634,166.777l25.152,12.548L204.66,253.388l-24.623-12.279l146.138-73.069
			C326.753,167.739,327.253,167.306,327.634,166.777z M209.066,265.114l83.468,41.626l0.193,0.096l5.939,2.962v16.054l-89.6-44.8
			V265.114z M200.533,260.858v15.927l-25.6-12.8v-15.894L200.533,260.858z M242.26,124.183l76.355,38.094l-148.132,74.066
			l-75.89-37.847l16.474-8.237c6.545,5.232,13.755,9.574,21.441,12.913c9.994,4.703,20.817,7.392,31.85,7.913
			c4.693,0.304,9.349-0.999,13.202-3.695l81.423-43.867l0.592-1.354c4.31-9.932-11.502-22.821-29.282-31.521l10.549-5.274
			C241.397,125.087,241.882,124.68,242.26,124.183z M166.4,243.835v15.883l-76.8-38.4v-15.784L166.4,243.835z M107.692,171.352
			c0.533-1.213,3.367-2.358,8.408-2.358c0.725,0,1.5,0.021,2.325,0.075c9.024,0.874,17.833,3.278,26.05,7.108
			c8.357,3.516,16.053,8.431,22.758,14.533c4.667,4.542,6.133,8.1,5.517,9.488c-1.5,3.383-16.608,4.112-36.783-4.825
			c-8.358-3.514-16.055-8.429-22.758-14.533C108.542,176.298,107.075,172.739,107.692,171.352L107.692,171.352z M126.115,161.47
			l65.626-32.88c10.71,0.547,21.204,3.225,30.867,7.875v0c18.75,8.337,27.925,17.704,29.058,21.308l-70.791,38.14
			c-1.558-4.365-4.202-8.261-7.684-11.319c-7.434-6.805-15.977-12.289-25.259-16.217
			C140.955,165.231,133.633,162.912,126.115,161.47z M233.19,119.657l-13.21,6.605c-9.367-3.999-19.437-6.089-29.621-6.147
			l-84.233,41.833l0.087,0.173c-2.782,1.022-5.051,3.095-6.321,5.772c-1.49,3.353-1.696,8.75,4.602,16.112l-19.454,9.727
			l-28.39-14.159l148.155-74.078L233.19,119.657z M81.067,201.279v15.773L51.2,202.119v-15.735L81.067,201.279z M196.267,90.681
			L51.2,163.215v-49.183l145.067-72.533V90.681z M34.133,338.148l-17.067-8.533V105.498l17.067,8.533V338.148z M27.617,91.69
			l143.05-71.525l15.05,7.525L42.667,99.215L27.617,91.69z M180.037,364.842l58.392-29.196l24.592,12.296l-58.36,29.179
			L180.037,364.842z M200.533,384.591v15.927l-25.6-12.8v-15.894L200.533,384.591z M170.483,360.077l-75.89-37.847l58.502-29.251
			l75.792,37.896L170.483,360.077z M166.4,367.568v15.883l-76.8-38.4v-15.784L166.4,367.568z M85.04,317.466l-32.663-16.29
			l58.556-29.278l32.621,16.31L85.04,317.466z M81.067,325.012v15.773L51.2,325.852v-15.734L81.067,325.012z M51.2,282.681v-40.65
			l40.65,20.325L51.2,282.681z M298.667,470.415L51.2,346.681v-11.287l247.467,123.733V470.415z M298.667,449.586l-89.6-44.8
			v-15.938l89.6,44.684V449.586z M298.667,424.003l-84.452-42.117l58.348-29.174l26.104,13.052V424.003z M298.667,346.681
			L51.2,222.948V211.66l247.467,123.733V346.681z M303.16,274.097c-0.144,0.078-0.303,0.114-0.444,0.201
			c-0.693,0.439-1.319,0.976-1.857,1.595c-0.135,0.152-0.23,0.32-0.353,0.48c-0.501,0.646-0.905,1.362-1.2,2.125
			c-0.075,0.196-0.169,0.373-0.231,0.574c-0.259,0.803-0.397,1.641-0.408,2.485v18.714l-84.452-42.117l146.094-73.047
			c0.588-0.307,1.093-0.75,1.475-1.292l60.975,30.421l-119.375,59.687C303.296,273.967,303.246,274.051,303.16,274.097z
			 M332.8,487.481l-17.067-8.533V295.365l17.067,8.533V487.481z M341.333,289.081l-15.05-7.525L473.6,207.898l15.05,7.525
			L341.333,289.081z M494.933,414.948l-145.067,72.533V303.898l145.067-72.533V414.948z"/>
	</g>
</g>
<g>
</g>
<g>
</g>
<g>
</g>
<g>
</g>
<g>
</g>
<g>
</g>
<g>
</g>
<g>
</g>
<g>
</g>
<g>
</g>
<g>
</g>
<g>
</g>
<g>
</g>
<g>
</g>
<g>
</g>
</svg>
