<?xml version="1.0" encoding="iso-8859-1"?>
<!-- Generator: Adobe Illustrator 19.0.0, SVG Export Plug-In . SVG Version: 6.00 Build 0)  -->
<svg version="1.1" id="Capa_1" xmlns="http://www.w3.org/2000/svg" xmlns:xlink="http://www.w3.org/1999/xlink" x="0px" y="0px"
	 viewBox="0 0 505.253 505.253" style="enable-background:new 0 0 505.253 505.253;" xml:space="preserve">
<g>
	<g>
		<path d="M504.402,159.859c-0.237-0.36-0.503-0.699-0.795-1.016v-23.767c-0.047-0.725-0.191-1.441-0.429-2.128
			c1.049-3.787-0.711-7.79-4.211-9.577L255.557,1.667c-0.183-0.091-0.381-0.077-0.567-0.154c-0.534-0.207-1.088-0.357-1.654-0.448
			c-1.005-0.266-2.062-0.266-3.067,0c-0.565,0.091-1.12,0.241-1.654,0.448c-0.186,0.077-0.384,0.063-0.567,0.154L4.64,123.372
			c-3.5,1.787-5.26,5.791-4.21,9.578c-0.238,0.686-0.382,1.402-0.43,2.127v243.41c-0.001,3.18,1.795,6.086,4.639,7.508
			l33.574,16.787c0.073,0.036,0.159,0.02,0.233,0.055c2.217,1.107,4.826,1.107,7.044,0c0.074-0.034,0.159-0.018,0.232-0.055
			l33.574-16.787c2.844-1.422,4.64-4.329,4.639-7.508v-32.582l125.902,62.951v70.352c-0.001,3.18,1.795,6.086,4.639,7.508
			l33.574,16.787c0.073,0.036,0.159,0.02,0.233,0.055c2.217,1.107,4.826,1.107,7.044,0c0.074-0.034,0.159-0.018,0.232-0.055
			l33.574-16.787c2.844-1.422,4.64-4.329,4.639-7.508v-70.352l125.902-62.951v32.582c-0.001,3.18,1.795,6.086,4.639,7.508
			l33.574,16.787c0.073,0.036,0.159,0.02,0.233,0.055c2.217,1.107,4.826,1.107,7.044,0c0.074-0.034,0.159-0.018,0.232-0.055
			l33.574-16.787c2.844-1.422,4.64-4.329,4.639-7.508V168.65l-0.025-0.122C505.466,166.023,505.783,162.673,504.402,159.859z
			 M33.574,381.691l-16.787-8.393V178.036l16.787,8.393V381.691z M67.148,373.298l-16.787,8.393v-52.574l16.787,8.393V373.298z
			 M209.836,390.085L50.361,310.347v-19.496l159.475,79.738V390.085z M209.836,361.204L55.549,284.06l21.869-10.934
			c0.166-0.111,0.324-0.234,0.472-0.369c0.258-0.159,0.497-0.346,0.713-0.557c0.167-0.202,0.314-0.42,0.439-0.651
			c0.156-0.222,0.29-0.459,0.399-0.708c0.088-0.28,0.146-0.568,0.173-0.86c0.057-0.199,0.098-0.403,0.123-0.609v-14.193
			l45.668-22.834l84.43,42.215V361.204z M50.361,277.269v-82.447l20.984,10.492v61.463L50.361,277.269z M79.738,245.794v-36.283
			l36.283,18.141L79.738,245.794z M243.41,482.413l-16.787-8.393V282.954l16.787,8.393V482.413z M247.607,274.675l-230.82-115.41
			v-19.496l230.82,115.41V274.675z M251.803,247.892L22.471,133.226L251.803,18.56l229.332,114.666L251.803,247.892z
			 M276.984,474.019l-16.787,8.393V291.347l16.787-8.393V474.019z M453.246,381.691l-16.787-8.393v-35.787l16.787-8.393V381.691z
			 M453.246,310.347l-159.475,79.738v-19.496l159.475-79.738V310.347z M423.869,255.179v14.193c0.025,0.206,0.066,0.41,0.123,0.609
			c0.027,0.292,0.085,0.58,0.173,0.86c0.109,0.249,0.243,0.486,0.399,0.708c0.125,0.231,0.272,0.449,0.439,0.651
			c0.217,0.211,0.456,0.398,0.713,0.557c0.148,0.135,0.305,0.258,0.472,0.369l21.869,10.934l-154.287,77.143V274.56l84.43-42.215
			L423.869,255.179z M387.586,227.652l36.283-18.141v36.283L387.586,227.652z M453.246,277.269l-20.984-10.492v-61.463
			l20.984-10.492V277.269z M486.82,373.298l-16.787,8.393V186.429l16.787-8.393V373.298z M486.82,159.265L256,274.675v-19.496
			l230.82-115.41V159.265z"/>
	</g>
</g>
<g>
</g>
<g>
</g>
<g>
</g>
<g>
</g>
<g>
</g>
<g>
</g>
<g>
</g>
<g>
</g>
<g>
</g>
<g>
</g>
<g>
</g>
<g>
</g>
<g>
</g>
<g>
</g>
<g>
</g>
</svg>
