<?xml version="1.0" encoding="iso-8859-1"?>
<!-- Generator: Adobe Illustrator 19.0.0, SVG Export Plug-In . SVG Version: 6.00 Build 0)  -->
<svg version="1.1" id="Capa_1" xmlns="http://www.w3.org/2000/svg" xmlns:xlink="http://www.w3.org/1999/xlink" x="0px" y="0px"
	 viewBox="0 0 512 512" style="enable-background:new 0 0 512 512;" xml:space="preserve">
<g>
	<g>
		<path d="M511.404,184.737c-0.098-0.263-0.21-0.501-0.332-0.75c-0.348-0.718-0.796-1.383-1.331-1.975
			c-0.129-0.143-0.224-0.304-0.362-0.438c-0.617-0.61-1.324-1.122-2.096-1.517l-29.417-14.708v-62.992
			c-0.011-0.845-0.149-1.683-0.409-2.486c-0.061-0.2-0.154-0.376-0.23-0.571c-0.295-0.764-0.7-1.481-1.202-2.129
			c-0.123-0.159-0.217-0.326-0.352-0.477c-0.539-0.619-1.165-1.156-1.858-1.596c-0.14-0.086-0.299-0.122-0.442-0.2
			c-0.086-0.047-0.136-0.131-0.225-0.175L285.417,0.857c-0.186-0.093-0.387-0.078-0.576-0.156c-0.543-0.21-1.106-0.363-1.681-0.455
			c-1.022-0.271-2.096-0.271-3.118,0c-0.575,0.092-1.138,0.245-1.681,0.455c-0.189,0.078-0.391,0.064-0.577,0.156l-68.267,34.133
			c-0.088,0.044-0.137,0.128-0.223,0.174c-0.144,0.078-0.303,0.114-0.444,0.201c-0.693,0.439-1.319,0.976-1.857,1.595
			c-0.135,0.152-0.23,0.32-0.354,0.48c-0.5,0.647-0.904,1.362-1.199,2.125c-0.076,0.196-0.169,0.373-0.23,0.574
			c-0.26,0.803-0.398,1.641-0.41,2.485v28.858L4.717,171.524c-0.49,0.27-0.953,0.588-1.38,0.951c-0.138,0.106-0.29,0.174-0.421,0.29
			c-0.747,0.668-1.369,1.463-1.838,2.349c-0.048,0.087-0.133,0.138-0.178,0.228c-0.073,0.145-0.059,0.304-0.122,0.451
			c-0.323,0.746-0.537,1.534-0.634,2.342c-0.029,0.24-0.091,0.469-0.099,0.709C0.04,178.95,0,179.049,0,179.157v196.267
			c-0.001,3.232,1.825,6.188,4.717,7.633l34.133,17.067c0.074,0.037,0.161,0.021,0.236,0.056c2.254,1.126,4.907,1.126,7.161,0
			c0.075-0.035,0.162-0.019,0.236-0.056l34.133-17.067c2.891-1.445,4.717-4.401,4.717-7.633v-3.258l136.533,68.267v45.925
			c-0.001,3.232,1.825,6.188,4.717,7.633l34.133,17.067c0.074,0.037,0.161,0.021,0.236,0.056c2.254,1.126,4.907,1.126,7.161,0
			c0.075-0.035,0.162-0.019,0.236-0.056l34.133-17.067c2.891-1.446,4.717-4.401,4.717-7.633v-45.925l119.467-59.733v11.792
			c-0.001,3.233,1.825,6.188,4.717,7.633l34.133,17.067c0.074,0.037,0.161,0.021,0.236,0.056c2.254,1.126,4.907,1.126,7.161,0
			c0.075-0.035,0.162-0.019,0.236-0.056l34.133-17.067c2.891-1.445,4.717-4.401,4.717-7.633v-204.8
			C511.98,186.678,511.779,185.678,511.404,184.737z M281.6,18.032l168.65,84.325l-49.183,24.592l-168.65-84.325L281.6,18.032z
			 M460.8,116.166v49.183l-51.2,25.6v-49.183L460.8,116.166z M221.867,56.432l170.667,85.333v57.717l-64.504,32.252l-106.162-53.081
			V56.432z M34.133,378.682l-17.067-8.533v-32.117l17.067,8.533V378.682z M34.133,204.757v122.725l-17.067-8.533v-3.258V192.966
			l17.664,8.832C34.355,202.74,34.153,203.743,34.133,204.757z M42.667,186.682l-15.05-7.525L204.8,90.566v15.05L42.667,186.682z
			 M204.8,124.699v49.183l-153.6,76.8v-45.925c-0.019-1.014-0.221-2.017-0.597-2.96L204.8,124.699z M68.267,370.149L51.2,378.682
			v-23.583l17.067,8.533V370.149z M221.867,421.349L51.2,336.016v-19.821l170.667,85.333V421.349z M221.867,391.987L51.2,306.653
			v-33.125l170.667,85.333V391.987z M225.791,283.076c-0.4,0.229-0.781,0.492-1.136,0.785c-0.169,0.155-0.322,0.306-0.478,0.474
			c-0.303,0.365-0.574,0.757-0.809,1.169c-0.216,0.244-0.417,0.5-0.601,0.769c-0.042,0.083-0.031,0.175-0.07,0.258
			c-0.086,0.186-0.153,0.369-0.226,0.561c-0.148,0.47-0.254,0.953-0.317,1.442c-0.112,0.427-0.191,0.861-0.236,1.3
			c-0.003,0.09-0.051,0.166-0.051,0.256v59.229L56.979,266.876l160.171-80.085c0.26-0.179,0.508-0.373,0.745-0.582l100.592,50.296
			l-91.904,45.952C226.306,282.647,226.042,282.853,225.791,283.076z M256,489.616l-17.067-8.533v-32.117L256,457.499V489.616z
			 M256,438.416l-17.067-8.533V303.899L256,312.432V438.416z M264.533,297.616l-15.05-7.525l155.233-77.617
			c0.108-0.054,0.217-0.104,0.317-0.162l64.3-32.146l15.05,7.525L264.533,297.616z M290.133,481.082l-17.067,8.533v-32.117
			l17.067-8.533V481.082z M460.8,395.749l-17.067-8.533v-11.792c-0.019-1.015-0.221-2.017-0.597-2.96v0l17.664-8.832V395.749z
			 M494.933,387.216l-17.067,8.533v-37.392c-0.019-1.015-0.221-2.017-0.597-2.96l17.664-8.832V387.216z M494.933,327.482
			L273.067,438.416V312.432l221.867-110.933V327.482z"/>
	</g>
</g>
<g>
</g>
<g>
</g>
<g>
</g>
<g>
</g>
<g>
</g>
<g>
</g>
<g>
</g>
<g>
</g>
<g>
</g>
<g>
</g>
<g>
</g>
<g>
</g>
<g>
</g>
<g>
</g>
<g>
</g>
</svg>
