<?xml version="1.0" encoding="iso-8859-1"?>
<!-- Generator: Adobe Illustrator 19.0.0, SVG Export Plug-In . SVG Version: 6.00 Build 0)  -->
<svg version="1.1" id="Capa_1" xmlns="http://www.w3.org/2000/svg" xmlns:xlink="http://www.w3.org/1999/xlink" x="0px" y="0px"
	 viewBox="0 0 511.874 511.874" style="enable-background:new 0 0 511.874 511.874;" xml:space="preserve">
<g>
	<g>
		<path d="M430.42,86.078L259.754,0.745c-0.184-0.092-0.383-0.077-0.57-0.155c-0.546-0.212-1.112-0.365-1.69-0.458
			c-1.611-0.276-3.267-0.118-4.797,0.456c-0.189,0.078-0.39,0.064-0.576,0.156L81.454,86.078c-2.891,1.445-4.717,4.401-4.717,7.633
			v34.133c-0.001,3.232,1.825,6.188,4.717,7.633l12.35,6.175v284.858c-0.001,3.232,1.825,6.188,4.717,7.633l34.133,17.067
			c2.403,1.2,5.23,1.2,7.633,0l34.133-17.067c2.891-1.446,4.717-4.401,4.717-7.633v-71.525l34.133,17.067v114.221
			c-0.001,3.232,1.825,6.188,4.717,7.633l34.133,17.067c0.075,0.037,0.161,0.021,0.236,0.056c2.254,1.126,4.907,1.126,7.161,0
			c0.075-0.035,0.162-0.019,0.236-0.056l34.133-17.067c2.891-1.445,4.717-4.401,4.717-7.633V372.053l34.133-17.067v71.525
			c-0.001,3.232,1.825,6.188,4.717,7.633l34.133,17.067c0.074,0.037,0.161,0.021,0.236,0.056c2.254,1.126,4.907,1.126,7.161,0
			c0.075-0.035,0.162-0.019,0.236-0.056l34.133-17.067c2.891-1.446,4.717-4.401,4.717-7.633V141.653l12.35-6.175
			c2.891-1.446,4.717-4.401,4.717-7.633V93.711C435.138,90.479,433.311,87.523,430.42,86.078z M127.937,429.77l-17.067-8.533
			v-271.05l17.067,8.533V429.77z M162.07,421.236l-17.067,8.533v-91.85l17.067,8.533V421.236z M213.27,352.969l-68.267-34.133
			v-19.821l68.267,34.133V352.969z M213.27,323.607l-62.487-31.244l19.821-9.91l42.667,21.333V323.607z M145.004,276.17V167.253
			l17.067,8.533v91.85L145.004,276.17z M213.27,284.703l-34.133-17.067V184.32l34.133,17.067V284.703z M247.404,489.532
			l-17.067-8.533V332.645V209.919l17.067,8.533V489.532z M251.67,201.503L93.804,122.57v-19.821l157.867,78.933V201.503z
			 M255.937,174.274L99.583,96.097l156.354-78.177l156.354,78.177L255.937,174.274z M281.537,480.999l-17.067,8.533V218.453
			l17.067-8.533V480.999z M366.87,429.77l-17.067-8.533v-74.783l17.067-8.533V429.77z M366.87,318.836l-68.267,34.133v-19.821
			l68.267-34.133V318.836z M341.27,282.453l19.821,9.91l-62.487,31.244v-19.821L341.27,282.453z M298.604,284.703v-83.317
			l34.133-17.067v83.317L298.604,284.703z M366.87,276.17l-17.067-8.533v-91.85l17.067-8.533V276.17z M401.004,421.236
			l-17.067,8.533V158.72l17.067-8.533V421.236z M418.07,122.57l-157.867,78.933v-19.821l157.867-78.933V122.57z"/>
	</g>
</g>
<g>
</g>
<g>
</g>
<g>
</g>
<g>
</g>
<g>
</g>
<g>
</g>
<g>
</g>
<g>
</g>
<g>
</g>
<g>
</g>
<g>
</g>
<g>
</g>
<g>
</g>
<g>
</g>
<g>
</g>
</svg>
