<?xml version="1.0" encoding="iso-8859-1"?>
<!-- Generator: Adobe Illustrator 19.0.0, SVG Export Plug-In . SVG Version: 6.00 Build 0)  -->
<svg version="1.1" id="Capa_1" xmlns="http://www.w3.org/2000/svg" xmlns:xlink="http://www.w3.org/1999/xlink" x="0px" y="0px"
	 viewBox="0 0 512 512" style="enable-background:new 0 0 512 512;" xml:space="preserve">
<g>
	<g>
		<path d="M507.283,197.148l-358.4-179.2c-2.403-1.2-5.23-1.2-7.633,0L4.717,86.215C1.825,87.66-0.001,90.616,0,93.848v179.2
			c0.001,14.787,7.658,28.52,20.237,36.294c12.579,7.774,28.286,8.481,41.513,1.868l102.4-51.2
			c14.491-7.188,23.636-21.987,23.583-38.163v-3.258L358.4,303.923v148.325c-0.033,14.801,7.617,28.56,20.208,36.341
			c12.591,7.781,28.318,8.471,41.542,1.822l68.267-34.133c14.491-7.187,23.637-21.987,23.583-38.163V204.781
			C512.001,201.549,510.175,198.593,507.283,197.148z M145.067,35.123l344.088,172.044l-122.221,61.11L22.846,96.234L145.067,35.123
			z M170.667,221.848c0.034,9.705-5.454,18.586-14.15,22.896l-102.4,51.2c-7.936,3.969-17.361,3.546-24.908-1.118
			c-7.548-4.664-12.142-12.905-12.142-21.778V133.256l153.6,76.8V221.848z M494.933,418.115c0.03,9.704-5.457,18.582-14.15,22.896
			l-68.267,34.133c-7.936,3.969-17.361,3.546-24.908-1.118c-7.548-4.664-12.142-12.905-12.142-21.778V303.923l119.467-59.733
			V418.115z M494.933,225.106l-128,64L17.067,114.173v-11.287l347.958,173.979c1.202,0.6,2.615,0.6,3.817,0l126.092-63.046V225.106z
			"/>
	</g>
</g>
<g>
</g>
<g>
</g>
<g>
</g>
<g>
</g>
<g>
</g>
<g>
</g>
<g>
</g>
<g>
</g>
<g>
</g>
<g>
</g>
<g>
</g>
<g>
</g>
<g>
</g>
<g>
</g>
<g>
</g>
</svg>
