<?xml version="1.0" encoding="iso-8859-1"?>
<!-- Generator: Adobe Illustrator 19.0.0, SVG Export Plug-In . SVG Version: 6.00 Build 0)  -->
<svg version="1.1" id="Capa_1" xmlns="http://www.w3.org/2000/svg" xmlns:xlink="http://www.w3.org/1999/xlink" x="0px" y="0px"
	 viewBox="0 0 512 512" style="enable-background:new 0 0 512 512;" xml:space="preserve">
<g>
	<g>
		<g>
			<path d="M507.283,180.1L148.883,0.9c-2.403-1.2-5.23-1.2-7.633,0L4.717,69.167C1.825,70.612-0.001,73.568,0,76.8v247.467
				c0,2.958,1.531,5.704,4.047,7.259s5.657,1.697,8.303,0.374l158.317-79.158V409.6c-0.001,3.232,1.825,6.188,4.717,7.633
				L363.117,511.1c0.075,0.037,0.163,0.021,0.239,0.056c2.252,1.125,4.903,1.125,7.155,0c0.076-0.035,0.164-0.019,0.239-0.056
				l136.533-68.267c2.891-1.445,4.718-4.401,4.717-7.633V187.733C512.001,184.501,510.175,181.546,507.283,180.1z M170.667,233.658
				l-153.6,76.8v-194.25l153.6,76.8V233.658z M358.4,489.658l-170.667-85.333V239.104c0.004-0.117,0.004-0.237,0-0.358v-37.204
				L358.4,286.875V489.658z M362.667,269.925l-345.6-172.8V85.837l345.6,172.8V269.925z M366.933,251.229L22.846,79.185
				l122.221-61.11l344.088,172.044L366.933,251.229z M494.933,429.925l-119.467,59.733V286.875l119.467-59.733V429.925z
				 M494.933,208.058L371.2,269.925v-11.288l123.733-61.867V208.058z"/>
			<path d="M202.892,387.817l136.533,68.267c1.323,0.661,2.893,0.589,4.151-0.188s2.023-2.15,2.024-3.629V307.2
				c0-1.616-0.913-3.094-2.358-3.817l-136.533-68.267c-1.323-0.66-2.893-0.589-4.151,0.188c-1.258,0.777-2.023,2.15-2.024,3.629V384
				C200.534,385.616,201.446,387.094,202.892,387.817z M209.067,245.838l128,64v67.258l-128-64V245.838z M209.067,322.638l128,64
				v58.725l-128-64V322.638z"/>
			<path d="M272.383,295.421c-0.188-0.543-0.448-1.058-0.771-1.533c-0.337-0.429-0.679-0.854-1.021-1.279
				c-2.441-2.461-6.129-3.201-9.331-1.872s-5.281,4.464-5.261,7.93c0.012,1.115,0.243,2.216,0.679,3.242
				c0.434,1.034,1.041,1.987,1.795,2.817c0.425,0.341,0.85,0.683,1.279,1.021c0.475,0.323,0.991,0.582,1.533,0.771
				c0.485,0.245,1.003,0.418,1.538,0.512c0.565,0.094,1.136,0.151,1.709,0.171c2.27,0.022,4.453-0.87,6.058-2.475
				c1.605-1.605,2.497-3.789,2.475-6.058c-0.02-0.573-0.077-1.143-0.171-1.708C272.801,296.424,272.628,295.906,272.383,295.421z"/>
			<path d="M272.383,372.221c-0.188-0.543-0.448-1.058-0.771-1.533c-0.337-0.429-0.679-0.854-1.021-1.279
				c-2.441-2.461-6.129-3.201-9.331-1.872c-3.202,1.329-5.281,4.463-5.261,7.93c0.012,1.115,0.243,2.216,0.679,3.242
				c0.434,1.034,1.041,1.987,1.795,2.817c2.441,2.462,6.129,3.201,9.331,1.872c3.202-1.329,5.281-4.464,5.261-7.931
				c-0.02-0.573-0.077-1.143-0.171-1.708C272.801,373.224,272.628,372.706,272.383,372.221z"/>
		</g>
	</g>
</g>
<g>
</g>
<g>
</g>
<g>
</g>
<g>
</g>
<g>
</g>
<g>
</g>
<g>
</g>
<g>
</g>
<g>
</g>
<g>
</g>
<g>
</g>
<g>
</g>
<g>
</g>
<g>
</g>
<g>
</g>
</svg>
