<?xml version="1.0" encoding="iso-8859-1"?>
<!-- Generator: Adobe Illustrator 19.0.0, SVG Export Plug-In . SVG Version: 6.00 Build 0)  -->
<svg version="1.1" id="Capa_1" xmlns="http://www.w3.org/2000/svg" xmlns:xlink="http://www.w3.org/1999/xlink" x="0px" y="0px"
	 viewBox="0 0 512 512" style="enable-background:new 0 0 512 512;" xml:space="preserve">
<g>
	<g>
		<path d="M511.627,209.791c0.933-3.792-0.866-7.728-4.344-9.503l-29.867-14.933c-0.182-0.091-0.379-0.076-0.565-0.153
			c-2.096-0.792-4.41-0.792-6.506,0c-0.184,0.077-0.382,0.061-0.563,0.153L409.6,215.447l-59.733-29.867v-7.525
			c0-0.108-0.04-0.207-0.044-0.315c-0.009-0.241-0.07-0.469-0.099-0.709c-0.097-0.807-0.311-1.596-0.634-2.342
			c-0.064-0.147-0.049-0.306-0.122-0.451c-0.045-0.091-0.131-0.142-0.179-0.23c-0.465-0.879-1.08-1.669-1.819-2.334
			c-0.152-0.134-0.329-0.214-0.488-0.336c-0.413-0.348-0.859-0.655-1.331-0.917l-131.817-65.908V54.321
			c-0.05-0.4-0.13-0.796-0.24-1.185c-0.055-0.616-0.178-1.224-0.366-1.814c-0.216-0.488-0.478-0.953-0.784-1.39
			c-0.261-0.486-0.57-0.945-0.923-1.369c-0.432-0.419-0.908-0.79-1.419-1.107c-0.308-0.282-0.637-0.539-0.985-0.769L178.75,31.755
			c-0.183-0.092-0.383-0.077-0.569-0.154c-2.094-0.785-4.401-0.785-6.495,0c-0.186,0.077-0.386,0.063-0.569,0.154l-51.65,25.825
			l-38.85-19.425c-0.18-0.09-0.375-0.076-0.558-0.152c-2.1-0.794-4.417-0.793-6.517,0c-0.183,0.076-0.378,0.061-0.558,0.151
			L38.85,55.222c-0.269,0.185-0.526,0.385-0.77,0.601c-0.414,0.236-0.806,0.508-1.172,0.813c-0.163,0.151-0.311,0.299-0.462,0.462
			c-0.302,0.364-0.572,0.754-0.807,1.164c-0.218,0.246-0.42,0.505-0.606,0.776c-0.042,0.084-0.031,0.176-0.07,0.26
			c-0.085,0.184-0.152,0.367-0.224,0.558c-0.148,0.471-0.255,0.954-0.318,1.443c-0.112,0.426-0.191,0.861-0.236,1.299
			c-0.003,0.09-0.051,0.166-0.051,0.256v37.392L4.717,114.955c-0.348,0.23-0.677,0.487-0.985,0.769
			c-0.511,0.317-0.987,0.689-1.419,1.107c-0.353,0.424-0.662,0.883-0.923,1.369c-0.306,0.437-0.569,0.902-0.784,1.39
			c-0.188,0.589-0.311,1.197-0.366,1.814c-0.11,0.388-0.19,0.784-0.24,1.185v183.467c-0.001,3.232,1.825,6.188,4.717,7.633
			l34.133,17.067c0.117,0.058,0.252,0.035,0.371,0.088c1.076,0.507,2.246,0.783,3.434,0.81l0.011,0.003l0.004,0l0.004,0
			c0.722-0.008,1.44-0.108,2.137-0.297c0.222-0.058,0.429-0.158,0.647-0.234c0.349-0.1,0.691-0.224,1.024-0.369l42.667-21.333
			c0.139-0.069,0.218-0.199,0.352-0.274L298.667,413.73v41.658c0.05,0.4,0.13,0.797,0.24,1.185c0.055,0.616,0.178,1.224,0.366,1.813
			c0.495,0.963,1.066,1.886,1.707,2.759c0.432,0.419,0.908,0.79,1.419,1.107c0.308,0.282,0.637,0.539,0.985,0.769l34.133,17.067
			c0.109,0.054,0.224,0.071,0.334,0.121c0.157,0.071,0.318,0.111,0.479,0.172l0.206,0.075c0.222,0.078,0.431,0.179,0.659,0.238
			c0.695,0.188,1.41,0.286,2.13,0.294l0.005-0.001l0.003,0.001l0.003-0.001l0.005,0.001c0.719-0.008,1.435-0.107,2.13-0.294
			c0.228-0.059,0.437-0.16,0.659-0.238l0.206-0.075c0.161-0.061,0.322-0.102,0.479-0.172c0.11-0.049,0.226-0.067,0.334-0.121
			l34.133-17.067c0.348-0.23,0.677-0.487,0.985-0.769c0.511-0.317,0.987-0.689,1.419-1.107c0.641-0.873,1.212-1.795,1.707-2.759
			c0.188-0.589,0.311-1.197,0.366-1.813c0.11-0.388,0.19-0.785,0.24-1.185V413.73l42.852-21.426c0.01,0.093,0.041,0.178,0.055,0.269
			c0.055,0.616,0.178,1.224,0.366,1.813c0.495,0.963,1.066,1.886,1.707,2.759c0.432,0.419,0.908,0.79,1.419,1.107
			c0.308,0.282,0.637,0.539,0.985,0.769l34.133,17.067c0.109,0.054,0.224,0.071,0.334,0.121c0.157,0.071,0.318,0.111,0.479,0.172
			l0.206,0.074c0.222,0.078,0.431,0.179,0.659,0.238c0.695,0.188,1.41,0.286,2.13,0.294l0.005,0l0.003,0.001l0.003,0l0.005,0
			c0.719-0.008,1.435-0.107,2.13-0.294c0.228-0.059,0.437-0.16,0.659-0.238l0.206-0.074c0.161-0.061,0.322-0.102,0.479-0.172
			c0.11-0.049,0.226-0.067,0.334-0.121l34.133-17.067c0.348-0.23,0.677-0.487,0.985-0.769c0.511-0.317,0.987-0.689,1.419-1.107
			c0.641-0.873,1.212-1.795,1.707-2.759c0.188-0.589,0.311-1.197,0.366-1.814c0.11-0.388,0.19-0.784,0.24-1.185v-179.2
			C511.991,211.376,511.866,210.568,511.627,209.791z M34.133,309.313l-17.067-8.533v-27.85l17.067,8.533V309.313z M34.133,262.38
			l-17.067-8.533V131.626l17.067,8.533V262.38z M34.133,130.617l-11.287-5.644l11.287-5.644V130.617z M349.867,204.663l40.65,20.325
			l-40.65,20.325V204.663z M174.933,48.93l15.05,7.525L153.6,74.647l-15.05-7.525L174.933,48.93z M196.267,72.396V95.98
			l-23.583-11.792L196.267,72.396z M51.2,309.313v-19.317l19.317,9.658L51.2,309.313z M298.667,394.647L51.2,270.913V76.663
			l247.467,123.733V394.647z M61.75,62.855L76.8,55.33l245.45,122.725l-15.05,7.525L61.75,62.855z M332.8,191.863v61.983
			l-17.067,8.533v-61.983L332.8,191.863z M332.8,458.646l-17.067-8.533v-27.85l17.067,8.533V458.646z M332.8,411.713l-17.067-8.533
			V289.997l17.067,8.533V411.713z M341.333,283.713l-15.05-7.525L473.6,202.53l15.05,7.525L341.333,283.713z M366.933,450.113
			l-17.067,8.533v-27.85l17.067-8.533V450.113z M460.8,394.646l-17.067-8.533v-2.25l17.067-8.533V394.646z M494.933,386.113
			l-17.067,8.533v-27.85l17.067-8.533V386.113z M494.933,339.18l-145.067,72.533V298.53l145.067-72.533V339.18z"/>
	</g>
</g>
<g>
</g>
<g>
</g>
<g>
</g>
<g>
</g>
<g>
</g>
<g>
</g>
<g>
</g>
<g>
</g>
<g>
</g>
<g>
</g>
<g>
</g>
<g>
</g>
<g>
</g>
<g>
</g>
<g>
</g>
</svg>
