<?xml version="1.0" encoding="iso-8859-1"?>
<!-- Generator: Adobe Illustrator 19.0.0, SVG Export Plug-In . SVG Version: 6.00 Build 0)  -->
<svg version="1.1" id="Capa_1" xmlns="http://www.w3.org/2000/svg" xmlns:xlink="http://www.w3.org/1999/xlink" x="0px" y="0px"
	 viewBox="0 0 512 512" style="enable-background:new 0 0 512 512;" xml:space="preserve">
<g>
	<g>
		<path d="M511.627,240.803c0.933-3.792-0.866-7.728-4.344-9.503L486.4,220.858v-84.325c-0.011-0.845-0.149-1.683-0.409-2.487
			c-0.061-0.2-0.154-0.374-0.229-0.569c-0.296-0.767-0.703-1.487-1.206-2.137c-0.121-0.156-0.213-0.32-0.344-0.468
			c-0.538-0.62-1.164-1.158-1.857-1.598c-0.144-0.09-0.307-0.127-0.455-0.207c-0.083-0.045-0.131-0.126-0.216-0.168l-256-128
			c-2.403-1.2-5.23-1.2-7.633,0l-51.2,25.6c-0.086,0.043-0.134,0.125-0.219,0.171c-0.147,0.079-0.309,0.116-0.452,0.204
			c-0.693,0.44-1.319,0.979-1.857,1.598c-0.132,0.148-0.223,0.311-0.344,0.468c-0.504,0.65-0.91,1.37-1.206,2.137
			c-0.076,0.194-0.168,0.369-0.229,0.569c-0.26,0.804-0.398,1.642-0.409,2.487v33.125L4.717,145.967
			c-0.264,0.181-0.516,0.378-0.756,0.59c-0.421,0.24-0.82,0.517-1.192,0.828c-0.161,0.149-0.306,0.297-0.455,0.458
			c-0.301,0.363-0.57,0.751-0.805,1.16c-0.219,0.247-0.422,0.508-0.608,0.781c-0.042,0.084-0.031,0.176-0.07,0.26
			c-0.085,0.184-0.152,0.367-0.224,0.558c-0.148,0.471-0.255,0.954-0.318,1.443c-0.112,0.426-0.191,0.861-0.236,1.299
			C0.049,153.434,0,153.509,0,153.6v183.467c-0.001,3.232,1.825,6.188,4.717,7.633l34.133,17.067
			c0.117,0.058,0.252,0.035,0.371,0.087c1.076,0.507,2.246,0.783,3.434,0.81l0.011,0.003l0.004-0.001l0.004,0.001
			c0.722-0.008,1.44-0.108,2.137-0.297c0.222-0.058,0.429-0.158,0.647-0.234c0.349-0.1,0.691-0.224,1.024-0.369l42.667-21.333
			c0.139-0.069,0.218-0.199,0.352-0.275l209.165,104.583V486.4c0.05,0.4,0.13,0.797,0.24,1.185c0.055,0.616,0.178,1.224,0.366,1.813
			c0.495,0.963,1.066,1.886,1.707,2.759c0.432,0.419,0.908,0.79,1.419,1.107c0.308,0.282,0.637,0.539,0.985,0.769l34.133,17.067
			c0.109,0.054,0.224,0.071,0.334,0.121c0.157,0.071,0.318,0.111,0.479,0.172l0.206,0.075c0.222,0.078,0.431,0.179,0.659,0.238
			c0.695,0.188,1.41,0.286,2.13,0.294l0.005,0l0.003,0l0.003,0l0.005,0c0.719-0.008,1.435-0.107,2.13-0.294
			c0.228-0.059,0.437-0.16,0.659-0.238l0.206-0.074c0.161-0.061,0.322-0.102,0.479-0.172c0.11-0.049,0.226-0.067,0.334-0.121
			l34.133-17.067c0.348-0.23,0.677-0.487,0.985-0.769c0.511-0.317,0.987-0.689,1.419-1.107c0.641-0.873,1.212-1.795,1.707-2.759
			c0.188-0.589,0.311-1.197,0.366-1.814c0.11-0.388,0.19-0.784,0.239-1.185v-41.658l42.852-21.426
			c0.01,0.093,0.041,0.178,0.055,0.269c0.055,0.616,0.178,1.224,0.366,1.813c0.495,0.963,1.066,1.886,1.707,2.759
			c0.432,0.419,0.908,0.79,1.419,1.107c0.308,0.282,0.637,0.539,0.985,0.769l34.133,17.067c0.109,0.054,0.224,0.071,0.334,0.121
			c0.157,0.071,0.318,0.111,0.479,0.172l0.206,0.074c0.222,0.078,0.431,0.179,0.659,0.238c0.695,0.188,1.41,0.286,2.13,0.294
			l0.005,0l0.003,0l0.003,0l0.005,0c0.719-0.008,1.435-0.107,2.13-0.294c0.228-0.059,0.437-0.16,0.659-0.238l0.206-0.074
			c0.161-0.061,0.322-0.102,0.479-0.172c0.11-0.049,0.226-0.067,0.334-0.121l34.133-17.067c0.348-0.23,0.677-0.487,0.985-0.769
			c0.511-0.317,0.987-0.689,1.419-1.107c0.641-0.873,1.212-1.795,1.707-2.759c0.188-0.589,0.311-1.197,0.366-1.814
			c0.11-0.388,0.19-0.784,0.239-1.185V243.2C511.991,242.387,511.866,241.58,511.627,240.803z M458.783,136.533l-32.117,16.058
			l-71.021-35.511l32.117-16.058L458.783,136.533z M469.333,150.342v66.25L435.2,233.658v-66.25L469.333,150.342z M418.133,167.408
			v74.783l-47.438,23.719L345.6,253.363V131.142L418.133,167.408z M378.221,96.252l-32.117,16.058l-75.792-37.896l32.117-16.058
			L378.221,96.252z M260.267,210.696V88.475l76.8,38.4v122.221L260.267,210.696z M331.792,256l-118.458,59.229l-75.792-37.896
			L256,218.104L331.792,256z M221.867,18.075l71.021,35.51l-32.117,16.058l-71.021-35.51L221.867,18.075z M179.2,47.942
			l72.533,36.267v122.221L179.2,170.163V47.942z M174.483,178.3c0.278-0.169,0.546-0.353,0.803-0.553l71.172,35.586L128,272.563
			l-71.021-35.51L174.483,178.3z M51.2,220.858v-44.917l110.933-55.467v44.917L51.2,220.858z M34.133,340.325l-17.067-8.533v-27.85
			l17.067,8.533V340.325z M34.133,293.392l-17.067-8.533v-117.45l17.067,8.533V293.392z M42.667,161.125l-15.05-7.525
			l134.517-67.258v15.05L42.667,161.125z M51.2,340.325v-19.317l19.317,9.658L51.2,340.325z M298.667,425.658L51.2,301.925v-24.087
			l247.467,123.733V425.658z M298.667,392.029L51.2,268.296v-24.592l247.467,123.733V392.029z M303.383,299.567
			c-0.086,0.043-0.134,0.125-0.218,0.171c-0.147,0.079-0.31,0.116-0.453,0.205c-0.693,0.44-1.319,0.979-1.857,1.598
			c-0.132,0.148-0.223,0.312-0.344,0.468c-0.504,0.65-0.91,1.37-1.206,2.136c-0.076,0.194-0.168,0.369-0.229,0.569
			c-0.26,0.804-0.398,1.642-0.409,2.486v50.696L222.875,320l118.458-59.229l19.821,9.91L303.383,299.567z M332.8,489.658
			l-17.067-8.533v-27.85l17.067,8.533V489.658z M332.8,442.725l-17.067-8.533V321.008l17.067,8.533V442.725z M341.333,314.725
			l-15.05-7.525L473.6,233.542l15.05,7.525L341.333,314.725z M366.933,481.125l-17.067,8.533v-27.85l17.067-8.533V481.125z
			 M460.8,425.658l-17.067-8.533v-2.25l17.067-8.533V425.658z M494.933,417.125l-17.067,8.533v-27.85l17.067-8.533V417.125z
			 M494.933,370.192l-145.067,72.533V329.542l145.067-72.533V370.192z"/>
	</g>
</g>
<g>
</g>
<g>
</g>
<g>
</g>
<g>
</g>
<g>
</g>
<g>
</g>
<g>
</g>
<g>
</g>
<g>
</g>
<g>
</g>
<g>
</g>
<g>
</g>
<g>
</g>
<g>
</g>
<g>
</g>
</svg>
