<?xml version="1.0" encoding="iso-8859-1"?>
<!-- Generator: Adobe Illustrator 19.0.0, SVG Export Plug-In . SVG Version: 6.00 Build 0)  -->
<svg version="1.1" id="Capa_1" xmlns="http://www.w3.org/2000/svg" xmlns:xlink="http://www.w3.org/1999/xlink" x="0px" y="0px"
	 viewBox="0 0 512 512" style="enable-background:new 0 0 512 512;" xml:space="preserve">
<g>
	<g>
		<path d="M511.627,244.994c0.933-3.792-0.866-7.728-4.344-9.503l-29.867-14.933c-0.184-0.092-0.384-0.077-0.571-0.155
			c-2.093-0.786-4.399-0.786-6.492,0c-0.187,0.078-0.387,0.062-0.571,0.155l-27.931,13.966L213.333,120.51V57.524
			c-0.011-0.845-0.149-1.683-0.409-2.487c-0.061-0.2-0.154-0.374-0.229-0.569c-0.296-0.767-0.703-1.487-1.206-2.137
			c-0.121-0.156-0.212-0.32-0.344-0.468c-0.538-0.62-1.164-1.158-1.857-1.598c-0.143-0.089-0.305-0.125-0.452-0.205
			c-0.084-0.045-0.132-0.127-0.218-0.171l-34.133-17.067c-0.18-0.09-0.374-0.075-0.556-0.151c-2.099-0.794-4.416-0.795-6.515-0.002
			c-0.184,0.077-0.381,0.062-0.562,0.153L4.717,113.89c-0.272,0.187-0.533,0.39-0.78,0.609c-0.409,0.234-0.798,0.503-1.161,0.804
			c-0.164,0.152-0.311,0.299-0.463,0.463c-0.303,0.364-0.573,0.754-0.808,1.166c-0.218,0.246-0.42,0.504-0.605,0.775
			c-0.042,0.084-0.031,0.176-0.07,0.26c-0.085,0.184-0.152,0.367-0.224,0.558c-0.148,0.471-0.255,0.954-0.318,1.443
			c-0.113,0.426-0.192,0.861-0.236,1.3C0.049,121.358,0,121.434,0,121.524v183.467c-0.001,3.232,1.825,6.188,4.717,7.633
			l34.133,17.067c0.117,0.058,0.252,0.035,0.371,0.087c1.076,0.507,2.246,0.783,3.434,0.81l0.011,0.003l0.004-0.001l0.004,0.001
			c0.722-0.008,1.44-0.108,2.137-0.297c0.222-0.058,0.429-0.158,0.647-0.234c0.349-0.1,0.691-0.224,1.024-0.369l42.667-21.333
			c0.139-0.069,0.218-0.199,0.352-0.275l209.165,104.583v41.658c0.05,0.4,0.13,0.796,0.24,1.185
			c0.055,0.616,0.178,1.224,0.366,1.813c0.495,0.963,1.066,1.886,1.707,2.759c0.432,0.419,0.908,0.79,1.419,1.107
			c0.308,0.282,0.637,0.539,0.985,0.769l34.133,17.067c0.109,0.054,0.224,0.071,0.334,0.121c0.157,0.071,0.318,0.111,0.479,0.172
			l0.206,0.075c0.222,0.078,0.431,0.179,0.659,0.238c0.695,0.188,1.41,0.286,2.13,0.294l0.005,0l0.003,0l0.003,0l0.005,0
			c0.719-0.008,1.435-0.107,2.13-0.294c0.228-0.059,0.437-0.16,0.659-0.238l0.206-0.074c0.161-0.061,0.322-0.102,0.479-0.172
			c0.11-0.049,0.226-0.067,0.334-0.121l34.133-17.067c0.348-0.23,0.677-0.487,0.985-0.769c0.511-0.317,0.987-0.689,1.419-1.107
			c0.641-0.873,1.212-1.795,1.707-2.759c0.188-0.589,0.311-1.197,0.366-1.814c0.11-0.388,0.19-0.785,0.239-1.185v-41.658
			l42.852-21.426c0.01,0.093,0.041,0.178,0.055,0.269c0.055,0.616,0.178,1.224,0.366,1.813c0.495,0.963,1.066,1.886,1.707,2.759
			c0.432,0.419,0.908,0.79,1.419,1.107c0.308,0.282,0.637,0.539,0.985,0.769l34.133,17.067c0.109,0.054,0.224,0.071,0.334,0.121
			c0.157,0.071,0.318,0.111,0.479,0.172l0.206,0.075c0.222,0.078,0.431,0.179,0.659,0.238c0.695,0.188,1.41,0.286,2.13,0.294
			l0.005,0l0.003,0l0.003,0l0.005,0c0.719-0.008,1.435-0.107,2.13-0.294c0.228-0.059,0.437-0.16,0.659-0.238l0.206-0.074
			c0.161-0.061,0.322-0.102,0.479-0.172c0.11-0.049,0.226-0.067,0.334-0.121l34.133-17.067c0.348-0.23,0.677-0.487,0.985-0.769
			c0.511-0.317,0.987-0.689,1.419-1.107c0.641-0.873,1.212-1.795,1.707-2.759c0.188-0.589,0.311-1.197,0.366-1.814
			c0.11-0.388,0.19-0.785,0.239-1.185V247.391C511.991,246.578,511.866,245.771,511.627,244.994z M327.634,196.612l25.151,12.548
			l-148.122,74.061l-24.624-12.28l146.135-73.068C326.753,197.573,327.253,197.141,327.634,196.612z M200.533,290.695v15.925
			l-25.6-12.8v-15.892L200.533,290.695z M242.26,154.018l76.354,38.095l-148.129,74.064l-75.89-37.847l16.439-8.219
			c6.566,5.216,13.785,9.552,21.474,12.896c9.141,4.244,18.941,6.891,28.975,7.825c1.029,0.067,2.004,0.096,2.933,0.096
			c4.81,0.403,9.601-0.976,13.461-3.874l81.106-43.696l0.588-1.354c4.311-9.932-11.499-22.821-29.279-31.522l10.55-5.274
			C241.397,154.922,241.882,154.515,242.26,154.018z M166.4,273.672v15.881l-76.8-38.4v-15.782L166.4,273.672z M144.475,206.011
			c20.179,8.946,29.775,20.638,28.275,24.021c-0.617,1.383-4.237,2.725-10.733,2.283c-9.024-0.873-17.833-3.277-26.05-7.108
			c-20.179-8.95-29.779-20.638-28.279-24.021c0.538-1.208,3.367-2.358,8.408-2.358c0.729,0,1.504,0.021,2.329,0.075
			C127.449,199.776,136.258,202.18,144.475,206.011z M126.116,191.304l65.621-32.881c10.721,0.485,21.228,3.166,30.871,7.875
			c18.742,8.337,27.921,17.704,29.058,21.308l-70.835,38.164c-2.919-9.828-17.14-20.575-32.898-27.56
			C140.955,195.065,133.633,192.747,126.116,191.304z M233.189,149.491l-13.214,6.606c-9.371-3.98-19.436-6.069-29.616-6.148
			l-84.238,41.833l0.094,0.188c-2.782,1.017-5.054,3.084-6.328,5.758c-1.753,5.809,0.047,12.107,4.605,16.112l-19.45,9.726
			l-28.39-14.159l148.153-74.077L233.189,149.491z M81.067,231.116v15.771L51.2,231.953v-15.732L81.067,231.116z M196.267,120.515
			L51.2,193.049v-49.183l145.067-72.533V120.515z M34.133,308.249l-17.067-8.533v-27.85l17.067,8.533V308.249z M34.133,261.316
			l-17.067-8.533v-117.45l17.067,8.533V261.316z M42.667,129.049l-15.05-7.525l143.05-71.525l15.05,7.525L42.667,129.049z
			 M51.2,308.249v-19.317l19.317,9.658L51.2,308.249z M298.667,393.582L51.2,269.849v-28.354l247.467,123.733V393.582z
			 M298.667,355.686l-89.6-44.8V294.95l89.6,44.684V355.686z M303.383,303.757c-0.086,0.043-0.134,0.125-0.218,0.171
			c-0.147,0.079-0.309,0.116-0.452,0.205c-0.693,0.44-1.319,0.979-1.857,1.598c-0.132,0.148-0.223,0.311-0.344,0.468
			c-0.504,0.65-0.91,1.37-1.206,2.136c-0.076,0.194-0.168,0.369-0.229,0.569c-0.26,0.804-0.398,1.642-0.409,2.487v18.711
			l-84.449-42.116l146.091-73.046c0.587-0.307,1.093-0.749,1.476-1.29l60.972,30.42L303.383,303.757z M332.8,457.582l-17.067-8.533
			v-27.85l17.067,8.533V457.582z M332.8,410.649l-17.067-8.533v-76.917l17.067,8.533V410.649z M341.333,318.915l-15.05-7.525
			L473.6,237.732l15.05,7.525L341.333,318.915z M366.933,449.049l-17.067,8.533v-27.85l17.067-8.533V449.049z M460.8,393.582
			l-17.067-8.533v-2.25l17.067-8.533V393.582z M494.933,385.049l-17.067,8.533v-27.85l17.067-8.533V385.049z M494.933,338.115
			l-145.067,72.533v-76.917l145.067-72.533V338.115z"/>
	</g>
</g>
<g>
</g>
<g>
</g>
<g>
</g>
<g>
</g>
<g>
</g>
<g>
</g>
<g>
</g>
<g>
</g>
<g>
</g>
<g>
</g>
<g>
</g>
<g>
</g>
<g>
</g>
<g>
</g>
<g>
</g>
</svg>
