<?xml version="1.0" encoding="iso-8859-1"?>
<!-- Generator: Adobe Illustrator 19.0.0, SVG Export Plug-In . SVG Version: 6.00 Build 0)  -->
<svg version="1.1" id="Capa_1" xmlns="http://www.w3.org/2000/svg" xmlns:xlink="http://www.w3.org/1999/xlink" x="0px" y="0px"
	 viewBox="0 0 512 512" style="enable-background:new 0 0 512 512;" xml:space="preserve">
<g>
	<g>
		<g>
			<path d="M451.671,142.113c-0.098-0.263-0.21-0.5-0.331-0.75c-0.348-0.718-0.796-1.383-1.331-1.975
				c-0.129-0.143-0.224-0.304-0.362-0.438c-0.616-0.611-1.323-1.122-2.096-1.517L174.483,0.9c-2.403-1.2-5.23-1.2-7.633,0
				L64.45,52.1c-0.087,0.044-0.137,0.127-0.223,0.173c-0.144,0.078-0.303,0.115-0.444,0.202c-0.693,0.439-1.319,0.976-1.857,1.595
				c-0.135,0.152-0.23,0.32-0.353,0.48c-0.501,0.646-0.905,1.362-1.2,2.125c-0.075,0.196-0.169,0.373-0.231,0.574
				c-0.26,0.803-0.397,1.641-0.409,2.485v307.2c-0.001,3.232,1.825,6.188,4.717,7.633L337.517,511.1
				c0.119,0.059,0.254,0.035,0.374,0.088c1.075,0.507,2.244,0.782,3.431,0.809l0.011,0.003l0.004,0l0.004,0
				c0.723-0.008,1.442-0.108,2.14-0.297c0.218-0.057,0.42-0.154,0.633-0.229c0.353-0.102,0.699-0.227,1.035-0.374l102.4-51.2
				c2.891-1.446,4.717-4.401,4.716-7.633v-307.2C452.247,144.054,452.046,143.054,451.671,142.113z M332.8,489.658l-256-128V73.542
				l256,128V489.658z M341.333,186.725L87.35,59.733l83.317-41.658L424.65,145.067L341.333,186.725z M435.2,446.992l-85.333,42.667
				V201.542l85.333-42.667V446.992z"/>
			<path d="M91.958,353.683l221.867,110.933c0.593,0.296,1.246,0.45,1.908,0.45c2.356-0.001,4.265-1.911,4.267-4.267V213.333
				c-0.002-1.616-0.914-3.092-2.358-3.817L95.775,98.583c-1.323-0.66-2.893-0.589-4.151,0.188c-1.258,0.777-2.023,2.15-2.024,3.629
				v247.467C89.602,351.482,90.514,352.959,91.958,353.683z M98.133,109.304l213.333,106.667v50.192L98.133,159.496V109.304z
				 M98.133,169.038l213.333,106.667v50.192L98.133,219.229V169.038z M98.133,228.771l213.333,106.667v50.192L98.133,278.963
				V228.771z M98.133,288.504l213.333,106.667v58.725L98.133,347.229V288.504z"/>
			<path d="M223.775,183.917l-34.133-17.067c-2.107-1.047-4.664-0.192-5.716,1.913s-0.203,4.663,1.899,5.721l34.133,17.067
				c1.364,0.686,2.991,0.591,4.266-0.249c1.275-0.84,2.004-2.298,1.911-3.822C226.042,185.955,225.142,184.596,223.775,183.917z"/>
			<path d="M223.775,243.65l-34.133-17.067c-2.107-1.047-4.664-0.192-5.716,1.913s-0.203,4.663,1.899,5.721l34.133,17.067
				c1.364,0.686,2.991,0.591,4.266-0.249c1.275-0.84,2.004-2.298,1.911-3.822C226.042,245.688,225.142,244.33,223.775,243.65z"/>
			<path d="M223.775,303.383l-34.133-17.067c-2.107-1.047-4.664-0.192-5.716,1.913s-0.203,4.663,1.899,5.721l34.133,17.067
				c1.364,0.686,2.991,0.591,4.266-0.249c1.275-0.84,2.004-2.298,1.911-3.822C226.042,305.422,225.142,304.063,223.775,303.383z"/>
			<path d="M223.775,363.117l-34.133-17.067c-2.107-1.047-4.664-0.192-5.716,1.913s-0.203,4.663,1.899,5.721l34.133,17.067
				c1.364,0.686,2.991,0.591,4.266-0.249c1.275-0.84,2.004-2.298,1.911-3.822C226.042,365.155,225.142,363.796,223.775,363.117z"/>
		</g>
	</g>
</g>
<g>
</g>
<g>
</g>
<g>
</g>
<g>
</g>
<g>
</g>
<g>
</g>
<g>
</g>
<g>
</g>
<g>
</g>
<g>
</g>
<g>
</g>
<g>
</g>
<g>
</g>
<g>
</g>
<g>
</g>
</svg>
