<?xml version="1.0" encoding="iso-8859-1"?>
<!-- Generator: Adobe Illustrator 19.0.0, SVG Export Plug-In . SVG Version: 6.00 Build 0)  -->
<svg version="1.1" id="Capa_1" xmlns="http://www.w3.org/2000/svg" xmlns:xlink="http://www.w3.org/1999/xlink" x="0px" y="0px"
	 viewBox="0 0 512 512" style="enable-background:new 0 0 512 512;" xml:space="preserve">
<g>
	<g>
		<g>
			<path d="M511.404,214.646c-0.098-0.263-0.21-0.501-0.331-0.75c-0.348-0.718-0.796-1.383-1.331-1.975
				c-0.129-0.143-0.224-0.304-0.362-0.438c-0.616-0.611-1.323-1.122-2.096-1.517L114.75,13.7c-2.403-1.2-5.23-1.2-7.633,0
				L4.717,64.9c-0.773,0.395-1.479,0.907-2.096,1.517c-0.139,0.133-0.233,0.295-0.362,0.438c-0.536,0.592-0.984,1.258-1.331,1.977
				c-0.122,0.248-0.233,0.485-0.331,0.746C0.221,70.519,0.019,71.52,0,72.533V294.4c-0.001,3.232,1.825,6.188,4.717,7.633
				L397.25,498.3c0.075,0.037,0.161,0.021,0.236,0.056c2.254,1.126,4.907,1.126,7.161,0c0.075-0.035,0.161-0.019,0.235-0.056
				l102.4-51.2c2.891-1.446,4.717-4.401,4.717-7.633V217.6C511.981,216.588,511.779,215.587,511.404,214.646z M392.533,476.858
				L17.067,289.125V86.342l375.467,187.733V476.858z M401.067,259.258L27.617,72.533l83.317-41.658L484.383,217.6L401.067,259.258z
				 M494.933,434.192L409.6,476.858V274.075l85.333-42.667V434.192z"/>
			<path d="M30.168,193.494c0.111,0.253,0.246,0.494,0.405,0.72c0.127,0.235,0.277,0.456,0.447,0.662
				c0.22,0.215,0.464,0.405,0.726,0.566c0.15,0.137,0.31,0.262,0.479,0.375l162.133,81.067l0.117,0.028
				c0.559,0.271,1.171,0.416,1.792,0.422c0.699-0.015,1.384-0.206,1.99-0.556c0.151-0.088,0.297-0.186,0.435-0.293
				c0.489-0.343,0.899-0.788,1.202-1.303c0.049-0.084,0.146-0.118,0.19-0.206l0.034-0.127c0.102-0.269,0.177-0.548,0.224-0.832
				c0.081-0.266,0.137-0.539,0.165-0.816l0.027-0.133v-76.8c-0.026-0.209-0.068-0.416-0.125-0.619
				c-0.027-0.297-0.086-0.59-0.176-0.874c-0.111-0.253-0.246-0.494-0.405-0.72c-0.127-0.235-0.277-0.456-0.447-0.662
				c-0.22-0.215-0.464-0.405-0.726-0.566c-0.15-0.137-0.31-0.262-0.479-0.375L36.042,111.384c-1.323-0.66-2.893-0.589-4.151,0.188
				c-1.258,0.777-2.023,2.15-2.024,3.628V192c0.026,0.209,0.068,0.416,0.125,0.619C30.019,192.916,30.078,193.209,30.168,193.494z
				 M38.4,122.104l153.6,76.8v67.258l-153.6-76.8V122.104z"/>
			<path d="M209.213,282.38c0.031,0.242,0.083,0.481,0.155,0.714c0.037,0.099,0.071,0.193,0.115,0.287l0.034,0.127
				c0.044,0.089,0.141,0.122,0.19,0.206l0.067,0.099c0.127,0.235,0.277,0.457,0.447,0.662c0.21,0.204,0.441,0.386,0.689,0.542
				c0.112,0.095,0.229,0.185,0.35,0.269c0.062,0.036,0.101,0.097,0.167,0.13l162.133,81.067l0.117,0.028
				c0.559,0.271,1.171,0.416,1.792,0.422c0.699-0.015,1.384-0.206,1.99-0.556c0.151-0.088,0.297-0.186,0.435-0.293
				c0.489-0.343,0.899-0.788,1.202-1.303c0.049-0.084,0.146-0.118,0.19-0.206l0.034-0.127c0.102-0.269,0.177-0.548,0.224-0.832
				c0.081-0.266,0.137-0.539,0.165-0.816l0.027-0.133v-76.8c-0.002-1.616-0.914-3.092-2.358-3.817l-162.133-81.067l-0.126-0.034
				c-0.28-0.108-0.571-0.185-0.868-0.232c-0.251-0.075-0.508-0.127-0.768-0.155c-0.051-0.002-0.095-0.029-0.147-0.029
				c-0.232,0.026-0.461,0.072-0.684,0.138c-0.269,0.028-0.536,0.081-0.795,0.16c-0.274,0.118-0.534,0.265-0.777,0.438
				c-0.216,0.118-0.42,0.256-0.61,0.411c-0.223,0.226-0.419,0.476-0.585,0.746c-0.133,0.146-0.255,0.301-0.365,0.465l-0.034,0.127
				c-0.102,0.269-0.177,0.548-0.224,0.832c-0.081,0.266-0.137,0.539-0.165,0.816l-0.027,0.133v76.8l0.027,0.133
				C209.116,281.952,209.156,282.168,209.213,282.38z M371.2,288.504v67.258L222.875,281.6l67.258-33.629L371.2,288.504z
				 M217.6,211.704l62.992,31.496L217.6,274.696V211.704z"/>
			<path d="M209.368,368.427c0.111,0.253,0.246,0.494,0.405,0.72c0.127,0.235,0.277,0.456,0.447,0.662
				c0.22,0.215,0.464,0.405,0.726,0.566c0.15,0.137,0.31,0.262,0.479,0.375l162.133,81.067c0.593,0.296,1.246,0.45,1.908,0.45
				c2.356-0.001,4.265-1.911,4.267-4.267v-68.267c-0.026-0.209-0.068-0.416-0.125-0.619c-0.027-0.297-0.086-0.59-0.176-0.874
				c-0.111-0.253-0.246-0.494-0.405-0.72c-0.127-0.235-0.277-0.456-0.447-0.662c-0.22-0.215-0.464-0.405-0.726-0.566
				c-0.15-0.137-0.31-0.262-0.479-0.375L215.242,294.85l-0.126-0.034c-0.282-0.108-0.574-0.187-0.873-0.233
				c-0.249-0.074-0.504-0.125-0.761-0.154c-0.052-0.002-0.096-0.03-0.148-0.03c-0.229,0.026-0.454,0.071-0.675,0.136
				c-0.274,0.028-0.545,0.083-0.808,0.163c-0.485,0.246-0.949,0.531-1.389,0.852c-0.218,0.223-0.411,0.469-0.574,0.735
				c-0.135,0.148-0.259,0.306-0.371,0.473l-0.034,0.127c-0.102,0.269-0.177,0.548-0.224,0.832c-0.081,0.266-0.137,0.539-0.165,0.816
				l-0.027,0.133v68.267c0.026,0.209,0.068,0.416,0.125,0.619C209.219,367.85,209.278,368.143,209.368,368.427z M217.6,305.571
				l153.6,76.8v58.725l-153.6-76.8V305.571z"/>
			<path d="M30.317,279.242c0.031,0.063,0.1,0.086,0.135,0.146c0.229,0.337,0.506,0.638,0.823,0.893
				c0.239,0.285,0.514,0.536,0.819,0.749c0.054,0.03,0.076,0.093,0.131,0.12l162.133,81.067l0.117,0.028
				c0.559,0.271,1.171,0.416,1.792,0.422c0.699-0.015,1.384-0.206,1.99-0.556c0.151-0.088,0.297-0.186,0.435-0.293
				c0.489-0.343,0.899-0.788,1.202-1.303c0.049-0.084,0.146-0.118,0.19-0.206l0.034-0.127c0.102-0.269,0.177-0.548,0.224-0.832
				c0.081-0.266,0.137-0.539,0.165-0.816l0.027-0.133v-68.267c-0.026-0.209-0.068-0.416-0.125-0.619
				c-0.027-0.297-0.086-0.59-0.176-0.874c-0.111-0.253-0.246-0.494-0.405-0.72c-0.127-0.235-0.277-0.457-0.447-0.662
				c-0.22-0.215-0.464-0.405-0.726-0.566c-0.15-0.137-0.31-0.262-0.479-0.375L36.042,205.25l-0.126-0.034
				c-0.282-0.108-0.574-0.187-0.873-0.233c-0.249-0.074-0.504-0.125-0.761-0.154c-0.052-0.002-0.096-0.03-0.148-0.03
				c-0.229,0.026-0.454,0.071-0.675,0.136c-0.274,0.028-0.545,0.083-0.808,0.163c-0.264,0.113-0.516,0.255-0.75,0.421
				c-0.226,0.123-0.44,0.267-0.639,0.43c-0.218,0.222-0.411,0.469-0.574,0.735c-0.135,0.148-0.259,0.306-0.371,0.473l-0.034,0.127
				c-0.102,0.269-0.177,0.548-0.224,0.832c-0.081,0.266-0.137,0.539-0.165,0.816l-0.027,0.133v68.267l0.03,0.107
				C29.901,278.064,30.044,278.68,30.317,279.242z M192,292.771v58.725L43.675,277.333l58.725-29.362L192,292.771z M38.4,215.971
				L92.858,243.2L38.4,270.429V215.971z"/>
			<path d="M138.442,188.183l-34.133-17.067c-2.107-1.047-4.664-0.192-5.716,1.913c-1.052,2.104-0.203,4.663,1.899,5.72
				l34.133,17.067c1.364,0.686,2.991,0.591,4.266-0.249c1.275-0.84,2.004-2.298,1.911-3.822S139.809,188.863,138.442,188.183z"/>
			<path d="M309.108,367.383l-34.133-17.067c-2.107-1.047-4.664-0.192-5.716,1.913c-1.052,2.104-0.203,4.663,1.899,5.72
				l34.133,17.067c2.107,1.047,4.664,0.191,5.716-1.913C312.06,370.999,311.21,368.44,309.108,367.383z"/>
		</g>
	</g>
</g>
<g>
</g>
<g>
</g>
<g>
</g>
<g>
</g>
<g>
</g>
<g>
</g>
<g>
</g>
<g>
</g>
<g>
</g>
<g>
</g>
<g>
</g>
<g>
</g>
<g>
</g>
<g>
</g>
<g>
</g>
</svg>
