<?xml version="1.0" encoding="iso-8859-1"?>
<!-- Generator: Adobe Illustrator 19.0.0, SVG Export Plug-In . SVG Version: 6.00 Build 0)  -->
<svg version="1.1" id="Capa_1" xmlns="http://www.w3.org/2000/svg" xmlns:xlink="http://www.w3.org/1999/xlink" x="0px" y="0px"
	 viewBox="0 0 512 512" style="enable-background:new 0 0 512 512;" xml:space="preserve">
<g>
	<g>
		<g>
			<path d="M451.671,125.046c-0.098-0.263-0.21-0.5-0.332-0.75c-0.348-0.718-0.796-1.383-1.331-1.975
				c-0.129-0.143-0.224-0.304-0.362-0.438c-0.617-0.61-1.324-1.122-2.096-1.517L208.617,0.9c-2.403-1.2-5.23-1.2-7.633,0
				L64.45,69.167c-0.088,0.044-0.137,0.128-0.223,0.174c-0.144,0.078-0.303,0.114-0.444,0.201c-0.693,0.439-1.318,0.976-1.857,1.595
				c-0.135,0.152-0.23,0.32-0.354,0.48c-0.5,0.647-0.904,1.362-1.199,2.125c-0.076,0.196-0.169,0.373-0.23,0.574
				c-0.26,0.803-0.398,1.641-0.41,2.485V384c-0.001,3.232,1.825,6.188,4.717,7.633L303.383,511.1
				c0.118,0.059,0.254,0.035,0.374,0.088c1.075,0.507,2.244,0.782,3.431,0.809L307.2,512l0.004,0l0.004,0
				c0.723-0.008,1.442-0.108,2.14-0.297c0.218-0.057,0.42-0.154,0.633-0.229c0.353-0.102,0.699-0.227,1.035-0.374l136.533-68.267
				c2.891-1.446,4.717-4.401,4.716-7.633V128C452.247,126.988,452.045,125.987,451.671,125.046z M298.667,489.658L76.8,378.725
				V90.608l221.867,110.933V489.658z M307.2,186.725L87.35,76.8L204.8,18.075L424.65,128L307.2,186.725z M435.2,429.925
				l-119.467,59.733V201.542L435.2,141.808V429.925z"/>
			<path d="M91.958,362.217l187.733,93.867c0.593,0.296,1.246,0.45,1.908,0.45c2.356-0.001,4.265-1.911,4.267-4.267V217.6
				c-0.002-1.616-0.914-3.092-2.358-3.817L95.775,119.917c-1.323-0.66-2.893-0.589-4.151,0.188c-1.258,0.777-2.023,2.15-2.024,3.629
				V358.4C89.602,360.016,90.514,361.492,91.958,362.217z M277.333,445.363L103.408,358.4l80.058-40.029l93.867,46.933V445.363z
				 M200.533,181.838l76.8,38.4v33.125l-76.8-38.4V181.838z M277.333,262.904v92.858L103.408,268.8l92.858-46.429L277.333,262.904z
				 M98.133,130.638L192,177.571v37.392l-93.867,46.933V130.638z M98.133,275.704l75.792,37.896l-75.792,37.896V275.704z"/>
		</g>
	</g>
</g>
<g>
</g>
<g>
</g>
<g>
</g>
<g>
</g>
<g>
</g>
<g>
</g>
<g>
</g>
<g>
</g>
<g>
</g>
<g>
</g>
<g>
</g>
<g>
</g>
<g>
</g>
<g>
</g>
<g>
</g>
</svg>
