<?xml version="1.0" encoding="iso-8859-1"?>
<!-- Generator: Adobe Illustrator 19.0.0, SVG Export Plug-In . SVG Version: 6.00 Build 0)  -->
<svg version="1.1" id="Capa_1" xmlns="http://www.w3.org/2000/svg" xmlns:xlink="http://www.w3.org/1999/xlink" x="0px" y="0px"
	 viewBox="0 0 512 512" style="enable-background:new 0 0 512 512;" xml:space="preserve">
<g>
	<g>
		<g>
			<path d="M451.671,125.046c-0.098-0.263-0.21-0.5-0.332-0.75c-0.348-0.718-0.796-1.383-1.331-1.975
				c-0.129-0.143-0.224-0.304-0.362-0.438c-0.617-0.61-1.324-1.122-2.096-1.517L208.617,0.9c-2.403-1.2-5.23-1.2-7.633,0
				L64.45,69.167c-0.088,0.044-0.137,0.128-0.223,0.174c-0.144,0.078-0.303,0.114-0.444,0.201c-0.693,0.439-1.318,0.976-1.857,1.595
				c-0.135,0.152-0.23,0.32-0.354,0.48c-0.5,0.647-0.904,1.362-1.199,2.125c-0.076,0.196-0.169,0.373-0.23,0.574
				c-0.26,0.803-0.398,1.641-0.41,2.485V384c-0.001,3.232,1.825,6.188,4.717,7.633L303.383,511.1
				c0.118,0.059,0.254,0.035,0.374,0.088c1.075,0.507,2.244,0.782,3.431,0.809L307.2,512l0.004,0l0.004,0
				c0.723-0.008,1.442-0.108,2.14-0.297c0.218-0.057,0.42-0.154,0.633-0.229c0.353-0.102,0.699-0.227,1.035-0.374l136.533-68.267
				c2.891-1.446,4.717-4.401,4.716-7.633V128C452.247,126.988,452.045,125.987,451.671,125.046z M298.667,489.658L76.8,378.725
				V90.608l221.867,110.933V489.658z M307.2,186.725L87.35,76.8L204.8,18.075L424.65,128L307.2,186.725z M435.2,429.925
				l-119.467,59.733V201.542L435.2,141.808V429.925z"/>
			<path d="M91.958,191.55l187.733,93.867c0.593,0.296,1.246,0.45,1.908,0.45c2.356-0.001,4.265-1.911,4.267-4.267v-64
				c-0.002-1.616-0.914-3.092-2.358-3.817L95.775,119.917c-1.323-0.66-2.893-0.589-4.151,0.188c-1.258,0.777-2.023,2.15-2.024,3.629
				v64C89.602,189.349,90.514,190.826,91.958,191.55z M98.133,130.638l179.2,89.6v54.458l-179.2-89.6V130.638z"/>
			<path d="M91.958,276.883l187.733,93.867c0.593,0.296,1.246,0.45,1.908,0.45c2.356-0.001,4.265-1.911,4.267-4.267v-64
				c-0.002-1.616-0.914-3.092-2.358-3.817L95.775,205.25c-1.323-0.66-2.893-0.589-4.151,0.188c-1.258,0.777-2.023,2.15-2.024,3.629
				v64C89.602,274.682,90.514,276.159,91.958,276.883z M98.133,215.971l179.2,89.6v54.458l-179.2-89.6V215.971z"/>
			<path d="M91.958,362.217l187.733,93.867c0.593,0.296,1.246,0.45,1.908,0.45c2.356-0.001,4.265-1.911,4.267-4.267v-64
				c-0.002-1.616-0.914-3.092-2.358-3.817L95.775,290.583c-1.323-0.66-2.893-0.589-4.151,0.188c-1.258,0.777-2.023,2.15-2.024,3.629
				v64C89.602,360.016,90.514,361.492,91.958,362.217z M98.133,301.304l179.2,89.6v54.458l-179.2-89.6V301.304z"/>
			<path d="M206.708,200.983l-34.133-17.067c-2.107-1.047-4.664-0.192-5.716,1.913s-0.203,4.663,1.899,5.721l34.133,17.067
				c1.364,0.686,2.991,0.591,4.266-0.249c1.275-0.84,2.004-2.298,1.911-3.822C208.976,203.021,208.076,201.663,206.708,200.983z"/>
			<path d="M206.708,286.317l-34.133-17.067c-1.364-0.686-2.991-0.591-4.266,0.249c-1.275,0.84-2.004,2.298-1.911,3.822
				c0.093,1.524,0.993,2.883,2.36,3.562l34.133,17.067c1.364,0.686,2.991,0.591,4.266-0.249c1.275-0.84,2.004-2.298,1.911-3.822
				C208.976,288.355,208.076,286.996,206.708,286.317z"/>
			<path d="M206.708,371.65l-34.133-17.067c-2.107-1.047-4.664-0.191-5.716,1.913c-1.052,2.104-0.203,4.663,1.899,5.721
				l34.133,17.067c1.364,0.686,2.991,0.591,4.266-0.249s2.004-2.298,1.911-3.822C208.976,373.688,208.076,372.33,206.708,371.65z"/>
		</g>
	</g>
</g>
<g>
</g>
<g>
</g>
<g>
</g>
<g>
</g>
<g>
</g>
<g>
</g>
<g>
</g>
<g>
</g>
<g>
</g>
<g>
</g>
<g>
</g>
<g>
</g>
<g>
</g>
<g>
</g>
<g>
</g>
</svg>
