<?xml version="1.0" encoding="iso-8859-1"?>
<!-- Generator: Adobe Illustrator 19.0.0, SVG Export Plug-In . SVG Version: 6.00 Build 0)  -->
<svg version="1.1" id="Capa_1" xmlns="http://www.w3.org/2000/svg" xmlns:xlink="http://www.w3.org/1999/xlink" x="0px" y="0px"
	 viewBox="0 0 512 512" style="enable-background:new 0 0 512 512;" xml:space="preserve">
<g>
	<g>
		<g>
			<path d="M392.124,91.38c-0.061-0.2-0.154-0.376-0.23-0.571c-0.295-0.764-0.7-1.481-1.202-2.129
				c-0.123-0.159-0.217-0.326-0.352-0.477c-0.539-0.619-1.165-1.156-1.858-1.596c-0.141-0.087-0.3-0.123-0.445-0.202
				c-0.085-0.046-0.134-0.13-0.222-0.173L217.15,0.9c-2.403-1.2-5.23-1.2-7.633,0l-85.333,42.667
				c-0.088,0.044-0.137,0.128-0.223,0.174c-0.144,0.078-0.303,0.114-0.443,0.201c-0.693,0.439-1.319,0.976-1.857,1.595
				c-0.135,0.152-0.23,0.32-0.354,0.48c-0.5,0.647-0.904,1.362-1.199,2.125c-0.076,0.196-0.169,0.373-0.23,0.574
				c-0.26,0.803-0.398,1.641-0.409,2.485v366.933c-0.001,3.232,1.825,6.188,4.717,7.633L294.85,511.1
				c0.337,0.147,0.682,0.272,1.035,0.374c0.213,0.075,0.416,0.172,0.633,0.229c0.698,0.19,1.417,0.29,2.139,0.297l0.004,0l0.004,0
				l0.011-0.003c1.188-0.027,2.357-0.303,3.432-0.809c0.119-0.053,0.255-0.029,0.373-0.088l85.333-42.667
				c2.891-1.445,4.717-4.401,4.717-7.633V93.867C392.522,93.022,392.384,92.184,392.124,91.38z M290.133,489.658l-153.6-76.8V65.008
				l153.6,76.8V489.658z M298.667,126.992L147.083,51.2l66.25-33.125l151.583,75.792L298.667,126.992z M375.467,455.525
				L307.2,489.658v-347.85l68.267-34.133V455.525z"/>
			<path d="M149.717,402.833c0.04,0.087,0.133,0.121,0.178,0.204c0.479,0.624,1.026,1.193,1.632,1.695
				c0.067,0.038,0.096,0.117,0.166,0.152l119.467,59.733c0.593,0.296,1.246,0.45,1.908,0.45c2.356-0.001,4.265-1.911,4.267-4.267
				V153.6c-0.002-1.616-0.914-3.092-2.358-3.817l-39.312-19.656l-0.13-0.065L155.508,90.05c-1.323-0.66-2.893-0.589-4.151,0.188
				c-1.258,0.777-2.023,2.15-2.024,3.629v307.2l0.013,0.046C149.348,401.706,149.474,402.292,149.717,402.833z M268.8,453.896
				l-105.296-52.648l70.431-32.043l34.865,17.433V453.896z M268.8,377.096l-33.124-16.561l-0.147-0.073L163.5,324.45l70.435-32.045
				l34.865,17.432V377.096z M268.8,300.296l-33.098-16.548c-0.064-0.027-0.118-0.068-0.183-0.091L163.5,247.65l70.435-32.045
				l34.865,17.432V300.296z M268.8,156.237v67.258l-33.098-16.547c-0.064-0.027-0.118-0.068-0.183-0.092L163.5,170.85l70.435-32.045
				L268.8,156.237z M157.867,100.771l66.252,33.126l-66.252,30.142V100.771z M157.867,177.571l66.252,33.126l-66.252,30.141V177.571
				z M157.867,254.371l66.252,33.126l-66.252,30.141V254.371z M157.867,331.171l66.252,33.126l-66.252,30.141V331.171z"/>
		</g>
	</g>
</g>
<g>
</g>
<g>
</g>
<g>
</g>
<g>
</g>
<g>
</g>
<g>
</g>
<g>
</g>
<g>
</g>
<g>
</g>
<g>
</g>
<g>
</g>
<g>
</g>
<g>
</g>
<g>
</g>
<g>
</g>
</svg>
