<?xml version="1.0" encoding="iso-8859-1"?>
<!-- Generator: Adobe Illustrator 19.0.0, SVG Export Plug-In . SVG Version: 6.00 Build 0)  -->
<svg version="1.1" id="Capa_1" xmlns="http://www.w3.org/2000/svg" xmlns:xlink="http://www.w3.org/1999/xlink" x="0px" y="0px"
	 viewBox="0 0 512 512" style="enable-background:new 0 0 512 512;" xml:space="preserve">
<g>
	<g>
		<g>
			<path d="M392.124,91.38c-0.061-0.2-0.154-0.374-0.229-0.569c-0.296-0.767-0.703-1.487-1.206-2.136
				c-0.121-0.156-0.212-0.32-0.344-0.468c-0.538-0.62-1.164-1.158-1.857-1.599c-0.143-0.089-0.305-0.125-0.452-0.204
				c-0.084-0.046-0.132-0.128-0.219-0.171L217.15,0.9c-2.403-1.2-5.23-1.2-7.633,0l-85.333,42.667
				c-0.085,0.043-0.133,0.123-0.217,0.169c-0.148,0.08-0.31,0.117-0.454,0.206c-0.693,0.44-1.319,0.979-1.857,1.598
				c-0.132,0.148-0.223,0.311-0.344,0.468c-0.504,0.65-0.91,1.37-1.206,2.136c-0.076,0.194-0.168,0.369-0.229,0.569
				c-0.26,0.804-0.398,1.642-0.409,2.487v366.933c-0.001,3.232,1.825,6.188,4.717,7.633L294.85,511.1
				c0.333,0.145,0.675,0.269,1.024,0.369c0.218,0.076,0.425,0.176,0.647,0.234c0.697,0.189,1.415,0.289,2.137,0.297l0.004,0l0.004,0
				l0.011-0.003c1.189-0.027,2.359-0.303,3.434-0.81c0.119-0.053,0.254-0.029,0.371-0.087l85.333-42.667
				c2.891-1.446,4.717-4.401,4.717-7.633V93.867C392.522,93.022,392.384,92.183,392.124,91.38z M290.133,489.658l-153.6-76.8V65.008
				l153.6,76.8V489.658z M298.667,126.992L147.083,51.2l66.25-33.125l151.583,75.792L298.667,126.992z M375.467,455.525
				L307.2,489.658v-347.85l68.267-34.133V455.525z"/>
			<path d="M151.692,404.883l119.467,59.733c1.323,0.661,2.893,0.589,4.151-0.188c1.258-0.777,2.023-2.15,2.024-3.629V153.6
				c0-1.616-0.913-3.094-2.358-3.817L155.508,90.05c-1.323-0.66-2.893-0.589-4.151,0.188c-1.258,0.777-2.023,2.15-2.024,3.629v307.2
				C149.333,402.683,150.246,404.16,151.692,404.883z M217.6,130.637l51.2,25.6v297.658l-51.2-25.6V130.637z M157.867,100.771
				l51.2,25.6v297.658l-51.2-25.6V100.771z"/>
			<path d="M230.4,251.733c-2.356,0-4.267,1.91-4.267,4.267v17.067c-0.001,1.132,0.449,2.217,1.249,3.018s1.886,1.25,3.018,1.249
				c1.132,0.001,2.217-0.449,3.018-1.249s1.25-1.886,1.249-3.018V256C234.667,253.644,232.756,251.733,230.4,251.733z"/>
			<path d="M196.267,234.667c-1.132-0.001-2.217,0.449-3.018,1.249s-1.25,1.886-1.249,3.018V256c0,2.356,1.91,4.267,4.267,4.267
				s4.267-1.91,4.267-4.267v-17.067c0.001-1.132-0.449-2.217-1.249-3.018S197.398,234.666,196.267,234.667z"/>
		</g>
	</g>
</g>
<g>
</g>
<g>
</g>
<g>
</g>
<g>
</g>
<g>
</g>
<g>
</g>
<g>
</g>
<g>
</g>
<g>
</g>
<g>
</g>
<g>
</g>
<g>
</g>
<g>
</g>
<g>
</g>
<g>
</g>
</svg>
