<?xml version="1.0" encoding="iso-8859-1"?>
<!-- Generator: Adobe Illustrator 19.0.0, SVG Export Plug-In . SVG Version: 6.00 Build 0)  -->
<svg version="1.1" id="Capa_1" xmlns="http://www.w3.org/2000/svg" xmlns:xlink="http://www.w3.org/1999/xlink" x="0px" y="0px"
	 viewBox="0 0 512 512" style="enable-background:new 0 0 512 512;" xml:space="preserve">
<g>
	<g>
		<g>
			<path d="M392.124,91.38c-0.061-0.2-0.154-0.374-0.229-0.569c-0.296-0.767-0.703-1.487-1.206-2.136
				c-0.121-0.156-0.212-0.32-0.344-0.468c-0.538-0.62-1.164-1.158-1.857-1.599c-0.143-0.088-0.305-0.125-0.452-0.204
				c-0.084-0.046-0.132-0.128-0.219-0.171L217.15,0.9c-2.403-1.2-5.23-1.2-7.633,0l-85.333,42.667
				c-0.085,0.043-0.133,0.124-0.217,0.169c-0.147,0.08-0.31,0.117-0.454,0.206c-0.693,0.44-1.319,0.979-1.857,1.598
				c-0.132,0.148-0.223,0.311-0.344,0.468c-0.504,0.65-0.91,1.37-1.206,2.136c-0.076,0.194-0.168,0.369-0.229,0.569
				c-0.26,0.804-0.398,1.642-0.409,2.487v366.933c-0.001,3.232,1.825,6.188,4.717,7.633L294.85,511.1
				c0.117,0.058,0.252,0.035,0.371,0.087c1.076,0.507,2.246,0.783,3.434,0.81l0.011,0.003l0.004,0l0.004,0
				c0.722-0.008,1.44-0.108,2.137-0.297c0.222-0.058,0.429-0.158,0.647-0.234c0.349-0.1,0.691-0.224,1.024-0.369l85.333-42.667
				c2.891-1.446,4.717-4.401,4.716-7.633V93.867C392.522,93.022,392.384,92.183,392.124,91.38z M290.133,489.658l-153.6-76.8V65.008
				l153.6,76.8V489.658z M298.667,126.992L147.083,51.2l66.25-33.125l151.583,75.792L298.667,126.992z M375.467,455.525
				L307.2,489.658v-347.85l68.267-34.133V455.525z"/>
			<path d="M151.692,302.483l119.467,59.733c1.323,0.66,2.893,0.589,4.151-0.188c1.258-0.777,2.023-2.15,2.024-3.629V153.6
				l-0.029-0.102c-0.004-0.626-0.148-1.243-0.421-1.806c-0.036-0.073-0.104-0.115-0.144-0.184c-0.094-0.137-0.196-0.267-0.306-0.391
				c-0.325-0.445-0.736-0.821-1.208-1.105c-0.099-0.06-0.145-0.176-0.25-0.228L155.508,90.05c-1.323-0.66-2.893-0.589-4.151,0.188
				c-1.258,0.777-2.023,2.15-2.024,3.629v204.8C149.333,300.283,150.246,301.76,151.692,302.483z M157.867,250.104l23.242-11.621
				c1.367-0.68,2.267-2.038,2.36-3.562s-0.636-2.982-1.911-3.822c-1.275-0.84-2.902-0.935-4.266-0.249l-19.425,9.713v-24.592
				l65.908-32.954c1.367-0.68,2.267-2.038,2.36-3.562c0.093-1.524-0.636-2.982-1.911-3.822c-1.275-0.84-2.902-0.935-4.266-0.249
				l-62.092,31.046v-24.592l23.246-11.621c1.367-0.68,2.267-2.038,2.36-3.562c0.093-1.524-0.636-2.982-1.911-3.822
				c-1.275-0.84-2.902-0.935-4.266-0.249l-19.429,9.713v-71.526l71.525,35.762l-26.5,13.25c-2.102,1.057-2.951,3.616-1.899,5.72
				s3.609,2.96,5.716,1.913l32.225-16.112l24.592,12.296l-17.967,8.983c-2.102,1.057-2.951,3.616-1.899,5.72
				c1.052,2.104,3.609,2.96,5.716,1.913l19.425-9.712v24.592l-65.908,32.954c-2.102,1.057-2.951,3.616-1.899,5.721
				c1.052,2.104,3.609,2.96,5.716,1.913l62.092-31.046v156.858l-110.933-55.467V250.104z"/>
			<path d="M151.692,404.883l119.467,59.733c1.323,0.661,2.893,0.589,4.151-0.188c1.258-0.777,2.023-2.15,2.024-3.629V384
				c0-1.616-0.913-3.094-2.358-3.817L155.508,320.45c-1.323-0.661-2.893-0.589-4.151,0.188c-1.258,0.777-2.023,2.15-2.024,3.629
				v76.8C149.333,402.683,150.246,404.16,151.692,404.883z M157.867,331.171L268.8,386.637v67.258l-110.933-55.467V331.171z"/>
			<path d="M223.775,380.183l-17.067-8.533c-2.107-1.047-4.664-0.191-5.716,1.913c-1.052,2.104-0.203,4.663,1.899,5.721
				l17.067,8.533c1.364,0.686,2.991,0.591,4.266-0.249c1.275-0.84,2.004-2.298,1.911-3.822
				C226.042,382.221,225.142,380.863,223.775,380.183z"/>
		</g>
	</g>
</g>
<g>
</g>
<g>
</g>
<g>
</g>
<g>
</g>
<g>
</g>
<g>
</g>
<g>
</g>
<g>
</g>
<g>
</g>
<g>
</g>
<g>
</g>
<g>
</g>
<g>
</g>
<g>
</g>
<g>
</g>
</svg>
