<?xml version="1.0" encoding="iso-8859-1"?>
<!-- Generator: Adobe Illustrator 19.0.0, SVG Export Plug-In . SVG Version: 6.00 Build 0)  -->
<svg version="1.1" id="Capa_1" xmlns="http://www.w3.org/2000/svg" xmlns:xlink="http://www.w3.org/1999/xlink" x="0px" y="0px"
	 viewBox="0 0 512 512" style="enable-background:new 0 0 512 512;" xml:space="preserve">
<g>
	<g>
		<g>
			<path d="M392.124,91.379c-0.061-0.2-0.154-0.374-0.229-0.569c-0.296-0.767-0.703-1.487-1.206-2.136
				c-0.121-0.156-0.212-0.32-0.344-0.468c-0.538-0.62-1.164-1.158-1.857-1.599c-0.143-0.089-0.306-0.126-0.453-0.205
				c-0.084-0.045-0.132-0.127-0.218-0.17L217.15,0.9c-2.403-1.2-5.23-1.2-7.633,0l-85.333,42.667
				c-0.085,0.043-0.133,0.124-0.217,0.169c-0.148,0.08-0.31,0.117-0.454,0.206c-0.693,0.44-1.319,0.979-1.857,1.598
				c-0.132,0.148-0.223,0.311-0.344,0.468c-0.504,0.65-0.91,1.37-1.206,2.136c-0.076,0.194-0.168,0.369-0.229,0.569
				c-0.26,0.804-0.398,1.642-0.409,2.487v366.933c-0.001,3.232,1.825,6.188,4.717,7.633L294.85,511.1
				c0.117,0.058,0.252,0.035,0.371,0.087c1.076,0.507,2.246,0.783,3.434,0.81l0.011,0.003l0.004,0l0.004,0
				c0.722-0.008,1.44-0.108,2.137-0.297c0.222-0.058,0.429-0.158,0.647-0.234c0.349-0.1,0.691-0.224,1.024-0.369l85.333-42.667
				c2.891-1.446,4.717-4.401,4.716-7.633V93.866C392.522,93.022,392.384,92.183,392.124,91.379z M290.133,489.658l-153.6-76.8
				V65.008l153.6,76.8V489.658z M298.667,126.991L147.083,51.2l66.25-33.125l151.583,75.792L298.667,126.991z M375.467,455.525
				L307.2,489.658v-347.85l68.267-34.133V455.525z"/>
			<path d="M151.692,404.883l119.467,59.733c1.323,0.661,2.893,0.589,4.151-0.188c1.258-0.777,2.023-2.15,2.024-3.629V384
				c0-1.616-0.913-3.094-2.358-3.817L155.508,320.45c-1.323-0.661-2.893-0.589-4.151,0.188c-1.258,0.777-2.023,2.15-2.024,3.629
				v76.8C149.333,402.682,150.246,404.16,151.692,404.883z M157.866,331.17L268.8,386.637v67.258l-110.933-55.467V331.17z"/>
			<path d="M223.775,380.183l-17.067-8.533c-2.107-1.047-4.664-0.191-5.716,1.913c-1.052,2.104-0.203,4.663,1.899,5.721
				l17.067,8.533c1.364,0.686,2.991,0.591,4.266-0.249c1.275-0.84,2.004-2.298,1.911-3.822
				C226.042,382.221,225.142,380.863,223.775,380.183z"/>
			<path d="M149.783,300.575c0.031,0.062,0.099,0.084,0.133,0.144c0.5,0.594,1.051,1.144,1.644,1.644
				c0.054,0.03,0.076,0.092,0.131,0.119l119.467,59.733c1.323,0.66,2.893,0.589,4.151-0.188c1.258-0.777,2.023-2.15,2.024-3.628
				V153.6c0-1.616-0.913-3.094-2.358-3.817L155.508,90.05c-1.323-0.66-2.893-0.589-4.151,0.188c-1.258,0.777-2.023,2.15-2.024,3.629
				v204.8l0.029,0.102C149.366,299.395,149.51,300.012,149.783,300.575z M268.8,351.496l-105.658-52.829l58.725-29.363L268.8,292.77
				V351.496z M268.8,283.229L163.141,230.4l58.725-29.363l46.933,23.467V283.229z M268.8,156.237v58.725l-105.658-52.829
				l58.725-29.363L268.8,156.237z M157.866,100.77L212.325,128l-54.458,27.229V100.77z M157.866,169.037l54.458,27.229
				l-54.458,27.229V169.037z M157.866,237.304l54.458,27.229l-54.458,27.229V237.304z"/>
		</g>
	</g>
</g>
<g>
</g>
<g>
</g>
<g>
</g>
<g>
</g>
<g>
</g>
<g>
</g>
<g>
</g>
<g>
</g>
<g>
</g>
<g>
</g>
<g>
</g>
<g>
</g>
<g>
</g>
<g>
</g>
<g>
</g>
</svg>
