<?xml version="1.0" encoding="iso-8859-1"?>
<!-- Generator: Adobe Illustrator 19.0.0, SVG Export Plug-In . SVG Version: 6.00 Build 0)  -->
<svg version="1.1" id="Capa_1" xmlns="http://www.w3.org/2000/svg" xmlns:xlink="http://www.w3.org/1999/xlink" x="0px" y="0px"
	 viewBox="0 0 512 512" style="enable-background:new 0 0 512 512;" xml:space="preserve">
<g>
	<g>
		<g>
			<path d="M469.289,161.819c-0.009-0.241-0.07-0.469-0.099-0.709c-0.097-0.807-0.311-1.596-0.634-2.342
				c-0.064-0.147-0.049-0.306-0.122-0.451c-0.045-0.091-0.131-0.142-0.179-0.23c-0.465-0.88-1.081-1.671-1.821-2.336
				c-0.149-0.132-0.324-0.211-0.481-0.331c-0.414-0.349-0.862-0.657-1.335-0.92L157.417,0.9c-2.403-1.2-5.23-1.2-7.633,0
				l-102.4,51.2c-0.476,0.264-0.925,0.573-1.341,0.923c-0.155,0.119-0.326,0.196-0.473,0.326c-0.741,0.666-1.358,1.457-1.824,2.338
				c-0.048,0.088-0.133,0.139-0.179,0.229c-0.073,0.145-0.059,0.304-0.122,0.451c-0.323,0.746-0.537,1.534-0.634,2.341
				c-0.029,0.24-0.091,0.469-0.099,0.709c-0.004,0.107-0.044,0.207-0.044,0.315v290.133c-0.001,3.232,1.825,6.188,4.717,7.633
				l307.2,153.6c0.075,0.037,0.163,0.021,0.239,0.056c2.252,1.125,4.903,1.125,7.155,0c0.076-0.035,0.164-0.019,0.239-0.056
				l102.4-51.2c2.891-1.445,4.718-4.401,4.717-7.633V162.133C469.333,162.026,469.293,161.926,469.289,161.819z M349.867,489.658
				L59.733,344.592V73.542l290.133,145.067V489.658z M358.4,203.792L70.283,59.733L153.6,18.075l288.117,144.058L358.4,203.792z
				 M452.267,446.992l-85.333,42.667v-271.05l85.333-42.667V446.992z"/>
			<path d="M72.835,338.564c0.247,0.482,0.532,0.943,0.852,1.379c0.22,0.214,0.463,0.403,0.723,0.565
				c0.151,0.137,0.311,0.263,0.481,0.375l110.933,55.467c1.323,0.661,2.893,0.59,4.151-0.188s2.024-2.15,2.024-3.629V153.6
				c0-1.616-0.913-3.094-2.358-3.817L78.708,94.317l-0.127-0.034c-0.539-0.164-1.088-0.294-1.644-0.388L76.8,93.867
				c-0.217,0.026-0.431,0.069-0.641,0.129c-0.288,0.027-0.572,0.085-0.848,0.171c-0.258,0.112-0.503,0.25-0.732,0.413
				c-0.231,0.125-0.45,0.273-0.653,0.44c-0.216,0.221-0.406,0.465-0.568,0.727c-0.137,0.15-0.262,0.31-0.374,0.479l-0.034,0.127
				c-0.1,0.264-0.174,0.537-0.221,0.815c-0.085,0.273-0.141,0.554-0.169,0.838l-0.026,0.128v238.933
				c0.025,0.201,0.065,0.399,0.119,0.594C72.68,337.968,72.741,338.271,72.835,338.564z M81.067,105.038l102.4,51.2v229.392
				l-102.4-51.2V105.038z"/>
			<path d="M170.667,243.2c-2.356,0-4.267,1.91-4.267,4.267v25.6c-0.001,1.132,0.449,2.217,1.249,3.018s1.886,1.25,3.018,1.249
				c1.132,0.001,2.217-0.449,3.018-1.249s1.25-1.886,1.249-3.018v-25.6C174.933,245.11,173.023,243.2,170.667,243.2z"/>
			<path d="M200.983,402.975c0.031,0.062,0.099,0.084,0.133,0.144c0.5,0.594,1.051,1.144,1.644,1.644
				c0.054,0.03,0.076,0.092,0.131,0.119l128,64l0.117,0.028c0.55,0.265,1.152,0.407,1.763,0.417l0.024,0.006l0.002-0.001
				l0.003,0.001c0.699-0.015,1.384-0.206,1.99-0.556c0.152-0.088,0.298-0.187,0.438-0.294c0.488-0.343,0.897-0.787,1.199-1.301
				c0.05-0.084,0.146-0.118,0.191-0.207l0.034-0.127c0.1-0.264,0.174-0.537,0.221-0.815c0.085-0.273,0.142-0.554,0.169-0.838
				l0.026-0.128V226.133c-0.025-0.201-0.065-0.399-0.119-0.594c-0.027-0.307-0.088-0.61-0.182-0.904
				c-0.247-0.482-0.532-0.943-0.852-1.379c-0.22-0.214-0.463-0.403-0.723-0.565c-0.151-0.137-0.311-0.263-0.481-0.375l-128-64
				c-1.323-0.661-2.893-0.59-4.151,0.188c-1.258,0.777-2.024,2.15-2.024,3.629v238.933l0.029,0.102
				C200.566,401.795,200.71,402.412,200.983,402.975z M328.533,458.163l-114.192-57.096l67.258-33.629l46.933,23.467V458.163z
				 M328.533,381.363l-114.192-57.096l75.792-37.896l38.4,19.2V381.363z M328.533,228.771v67.258l-114.192-57.096l67.258-33.629
				L328.533,228.771z M209.067,169.038l62.992,31.496l-62.992,31.496V169.038z M209.067,245.838l71.525,35.762l-71.525,35.763
				V245.838z M209.067,331.171l62.992,31.496l-62.992,31.496V331.171z"/>
		</g>
	</g>
</g>
<g>
</g>
<g>
</g>
<g>
</g>
<g>
</g>
<g>
</g>
<g>
</g>
<g>
</g>
<g>
</g>
<g>
</g>
<g>
</g>
<g>
</g>
<g>
</g>
<g>
</g>
<g>
</g>
<g>
</g>
</svg>
