<?xml version="1.0" encoding="iso-8859-1"?>
<!-- Generator: Adobe Illustrator 19.0.0, SVG Export Plug-In . SVG Version: 6.00 Build 0)  -->
<svg version="1.1" id="Layer_1" xmlns="http://www.w3.org/2000/svg" xmlns:xlink="http://www.w3.org/1999/xlink" x="0px" y="0px"
	 viewBox="0 0 512 512" style="enable-background:new 0 0 512 512;" xml:space="preserve">
<g>
	<g>
		<path d="M498.946,294.959c-5.521-1.116-10.902,2.455-12.018,7.977C464.834,412.256,367.715,491.602,256,491.602
			c-129.911,0-235.602-105.69-235.602-235.602S126.089,20.398,256,20.398c61.287,0,120.041,23.97,163.818,66.295h-26.361
			c-5.633,0-10.199,4.566-10.199,10.199c0,5.633,4.566,10.199,10.199,10.199h51.229c5.633,0,10.199-4.566,10.199-10.199V45.664
			c0-5.633-4.566-10.199-10.199-10.199c-5.633,0-10.199,4.566-10.199,10.199v26.848C386.87,26.228,322.823,0,256,0
			C187.62,0,123.333,26.628,74.98,74.98C26.628,123.333,0,187.62,0,256s26.628,132.667,74.98,181.02
			C123.333,485.372,187.62,512,256,512c59.438,0,117.352-20.83,163.074-58.652c45.116-37.321,76.315-89.304,87.849-146.372
			C508.039,301.455,504.467,296.075,498.946,294.959z"/>
	</g>
</g>
<g>
	<g>
		<path d="M501.801,245.801c-5.633,0-10.199,4.566-10.199,10.199c0,2.281-0.033,4.585-0.098,6.848
			c-0.161,5.631,4.273,10.326,9.903,10.487c0.1,0.002,0.198,0.004,0.297,0.004c5.497,0,10.031-4.376,10.19-9.907
			c0.07-2.457,0.106-4.957,0.106-7.43C512,250.367,507.434,245.801,501.801,245.801z"/>
	</g>
</g>
<g>
	<g>
		<path d="M248.858,350.416H145.234v-20.14c0-43.204,109.147-65.293,109.147-135.134c0-35.082-27.286-62.369-64.644-62.369
			c-34.434,0-61.07,22.739-61.07,53.924c0,9.745,3.248,13.319,9.745,13.319c7.471,0,11.369-4.548,11.369-8.771
			c0-25.662,16.892-38.332,39.306-38.332c29.886,0,43.854,22.414,43.854,42.88c0,56.846-109.797,80.56-109.797,134.484v31.51
			c0,5.198,5.847,8.446,10.07,8.446h115.644c4.223,0,7.796-4.872,7.796-10.071C256.654,354.964,253.081,350.416,248.858,350.416z"/>
	</g>
</g>
<g>
	<g>
		<path d="M388.538,293.893h-17.866v-62.695c0-5.523-5.523-8.121-10.72-8.121c-5.523,0-10.719,2.599-10.719,8.121v62.695h-63.669
			l75.039-148.127c0.65-1.625,0.975-2.924,0.975-4.223c0-5.198-6.173-8.771-10.395-8.771c-3.898,0-7.796,1.949-10.071,6.497
			l-81.535,160.797c-0.974,1.625-1.299,3.573-1.299,5.523c0,4.872,2.924,8.771,8.446,8.771h82.51v47.426
			c0,5.522,5.198,8.446,10.719,8.446c5.198,0,10.72-2.924,10.72-8.446v-47.426h17.866c4.872,0,8.121-5.198,8.121-10.395
			C396.658,299.091,394.059,293.893,388.538,293.893z"/>
	</g>
</g>
<g>
</g>
<g>
</g>
<g>
</g>
<g>
</g>
<g>
</g>
<g>
</g>
<g>
</g>
<g>
</g>
<g>
</g>
<g>
</g>
<g>
</g>
<g>
</g>
<g>
</g>
<g>
</g>
<g>
</g>
</svg>
