<?xml version="1.0" encoding="iso-8859-1"?>
<!-- Generator: Adobe Illustrator 19.0.0, SVG Export Plug-In . SVG Version: 6.00 Build 0)  -->
<svg version="1.1" id="Layer_1" xmlns="http://www.w3.org/2000/svg" xmlns:xlink="http://www.w3.org/1999/xlink" x="0px" y="0px"
	 viewBox="0 0 512 512" style="enable-background:new 0 0 512 512;" xml:space="preserve">
<g>
	<g>
		<path d="M509.497,108.007c0-0.001,0.001-0.012,0.001-0.012l-57.681-66.368c-1.937-2.23-4.745-3.509-7.699-3.509H199.121
			c-2.954,0-5.761,1.28-7.699,3.509l-57.68,66.368c0,0,0,0.011,0,0.013c-1.554,1.79-2.502,4.121-2.502,6.678v104.316
			c-32.736,13.622-54.248,45.473-54.248,81.473c0,20.494,6.971,39.645,19.015,54.854l-7.785,7.784l-4.929-4.929
			c-3.983-3.982-10.439-3.983-14.425,0L8.004,419.05c-10.672,10.672-10.672,28.036,0,38.708c5.336,5.335,12.345,8.003,19.354,8.003
			c7.009,0,14.019-2.668,19.355-8.003l60.866-60.866c3.983-3.983,3.983-10.441,0-14.425l-4.929-4.929l7.796-7.795
			c6.245,4.93,13.222,9.054,20.797,12.206v81.735c0,5.633,4.567,10.199,10.199,10.199h360.358v-0.001
			c5.632,0,10.199-4.566,10.199-10.199V114.685C512,112.128,511.053,109.797,509.497,108.007z M32.289,443.333
			c-2.716,2.717-7.142,2.719-9.86,0c-2.718-2.718-2.718-7.141,0-9.859l53.654-53.654l9.859,9.86L32.289,443.333z M131.242,359.249
			c-20.697-11.934-33.849-34.088-33.849-58.774s13.152-46.84,33.849-58.775V359.249z M203.77,58.516h235.702l39.951,45.969h-79.299
			l-20.566-24.198c-1.938-2.28-4.78-3.594-7.772-3.594H271.454c-2.992,0-5.834,1.315-7.772,3.594l-20.566,24.198h-79.298
			L203.77,58.516z M385.208,124.885v47.779H258.033v-47.779H385.208z M269.888,104.486l6.284-7.394h90.897l6.284,7.394H269.888z
			 M151.641,233.969c4.479-0.917,9.045-1.389,13.647-1.389c37.437,0,67.895,30.458,67.895,67.894
			c0,37.436-30.458,67.894-67.895,67.894c-4.603,0-9.168-0.471-13.647-1.389V233.969z M385.208,453.482H258.033v-47.779h127.175
			V453.482z M491.601,453.482h-85.995v-57.979c0-5.633-4.567-10.199-10.199-10.199H247.834c-5.632,0-10.199,4.566-10.199,10.199
			v57.979h-85.994v-65.771c4.502,0.703,9.061,1.057,13.647,1.057c48.685,0,88.294-39.608,88.294-88.293
			s-39.609-88.293-88.294-88.293c-4.585,0-9.145,0.354-13.647,1.057v-88.353h85.994v57.979c0,5.633,4.567,10.199,10.199,10.199
			h147.574c5.632,0,10.199-4.566,10.199-10.199v-57.979h85.995V453.482z"/>
	</g>
</g>
<g>
	<g>
		<path d="M473.104,315.679c-5.632,0-10.199,4.566-10.199,10.199V434.08c0,5.633,4.567,10.199,10.199,10.199
			c5.632,0,10.199-4.566,10.199-10.199V325.878C483.303,320.245,478.736,315.679,473.104,315.679z"/>
	</g>
</g>
<g>
	<g>
		<path d="M473.104,278.438c-5.632,0-10.199,4.566-10.199,10.199v3.558c0,5.633,4.567,10.199,10.199,10.199
			c5.632,0,10.199-4.566,10.199-10.199v-3.558C483.303,283.005,478.736,278.438,473.104,278.438z"/>
	</g>
</g>
<g>
</g>
<g>
</g>
<g>
</g>
<g>
</g>
<g>
</g>
<g>
</g>
<g>
</g>
<g>
</g>
<g>
</g>
<g>
</g>
<g>
</g>
<g>
</g>
<g>
</g>
<g>
</g>
<g>
</g>
</svg>
