<?xml version="1.0" encoding="iso-8859-1"?>
<!-- Generator: Adobe Illustrator 19.0.0, SVG Export Plug-In . SVG Version: 6.00 Build 0)  -->
<svg version="1.1" id="Layer_1" xmlns="http://www.w3.org/2000/svg" xmlns:xlink="http://www.w3.org/1999/xlink" x="0px" y="0px"
	 viewBox="0 0 512 512" style="enable-background:new 0 0 512 512;" xml:space="preserve">
<g>
	<g>
		<path d="M460.14,127.067H307.86V10.199C307.86,4.567,303.293,0,297.661,0H51.86c-5.632,0-10.199,4.567-10.199,10.199v491.602
			c0,5.632,4.567,10.199,10.199,10.199h245.801H460.14c5.632,0,10.199-4.567,10.199-10.199V137.266
			C470.339,131.634,465.772,127.067,460.14,127.067z M196.179,491.602v-28.313l17.321,15.918c3.902,3.586,9.9,3.586,13.803,0
			l17.321-15.918v28.313H196.179z M287.46,491.602h-22.438v-51.538c0-4.047-2.393-7.712-6.098-9.338
			c-3.704-1.626-8.022-0.909-11.002,1.829l-27.521,25.292l-27.521-25.292c-2.981-2.738-7.299-3.456-11.002-1.829
			c-3.706,1.628-6.098,5.291-6.098,9.338v51.538H62.06V266.199h113.721v51.858c0,4.048,2.395,7.714,6.1,9.339
			c3.708,1.626,8.024,0.909,11.004-1.834l27.516-25.314l27.516,25.314c1.921,1.766,4.397,2.694,6.907,2.694
			c1.384,0,2.779-0.281,4.097-0.86c3.706-1.627,6.1-5.291,6.1-9.339v-51.858h22.438V491.602z M196.18,266.199h48.445v28.616
			l-17.317-15.931c-3.904-3.591-9.906-3.591-13.811,0l-17.317,15.931V266.199z M287.462,245.801H62.06V20.398h225.402V245.801z
			 M449.94,491.602H307.86V147.465h142.08V491.602z"/>
	</g>
</g>
<g>
	<g>
		<path d="M255.999,142.689H142.472c-5.632,0-10.199,4.567-10.199,10.199v61.45c0,5.632,4.567,10.199,10.199,10.199h113.527
			c5.632,0,10.199-4.567,10.199-10.199v-61.45C266.199,147.256,261.632,142.689,255.999,142.689z M245.8,204.139h-93.129v-41.052
			H245.8V204.139z"/>
	</g>
</g>
<g>
	<g>
		<path d="M156.975,340.946l-28.625-28.625c-3.984-3.982-10.44-3.982-14.425,0l-28.625,28.625c-3.983,3.983-3.983,10.441,0,14.425
			c3.984,3.982,10.44,3.982,14.425,0l11.214-11.214v89.097c0,5.632,4.567,10.199,10.199,10.199c5.632,0,10.199-4.567,10.199-10.199
			v-89.097l11.214,11.214c1.992,1.991,4.602,2.987,7.212,2.987s5.22-0.996,7.212-2.987
			C160.958,351.387,160.958,344.929,156.975,340.946z"/>
	</g>
</g>
<g>
	<g>
		<path d="M228.92,103.112h-85.405c-5.632,0-10.199,4.567-10.199,10.199s4.566,10.199,10.199,10.199h85.405
			c5.632,0,10.199-4.567,10.199-10.199S234.552,103.112,228.92,103.112z"/>
	</g>
</g>
<g>
	<g>
		<path d="M187.259,72.907h-43.744c-5.632,0-10.199,4.567-10.199,10.199c0,5.632,4.566,10.199,10.199,10.199h43.744
			c5.632,0,10.199-4.567,10.199-10.199C197.458,77.474,192.891,72.907,187.259,72.907z"/>
	</g>
</g>
<g>
	<g>
		<path d="M417.408,328.082h-77.016c-5.632,0-10.199,4.567-10.199,10.199v118.734c0,5.632,4.567,10.199,10.199,10.199h77.016
			c5.632,0,10.199-4.567,10.199-10.199V338.281C427.607,332.649,423.04,328.082,417.408,328.082z M407.209,446.816h-56.618V348.48
			h56.618V446.816z"/>
	</g>
</g>
<g>
	<g>
		<path d="M417.437,287.463h-77.045c-5.632,0-10.199,4.567-10.199,10.199c0,5.632,4.567,10.199,10.199,10.199h77.045
			c5.632,0,10.199-4.567,10.199-10.199C427.636,292.03,423.069,287.463,417.437,287.463z"/>
	</g>
</g>
<g>
	<g>
		<path d="M392.439,257.258h-2.083c-5.632,0-10.199,4.567-10.199,10.199s4.567,10.199,10.199,10.199h2.083
			c5.632,0,10.199-4.567,10.199-10.199S398.071,257.258,392.439,257.258z"/>
	</g>
</g>
<g>
	<g>
		<path d="M360.153,257.258h-19.761c-5.632,0-10.199,4.567-10.199,10.199s4.567,10.199,10.199,10.199h19.761
			c5.632,0,10.199-4.567,10.199-10.199S365.785,257.258,360.153,257.258z"/>
	</g>
</g>
<g>
</g>
<g>
</g>
<g>
</g>
<g>
</g>
<g>
</g>
<g>
</g>
<g>
</g>
<g>
</g>
<g>
</g>
<g>
</g>
<g>
</g>
<g>
</g>
<g>
</g>
<g>
</g>
<g>
</g>
</svg>
