<?xml version="1.0" encoding="iso-8859-1"?>
<!-- Generator: Adobe Illustrator 19.0.0, SVG Export Plug-In . SVG Version: 6.00 Build 0)  -->
<svg version="1.1" id="Layer_1" xmlns="http://www.w3.org/2000/svg" xmlns:xlink="http://www.w3.org/1999/xlink" x="0px" y="0px"
	 viewBox="0 0 512.002 512.002" style="enable-background:new 0 0 512.002 512.002;" xml:space="preserve">
<g>
	<g>
		<path d="M428.342,429.71h-12.331V227.35c0-5.633-4.566-10.199-10.199-10.199H192.666c-5.633,0-10.199,4.566-10.199,10.199v202.359
			h-11.772V67.504c0-3.22-1.521-6.251-4.101-8.176L89.759,2.024c-4.516-3.367-10.906-2.438-14.274,2.079
			c-3.368,4.516-2.438,10.906,2.079,14.274l72.733,54.244v367.289c0,5.633,4.566,10.199,10.199,10.199h22.621
			c-3.851,6.202-6.083,13.51-6.083,21.332c0,22.366,18.195,40.562,40.562,40.562c22.367,0,40.562-18.195,40.562-40.562
			c0-7.822-2.232-15.129-6.083-21.332h93.304c-3.851,6.202-6.083,13.51-6.083,21.332c0,22.366,18.195,40.562,40.562,40.562
			c22.367,0,40.562-18.195,40.562-40.562c0-7.822-2.232-15.129-6.083-21.332h14.004c5.633,0,10.199-4.566,10.199-10.199
			C438.541,434.276,433.975,429.71,428.342,429.71z M264.579,237.549h69.321v60.61l-28.156-18.069
			c-3.295-2.114-7.509-2.156-10.844-0.108l-30.321,18.614V237.549z M217.596,491.602c-11.118,0-20.164-9.046-20.164-20.164
			s9.046-20.164,20.164-20.164s20.164,9.046,20.164,20.164S228.715,491.602,217.596,491.602z M202.865,429.709v-192.16h41.314
			v79.274c0,3.693,1.997,7.098,5.219,8.901c3.223,1.803,7.169,1.723,10.315-0.209l40.4-24.799l38.475,24.691
			c1.674,1.074,3.589,1.616,5.509,1.616c1.68,0,3.363-0.414,4.891-1.249c3.272-1.788,5.309-5.221,5.309-8.95v-79.274h41.314v192.16
			H202.865z M379.859,491.602c-11.118,0-20.164-9.046-20.164-20.164s9.046-20.164,20.164-20.164s20.164,9.046,20.164,20.164
			S390.977,491.602,379.859,491.602z"/>
	</g>
</g>
<g>
	<g>
		<path d="M331.401,398.107h-5.026c-5.633,0-10.199,4.566-10.199,10.199s4.566,10.199,10.199,10.199h5.026
			c5.633,0,10.199-4.566,10.199-10.199S337.034,398.107,331.401,398.107z"/>
	</g>
</g>
<g>
	<g>
		<path d="M291.188,398.107h-65.346c-5.633,0-10.199,4.566-10.199,10.199s4.566,10.199,10.199,10.199h65.346
			c5.633,0,10.199-4.566,10.199-10.199S296.82,398.107,291.188,398.107z"/>
	</g>
</g>
<g>
</g>
<g>
</g>
<g>
</g>
<g>
</g>
<g>
</g>
<g>
</g>
<g>
</g>
<g>
</g>
<g>
</g>
<g>
</g>
<g>
</g>
<g>
</g>
<g>
</g>
<g>
</g>
<g>
</g>
</svg>
