<?xml version="1.0" encoding="iso-8859-1"?>
<!-- Generator: Adobe Illustrator 19.0.0, SVG Export Plug-In . SVG Version: 6.00 Build 0)  -->
<svg version="1.1" id="Layer_1" xmlns="http://www.w3.org/2000/svg" xmlns:xlink="http://www.w3.org/1999/xlink" x="0px" y="0px"
	 viewBox="0 0 512 512" style="enable-background:new 0 0 512 512;" xml:space="preserve">
<g>
	<g>
		<path d="M437.019,74.98C388.667,26.628,324.381,0,256,0S123.333,26.628,74.982,74.98C26.628,123.333,0,187.62,0,256
			s26.628,132.667,74.982,181.02C123.333,485.372,187.619,512,256,512s132.667-26.628,181.019-74.98
			C485.372,388.667,512,324.38,512,256S485.372,123.333,437.019,74.98z M256,491.602c-129.911,0-235.602-105.69-235.602-235.602
			S126.089,20.398,256,20.398S491.602,126.089,491.602,256S385.911,491.602,256,491.602z"/>
	</g>
</g>
<g>
	<g>
		<path d="M256,39.777C136.774,39.777,39.777,136.774,39.777,256S136.774,472.223,256,472.223S472.223,375.226,472.223,256
			S375.226,39.777,256,39.777z M256,451.825c-107.978,0-195.825-87.847-195.825-195.825S148.022,60.175,256,60.175
			S451.825,148.022,451.825,256S363.978,451.825,256,451.825z"/>
	</g>
</g>
<g>
	<g>
		<path d="M322.636,308.212l-56.437-56.436V134.629c0-5.633-4.567-10.199-10.199-10.199s-10.199,4.566-10.199,10.199V256
			c0,2.705,1.075,5.299,2.987,7.212l59.425,59.425c1.992,1.992,4.601,2.987,7.212,2.987c2.61,0,5.22-0.995,7.212-2.987
			C326.619,318.653,326.619,312.195,322.636,308.212z"/>
	</g>
</g>
<g>
	<g>
		<path d="M256,76.494c-5.632,0-10.199,4.566-10.199,10.199v11.219c0,5.633,4.567,10.199,10.199,10.199s10.199-4.566,10.199-10.199
			V86.693C266.199,81.06,261.632,76.494,256,76.494z"/>
	</g>
</g>
<g>
	<g>
		<path d="M256,403.888c-5.632,0-10.199,4.566-10.199,10.199v11.219c0,5.633,4.567,10.199,10.199,10.199s10.199-4.566,10.199-10.199
			v-11.219C266.199,408.455,261.632,403.888,256,403.888z"/>
	</g>
</g>
<g>
	<g>
		<path d="M425.307,245.801h-11.219c-5.632,0-10.199,4.566-10.199,10.199c0,5.633,4.567,10.199,10.199,10.199h11.219
			c5.632,0,10.199-4.566,10.199-10.199C435.506,250.367,430.939,245.801,425.307,245.801z"/>
	</g>
</g>
<g>
	<g>
		<path d="M97.912,245.801H86.693c-5.632,0-10.199,4.566-10.199,10.199c0,5.633,4.567,10.199,10.199,10.199h11.219
			c5.632,0,10.199-4.566,10.199-10.199C108.112,250.367,103.544,245.801,97.912,245.801z"/>
	</g>
</g>
<g>
</g>
<g>
</g>
<g>
</g>
<g>
</g>
<g>
</g>
<g>
</g>
<g>
</g>
<g>
</g>
<g>
</g>
<g>
</g>
<g>
</g>
<g>
</g>
<g>
</g>
<g>
</g>
<g>
</g>
</svg>
