<?xml version="1.0" encoding="iso-8859-1"?>
<!-- Generator: Adobe Illustrator 19.0.0, SVG Export Plug-In . SVG Version: 6.00 Build 0)  -->
<svg version="1.1" id="Layer_1" xmlns="http://www.w3.org/2000/svg" xmlns:xlink="http://www.w3.org/1999/xlink" x="0px" y="0px"
	 viewBox="0 0 512 512" style="enable-background:new 0 0 512 512;" xml:space="preserve">
<g>
	<g>
		<path d="M441.249,301.009h-50.62V79.686c0-5.633-4.567-10.199-10.199-10.199H131.57c-5.632,0-10.199,4.566-10.199,10.199v221.323
			h-50.62C31.739,301.009,0,332.749,0,371.761s31.739,70.752,70.751,70.752h370.498c39.012,0,70.751-31.739,70.751-70.752
			C512,332.748,480.261,301.009,441.249,301.009z M237.641,89.886h36.717v47.936h-36.717V89.886z M141.769,89.886h75.474v58.135
			c0,5.633,4.567,10.199,10.199,10.199h57.116c5.632,0,10.199-4.566,10.199-10.199V89.886h75.474v211.124H266.199v-80.574
			c0-5.633-4.567-10.199-10.199-10.199s-10.199,4.566-10.199,10.199v80.574H141.769V89.886z M441.249,422.114H70.751
			c-27.765,0-50.352-22.588-50.352-50.353c0-27.765,22.587-50.353,50.352-50.353h370.498c27.765,0,50.352,22.588,50.352,50.353
			C491.602,399.526,469.014,422.114,441.249,422.114z"/>
	</g>
</g>
<g>
	<g>
		<path d="M70.507,336.951c-19.194,0-34.81,15.616-34.81,34.81c0,19.194,15.616,34.81,34.81,34.81
			c19.194,0,34.811-15.616,34.811-34.81C105.318,352.567,89.701,336.951,70.507,336.951z M70.507,386.172
			c-7.946,0-14.411-6.465-14.411-14.411c0-7.946,6.465-14.411,14.411-14.411c7.947,0,14.412,6.465,14.412,14.411
			C84.92,379.707,78.454,386.172,70.507,386.172z"/>
	</g>
</g>
<g>
	<g>
		<path d="M162.57,336.951c-19.194,0-34.81,15.616-34.81,34.81c0,19.194,15.616,34.81,34.81,34.81
			c19.194,0,34.811-15.616,34.811-34.81C197.381,352.567,181.764,336.951,162.57,336.951z M162.57,386.172
			c-7.946,0-14.411-6.465-14.411-14.411c0-7.946,6.465-14.411,14.411-14.411c7.947,0,14.413,6.465,14.413,14.411
			C176.983,379.707,170.517,386.172,162.57,386.172z"/>
	</g>
</g>
<g>
	<g>
		<path d="M255.544,336.951c-19.194,0-34.81,15.616-34.81,34.81c0,19.194,15.616,34.81,34.81,34.81
			c19.194,0,34.811-15.616,34.811-34.81C290.355,352.567,274.738,336.951,255.544,336.951z M255.544,386.172
			c-7.946,0-14.411-6.465-14.411-14.411c0-7.946,6.465-14.411,14.411-14.411c7.947,0,14.413,6.465,14.413,14.411
			C269.957,379.707,263.491,386.172,255.544,386.172z"/>
	</g>
</g>
<g>
	<g>
		<path d="M348.519,336.951c-19.194,0-34.811,15.616-34.811,34.81c0,19.194,15.617,34.81,34.811,34.81
			c19.194,0,34.81-15.616,34.81-34.81C383.329,352.567,367.713,336.951,348.519,336.951z M348.519,386.172
			c-7.947,0-14.413-6.465-14.413-14.411c0-7.946,6.465-14.411,14.413-14.411c7.946,0,14.411,6.465,14.411,14.411
			C362.93,379.707,356.465,386.172,348.519,386.172z"/>
	</g>
</g>
<g>
	<g>
		<path d="M441.493,336.951c-19.194,0-34.811,15.616-34.811,34.81c0,19.194,15.617,34.81,34.811,34.81
			c19.194,0,34.81-15.616,34.81-34.81C476.303,352.567,460.687,336.951,441.493,336.951z M441.493,386.172
			c-7.947,0-14.413-6.465-14.413-14.411c0-7.946,6.465-14.411,14.413-14.411c7.946,0,14.411,6.465,14.411,14.411
			C455.904,379.707,449.439,386.172,441.493,386.172z"/>
	</g>
</g>
<g>
	<g>
		<path d="M256,172.499c-5.632,0-10.199,4.566-10.199,10.199v3.06c0,5.633,4.567,10.199,10.199,10.199s10.199-4.566,10.199-10.199
			v-3.06C266.199,177.065,261.632,172.499,256,172.499z"/>
	</g>
</g>
<g>
</g>
<g>
</g>
<g>
</g>
<g>
</g>
<g>
</g>
<g>
</g>
<g>
</g>
<g>
</g>
<g>
</g>
<g>
</g>
<g>
</g>
<g>
</g>
<g>
</g>
<g>
</g>
<g>
</g>
</svg>
