<?xml version="1.0" encoding="iso-8859-1"?>
<!-- Generator: Adobe Illustrator 19.0.0, SVG Export Plug-In . SVG Version: 6.00 Build 0)  -->
<svg version="1.1" id="Layer_1" xmlns="http://www.w3.org/2000/svg" xmlns:xlink="http://www.w3.org/1999/xlink" x="0px" y="0px"
	 viewBox="0 0 512 512" style="enable-background:new 0 0 512 512;" xml:space="preserve">
<g>
	<g>
		<path d="M476.813,227.442h-23.627c-0.094-0.045-0.183-0.098-0.279-0.141l-172.778-76.79c5.346-5.83,8.615-13.594,8.615-22.109
			c0-14.496-9.469-26.822-22.545-31.119v-7.929h15.611c5.632,0,10.199-4.566,10.199-10.199V27.538
			c0-5.633-4.567-10.199-10.199-10.199h-51.619c-5.632,0-10.199,4.566-10.199,10.199v51.618c0,5.633,4.567,10.199,10.199,10.199
			h15.61v16.5c0,5.633,4.567,10.199,10.199,10.199c6.808,0,12.346,5.539,12.346,12.346c0,6.808-5.539,12.347-12.346,12.347
			s-12.346-5.539-12.346-12.347c0-5.633-4.567-10.199-10.199-10.199c-5.632,0-10.199,4.566-10.199,10.199
			c0,8.515,3.269,16.279,8.615,22.109l-172.778,76.79c-0.096,0.043-0.185,0.096-0.278,0.141H35.187
			C15.785,227.442,0,243.228,0,262.629v196.845c0,19.402,15.785,35.187,35.187,35.187h441.625c19.402,0,35.187-15.785,35.187-35.187
			V262.629C512,243.228,496.215,227.442,476.813,227.442z M240.389,68.957v-31.22h31.221v31.22H240.389z M256,162.109
			l146.998,65.333H109.001L256,162.109z M491.602,459.474c0,8.154-6.635,14.789-14.789,14.789H35.187
			c-8.154,0-14.789-6.635-14.789-14.789V262.629c0-8.154,6.635-14.789,14.789-14.789h441.625c8.154,0,14.789,6.635,14.789,14.789
			V459.474z"/>
	</g>
</g>
<g>
	<g>
		<path d="M65.275,280.478c-5.632,0-10.199,4.566-10.199,10.199v140.749c0,5.633,4.567,10.199,10.199,10.199
			s10.199-4.566,10.199-10.199V290.677C75.474,285.044,70.907,280.478,65.275,280.478z"/>
	</g>
</g>
<g>
	<g>
		<path d="M160.637,280.478c-5.632,0-10.199,4.566-10.199,10.199v140.749c0,5.633,4.567,10.199,10.199,10.199
			s10.199-4.566,10.199-10.199V290.677C170.837,285.044,166.269,280.478,160.637,280.478z"/>
	</g>
</g>
<g>
	<g>
		<path d="M256,280.478c-5.632,0-10.199,4.566-10.199,10.199v140.749c0,5.633,4.567,10.199,10.199,10.199
			s10.199-4.566,10.199-10.199V290.677C266.199,285.044,261.632,280.478,256,280.478z"/>
	</g>
</g>
<g>
	<g>
		<path d="M351.363,280.478c-5.632,0-10.199,4.566-10.199,10.199v140.749c0,5.633,4.567,10.199,10.199,10.199
			s10.199-4.566,10.199-10.199V290.677C361.562,285.044,356.995,280.478,351.363,280.478z"/>
	</g>
</g>
<g>
	<g>
		<path d="M446.725,328.414c-5.632,0-10.199,4.566-10.199,10.199v92.813c0,5.633,4.567,10.199,10.199,10.199
			c5.632,0,10.199-4.566,10.199-10.199v-92.813C456.924,332.98,452.357,328.414,446.725,328.414z"/>
	</g>
</g>
<g>
	<g>
		<path d="M446.725,280.478c-5.632,0-10.199,4.566-10.199,10.199v6.12c0,5.633,4.567,10.199,10.199,10.199
			c5.632,0,10.199-4.566,10.199-10.199v-6.12C456.924,285.044,452.357,280.478,446.725,280.478z"/>
	</g>
</g>
<g>
</g>
<g>
</g>
<g>
</g>
<g>
</g>
<g>
</g>
<g>
</g>
<g>
</g>
<g>
</g>
<g>
</g>
<g>
</g>
<g>
</g>
<g>
</g>
<g>
</g>
<g>
</g>
<g>
</g>
</svg>
