<?xml version="1.0" encoding="iso-8859-1"?>
<!-- Generator: Adobe Illustrator 19.0.0, SVG Export Plug-In . SVG Version: 6.00 Build 0)  -->
<svg version="1.1" id="Layer_1" xmlns="http://www.w3.org/2000/svg" xmlns:xlink="http://www.w3.org/1999/xlink" x="0px" y="0px"
	 viewBox="0 0 512 512" style="enable-background:new 0 0 512 512;" xml:space="preserve">
<g>
	<g>
		<path d="M474.888,196.687H191.077v-37.444c0-5.632-4.566-10.199-10.199-10.199h-15.042v-42.688
			c0-38.762-31.535-70.297-70.297-70.297s-70.297,31.535-70.297,70.297v42.688H10.199C4.566,149.043,0,153.61,0,159.242v140.63
			c0,5.632,4.566,10.199,10.199,10.199h48.743V438.83c0,20.463,16.648,37.112,37.112,37.112h378.834
			c20.464,0,37.112-16.648,37.112-37.112v-205.03C512,213.336,495.352,196.687,474.888,196.687z M45.639,106.356
			c0-27.514,22.384-49.899,49.899-49.899s49.899,22.384,49.899,49.899v42.688H45.639V106.356z M20.398,289.674V169.442h150.28
			v120.231H20.398z M491.602,438.831c0,9.216-7.497,16.713-16.713,16.713H96.054c-9.216,0-16.713-7.497-16.713-16.713v-20.823
			h412.261V438.831z M491.602,397.61H79.341v-38.769h412.261V397.61z M491.602,338.443H79.341v-28.37h101.537v-0.001
			c5.633,0,10.199-4.567,10.199-10.199v-82.787h283.811c9.216,0,16.713,7.498,16.713,16.714V338.443z"/>
	</g>
</g>
<g>
	<g>
		<path d="M95.538,203.132c-5.633,0-10.199,4.567-10.199,10.199v26.443c0,5.632,4.566,10.199,10.199,10.199
			c5.633,0,10.199-4.567,10.199-10.199v-26.443C105.737,207.7,101.171,203.132,95.538,203.132z"/>
	</g>
</g>
<g>
	<g>
		<path d="M464.064,303.937H305.976c-5.633,0-10.199,4.567-10.199,10.199c0,5.632,4.566,10.199,10.199,10.199h158.088
			c5.633,0,10.199-4.567,10.199-10.199C474.263,308.505,469.697,303.937,464.064,303.937z"/>
	</g>
</g>
<g>
	<g>
		<path d="M272.319,303.937h-3.06c-5.633,0-10.199,4.567-10.199,10.199c0,5.632,4.566,10.199,10.199,10.199h3.06
			c5.633,0,10.199-4.567,10.199-10.199C282.518,308.505,277.952,303.937,272.319,303.937z"/>
	</g>
</g>
<g>
</g>
<g>
</g>
<g>
</g>
<g>
</g>
<g>
</g>
<g>
</g>
<g>
</g>
<g>
</g>
<g>
</g>
<g>
</g>
<g>
</g>
<g>
</g>
<g>
</g>
<g>
</g>
<g>
</g>
</svg>
