<?xml version="1.0" encoding="iso-8859-1"?>
<!-- Generator: Adobe Illustrator 19.0.0, SVG Export Plug-In . SVG Version: 6.00 Build 0)  -->
<svg version="1.1" id="Layer_1" xmlns="http://www.w3.org/2000/svg" xmlns:xlink="http://www.w3.org/1999/xlink" x="0px" y="0px"
	 viewBox="0 0 512 512" style="enable-background:new 0 0 512 512;" xml:space="preserve">
<g>
	<g>
		<path d="M509.14,261.159c0.203-0.198,0.332-0.318,0.332-0.318l-75.734-86.458c0,0-0.185,0.08-0.496,0.206
			c-1.871-2.251-4.691-3.685-7.846-3.685h-65.199v-61.178c0-5.632-4.566-10.199-10.199-10.199H29.3
			c-5.633,0-10.199,4.567-10.199,10.199v224.04h-8.902C4.566,333.766,0,338.333,0,343.965s4.566,10.199,10.199,10.199h8.902v11.919
			c0,5.632,4.566,10.199,10.199,10.199h20.099c4.661,20.687,23.172,36.191,45.247,36.191c22.075,0,40.586-15.504,45.248-36.191
			h239.251v-0.001c4.661,20.687,23.172,36.191,45.247,36.191c22.075,0,40.586-15.504,45.248-36.191h32.162
			c5.633,0,10.199-4.567,10.199-10.199v-97.851C512,265.482,510.908,262.993,509.14,261.159z M94.646,392.074
			c-14.332,0-25.992-11.661-25.992-25.992c0-14.331,11.66-25.992,25.992-25.992c14.332,0,25.993,11.661,25.993,25.992
			C120.638,380.413,108.979,392.074,94.646,392.074z M339.799,355.882H139.893c-4.661-20.687-23.172-36.191-45.248-36.191
			c-22.075,0-40.586,15.504-45.247,36.191h-9.899v-44.947h300.299V355.882z M339.799,290.537H39.499V119.924h300.299V290.537z
			 M435.596,207.46l44.299,50.572h-44.299V207.46z M424.391,392.074c-14.332,0-25.992-11.661-25.992-25.992
			c0-14.331,11.66-25.992,25.992-25.992c14.332,0,25.993,11.661,25.993,25.992C450.384,380.413,438.723,392.074,424.391,392.074z
			 M491.602,355.882h-21.963c-4.661-20.687-23.172-36.191-45.248-36.191c-22.075,0-40.586,15.504-45.247,36.191h-18.947V191.301h55
			v76.929c0,5.632,4.566,10.199,10.199,10.199h66.205V355.882z"/>
	</g>
</g>
<g>
	<g>
		<path d="M315.155,259.059h-85.673c-5.633,0-10.199,4.567-10.199,10.199s4.566,10.199,10.199,10.199h85.673
			c5.633,0,10.199-4.567,10.199-10.199S320.788,259.059,315.155,259.059z"/>
	</g>
</g>
<g>
	<g>
		<path d="M197.865,259.059h-6.12c-5.633,0-10.199,4.567-10.199,10.199s4.566,10.199,10.199,10.199h6.12
			c5.633,0,10.199-4.567,10.199-10.199S203.498,259.059,197.865,259.059z"/>
	</g>
</g>
<g>
</g>
<g>
</g>
<g>
</g>
<g>
</g>
<g>
</g>
<g>
</g>
<g>
</g>
<g>
</g>
<g>
</g>
<g>
</g>
<g>
</g>
<g>
</g>
<g>
</g>
<g>
</g>
<g>
</g>
</svg>
