<?xml version="1.0" encoding="iso-8859-1"?>
<!-- Generator: Adobe Illustrator 19.0.0, SVG Export Plug-In . SVG Version: 6.00 Build 0)  -->
<svg version="1.1" id="Layer_1" xmlns="http://www.w3.org/2000/svg" xmlns:xlink="http://www.w3.org/1999/xlink" x="0px" y="0px"
	 viewBox="0 0 512 512" style="enable-background:new 0 0 512 512;" xml:space="preserve">
<g>
	<g>
		<path d="M509.473,294.358l-59.391-67.802c-1.937-2.21-4.733-3.479-7.672-3.479h-49.455v-41.872
			c0-5.633-4.567-10.199-10.199-10.199H254.686c-3.419-42.435-39.019-75.927-82.32-75.927c-45.554,0-82.614,37.06-82.614,82.614
			c0,42.01,31.526,76.77,72.157,81.928v87.955h-59.045c-5.633,0-10.199,4.566-10.199,10.199c0,5.633,4.566,10.199,10.199,10.199
			h59.045v10.365c0,5.633,4.566,10.199,10.199,10.199h21.289c4.485,16.339,19.459,28.382,37.203,28.382
			c17.744,0,32.718-12.043,37.204-28.382h136.088v0c4.485,16.339,19.459,28.382,37.203,28.382c17.744,0,32.718-12.043,37.204-28.382
			h23.502c5.632,0,10.199-4.566,10.199-10.199v-77.261C512,298.606,511.101,296.218,509.473,294.358z M110.151,177.693
			c0-34.306,27.909-62.215,62.215-62.215c34.306,0,62.215,27.909,62.215,62.215s-27.909,62.215-62.215,62.215
			C138.06,239.908,110.151,211.999,110.151,177.693z M230.6,396.523c-10.026,0-18.182-8.157-18.182-18.183
			s8.156-18.183,18.182-18.183c10.027,0,18.183,8.157,18.183,18.183S240.626,396.523,230.6,396.523z M267.802,368.14
			c-4.485-16.339-19.46-28.382-37.204-28.382c-17.743,0-32.717,12.043-37.203,28.382h-11.09V259.687
			c36.352-4.383,65.499-32.45,71.513-68.282h118.735V368.14H267.802z M441.094,396.523c-10.026,0-18.182-8.157-18.182-18.183
			s8.156-18.183,18.182-18.183c10.026,0,18.183,8.157,18.183,18.183S451.121,396.523,441.094,396.523z M491.602,368.14h-13.304
			c-4.485-16.339-19.46-28.382-37.204-28.382c-17.744,0-32.717,12.043-37.203,28.382h-10.939V243.475h44.831l53.818,61.438V368.14z"
			/>
	</g>
</g>
<g>
	<g>
		<path d="M69.261,347.576h-5.442c-5.633,0-10.199,4.566-10.199,10.199c0,5.633,4.566,10.199,10.199,10.199h5.442
			c5.633,0,10.199-4.566,10.199-10.199C79.46,352.142,74.894,347.576,69.261,347.576z"/>
	</g>
</g>
<g>
	<g>
		<path d="M63.818,194.967H23.146c-5.633,0-10.199,4.566-10.199,10.199c0,5.633,4.566,10.199,10.199,10.199h40.672
			c5.633,0,10.199-4.566,10.199-10.199C74.018,199.533,69.451,194.967,63.818,194.967z"/>
	</g>
</g>
<g>
	<g>
		<path d="M119.5,270.24H10.199C4.566,270.24,0,274.806,0,280.439c0,5.633,4.566,10.199,10.199,10.199H119.5
			c5.633,0,10.199-4.566,10.199-10.199S125.133,270.24,119.5,270.24z"/>
	</g>
</g>
<g>
	<g>
		<path d="M197.085,187.987l-14.52-14.519v-43.521c0-5.633-4.566-10.199-10.199-10.199c-5.633,0-10.199,4.566-10.199,10.199v47.746
			c0,2.705,1.075,5.299,2.987,7.212l17.507,17.507c1.991,1.992,4.602,2.987,7.212,2.987s5.221-0.996,7.212-2.987
			C201.068,198.429,201.068,191.97,197.085,187.987z"/>
	</g>
</g>
<g>
</g>
<g>
</g>
<g>
</g>
<g>
</g>
<g>
</g>
<g>
</g>
<g>
</g>
<g>
</g>
<g>
</g>
<g>
</g>
<g>
</g>
<g>
</g>
<g>
</g>
<g>
</g>
<g>
</g>
</svg>
