<?xml version="1.0" encoding="iso-8859-1"?>
<!-- Generator: Adobe Illustrator 19.0.0, SVG Export Plug-In . SVG Version: 6.00 Build 0)  -->
<svg version="1.1" id="Layer_1" xmlns="http://www.w3.org/2000/svg" xmlns:xlink="http://www.w3.org/1999/xlink" x="0px" y="0px"
	 viewBox="0 0 512 512" style="enable-background:new 0 0 512 512;" xml:space="preserve">
<g>
	<g>
		<path d="M509.473,300.916l-75.734-86.458c-1.936-2.21-4.732-3.479-7.672-3.479h-0.67h-65.199V149.8
			c0-5.633-4.566-10.199-10.199-10.199H203.463c-10.428-45.834-51.506-80.148-100.451-80.148C46.212,59.453,0,105.664,0,162.465
			c0,22.23,7.079,42.839,19.101,59.689V373.84h-8.902C4.566,373.84,0,378.406,0,384.039c0,5.633,4.566,10.199,10.199,10.199h8.902
			v11.918c0,5.633,4.566,10.199,10.199,10.199h20.099c4.661,20.687,23.172,36.191,45.247,36.191
			c22.075,0,40.586-15.504,45.248-36.191h239.251v0.001c4.661,20.687,23.172,36.191,45.247,36.191
			c22.075,0,40.586-15.504,45.248-36.191h32.162c5.633,0,10.199-4.566,10.199-10.199v-97.851v-0.67
			C512,305.164,511.102,302.775,509.473,300.916z M205.992,159.999h133.805v170.612H39.499v-87.098
			c17.511,13.753,39.571,21.963,63.513,21.963c56.8,0,103.012-46.212,103.012-103.012
			C206.024,161.641,206.012,160.818,205.992,159.999z M20.398,162.466c0-45.554,37.06-82.614,82.614-82.614
			s82.614,37.06,82.614,82.614s-37.06,82.614-82.614,82.614S20.398,208.019,20.398,162.466z M94.646,432.149
			c-14.332,0-25.992-11.66-25.992-25.992c0-14.332,11.66-25.993,25.992-25.993c14.332,0,25.993,11.661,25.993,25.993
			C120.638,420.489,108.979,432.149,94.646,432.149z M339.799,395.958H139.893c-4.661-20.688-23.172-36.192-45.248-36.192
			c-22.075,0-40.586,15.504-45.247,36.192h-9.899V351.01h300.299V395.958z M435.596,247.535l44.299,50.572h-44.299V247.535z
			 M424.391,432.149c-14.332,0-25.992-11.66-25.992-25.992c0-14.332,11.66-25.993,25.992-25.993
			c14.332,0,25.993,11.661,25.993,25.993C450.384,420.489,438.723,432.149,424.391,432.149z M491.602,395.958h-21.963
			c-4.661-20.688-23.172-36.192-45.248-36.192c-22.075,0-40.586,15.504-45.247,36.192h-18.947v-164.58h55v76.929
			c0,5.633,4.566,10.199,10.199,10.199h66.205V395.958z"/>
	</g>
</g>
<g>
	<g>
		<path d="M315.155,299.135h-85.673c-5.633,0-10.199,4.566-10.199,10.199c0,5.633,4.566,10.199,10.199,10.199h85.673
			c5.633,0,10.199-4.566,10.199-10.199C325.355,303.701,320.788,299.135,315.155,299.135z"/>
	</g>
</g>
<g>
	<g>
		<path d="M197.865,299.135h-6.12c-5.633,0-10.199,4.566-10.199,10.199c0,5.633,4.566,10.199,10.199,10.199h6.12
			c5.633,0,10.199-4.566,10.199-10.199C208.064,303.701,203.498,299.135,197.865,299.135z"/>
	</g>
</g>
<g>
	<g>
		<path d="M132.662,177.691l-19.451-19.451v-56.97c0-5.633-4.566-10.199-10.199-10.199c-5.633,0-10.199,4.566-10.199,10.199v61.195
			c0,2.705,1.075,5.299,2.987,7.212l22.438,22.438c1.992,1.992,4.602,2.987,7.212,2.987s5.221-0.995,7.212-2.987
			C136.645,188.133,136.645,181.675,132.662,177.691z"/>
	</g>
</g>
<g>
</g>
<g>
</g>
<g>
</g>
<g>
</g>
<g>
</g>
<g>
</g>
<g>
</g>
<g>
</g>
<g>
</g>
<g>
</g>
<g>
</g>
<g>
</g>
<g>
</g>
<g>
</g>
<g>
</g>
</svg>
