<?xml version="1.0" encoding="iso-8859-1"?>
<!-- Generator: Adobe Illustrator 19.0.0, SVG Export Plug-In . SVG Version: 6.00 Build 0)  -->
<svg version="1.1" id="Layer_1" xmlns="http://www.w3.org/2000/svg" xmlns:xlink="http://www.w3.org/1999/xlink" x="0px" y="0px"
	 viewBox="0 0 512 512" style="enable-background:new 0 0 512 512;" xml:space="preserve">
<g>
	<g>
		<path d="M478.854,255.544l-143.386-84.428l143.386-84.428c3.963-2.334,5.875-7.033,4.665-11.471
			c-1.211-4.439-5.241-7.517-9.84-7.517H69.35v-7.37c12.114-4.23,20.831-15.762,20.831-29.299C90.18,13.92,76.26,0,59.151,0
			s-31.03,13.92-31.03,31.03c0,13.537,8.717,25.071,20.831,29.299v441.471c0,5.632,4.567,10.199,10.199,10.199
			s10.199-4.567,10.199-10.199V274.532h404.329c4.6,0,8.631-3.079,9.84-7.517C484.729,262.576,482.818,257.878,478.854,255.544z
			 M59.151,41.662c-5.862,0-10.632-4.769-10.632-10.632c0-5.862,4.769-10.632,10.632-10.632s10.632,4.769,10.632,10.632
			C69.783,36.893,65.013,41.662,59.151,41.662z M69.35,254.133V88.098h366.906l-126.065,74.229
			c-3.113,1.833-5.024,5.176-5.024,8.789s1.911,6.956,5.024,8.789l126.065,74.229H69.35z"/>
	</g>
</g>
<g>
	<g>
		<path d="M233.086,222.887h-3.124c-5.632,0-10.199,4.567-10.199,10.199s4.567,10.199,10.199,10.199h3.124
			c5.632,0,10.199-4.567,10.199-10.199S238.718,222.887,233.086,222.887z"/>
	</g>
</g>
<g>
	<g>
		<path d="M196.631,222.887H91.437c-5.632,0-10.199,4.567-10.199,10.199s4.567,10.199,10.199,10.199h105.195
			c5.632,0,10.199-4.567,10.199-10.199S202.264,222.887,196.631,222.887z"/>
	</g>
</g>
<g>
</g>
<g>
</g>
<g>
</g>
<g>
</g>
<g>
</g>
<g>
</g>
<g>
</g>
<g>
</g>
<g>
</g>
<g>
</g>
<g>
</g>
<g>
</g>
<g>
</g>
<g>
</g>
<g>
</g>
</svg>
