<?xml version="1.0" encoding="iso-8859-1"?>
<!-- Generator: Adobe Illustrator 19.0.0, SVG Export Plug-In . SVG Version: 6.00 Build 0)  -->
<svg version="1.1" id="Layer_1" xmlns="http://www.w3.org/2000/svg" xmlns:xlink="http://www.w3.org/1999/xlink" x="0px" y="0px"
	 viewBox="0 0 512 512" style="enable-background:new 0 0 512 512;" xml:space="preserve">
<g>
	<g>
		<path d="M501.801,85.311H284.534c-5.633,0-10.199,4.567-10.199,10.199c0,31.884,12.865,70.666,33.575,101.212
			c21.19,31.253,47.236,50.117,74.313,54.145v88.767c0,5.632,4.566,10.199,10.199,10.199c5.633,0,10.199-4.567,10.199-10.199
			v-88.563c27.611-3.546,54.225-22.523,75.802-54.35C499.135,166.177,512,127.393,512,95.51
			C512,89.877,507.434,85.311,501.801,85.311z M393.168,231.29c-50.993,0-92.969-72.358-97.941-125.582h29.644l28.868,51.4
			c1.898,3.38,5.555,5.384,9.42,5.191c3.872-0.2,7.294-2.578,8.833-6.138l3.709-8.578l18.983,34.071
			c1.866,3.349,5.339,5.237,8.919,5.237c1.679,0,3.383-0.416,4.955-1.292c4.92-2.742,6.688-8.952,3.946-13.874l-29.046-52.135
			c-1.891-3.392-5.558-5.433-9.42-5.222c-3.879,0.194-7.31,2.573-8.851,6.139l-3.744,8.659l-13.176-23.459h142.842
			C486.137,158.932,444.16,231.29,393.168,231.29z"/>
	</g>
</g>
<g>
	<g>
		<path d="M392.422,365.131c-5.633,0-10.199,4.567-10.199,10.199v8.159c0,5.632,4.566,10.199,10.199,10.199
			c5.633,0,10.199-4.567,10.199-10.199v-8.159C402.622,369.699,398.056,365.131,392.422,365.131z"/>
	</g>
</g>
<g>
	<g>
		<path d="M442.324,407.061h-99.802c-5.633,0-10.199,4.567-10.199,10.199s4.566,10.199,10.199,10.199h99.802
			c5.633,0,10.199-4.567,10.199-10.199S447.957,407.061,442.324,407.061z"/>
	</g>
</g>
<g>
	<g>
		<path d="M240.965,141.232c-25.81-25.67-57.609-40.8-90.423-43.233v-3.26c0-5.632-4.566-10.199-10.199-10.199
			s-10.199,4.567-10.199,10.199v3.393c-32.229,2.811-63.398,17.859-88.777,43.1C15.464,166.993,0,199.506,0,228.205
			c0,5.632,4.566,10.199,10.199,10.199h121.668v151.824c0,8.775-7.139,15.915-15.915,15.915s-15.915-7.139-15.915-15.915v-13.617
			c0-5.632-4.566-10.199-10.199-10.199c-5.633,0-10.199,4.567-10.199,10.199v13.617c0,20.024,16.29,36.313,36.313,36.313
			s36.313-16.29,36.313-36.313V238.404h119.867c5.633,0,10.199-4.567,10.199-10.199
			C282.332,199.506,266.868,166.993,240.965,141.232z M21.222,218.006c3.242-20.702,15.858-43.742,34.528-62.311
			c24.415-24.281,54.749-37.653,85.416-37.653s61.001,13.372,85.416,37.653c18.671,18.569,31.286,41.609,34.528,62.311H21.222z"/>
	</g>
</g>
<g>
</g>
<g>
</g>
<g>
</g>
<g>
</g>
<g>
</g>
<g>
</g>
<g>
</g>
<g>
</g>
<g>
</g>
<g>
</g>
<g>
</g>
<g>
</g>
<g>
</g>
<g>
</g>
<g>
</g>
</svg>
