<?xml version="1.0" encoding="iso-8859-1"?>
<!-- Generator: Adobe Illustrator 19.0.0, SVG Export Plug-In . SVG Version: 6.00 Build 0)  -->
<svg version="1.1" id="Layer_1" xmlns="http://www.w3.org/2000/svg" xmlns:xlink="http://www.w3.org/1999/xlink" x="0px" y="0px"
	 viewBox="0 0 512 512" style="enable-background:new 0 0 512 512;" xml:space="preserve">
<g>
	<g>
		<path d="M421.98,0H90.02c-5.633,0-10.199,4.566-10.199,10.199c0,47.696,19.301,105.793,50.372,151.62
			c32.712,48.248,72.982,76.607,114.47,81.001v248.781h-66.045c-5.633,0-10.199,4.566-10.199,10.199
			c0,5.633,4.566,10.199,10.199,10.199h152.487c5.633,0,10.199-4.566,10.199-10.199c0-5.633-4.566-10.199-10.199-10.199h-66.044
			V243.047c42.289-3.58,83.436-32.097,116.746-81.227c31.071-45.827,50.372-103.925,50.372-151.62C432.179,4.566,427.613,0,421.98,0
			z M364.923,150.372c-18.4,27.139-57.02,72.669-108.923,72.669s-90.523-45.53-108.923-72.669
			c-26.697-39.377-44.053-88.206-46.547-129.974h54.27l45.651,81.281c1.898,3.38,5.559,5.392,9.42,5.191
			c3.872-0.201,7.294-2.579,8.833-6.138l10-23.126l14.646,26.288c1.866,3.349,5.339,5.237,8.919,5.237
			c1.679,0,3.383-0.416,4.955-1.291c4.92-2.742,6.688-8.953,3.946-13.874l-24.711-44.352c-1.891-3.392-5.555-5.425-9.42-5.222
			c-3.879,0.194-7.31,2.574-8.851,6.138l-10.035,23.207l-29.958-53.34H411.47C408.977,62.166,391.621,110.995,364.923,150.372z"/>
	</g>
</g>
<g>
	<g>
		<path d="M280.841,129.273l-3.192-5.729c-2.742-4.921-8.954-6.688-13.874-3.945c-4.92,2.743-6.687,8.954-3.945,13.875l3.192,5.729
			c1.866,3.349,5.339,5.236,8.919,5.236c1.68,0,3.383-0.416,4.955-1.292C281.816,140.405,283.583,134.193,280.841,129.273z"/>
	</g>
</g>
<g>
</g>
<g>
</g>
<g>
</g>
<g>
</g>
<g>
</g>
<g>
</g>
<g>
</g>
<g>
</g>
<g>
</g>
<g>
</g>
<g>
</g>
<g>
</g>
<g>
</g>
<g>
</g>
<g>
</g>
</svg>
