<?xml version="1.0" encoding="iso-8859-1"?>
<!-- Generator: Adobe Illustrator 19.0.0, SVG Export Plug-In . SVG Version: 6.00 Build 0)  -->
<svg version="1.1" id="Layer_1" xmlns="http://www.w3.org/2000/svg" xmlns:xlink="http://www.w3.org/1999/xlink" x="0px" y="0px"
	 viewBox="0 0 512 512" style="enable-background:new 0 0 512 512;" xml:space="preserve">
<g>
	<g>
		<path d="M456.459,90.684h-75.87c7.849-9.58,12.568-21.82,12.568-35.143C393.156,24.916,368.241,0,337.615,0h-36.273
			c-18.708,0-35.273,9.307-45.342,23.524C245.931,9.307,229.366,0,210.658,0h-36.273c-30.625,0-55.541,24.916-55.541,55.542
			c0,13.323,4.718,25.562,12.567,35.142h-75.87c-5.633,0-10.199,4.566-10.199,10.199v400.917c0,5.633,4.566,10.199,10.199,10.199
			h400.917c5.633,0,10.199-4.566,10.199-10.199V100.883C466.658,95.25,462.092,90.684,456.459,90.684z M446.259,111.083V240.36
			H316.982V111.083H446.259z M266.199,55.541c0-19.377,15.765-35.142,35.142-35.142h36.273c19.377,0,35.142,15.765,35.142,35.143
			c0,19.377-15.765,35.142-35.142,35.142h-71.416V55.541z M296.583,111.083V240.36h-81.167V111.083H296.583z M174.383,20.398h36.273
			c19.378,0,35.143,15.765,35.143,35.142v35.143h-71.416c-19.378,0-35.143-15.765-35.143-35.143
			C139.241,36.163,155.006,20.398,174.383,20.398z M65.741,111.083h129.277V240.36H65.741V111.083z M195.017,491.602H65.741V362.325
			h129.277V491.602z M296.583,491.602h-81.167V362.325h81.167V491.602z M446.258,491.602H316.982V362.325h129.277V491.602z
			 M446.259,341.926L446.259,341.926H65.741v-81.168h380.519V341.926z"/>
	</g>
</g>
<g>
	<g>
		<path d="M340.192,45.247h-42.764c-5.633,0-10.199,4.566-10.199,10.199s4.566,10.199,10.199,10.199h42.764
			c5.633,0,10.199-4.566,10.199-10.199S345.825,45.247,340.192,45.247z"/>
	</g>
</g>
<g>
	<g>
		<path d="M214.571,45.247h-42.764c-5.633,0-10.199,4.566-10.199,10.199s4.566,10.199,10.199,10.199h42.764
			c5.633,0,10.199-4.566,10.199-10.199S220.204,45.247,214.571,45.247z"/>
	</g>
</g>
<g>
	<g>
		<path d="M229.125,308.016h-4.743c-5.633,0-10.199,4.566-10.199,10.199s4.566,10.199,10.199,10.199h4.743
			c5.633,0,10.199-4.566,10.199-10.199S234.758,308.016,229.125,308.016z"/>
	</g>
</g>
<g>
	<g>
		<path d="M190.725,308.016H92.812c-5.633,0-10.199,4.566-10.199,10.199s4.566,10.199,10.199,10.199h97.912
			c5.633,0,10.199-4.566,10.199-10.199S196.358,308.016,190.725,308.016z"/>
	</g>
</g>
<g>
</g>
<g>
</g>
<g>
</g>
<g>
</g>
<g>
</g>
<g>
</g>
<g>
</g>
<g>
</g>
<g>
</g>
<g>
</g>
<g>
</g>
<g>
</g>
<g>
</g>
<g>
</g>
<g>
</g>
</svg>
