<?xml version="1.0" encoding="iso-8859-1"?>
<!-- Generator: Adobe Illustrator 19.0.0, SVG Export Plug-In . SVG Version: 6.00 Build 0)  -->
<svg version="1.1" id="Layer_1" xmlns="http://www.w3.org/2000/svg" xmlns:xlink="http://www.w3.org/1999/xlink" x="0px" y="0px"
	 viewBox="0 0 512 512" style="enable-background:new 0 0 512 512;" xml:space="preserve">
<g>
	<g>
		<path d="M427.847,25.538H327.722V10.199C327.722,4.566,323.155,0,317.523,0H194.477c-5.633,0-10.199,4.566-10.199,10.199v15.339
			H84.153c-5.633,0-10.199,4.566-10.199,10.199v466.064c0,5.633,4.566,10.199,10.199,10.199h343.695
			c5.632,0,10.199-4.566,10.199-10.199V35.737C438.047,30.104,433.48,25.538,427.847,25.538z M204.677,20.398h102.648v30.677
			H204.677V20.398z M417.649,491.602h-0.001H94.352V45.936h89.926v15.339c0,5.633,4.566,10.199,10.199,10.199h123.046
			c5.632,0,10.199-4.566,10.199-10.199V45.936h89.926V491.602z"/>
	</g>
</g>
<g>
	<g>
		<path d="M163.426,134.074c-19.412,0-35.206,15.792-35.206,35.205c0,19.412,15.792,35.206,35.206,35.206
			c19.412,0,35.205-15.792,35.205-35.206C198.63,149.866,182.838,134.074,163.426,134.074z M163.426,184.084
			c-8.164,0-14.807-6.643-14.807-14.807c0-8.164,6.643-14.806,14.807-14.806s14.806,6.642,14.806,14.806
			C178.232,177.442,171.59,184.084,163.426,184.084z"/>
	</g>
</g>
<g>
	<g>
		<path d="M373.58,158.547H233.122c-5.633,0-10.199,4.566-10.199,10.199c0,5.633,4.566,10.199,10.199,10.199H373.58
			c5.632,0,10.199-4.566,10.199-10.199C383.779,163.113,379.211,158.547,373.58,158.547z"/>
	</g>
</g>
<g>
	<g>
		<path d="M163.426,241.545c-19.412,0-35.206,15.792-35.206,35.206c0,19.412,15.792,35.205,35.206,35.205
			c19.412,0,35.205-15.792,35.205-35.205C198.63,257.337,182.838,241.545,163.426,241.545z M163.426,291.555
			c-8.164,0-14.807-6.642-14.807-14.806s6.643-14.807,14.807-14.807s14.806,6.643,14.806,14.807S171.59,291.555,163.426,291.555z"/>
	</g>
</g>
<g>
	<g>
		<path d="M373.579,266.019H233.122c-5.633,0-10.199,4.566-10.199,10.199c0,5.633,4.566,10.199,10.199,10.199H373.58
			c5.632,0,10.199-4.566,10.199-10.199C383.779,270.585,379.213,266.019,373.579,266.019z"/>
	</g>
</g>
<g>
	<g>
		<path d="M163.426,349.016c-19.412,0-35.206,15.792-35.206,35.205c0,19.412,15.792,35.206,35.206,35.206
			c19.412,0,35.205-15.792,35.205-35.206C198.63,364.809,182.838,349.016,163.426,349.016z M163.426,399.028
			c-8.164,0-14.807-6.643-14.807-14.807c0-8.164,6.643-14.806,14.807-14.806s14.806,6.642,14.806,14.806
			C178.232,392.385,171.59,399.028,163.426,399.028z"/>
	</g>
</g>
<g>
	<g>
		<path d="M373.579,373.49h-2.659c-5.632,0-10.199,4.566-10.199,10.199c0,5.633,4.567,10.199,10.199,10.199h2.659
			c5.632,0,10.199-4.566,10.199-10.199C383.779,378.056,379.213,373.49,373.579,373.49z"/>
	</g>
</g>
<g>
	<g>
		<path d="M333.677,373.49H233.122c-5.633,0-10.199,4.566-10.199,10.199c0,5.633,4.566,10.199,10.199,10.199h100.555
			c5.632,0,10.199-4.566,10.199-10.199C343.876,378.056,339.31,373.49,333.677,373.49z"/>
	</g>
</g>
<g>
</g>
<g>
</g>
<g>
</g>
<g>
</g>
<g>
</g>
<g>
</g>
<g>
</g>
<g>
</g>
<g>
</g>
<g>
</g>
<g>
</g>
<g>
</g>
<g>
</g>
<g>
</g>
<g>
</g>
</svg>
