<?xml version="1.0" encoding="iso-8859-1"?>
<!-- Generator: Adobe Illustrator 19.0.0, SVG Export Plug-In . SVG Version: 6.00 Build 0)  -->
<svg version="1.1" id="Layer_1" xmlns="http://www.w3.org/2000/svg" xmlns:xlink="http://www.w3.org/1999/xlink" x="0px" y="0px"
	 viewBox="0 0 512 512" style="enable-background:new 0 0 512 512;" xml:space="preserve">
<g>
	<g>
		<path d="M396.149,160.094H276.497V140.86h63.592c5.633,0,10.199-4.566,10.199-10.199V91.593c0-5.633-4.566-10.199-10.199-10.199
			h-73.791c-5.633,0-10.199,4.566-10.199,10.199v68.5H115.851C51.971,160.093,0,212.063,0,275.944v144.463
			c0,5.633,4.566,10.199,10.199,10.199h491.602c5.633,0,10.199-4.566,10.199-10.199V275.944
			C512,212.064,460.029,160.094,396.149,160.094z M276.497,101.793h53.393v18.668h-53.393V101.793z M218.849,410.207H187.5v-0.001
			v-80.359c0-5.633-4.566-10.199-10.199-10.199s-10.199,4.566-10.199,10.199v80.359H131.44V291.037
			c0-5.633-4.566-10.199-10.199-10.199c-5.633,0-10.199,4.566-10.199,10.199v119.169H71.068V291.037
			c0-5.633-4.566-10.199-10.199-10.199c-5.633,0-10.199,4.566-10.199,10.199v119.169H20.398V275.944
			c0-52.632,42.819-95.451,95.452-95.451c56.794,0,102.999,46.204,102.999,102.998V410.207z M491.602,410.205H239.248V283.49
			c0-42.984-22.097-80.897-55.521-102.998H256.1v89.521h-0.001c0,18.999,15.457,34.456,34.456,34.456
			c18.999,0,34.456-15.457,34.456-34.456c0-18.999-15.457-34.456-34.456-34.456c-5.006,0-9.762,1.082-14.058,3.01v-58.077h119.652
			c52.632,0,95.452,42.819,95.452,95.451V410.205z M276.497,270.014c0-7.751,6.306-14.058,14.058-14.058s14.058,6.306,14.058,14.058
			s-6.306,14.058-14.058,14.058C282.804,284.072,276.497,277.766,276.497,270.014z"/>
	</g>
</g>
<g>
	<g>
		<path d="M177.301,280.838c-5.633,0-10.199,4.566-10.199,10.199v4.312c0,5.633,4.566,10.199,10.199,10.199
			s10.199-4.566,10.199-10.199v-4.312C187.5,285.404,182.934,280.838,177.301,280.838z"/>
	</g>
</g>
<g>
</g>
<g>
</g>
<g>
</g>
<g>
</g>
<g>
</g>
<g>
</g>
<g>
</g>
<g>
</g>
<g>
</g>
<g>
</g>
<g>
</g>
<g>
</g>
<g>
</g>
<g>
</g>
<g>
</g>
</svg>
