<?xml version="1.0" encoding="iso-8859-1"?>
<!-- Generator: Adobe Illustrator 19.0.0, SVG Export Plug-In . SVG Version: 6.00 Build 0)  -->
<svg version="1.1" id="Layer_1" xmlns="http://www.w3.org/2000/svg" xmlns:xlink="http://www.w3.org/1999/xlink" x="0px" y="0px"
	 viewBox="0 0 512 512" style="enable-background:new 0 0 512 512;" xml:space="preserve">
<g>
	<g>
		<path d="M501.801,0H10.199C4.566,0,0,4.567,0,10.199v491.602C0,507.433,4.566,512,10.199,512h491.602
			c5.632,0,10.199-4.567,10.199-10.199V10.199C512,4.567,507.433,0,501.801,0z M491.602,491.602H20.398V20.398h471.203V491.602z"/>
	</g>
</g>
<g>
	<g>
		<path d="M455.904,331.474H241.721c-5.633,0-10.199,4.567-10.199,10.199v111.171c0,5.632,4.566,10.199,10.199,10.199h214.183
			c5.632,0,10.199-4.567,10.199-10.199V341.673C466.104,336.041,461.536,331.474,455.904,331.474z M445.705,442.645H251.92v-90.773
			h193.785V442.645z"/>
	</g>
</g>
<g>
	<g>
		<path d="M419.187,287.618h-5.1c-5.632,0-10.199,4.567-10.199,10.199c0,5.632,4.567,10.199,10.199,10.199h5.1
			c5.632,0,10.199-4.567,10.199-10.199C429.386,292.185,424.819,287.618,419.187,287.618z"/>
	</g>
</g>
<g>
	<g>
		<path d="M379.41,287.618H241.721c-5.633,0-10.199,4.567-10.199,10.199c0,5.632,4.566,10.199,10.199,10.199H379.41
			c5.632,0,10.199-4.567,10.199-10.199C389.61,292.185,385.042,287.618,379.41,287.618z"/>
	</g>
</g>
<g>
	<g>
		<path d="M348.813,249.88H241.721c-5.633,0-10.199,4.567-10.199,10.199c0,5.632,4.566,10.199,10.199,10.199h107.092
			c5.632,0,10.199-4.567,10.199-10.199C359.012,254.448,354.445,249.88,348.813,249.88z"/>
	</g>
</g>
<g>
	<g>
		<path d="M382.47,212.143H241.721c-5.633,0-10.199,4.567-10.199,10.199c0,5.632,4.566,10.199,10.199,10.199H382.47
			c5.632,0,10.199-4.567,10.199-10.199C392.669,216.711,388.102,212.143,382.47,212.143z"/>
	</g>
</g>
<g>
	<g>
		<path d="M190.048,172.429l-57.25-57.251c-1.912-1.912-4.507-2.987-7.212-2.987c-2.705,0-5.3,1.075-7.212,2.987l-57.251,57.251
			c-3.983,3.983-3.983,10.441,0,14.425c1.991,1.991,4.602,2.987,7.212,2.987s5.221-0.996,7.212-2.987l39.84-39.84v242.808
			c0,5.632,4.566,10.199,10.199,10.199c5.633,0,10.199-4.567,10.199-10.199V147.014l39.839,39.839
			c3.984,3.982,10.442,3.983,14.424,0C194.031,182.871,194.032,176.413,190.048,172.429z"/>
	</g>
</g>
<g>
</g>
<g>
</g>
<g>
</g>
<g>
</g>
<g>
</g>
<g>
</g>
<g>
</g>
<g>
</g>
<g>
</g>
<g>
</g>
<g>
</g>
<g>
</g>
<g>
</g>
<g>
</g>
<g>
</g>
</svg>
