<?xml version="1.0" encoding="iso-8859-1"?>
<!-- Generator: Adobe Illustrator 19.0.0, SVG Export Plug-In . SVG Version: 6.00 Build 0)  -->
<svg version="1.1" id="Layer_1" xmlns="http://www.w3.org/2000/svg" xmlns:xlink="http://www.w3.org/1999/xlink" x="0px" y="0px"
	 viewBox="0 0 512 512" style="enable-background:new 0 0 512 512;" xml:space="preserve">
<g>
	<g>
		<path d="M501.801,0H10.199C4.567,0,0,4.567,0,10.199v491.602C0,507.433,4.567,512,10.199,512h491.602
			c5.632,0,10.199-4.567,10.199-10.199V10.199C512,4.567,507.433,0,501.801,0z M288.637,20.398h117.291v90.673l-51.74-47.599
			c-1.952-1.796-4.429-2.694-6.906-2.694c-2.477,0-4.953,0.898-6.906,2.694l-51.74,47.599V20.398z M405.928,491.602H288.637v-90.05
			l51.744,47.553c3.902,3.586,9.9,3.586,13.803,0l51.745-47.553V491.602z M426.327,491.602V378.327c0-4.047-2.393-7.712-6.098-9.338
			c-3.703-1.627-8.022-0.909-11.002,1.829l-61.944,56.926l-61.943-56.926c-2.981-2.739-7.299-3.457-11.002-1.829
			c-3.706,1.628-6.098,5.291-6.098,9.338v113.274H20.398V20.398h247.841v113.914c0,4.048,2.394,7.714,6.1,9.339
			c3.707,1.626,8.025,0.91,11.004-1.834l61.94-56.98l61.939,56.981c1.921,1.766,4.397,2.694,6.907,2.694
			c1.384,0,2.779-0.281,4.097-0.86c3.707-1.627,6.1-5.291,6.1-9.339V20.398h65.275v471.203H426.327z"/>
	</g>
</g>
<g>
	<g>
		<path d="M125.586,373.29c-5.632,0-10.199,4.567-10.199,10.199v6.334c0,5.632,4.567,10.199,10.199,10.199
			c5.632,0,10.199-4.567,10.199-10.199v-6.334C135.785,377.857,131.218,373.29,125.586,373.29z"/>
	</g>
</g>
<g>
	<g>
		<path d="M190.049,172.43l-57.251-57.251c-3.984-3.982-10.44-3.982-14.425,0L61.122,172.43c-3.983,3.983-3.983,10.441,0,14.425
			c3.984,3.982,10.44,3.982,14.425,0l39.84-39.84v202.818c0,5.632,4.567,10.199,10.199,10.199c5.632,0,10.199-4.567,10.199-10.199
			V147.014l39.84,39.84c1.992,1.991,4.602,2.987,7.212,2.987s5.22-0.996,7.212-2.987
			C194.032,182.872,194.032,176.414,190.049,172.43z"/>
	</g>
</g>
<g>
</g>
<g>
</g>
<g>
</g>
<g>
</g>
<g>
</g>
<g>
</g>
<g>
</g>
<g>
</g>
<g>
</g>
<g>
</g>
<g>
</g>
<g>
</g>
<g>
</g>
<g>
</g>
<g>
</g>
</svg>
