<?xml version="1.0" encoding="iso-8859-1"?>
<!-- Generator: Adobe Illustrator 19.0.0, SVG Export Plug-In . SVG Version: 6.00 Build 0)  -->
<svg version="1.1" id="Layer_1" xmlns="http://www.w3.org/2000/svg" xmlns:xlink="http://www.w3.org/1999/xlink" x="0px" y="0px"
	 viewBox="0 0 512.001 512.001" style="enable-background:new 0 0 512.001 512.001;" xml:space="preserve">
<g>
	<g>
		<path d="M505.171,205.065l-65.014-24.351l65.204-24.276c3.998-1.488,6.647-5.308,6.641-9.573
			c-0.006-4.265-2.666-8.077-6.668-9.554L349.994,79.993c-2.287-0.843-4.799-0.84-7.081,0.007l-86.935,32.287l-86.509-32.143
			c-2.283-0.85-4.796-0.851-7.082-0.008L7.048,137.454c-4.002,1.477-6.661,5.287-6.668,9.553c-0.007,4.265,2.642,8.085,6.64,9.574
			l64.623,24.072L6.66,204.691c-4.004,1.482-6.662,5.301-6.66,9.57c0.002,4.269,2.662,8.086,6.668,9.564L90.75,254.85v110.272
			c0,4.269,2.658,8.086,6.662,9.566l155.026,57.317c1.147,0.424,2.345,0.633,3.536,0.633c1.203,0,2.4-0.219,3.533-0.637l0.004,0.005
			l155.026-57.318c4.004-1.48,6.662-5.297,6.662-9.566V255.151l83.922-30.966c3.998-1.476,6.658-5.282,6.668-9.543
			C511.8,210.38,509.162,206.56,505.171,205.065z M346.475,100.438l125.98,46.485l-61.458,22.883l-125.712-46.641L346.475,100.438z
			 M39.92,147.068l125.985-46.486l60.77,22.579l-125.717,46.644L39.92,147.068z M39.629,214.245l61.319-22.684l125.65,46.554
			l-61.065,22.586L39.629,214.245z M245.777,407.794L111.15,358.019v-95.641l50.856,18.766c1.139,0.42,2.335,0.63,3.531,0.63
			c1.198,0,2.397-0.211,3.538-0.633l76.702-28.37V407.794z M255.977,227.247l-125.688-46.568l114.492-42.48v37.227
			c0,5.633,4.567,10.199,10.199,10.199c5.632,0,10.199-4.566,10.199-10.199v-37.965l116.484,43.218L255.977,227.247z
			 M400.804,358.018L400.804,358.018l-134.628,49.775v-154.96l76.503,28.652c1.153,0.431,2.364,0.648,3.577,0.648
			c1.195,0,2.392-0.21,3.531-0.63l51.017-18.825V358.018z M346.282,261.053l-61.088-22.878l125.789-46.605l61.341,22.975
			L346.282,261.053z"/>
	</g>
</g>
<g>
	<g>
		<path d="M254.98,193.785c-5.632,0-10.199,4.566-10.199,10.199v2.04c0,5.633,4.567,10.199,10.199,10.199
			c5.632,0,10.199-4.566,10.199-10.199v-2.04C265.179,198.351,260.612,193.785,254.98,193.785z"/>
	</g>
</g>
<g>
</g>
<g>
</g>
<g>
</g>
<g>
</g>
<g>
</g>
<g>
</g>
<g>
</g>
<g>
</g>
<g>
</g>
<g>
</g>
<g>
</g>
<g>
</g>
<g>
</g>
<g>
</g>
<g>
</g>
</svg>
