<?xml version="1.0" encoding="iso-8859-1"?>
<!-- Generator: Adobe Illustrator 19.0.0, SVG Export Plug-In . SVG Version: 6.00 Build 0)  -->
<svg version="1.1" id="Layer_1" xmlns="http://www.w3.org/2000/svg" xmlns:xlink="http://www.w3.org/1999/xlink" x="0px" y="0px"
	 viewBox="0 0 512 512" style="enable-background:new 0 0 512 512;" xml:space="preserve">
<g>
	<g>
		<path d="M255.999,0C164.898,0,90.782,74.117,90.782,165.219c0,30.277,8.271,59.878,23.911,85.636l88.974,169.197v81.75
			c0,5.633,4.567,10.199,10.199,10.199h84.269c5.632,0,10.199-4.566,10.199-10.199V420.05l88.974-169.196
			c15.639-25.758,23.911-55.358,23.911-85.636C421.217,74.117,347.101,0,255.999,0z M241.575,459.667l-17.511,17.511v-35.022
			L241.575,459.667z M238.489,427.732h35.022l-17.511,17.511L238.489,427.732z M238.489,491.602l17.51-17.511l17.511,17.511H238.489
			z M287.935,477.177l-17.511-17.51l17.511-17.511V477.177z M291.974,407.334h-25.775V291.13c0-5.633-4.567-10.199-10.199-10.199
			c-5.632,0-10.199,4.566-10.199,10.199v116.204h-25.775l-82.482-156.85c27.79-12.014,71.835-19.297,118.457-19.297
			s90.667,7.283,118.457,19.297L291.974,407.334z M384.267,232.507c-30.581-13.69-77.467-21.718-128.268-21.718
			s-97.686,8.028-128.268,21.718c-10.853-20.664-16.552-43.741-16.552-67.288c0.002-79.855,64.968-144.821,144.822-144.821
			s144.82,64.966,144.82,144.821C400.819,188.766,395.12,211.843,384.267,232.507z"/>
	</g>
</g>
<g>
	<g>
		<path d="M255.999,243.935c-5.632,0-10.199,4.566-10.199,10.199v5.138c0,5.633,4.567,10.199,10.199,10.199
			c5.632,0,10.199-4.566,10.199-10.199v-5.138C266.199,248.502,261.632,243.935,255.999,243.935z"/>
	</g>
</g>
<g>
</g>
<g>
</g>
<g>
</g>
<g>
</g>
<g>
</g>
<g>
</g>
<g>
</g>
<g>
</g>
<g>
</g>
<g>
</g>
<g>
</g>
<g>
</g>
<g>
</g>
<g>
</g>
<g>
</g>
</svg>
