<?xml version="1.0" encoding="iso-8859-1"?>
<!-- Generator: Adobe Illustrator 19.0.0, SVG Export Plug-In . SVG Version: 6.00 Build 0)  -->
<svg version="1.1" id="Layer_1" xmlns="http://www.w3.org/2000/svg" xmlns:xlink="http://www.w3.org/1999/xlink" x="0px" y="0px"
	 viewBox="0 0 512 512" style="enable-background:new 0 0 512 512;" xml:space="preserve">
<g>
	<g>
		<path d="M378.428,378.734c-2.938-0.42-5.917-0.826-8.929-1.218c-5.583-0.723-10.702,3.215-11.428,8.801
			c-0.725,5.586,3.216,10.702,8.801,11.428c2.925,0.379,5.815,0.773,8.667,1.182c0.49,0.069,0.977,0.104,1.457,0.104
			c4.992,0,9.356-3.671,10.084-8.756C387.878,384.7,384.004,379.533,378.428,378.734z"/>
	</g>
</g>
<g>
	<g>
		<path d="M417.637,385.688c-5.503-1.192-10.935,2.305-12.127,7.81c-1.192,5.505,2.304,10.935,7.81,12.127
			c59.758,12.941,75.548,29,75.548,35.684c0,6.346-13.365,20.411-63.456,32.877C380.284,485.417,320.119,491.602,256,491.602
			s-124.284-6.185-169.412-17.416c-50.091-12.466-63.456-26.531-63.456-32.877c0-6.147,11.115-16.971,42.441-27.246
			c30.127-9.882,73.029-17.202,121.065-20.678c33.405,34.926,62.064,55.259,63.492,56.265c1.76,1.239,3.816,1.858,5.87,1.858
			c2.054,0,4.109-0.619,5.87-1.858c1.706-1.2,42.258-29.964,83.351-78.252c24.228-28.47,43.559-57.826,57.455-87.251
			c17.538-37.139,26.431-74.498,26.431-111.039C429.107,77.656,351.451,0,256,0S82.893,77.656,82.893,173.107
			c0,36.541,8.893,73.899,26.431,111.039c13.896,29.426,33.227,58.781,57.455,87.251c0.842,0.989,1.684,1.958,2.525,2.931
			c-43.609,3.971-81.386,10.937-110.088,20.352c-37.48,12.293-56.483,27.982-56.483,46.629c0,21.916,26.556,39.637,78.929,52.672
			C128.354,505.601,190.268,512,256,512s127.646-6.399,174.338-18.019c52.373-13.035,78.929-30.756,78.929-52.672
			C509.267,417.568,478.439,398.854,417.637,385.688z M103.291,173.107c0-84.204,68.505-152.709,152.709-152.709
			s152.709,68.505,152.709,152.709c0,76.048-42.796,142.41-78.699,184.69c-30.531,35.954-61.434,61.13-74.014,70.793
			c-12.524-9.612-43.193-34.583-73.683-70.412C146.264,315.816,103.291,249.323,103.291,173.107z"/>
	</g>
</g>
<g>
	<g>
		<path d="M256,91.388c-45.06,0-81.72,36.659-81.72,81.72s36.66,81.719,81.72,81.719s81.72-36.659,81.72-81.72
			S301.06,91.388,256,91.388z M256,234.429c-33.812,0-61.322-27.508-61.322-61.322c0-33.813,27.509-61.321,61.322-61.321
			c33.812,0,61.322,27.508,61.322,61.322C317.322,206.921,289.812,234.429,256,234.429z"/>
	</g>
</g>
<g>
</g>
<g>
</g>
<g>
</g>
<g>
</g>
<g>
</g>
<g>
</g>
<g>
</g>
<g>
</g>
<g>
</g>
<g>
</g>
<g>
</g>
<g>
</g>
<g>
</g>
<g>
</g>
<g>
</g>
</svg>
