<?xml version="1.0" encoding="iso-8859-1"?>
<!-- Generator: Adobe Illustrator 19.0.0, SVG Export Plug-In . SVG Version: 6.00 Build 0)  -->
<svg version="1.1" id="Layer_1" xmlns="http://www.w3.org/2000/svg" xmlns:xlink="http://www.w3.org/1999/xlink" x="0px" y="0px"
	 viewBox="0 0 512 512" style="enable-background:new 0 0 512 512;" xml:space="preserve">
<g>
	<g>
		<path d="M501.801,9.541H169.518c-5.632,0-10.199,4.566-10.199,10.199v190.558c-18.168,6.765-34.38,18.7-46.223,34.179
			c-13.881,18.141-21.218,39.833-21.218,62.73c0,24.835,8.805,47.65,23.455,65.493l-12.027,12.027l-7.274-7.274
			c-1.913-1.912-4.507-2.987-7.212-2.987s-5.298,1.075-7.212,2.987l-72.619,72.62C3.192,455.869,0,463.575,0,471.772
			c0,8.196,3.192,15.903,8.989,21.698c5.796,5.795,13.501,8.989,21.698,8.989s15.903-3.192,21.698-8.988l72.62-72.62
			c1.912-1.912,2.987-4.507,2.987-7.212s-1.075-5.299-2.987-7.212l-7.274-7.274l12.027-12.027
			c17.844,14.65,40.659,23.455,65.494,23.455c35.66,0,68.643-18.384,87.507-48.357h219.042c5.632,0,10.199-4.566,10.199-10.199
			V19.741C512,14.109,507.433,9.541,501.801,9.541z M37.96,479.046c-1.943,1.943-4.526,3.013-7.274,3.013s-5.331-1.07-7.274-3.014
			c-1.943-1.944-3.014-4.525-3.014-7.273s1.071-5.331,3.014-7.274L88.82,399.09l14.549,14.549L37.96,479.046z M195.252,390.183
			c-45.753,0-82.975-37.222-82.975-82.975c0-32.101,18.784-61.146,47.043-74.779v119.595c0,5.633,4.567,10.199,10.199,10.199h87.842
			C241.788,379.79,219.273,390.183,195.252,390.183z M270.66,341.824h-90.943V225.717c5.125-0.978,10.325-1.484,15.533-1.484
			c45.752,0,82.975,37.222,82.975,82.975C278.225,319.171,275.618,331.021,270.66,341.824z M491.602,341.824H292.66
			c3.926-11.067,5.964-22.801,5.964-34.617c0-57-46.373-103.373-103.373-103.373c-5.202,0-10.392,0.395-15.533,1.177V29.94h311.885
			V341.824z"/>
	</g>
</g>
<g>
	<g>
		<path d="M271.672,47.71h-63.986c-5.632,0-10.199,4.566-10.199,10.199v63.987c0,5.633,4.566,10.199,10.199,10.199h63.986
			c5.632,0,10.199-4.566,10.199-10.199V57.909C281.871,52.276,277.304,47.71,271.672,47.71z M261.473,111.697h-43.587V68.108h43.587
			V111.697z"/>
	</g>
</g>
<g>
	<g>
		<path d="M463.633,47.71h-63.987c-5.632,0-10.199,4.566-10.199,10.199v53.788H335.66c-5.632,0-10.199,4.566-10.199,10.199v63.987
			c0,5.633,4.566,10.199,10.199,10.199h63.987c5.632,0,10.199-4.566,10.199-10.199v-53.788h53.788
			c5.632,0,10.199-4.566,10.199-10.199V57.909C473.833,52.276,469.265,47.71,463.633,47.71z M389.447,175.683h-43.588v-43.588
			h43.588V175.683z M453.434,111.697h-43.588V68.108h43.588V111.697z"/>
	</g>
</g>
<g>
	<g>
		<path d="M399.647,239.67H335.66c-5.632,0-10.199,4.566-10.199,10.199v63.987c0,5.633,4.566,10.199,10.199,10.199h63.987
			c5.632,0,10.199-4.566,10.199-10.199v-63.987C409.846,244.236,405.279,239.67,399.647,239.67z M389.447,303.657h-43.588v-43.588
			h43.588V303.657z"/>
	</g>
</g>
<g>
	<g>
		<path d="M202.964,237.641c-5.632,0-10.199,4.566-10.199,10.199v2.04c0,5.633,4.567,10.199,10.199,10.199
			c5.632,0,10.199-4.566,10.199-10.199v-2.04C213.163,242.208,208.596,237.641,202.964,237.641z"/>
	</g>
</g>
<g>
	<g>
		<path d="M202.964,270.279c-5.632,0-10.199,4.566-10.199,10.199v40.797c0,5.633,4.567,10.199,10.199,10.199
			c5.632,0,10.199-4.566,10.199-10.199v-40.797C213.163,274.845,208.596,270.279,202.964,270.279z"/>
	</g>
</g>
<g>
</g>
<g>
</g>
<g>
</g>
<g>
</g>
<g>
</g>
<g>
</g>
<g>
</g>
<g>
</g>
<g>
</g>
<g>
</g>
<g>
</g>
<g>
</g>
<g>
</g>
<g>
</g>
<g>
</g>
</svg>
