<?xml version="1.0" encoding="iso-8859-1"?>
<!-- Generator: Adobe Illustrator 19.0.0, SVG Export Plug-In . SVG Version: 6.00 Build 0)  -->
<svg version="1.1" id="Layer_1" xmlns="http://www.w3.org/2000/svg" xmlns:xlink="http://www.w3.org/1999/xlink" x="0px" y="0px"
	 viewBox="0 0 512 512" style="enable-background:new 0 0 512 512;" xml:space="preserve">
<g>
	<g>
		<path d="M501.801,411.03h-3.06c-5.633,0-10.199,4.567-10.199,10.199c0,5.632,4.567,10.199,10.199,10.199h3.06
			c5.633,0,10.199-4.567,10.199-10.199C512,415.597,507.434,411.03,501.801,411.03z"/>
	</g>
</g>
<g>
	<g>
		<path d="M458.964,411.03H10.199C4.566,411.03,0,415.597,0,421.229c0,5.632,4.566,10.199,10.199,10.199h448.765
			c5.633,0,10.199-4.567,10.199-10.199C469.163,415.597,464.597,411.03,458.964,411.03z"/>
	</g>
</g>
<g>
	<g>
		<path d="M501.801,462.026H10.199C4.566,462.026,0,466.593,0,472.225c0,5.632,4.566,10.199,10.199,10.199h491.602
			c5.633,0,10.199-4.567,10.199-10.199C512,466.593,507.434,462.026,501.801,462.026z"/>
	</g>
</g>
<g>
	<g>
		<path d="M439.663,103.961l-71.397-71.398c-1.912-1.912-4.507-2.987-7.212-2.987s-5.299,1.075-7.212,2.987l-71.398,71.398
			c-3.983,3.983-3.983,10.441,0,14.425c3.983,3.982,10.441,3.982,14.424-0.001l53.987-53.987v308.894
			c0,5.632,4.566,10.199,10.199,10.199c5.633,0,10.199-4.567,10.199-10.199V64.399l53.986,53.987
			c1.992,1.991,4.602,2.987,7.212,2.987s5.221-0.996,7.212-2.987C443.646,114.403,443.647,107.945,439.663,103.961z"/>
	</g>
</g>
<g>
	<g>
		<path d="M229.558,103.961l-71.398-71.398c-1.912-1.912-4.507-2.987-7.212-2.987s-5.299,1.075-7.212,2.987l-71.397,71.398
			c-3.983,3.983-3.983,10.441,0,14.425c1.99,1.99,4.601,2.986,7.211,2.986s5.221-0.996,7.212-2.987l53.986-53.987v308.894
			c0,5.632,4.566,10.199,10.199,10.199s10.199-4.567,10.199-10.199V64.399l53.987,53.987c3.983,3.982,10.441,3.982,14.425,0
			C233.54,114.403,233.54,107.945,229.558,103.961z"/>
	</g>
</g>
<g>
</g>
<g>
</g>
<g>
</g>
<g>
</g>
<g>
</g>
<g>
</g>
<g>
</g>
<g>
</g>
<g>
</g>
<g>
</g>
<g>
</g>
<g>
</g>
<g>
</g>
<g>
</g>
<g>
</g>
</svg>
