<?xml version="1.0" encoding="iso-8859-1"?>
<!-- Generator: Adobe Illustrator 19.0.0, SVG Export Plug-In . SVG Version: 6.00 Build 0)  -->
<svg version="1.1" id="Layer_1" xmlns="http://www.w3.org/2000/svg" xmlns:xlink="http://www.w3.org/1999/xlink" x="0px" y="0px"
	 viewBox="0 0 512 512" style="enable-background:new 0 0 512 512;" xml:space="preserve">
<g>
	<g>
		<path d="M502.229,421.973L395.546,315.289c-8.57-8.569-21.137-11.825-32.787-8.495l-2.288,0.654
			c-3.332,0.952-6.482,2.409-9.364,4.331l-16.421,10.957c-0.004,0.003-0.008,0.006-0.012,0.009l-8.353,5.573
			c-12.765,8.518-29.637,8.065-41.982-1.128c-39.524-29.435-74.266-64.565-103.26-104.413c-10.607-14.58-9.061-34.404,3.674-47.143
			c0.001-0.001,0.003-0.002,0.004-0.003l11.954-11.955c4.002-4.003,6.94-8.995,8.495-14.438c3.33-11.652,0.075-24.214-8.496-32.785
			L90.027,9.771C80.79,0.534,66.919-2.468,54.689,2.117l-2.714,1.018c-4.79,1.795-9.143,4.689-12.588,8.365
			c-3.255,3.475-6.434,7.149-9.445,10.92c-50.462,63.174-36.81,139.408,38.442,214.66L274.92,443.615
			C320.327,489.021,366.089,512,409.126,512c28.287,0,55.4-9.928,80.454-29.942c0.001-0.001,0.002-0.001,0.002-0.002
			c3.773-3.016,7.446-6.192,10.917-9.444c3.677-3.446,6.569-7.798,8.364-12.584l1.019-2.719
			C514.468,445.079,511.464,431.209,502.229,421.973z M54.277,25.45c1.312-1.401,2.992-2.511,4.861-3.21l2.717-1.019
			c4.759-1.782,10.153-0.615,13.745,2.978l106.683,106.683c3.334,3.334,4.6,8.22,3.305,12.753c-0.605,2.117-1.747,4.059-3.305,5.617
			l-4.74,4.74L51.756,28.204C52.59,27.272,53.431,26.354,54.277,25.45z M289.347,429.187L82.812,222.652
			C37.569,177.41-5.383,110.605,39.093,44.395l124.661,124.661c-13.616,19.562-13.677,45.788,0.827,65.725
			c30.204,41.512,66.397,78.109,107.572,108.773c19.246,14.333,45.566,15.033,65.493,1.736l1.405-0.938l128.553,128.553
			C401.392,517.384,334.589,474.43,289.347,429.187z M490.779,450.144l-1.019,2.717c0,0.001,0,0.002-0.001,0.003
			c-0.7,1.867-1.809,3.548-3.209,4.86c-0.903,0.846-1.821,1.686-2.753,2.52L356.358,332.805l6.074-4.054
			c1.121-0.748,2.345-1.314,3.643-1.685l2.29-0.655c4.532-1.297,9.419-0.029,12.753,3.305l106.683,106.683
			C491.393,439.991,492.562,445.388,490.779,450.144z"/>
	</g>
</g>
<g>
	<g>
		<path d="M253.236,111.8c-5.634,0-10.201,4.568-10.201,10.201c0,5.633,4.567,10.201,10.201,10.201
			c70.008,0,126.964,56.955,126.964,126.964c0,5.633,4.568,10.201,10.201,10.201c5.633,0,10.201-4.568,10.201-10.201
			C400.602,177.908,334.494,111.8,253.236,111.8z"/>
	</g>
</g>
<g>
	<g>
		<path d="M469.615,252.697c-0.164-5.632-4.88-10.078-10.494-9.9c-5.632,0.164-10.065,4.862-9.901,10.494
			c0.058,1.966,0.087,3.942,0.087,5.876c0,5.633,4.568,10.201,10.201,10.201c5.633,0,10.201-4.568,10.201-10.201
			C469.71,257.035,469.678,254.858,469.615,252.697z"/>
	</g>
</g>
<g>
	<g>
		<path d="M465.59,216.941C445.621,115.975,356.313,42.695,253.236,42.695c-5.634,0-10.201,4.568-10.201,10.201
			c0,5.633,4.567,10.2,10.201,10.2c93.364,0,174.254,66.365,192.34,157.802c0.96,4.859,5.224,8.224,9.996,8.224
			c0.656,0,1.322-0.064,1.99-0.196C463.09,227.835,466.684,222.468,465.59,216.941z"/>
	</g>
</g>
<g>
</g>
<g>
</g>
<g>
</g>
<g>
</g>
<g>
</g>
<g>
</g>
<g>
</g>
<g>
</g>
<g>
</g>
<g>
</g>
<g>
</g>
<g>
</g>
<g>
</g>
<g>
</g>
<g>
</g>
</svg>
