<?xml version="1.0" encoding="iso-8859-1"?>
<!-- Generator: Adobe Illustrator 19.0.0, SVG Export Plug-In . SVG Version: 6.00 Build 0)  -->
<svg version="1.1" id="Layer_1" xmlns="http://www.w3.org/2000/svg" xmlns:xlink="http://www.w3.org/1999/xlink" x="0px" y="0px"
	 viewBox="0 0 512 512" style="enable-background:new 0 0 512 512;" xml:space="preserve">
<g>
	<g>
		<path d="M452.183,33.262V10.199C452.183,4.567,447.616,0,441.983,0H70.017c-5.633,0-10.199,4.567-10.199,10.199v23.062
			c0,55.769,30.358,104.576,75.413,130.78H70.017c-5.633,0-10.199,4.567-10.199,10.199v23.012c0,55.631,30.267,104.32,75.196,130.48
			H70.017c-5.633,0-10.199,4.567-10.199,10.199c0,45.974,13.313,89.292,37.486,121.973C122.152,493.499,155.489,512,191.176,512
			h129.648c35.686,0,69.025-18.501,93.872-52.093c24.173-32.681,37.486-75.999,37.486-121.973c0-5.632-4.567-10.199-10.199-10.199
			h-64.996c44.927-26.161,75.196-74.85,75.196-130.48v-23.012c0-5.632-4.567-10.199-10.199-10.199H376.77
			C421.824,137.838,452.183,89.031,452.183,33.262z M256,23.011c38.162,0,69.209,31.046,69.209,69.209
			c0,38.162-31.046,69.209-69.209,69.209s-69.209-31.046-69.209-69.209S217.838,23.011,256,23.011z M325.209,256.261
			c0,38.162-31.046,69.209-69.209,69.209s-69.209-31.046-69.209-69.209s31.047-69.209,69.209-69.209
			C294.162,187.052,325.209,218.099,325.209,256.261z M80.216,33.262V20.398h122.258c-21.887,16.353-36.082,42.461-36.082,71.822
			c0,29.177,14.02,55.139,35.674,71.511C134.104,159.125,80.216,102.372,80.216,33.262z M80.216,197.254V184.44h122.257
			c-21.886,16.353-36.081,42.46-36.081,71.821c0,28.965,13.818,54.76,35.205,71.151C133.88,322.723,80.216,266.142,80.216,197.254z
			 M191.175,491.602c-58.707,0-106.912-63.475-110.717-143.469h121.787c-21.756,16.365-35.852,42.39-35.852,71.647
			c0,29.36,14.195,55.468,36.082,71.822H191.175z M256,488.989c-38.162,0-69.209-31.046-69.209-69.209s31.047-69.209,69.209-69.209
			c38.162,0,69.209,31.046,69.209,69.209S294.162,488.989,256,488.989z M431.541,348.133
			c-3.804,79.994-52.01,143.469-110.717,143.469h-11.299c21.887-16.353,36.082-42.461,36.082-71.822
			c0-29.257-14.096-55.283-35.852-71.647H431.541z M431.784,184.44v12.813c0,68.888-53.663,125.47-121.381,130.158
			c21.387-16.391,35.205-42.186,35.205-71.151c0-29.36-14.194-55.467-36.081-71.821H431.784z M309.933,163.731
			c21.654-16.372,35.674-42.334,35.674-71.511c0-29.36-14.195-55.468-36.082-71.822h122.258v12.863
			C431.784,102.372,377.897,159.125,309.933,163.731z"/>
	</g>
</g>
<g>
	<g>
		<path d="M274.705,214.569c-3.984-3.982-10.44-3.982-14.425,0l-45.973,45.974c-3.983,3.983-3.983,10.441,0,14.425
			c1.992,1.991,4.602,2.987,7.212,2.987s5.221-0.996,7.212-2.987l45.973-45.974C278.688,225.01,278.688,218.552,274.705,214.569z"/>
	</g>
</g>
<g>
	<g>
		<path d="M297.169,237.033c-3.984-3.982-10.44-3.982-14.424,0l-45.973,45.974c-3.983,3.983-3.983,10.441,0,14.425
			c1.992,1.991,4.602,2.987,7.212,2.987s5.221-0.996,7.212-2.987l45.973-45.974C301.152,247.474,301.152,241.016,297.169,237.033z"
			/>
	</g>
</g>
<g>
	<g>
		<path d="M274.705,378.611c-3.984-3.982-10.44-3.982-14.425,0l-45.973,45.973c-3.983,3.983-3.983,10.441,0,14.425
			c1.992,1.991,4.602,2.987,7.212,2.987s5.221-0.996,7.212-2.987l45.973-45.973C278.688,389.052,278.688,382.594,274.705,378.611z"
			/>
	</g>
</g>
<g>
	<g>
		<path d="M297.169,401.075c-3.984-3.982-10.44-3.982-14.424,0l-45.973,45.973c-3.983,3.983-3.983,10.441,0,14.425
			c1.992,1.991,4.602,2.987,7.212,2.987s5.221-0.996,7.212-2.987l45.973-45.973C301.152,411.516,301.152,405.058,297.169,401.075z"
			/>
	</g>
</g>
<g>
	<g>
		<path d="M274.705,49.481c-3.984-3.982-10.44-3.982-14.425,0l-2.314,2.314c-3.983,3.983-3.983,10.441,0,14.425
			c1.993,1.992,4.602,2.987,7.213,2.987c2.611,0,5.22-0.996,7.212-2.987l2.314-2.314C278.688,59.923,278.688,53.465,274.705,49.481z
			"/>
	</g>
</g>
<g>
	<g>
		<path d="M250.973,73.215c-3.983-3.982-10.441-3.982-14.425,0l-22.241,22.241c-3.983,3.983-3.983,10.441,0,14.425
			c1.992,1.991,4.602,2.987,7.212,2.987s5.221-0.996,7.212-2.987l22.241-22.241C254.957,83.656,254.957,77.198,250.973,73.215z"/>
	</g>
</g>
<g>
	<g>
		<path d="M297.169,71.947c-3.984-3.982-10.44-3.982-14.424,0l-45.973,45.973c-3.983,3.983-3.983,10.441,0,14.425
			c1.992,1.991,4.602,2.987,7.212,2.987s5.221-0.996,7.212-2.987l45.973-45.973C301.152,82.389,301.152,75.931,297.169,71.947z"/>
	</g>
</g>
<g>
</g>
<g>
</g>
<g>
</g>
<g>
</g>
<g>
</g>
<g>
</g>
<g>
</g>
<g>
</g>
<g>
</g>
<g>
</g>
<g>
</g>
<g>
</g>
<g>
</g>
<g>
</g>
<g>
</g>
</svg>
