<?xml version="1.0" encoding="iso-8859-1"?>
<!-- Generator: Adobe Illustrator 19.0.0, SVG Export Plug-In . SVG Version: 6.00 Build 0)  -->
<svg version="1.1" id="Layer_1" xmlns="http://www.w3.org/2000/svg" xmlns:xlink="http://www.w3.org/1999/xlink" x="0px" y="0px"
	 viewBox="0 0 512 512" style="enable-background:new 0 0 512 512;" xml:space="preserve">
<g>
	<g>
		<path d="M437.019,74.982C388.667,26.628,324.381,0,256,0S123.333,26.628,74.982,74.982C26.628,123.333,0,187.619,0,256
			s26.628,132.667,74.982,181.019C123.333,485.372,187.619,512,256,512s132.667-26.628,181.019-74.981
			C485.372,388.667,512,324.381,512,256S485.372,123.333,437.019,74.982z M197.608,27.74c-13.53,12.776-25.888,30.125-36.567,51.664
			c-2,4.034-3.918,8.188-5.764,12.437c-14.06-6.703-27.541-14.868-40.305-24.459C139.315,49.135,167.298,35.498,197.608,27.74z
			 M98.792,80.677c15.396,12.026,31.792,22.116,48.979,30.195c-14.085,39.437-22.142,85.959-23.211,134.929H20.631
			C23.434,180.342,53.065,121.72,98.792,80.677z M20.631,266.199h103.891c0.881,49.356,8.849,96.3,22.935,136.098
			c-16.845,7.946-32.926,17.827-48.05,29.57C53.333,390.799,23.446,331.949,20.631,266.199z M115.664,445.125
			c12.447-9.284,25.569-17.221,39.242-23.769c1.957,4.547,4.001,8.979,6.135,13.281c9.926,20.018,21.302,36.418,33.721,48.892
			C165.827,475.734,139.081,462.546,115.664,445.125z M245.801,490.578c-24.622-4.92-47.92-27.561-66.486-65.002
			c-1.959-3.952-3.837-8.028-5.64-12.205c22.929-8.573,47.149-13.441,72.126-14.397V490.578z M245.801,378.565
			c-27.557,0.969-54.271,6.304-79.533,15.783c-13.074-37.364-20.483-81.539-21.345-128.149h100.878V378.565z M245.801,245.801
			H144.959c1.046-46.235,8.55-89.998,21.63-127.009c25.168,9.404,51.771,14.698,79.211,15.663V245.801z M245.801,114.046
			c-24.837-0.952-48.927-5.769-71.741-14.253c1.687-3.869,3.434-7.654,5.256-11.328c18.565-37.441,41.865-60.083,66.486-65.003
			V114.046z M266.199,491.383V20.617C391.397,25.976,491.602,129.506,491.602,256S391.397,486.024,266.199,491.383z"/>
	</g>
</g>
<g>
	<g>
		<path d="M342.824,428.576c-4.955-2.679-11.144-0.837-13.825,4.115c-0.711,1.315-1.43,2.612-2.158,3.889
			c-2.785,4.896-1.076,11.123,3.82,13.91c1.593,0.907,3.326,1.337,5.036,1.337c3.547,0,6.993-1.853,8.873-5.157
			c0.798-1.403,1.589-2.827,2.369-4.27C349.62,437.446,347.778,431.257,342.824,428.576z"/>
	</g>
</g>
<g>
	<g>
		<path d="M422.357,189.59l-46.469-39.819c-4.278-3.664-10.715-3.168-14.382,1.109l-39.819,46.469
			c-3.666,4.277-3.168,10.716,1.109,14.382c1.924,1.647,4.283,2.454,6.632,2.454c2.874,0,5.732-1.21,7.75-3.563l24.122-28.151
			c3.891,23.972,5.871,49.048,5.871,74.549c0,51.809-8.043,101.023-23.259,142.323c-1.947,5.286,0.759,11.149,6.045,13.097
			c1.164,0.428,2.354,0.631,3.525,0.631c4.151,0,8.053-2.554,9.572-6.676c16.038-43.533,24.516-95.185,24.516-149.375
			c0-25.707-1.948-51.014-5.748-75.302l27.263,23.362c4.276,3.663,10.714,3.167,14.382-1.109
			C427.131,199.694,426.635,193.255,422.357,189.59z"/>
	</g>
</g>
<g>
</g>
<g>
</g>
<g>
</g>
<g>
</g>
<g>
</g>
<g>
</g>
<g>
</g>
<g>
</g>
<g>
</g>
<g>
</g>
<g>
</g>
<g>
</g>
<g>
</g>
<g>
</g>
<g>
</g>
</svg>
