<?xml version="1.0" encoding="iso-8859-1"?>
<!-- Generator: Adobe Illustrator 19.0.0, SVG Export Plug-In . SVG Version: 6.00 Build 0)  -->
<svg version="1.1" id="Layer_1" xmlns="http://www.w3.org/2000/svg" xmlns:xlink="http://www.w3.org/1999/xlink" x="0px" y="0px"
	 viewBox="0 0 512.001 512.001" style="enable-background:new 0 0 512.001 512.001;" xml:space="preserve">
<g>
	<g>
		<path d="M265.194,430.304c-2.448-6.903-7.436-12.438-14.048-15.589c-6.613-3.15-14.058-3.537-20.959-1.089
			c-14.25,5.053-21.733,20.757-16.679,35.008c3.983,11.23,14.581,18.257,25.869,18.257c3.034,0,6.118-0.508,9.137-1.578
			c6.904-2.448,12.44-7.437,15.591-14.05C267.256,444.65,267.643,437.208,265.194,430.304z M245.692,442.49
			c-0.807,1.694-2.225,2.972-3.993,3.598c-3.649,1.296-7.672-0.622-8.966-4.271c-1.294-3.649,0.622-7.672,4.271-8.966
			c0.768-0.272,1.561-0.408,2.353-0.408c1.031,0,2.058,0.231,3.016,0.686c1.693,0.807,2.97,2.224,3.597,3.992
			C246.596,438.891,246.498,440.797,245.692,442.49z"/>
	</g>
</g>
<g>
	<g>
		<path d="M511.412,341.433c-1.883-5.308-7.713-8.086-13.021-6.204l-8.01,2.84l-51.354-144.827c-0.904-2.55-2.783-4.634-5.225-5.799
			c-2.444-1.163-5.247-1.31-7.796-0.405l-165.091,58.54c-5.308,1.883-8.087,7.712-6.204,13.021l51.354,144.827l-7.713,2.735
			c-15.867-28.134-50.186-41.719-81.648-30.562c-35.218,12.487-53.71,51.299-41.223,86.519
			c9.842,27.756,36.034,45.123,63.933,45.123c7.5,0,15.124-1.255,22.585-3.901c32.431-11.5,50.656-45.32,43.591-78.103
			l199.617-70.784C510.516,352.571,513.294,346.741,511.412,341.433z M255.183,484.114c-24.616,8.726-51.747-4.197-60.477-28.814
			c-8.729-24.618,4.198-51.748,28.815-60.477c5.217-1.849,10.544-2.726,15.787-2.726c19.499,0,37.809,12.141,44.689,31.541
			C292.727,448.256,279.799,475.385,255.183,484.114z M423.43,361.809l-98.14,34.8l-47.947-135.215l145.867-51.723l47.947,135.215
			L423.43,361.809z"/>
	</g>
</g>
<g>
	<g>
		<path d="M205.178,314.049l-96.45-272.003c-4.994-14.088-15.177-25.387-28.67-31.815c-13.493-6.428-28.682-7.22-42.771-2.223
			C23.198,13.002,11.9,23.184,5.472,36.678c-6.43,13.493-7.221,28.683-2.224,42.771l9.044,25.506
			c1.883,5.31,7.713,8.086,13.021,6.204c5.31-1.883,8.087-7.712,6.204-13.021l-9.044-25.505c-3.174-8.953-2.672-18.605,1.414-27.18
			c4.086-8.575,11.267-15.045,20.218-18.22c18.481-6.552,38.847,3.151,45.4,21.631l96.45,272.004
			c1.483,4.18,5.414,6.791,9.611,6.791c1.131,0,2.281-0.19,3.408-0.589C204.282,325.187,207.061,319.357,205.178,314.049z"/>
	</g>
</g>
<g>
	<g>
		<path d="M218.198,350.765l-1.446-4.08c-1.883-5.31-7.712-8.089-13.021-6.205c-5.31,1.883-8.088,7.711-6.206,13.021l1.446,4.08
			c1.483,4.183,5.416,6.794,9.613,6.794c1.13,0,2.28-0.19,3.407-0.59C217.301,361.904,220.079,356.074,218.198,350.765z"/>
	</g>
</g>
<g>
	<g>
		<path d="M397.47,276.646l-29.67-14.137c-2.443-1.163-5.246-1.308-7.795-0.405c-2.55,0.904-4.635,2.783-5.799,5.226L340.07,297
			c-2.423,5.085-0.265,11.172,4.821,13.594c1.416,0.674,2.91,0.994,4.379,0.994c3.81,0,7.466-2.146,9.214-5.814l3.546-7.442
			l14.364,40.511c1.483,4.183,5.415,6.793,9.612,6.793c1.131,0,2.281-0.19,3.408-0.589c5.308-1.883,8.087-7.712,6.204-13.021
			l-14.364-40.511l7.442,3.546c5.083,2.422,11.171,0.264,13.593-4.821C404.714,285.156,402.556,279.069,397.47,276.646z"/>
	</g>
</g>
<g>
</g>
<g>
</g>
<g>
</g>
<g>
</g>
<g>
</g>
<g>
</g>
<g>
</g>
<g>
</g>
<g>
</g>
<g>
</g>
<g>
</g>
<g>
</g>
<g>
</g>
<g>
</g>
<g>
</g>
</svg>
