<?xml version="1.0" encoding="iso-8859-1"?>
<!-- Generator: Adobe Illustrator 19.0.0, SVG Export Plug-In . SVG Version: 6.00 Build 0)  -->
<svg version="1.1" id="Layer_1" xmlns="http://www.w3.org/2000/svg" xmlns:xlink="http://www.w3.org/1999/xlink" x="0px" y="0px"
	 viewBox="0 0 512 512" style="enable-background:new 0 0 512 512;" xml:space="preserve">
<g>
	<g>
		<path d="M167.882,421.108c-14.575,0-26.432,11.857-26.432,26.432c0,14.575,11.857,26.431,26.432,26.431
			c14.575,0,26.431-11.857,26.431-26.431C194.314,432.964,182.457,421.108,167.882,421.108z M167.882,453.572
			c-3.327,0-6.034-2.706-6.034-6.033s2.707-6.034,6.034-6.034c3.327,0,6.033,2.707,6.033,6.034S171.209,453.572,167.882,453.572z"/>
	</g>
</g>
<g>
	<g>
		<path d="M430.843,435.949h-7.424V86.259c0-5.633-4.566-10.199-10.199-10.199H248.116c-5.633,0-10.199,4.566-10.199,10.199v349.69
			h-6.638c-5.477-30.028-31.811-52.871-63.396-52.871c-35.544,0-64.461,28.918-64.461,64.461S132.338,512,167.882,512
			c32.555,0,59.534-24.263,63.844-55.653h199.117c5.633,0,10.199-4.566,10.199-10.199S436.476,435.949,430.843,435.949z
			 M167.882,491.602c-24.297,0-44.063-19.766-44.063-44.063c0-24.297,19.766-44.063,44.063-44.063
			c24.295,0,44.063,19.766,44.063,44.063C211.945,471.836,192.178,491.602,167.882,491.602z M403.02,435.949H258.315v-69.574H403.02
			V435.949z M403.02,345.976H258.315v-69.574H403.02V345.976z M403.02,256.004H258.315V186.43H403.02V256.004z M403.02,166.032
			H258.315V96.458H403.02V166.032z"/>
	</g>
</g>
<g>
	<g>
		<path d="M124.287,0c-29.406,0-53.33,23.924-53.33,53.331v25.508c0,5.633,4.566,10.199,10.199,10.199
			c5.633,0,10.199-4.566,10.199-10.199V53.331c0-18.159,14.773-32.932,32.931-32.932c18.159,0,32.932,14.774,32.932,32.932v272.024
			c0,5.633,4.566,10.199,10.199,10.199c5.633,0,10.199-4.566,10.199-10.199V53.331C177.618,23.924,153.693,0,124.287,0z"/>
	</g>
</g>
<g>
	<g>
		<path d="M167.418,347.793c-5.633,0-10.199,4.566-10.199,10.199v4.08c0,5.633,4.566,10.199,10.199,10.199
			c5.633,0,10.199-4.566,10.199-10.199v-4.08C177.618,352.359,173.051,347.793,167.418,347.793z"/>
	</g>
</g>
<g>
	<g>
		<path d="M361.277,374.73h-63.073c-5.633,0-10.199,4.566-10.199,10.199c0,5.633,4.566,10.199,10.199,10.199h63.073
			c5.633,0,10.199-4.566,10.199-10.199C371.476,379.296,366.91,374.73,361.277,374.73z"/>
	</g>
</g>
<g>
	<g>
		<path d="M361.277,284.758h-63.073c-5.633,0-10.199,4.566-10.199,10.199c0,5.633,4.566,10.199,10.199,10.199h63.073
			c5.633,0,10.199-4.566,10.199-10.199C371.476,289.324,366.91,284.758,361.277,284.758z"/>
	</g>
</g>
<g>
	<g>
		<path d="M361.276,194.785h-63.073c-5.633,0-10.199,4.566-10.199,10.199s4.566,10.199,10.199,10.199h63.073
			c5.633,0,10.199-4.566,10.199-10.199S366.909,194.785,361.276,194.785z"/>
	</g>
</g>
<g>
	<g>
		<path d="M361.277,104.813h-63.073c-5.633,0-10.199,4.566-10.199,10.199c0,5.633,4.566,10.199,10.199,10.199h63.073
			c5.633,0,10.199-4.566,10.199-10.199C371.476,109.379,366.91,104.813,361.277,104.813z"/>
	</g>
</g>
<g>
</g>
<g>
</g>
<g>
</g>
<g>
</g>
<g>
</g>
<g>
</g>
<g>
</g>
<g>
</g>
<g>
</g>
<g>
</g>
<g>
</g>
<g>
</g>
<g>
</g>
<g>
</g>
<g>
</g>
</svg>
