<?xml version="1.0" encoding="iso-8859-1"?>
<!-- Generator: Adobe Illustrator 19.0.0, SVG Export Plug-In . SVG Version: 6.00 Build 0)  -->
<svg version="1.1" id="Layer_1" xmlns="http://www.w3.org/2000/svg" xmlns:xlink="http://www.w3.org/1999/xlink" x="0px" y="0px"
	 viewBox="0 0 512 512" style="enable-background:new 0 0 512 512;" xml:space="preserve">
<g>
	<g>
		<path d="M362.129,188.69l-25.382-25.382c-22.747-22.746-35.274-52.99-35.274-85.158V65.191h14.437
			c17.973,0,32.596-14.623,32.596-32.596S333.883,0,315.91,0H196.09c-17.973,0-32.596,14.623-32.596,32.596
			s14.623,32.596,32.596,32.596h14.436V78.15c0,32.168-12.527,62.412-35.274,85.158l-25.381,25.382
			c-26.599,26.6-41.249,61.965-41.249,99.583v181.052c0,23.531,19.144,42.674,42.674,42.674h209.406
			c23.531,0,42.674-19.144,42.674-42.673V288.273C403.377,250.656,388.728,215.29,362.129,188.69z M382.979,469.327
			c0,12.283-9.993,22.276-22.276,22.276H151.297c-12.283,0-22.276-9.993-22.276-22.276V288.273
			c0-32.169,12.528-62.412,35.274-85.158l25.382-25.382c26.599-26.599,41.249-61.965,41.249-99.583V54.992
			c0-5.632-4.566-10.199-10.199-10.199H196.09c-6.725,0-12.197-5.472-12.197-12.197s5.472-12.197,12.197-12.197h119.82
			c6.725,0,12.197,5.472,12.197,12.197s-5.472,12.197-12.197,12.197h-24.636c-5.633,0-10.199,4.567-10.199,10.199V78.15
			c0,37.618,14.649,72.983,41.249,99.583l25.382,25.382c22.746,22.746,35.274,52.989,35.274,85.158V469.327z"/>
	</g>
</g>
<g>
	<g>
		<path d="M257.28,322.196h-17.439l2.743-38.009h45.258c4.31,0,6.465-4.506,6.465-9.208c0-4.506-2.155-9.208-6.465-9.208h-58.188
			c-2.938,0-4.31,2.547-4.702,6.858l-4.506,53.29c-0.196,1.371-0.392,3.33-0.392,4.702c0,4.898,1.959,8.033,8.816,8.033h28.409
			c14.498,0,23.314,8.032,23.314,24.685v3.723c0,16.848-8.816,24.685-23.51,24.685c-12.735,0-22.923-6.465-22.923-17.632
			c0-4.702-1.959-8.229-10.58-8.229c-6.269,0-10.188,2.155-10.188,9.601c0,18.22,15.673,34.677,44.082,34.677
			c24.295,0,43.886-11.756,43.886-43.102v-3.723C301.362,333.167,282.162,322.196,257.28,322.196z"/>
	</g>
</g>
<g>
	<g>
		<path d="M362.072,354.932c-5.633,0-10.199,4.567-10.199,10.199v103.012c0,5.632,4.566,10.199,10.199,10.199
			c5.633,0,10.199-4.567,10.199-10.199V365.131C372.271,359.5,367.705,354.932,362.072,354.932z"/>
	</g>
</g>
<g>
	<g>
		<path d="M362.072,317.195c-5.633,0-10.199,4.567-10.199,10.199v7.139c0,5.632,4.566,10.199,10.199,10.199
			c5.633,0,10.199-4.567,10.199-10.199v-7.139C372.271,321.762,367.705,317.195,362.072,317.195z"/>
	</g>
</g>
<g>
</g>
<g>
</g>
<g>
</g>
<g>
</g>
<g>
</g>
<g>
</g>
<g>
</g>
<g>
</g>
<g>
</g>
<g>
</g>
<g>
</g>
<g>
</g>
<g>
</g>
<g>
</g>
<g>
</g>
</svg>
