<?xml version="1.0" encoding="iso-8859-1"?>
<!-- Generator: Adobe Illustrator 19.0.0, SVG Export Plug-In . SVG Version: 6.00 Build 0)  -->
<svg version="1.1" id="Layer_1" xmlns="http://www.w3.org/2000/svg" xmlns:xlink="http://www.w3.org/1999/xlink" x="0px" y="0px"
	 viewBox="0 0 512.001 512.001" style="enable-background:new 0 0 512.001 512.001;" xml:space="preserve">
<g>
	<g>
		<path d="M506.184,246.792c-1.153-0.549-28.756-13.594-73.497-26.767c-20.698-6.093-47.168-12.773-77.423-17.917
			c20.805-35.36,30.328-61.888,30.763-63.112c1.317-3.708,0.382-7.842-2.4-10.625c-2.781-2.783-6.916-3.717-10.625-2.4
			c-1.224,0.435-27.727,9.95-63.057,30.732C295.181,69.543,266.616,8.773,265.209,5.816c-1.691-3.552-5.275-5.816-9.209-5.816
			s-7.518,2.263-9.209,5.816c-1.407,2.956-29.972,63.728-44.739,150.89c-35.32-20.776-61.822-30.296-63.056-30.734
			c-3.707-1.316-7.841-0.382-10.625,2.4c-2.782,2.782-3.716,6.916-2.4,10.625c0.439,1.234,9.968,27.763,30.766,63.111
			c-30.256,5.143-56.728,11.823-77.426,17.917c-44.741,13.172-72.344,26.218-73.497,26.767C2.263,248.483,0,252.067,0,256.001
			s2.263,7.518,5.816,9.209c1.152,0.549,28.756,13.595,73.496,26.767c20.698,6.094,47.17,12.774,77.426,17.917
			c-20.798,35.347-30.328,61.878-30.767,63.111c-1.317,3.708-0.382,7.842,2.4,10.625c1.946,1.946,4.553,2.987,7.214,2.987
			c1.143,0,2.296-0.192,3.411-0.587c1.224-0.435,27.727-9.95,63.057-30.732c14.765,87.152,43.327,147.924,44.739,150.889
			c1.691,3.552,5.275,5.816,9.209,5.816s7.518-2.263,9.209-5.816c1.412-2.965,29.973-63.736,44.739-150.889
			c35.33,20.782,61.832,30.298,63.057,30.732c1.115,0.396,2.267,0.587,3.411,0.587c2.66,0,5.268-1.041,7.214-2.987
			c2.782-2.782,3.716-6.916,2.4-10.625c-0.439-1.234-9.968-27.763-30.766-63.111c30.256-5.143,56.728-11.823,77.426-17.917
			c44.741-13.172,72.344-26.218,73.496-26.767c3.552-1.691,5.816-5.275,5.816-9.209S509.737,248.483,506.184,246.792z
			 M357.139,154.861c-5.459,11.66-13.296,26.976-23.673,43.924c-5.905-0.798-11.925-1.524-18.045-2.168
			c-0.641-6.131-1.365-12.171-2.161-18.109C330.189,168.146,345.491,160.315,357.139,154.861z M256,36.694
			c11.582,30.043,30.883,88.117,38.699,158.102c-12.588-0.882-25.519-1.378-38.699-1.378c-13.179,0-26.111,0.497-38.699,1.378
			C225.117,124.811,244.418,66.736,256,36.694z M154.856,154.849c11.631,5.444,26.919,13.274,43.885,23.661
			c-0.797,5.938-1.521,11.976-2.161,18.107c-6.12,0.645-12.138,1.371-18.042,2.167C168.157,181.832,160.313,166.509,154.856,154.849
			z M154.861,357.14c5.458-11.659,13.301-26.977,23.676-43.924c5.905,0.798,11.924,1.524,18.043,2.167
			c0.641,6.13,1.36,12.173,2.157,18.11C181.81,343.856,166.509,351.686,154.861,357.14z M207.912,296.001
			c-75.884-6.775-139.307-27.728-171.191-40c31.885-12.273,95.306-33.225,171.191-40c-9.044,10.854-14.495,24.801-14.495,40
			S198.868,285.147,207.912,296.001z M256,475.307c-11.582-30.045-30.882-88.119-38.699-158.102
			c12.588,0.882,25.519,1.378,38.699,1.378c13.179,0,26.111-0.497,38.699-1.378C286.882,387.188,267.581,445.264,256,475.307z
			 M256,298.184c-23.261,0-42.185-18.924-42.185-42.184c0-23.26,18.924-42.184,42.185-42.184c23.261,0,42.185,18.923,42.185,42.184
			S279.261,298.184,256,298.184z M357.139,357.14c-11.648-5.453-26.948-13.284-43.877-23.646c0.797-5.937,1.517-11.98,2.157-18.11
			c6.12-0.645,12.139-1.371,18.043-2.167C343.839,330.163,351.682,345.482,357.139,357.14z M304.088,296.001
			c9.044-10.854,14.495-24.801,14.495-40s-5.451-29.146-14.495-40c75.884,6.775,139.307,27.727,171.191,40
			C443.394,268.273,379.972,289.225,304.088,296.001z"/>
	</g>
</g>
<g>
</g>
<g>
</g>
<g>
</g>
<g>
</g>
<g>
</g>
<g>
</g>
<g>
</g>
<g>
</g>
<g>
</g>
<g>
</g>
<g>
</g>
<g>
</g>
<g>
</g>
<g>
</g>
<g>
</g>
</svg>
