<?xml version="1.0" encoding="iso-8859-1"?>
<!-- Generator: Adobe Illustrator 19.0.0, SVG Export Plug-In . SVG Version: 6.00 Build 0)  -->
<svg version="1.1" id="Layer_1" xmlns="http://www.w3.org/2000/svg" xmlns:xlink="http://www.w3.org/1999/xlink" x="0px" y="0px"
	 viewBox="0 0 512 512" style="enable-background:new 0 0 512 512;" xml:space="preserve">
<g>
	<g>
		<path d="M350.463,87.345C346.672,38.547,305.754,0,256,0s-90.673,38.547-94.463,87.345
			C83.398,123.954,33.189,202.613,33.189,289.189c0,59.515,23.177,115.467,65.26,157.551C140.532,488.824,196.485,512,256,512
			s115.467-23.177,157.551-65.26c42.084-42.083,65.26-98.036,65.26-157.551C478.811,202.613,428.602,123.953,350.463,87.345z
			 M349.839,109.799c9.109,4.769,17.765,10.178,25.917,16.166c-11.247,8.279-23.225,15.328-35.844,21.077
			C344.717,135.385,348.262,122.923,349.839,109.799z M256,20.398c40.998,0,74.352,33.354,74.352,74.352
			c0,61.505-55.846,111.478-74.352,126.346c-18.51-14.87-74.352-64.84-74.352-126.346C181.648,53.753,215.002,20.398,256,20.398z
			 M321.595,299.388c-0.568,36.353-4.455,70.957-11.257,101.047c-17.668-4.447-35.919-6.759-54.338-6.759s-36.67,2.311-54.337,6.759
			c-6.802-30.091-10.689-64.695-11.257-101.047H321.595z M190.446,278.99c0.571-30.499,3.491-59.867,8.588-86.492
			c23.309,29.947,49.134,48.413,51.096,49.794c1.761,1.239,3.815,1.858,5.871,1.858c2.055,0,4.109-0.619,5.871-1.858
			c1.962-1.381,27.79-19.849,51.1-49.799c5.096,26.628,8.013,56.014,8.585,86.497H190.446z M162.161,109.799
			c1.577,13.123,5.122,25.585,9.926,37.238c-12.62-5.749-24.598-12.797-35.842-21.073
			C144.396,119.977,153.052,114.568,162.161,109.799z M119.998,139.257c18.908,14.605,39.804,25.964,62.28,33.834
			c-7.369,31.836-11.549,68.092-12.234,105.899H53.851C56.575,224.827,80.884,174.786,119.998,139.257z M53.844,299.388h116.163
			c0.583,38.371,4.761,75.017,12.09,106.932c-22.013,7.737-42.8,18.911-61.48,33.206C81.848,404.58,56.612,354.896,53.844,299.388z
			 M136.951,452.783c15.464-11.245,32.416-20.2,50.281-26.648c1.723,5.916,3.561,11.625,5.519,17.092
			c6.535,18.237,14.183,33.097,22.652,44.283C186.557,481.614,159.933,469.552,136.951,452.783z M256,491.602
			c-15.183,0-31.648-20.656-44.047-55.255c-1.85-5.162-3.586-10.56-5.212-16.159c16.017-4.023,32.561-6.113,49.259-6.113
			c16.697,0,33.241,2.09,49.259,6.113c-1.627,5.598-3.363,10.996-5.212,16.158C287.649,470.945,271.184,491.602,256,491.602z
			 M296.597,487.51c8.469-11.185,16.118-26.046,22.653-44.283c1.958-5.467,3.796-11.176,5.518-17.092
			c17.865,6.449,34.816,15.404,50.28,26.648C352.067,469.553,325.443,481.614,296.597,487.51z M391.383,439.528
			c-18.679-14.294-39.466-25.468-61.479-33.206c7.329-31.915,11.507-68.561,12.09-106.934h56.923
			c5.632,0,10.199-4.567,10.199-10.199s-4.567-10.199-10.199-10.199h-56.961c-0.686-37.794-4.87-74.071-12.239-105.905
			c22.474-7.868,43.37-19.218,62.284-33.829c41.559,37.749,66.41,91.882,66.41,149.933
			C458.412,348.791,432.512,402.452,391.383,439.528z"/>
	</g>
</g>
<g>
	<g>
		<path d="M435.97,278.99h-4.411c-5.632,0-10.199,4.567-10.199,10.199s4.567,10.199,10.199,10.199h4.411
			c5.632,0,10.199-4.567,10.199-10.199S441.603,278.99,435.97,278.99z"/>
	</g>
</g>
<g>
	<g>
		<path d="M256,47.43c-26.093,0-47.32,21.228-47.32,47.32c0,26.092,21.228,47.319,47.32,47.319c26.093,0,47.32-21.228,47.32-47.319
			C303.32,68.658,282.093,47.43,256,47.43z M256,121.671c-14.845,0-26.922-12.077-26.922-26.921
			c0-14.845,12.077-26.922,26.922-26.922c14.845,0,26.922,12.077,26.922,26.922C282.922,109.595,270.845,121.671,256,121.671z"/>
	</g>
</g>
<g>
</g>
<g>
</g>
<g>
</g>
<g>
</g>
<g>
</g>
<g>
</g>
<g>
</g>
<g>
</g>
<g>
</g>
<g>
</g>
<g>
</g>
<g>
</g>
<g>
</g>
<g>
</g>
<g>
</g>
</svg>
