<?xml version="1.0" encoding="iso-8859-1"?>
<!-- Generator: Adobe Illustrator 19.0.0, SVG Export Plug-In . SVG Version: 6.00 Build 0)  -->
<svg version="1.1" id="Layer_1" xmlns="http://www.w3.org/2000/svg" xmlns:xlink="http://www.w3.org/1999/xlink" x="0px" y="0px"
	 viewBox="0 0 511.999 511.999" style="enable-background:new 0 0 511.999 511.999;" xml:space="preserve">
<g>
	<g>
		<path d="M446.414,97.661c-42.294-42.294-98.527-65.587-158.339-65.587S172.031,55.367,129.736,97.661
			C87.442,139.954,64.151,196.187,64.151,256c0,26.865,4.701,53.039,13.953,77.933L9.1,402.936
			c-12.133,12.133-12.133,31.878,0,44.011c6.067,6.067,14.037,9.1,22.005,9.1s15.938-3.033,22.005-9.1l56.161-56.161
			c42.263,56.008,108.278,89.139,178.802,89.139c59.813,0,116.045-23.293,158.339-65.587
			c42.293-42.293,65.586-98.526,65.586-158.339C511.999,196.186,488.707,139.955,446.414,97.661z M491.345,245.801h-116.89
			c-0.636-38.451-4.869-75.15-12.249-107.105c22.294-7.819,43.339-19.145,62.229-33.653
			C463.301,140.182,488.582,190.077,491.345,245.801z M408.139,91.77c-15.695,11.466-32.921,20.584-51.086,27.124
			c-1.701-5.824-3.516-11.446-5.447-16.833c-6.796-18.966-14.79-34.29-23.656-45.653C357.469,62.294,384.699,74.588,408.139,91.77z
			 M202.178,229.619c-0.233,5.345-0.386,10.758-0.476,16.182h-86.748c5.456-41.614,41.121-73.853,84.199-73.853
			c43.079,0,78.744,32.24,84.199,73.853h-61.248c0.089-5.126,0.235-10.243,0.455-15.294c0.245-5.628-4.119-10.389-9.747-10.634
			C207.172,219.636,202.423,223.991,202.178,229.619z M207.862,341.396c-2.864,0.293-5.769,0.444-8.708,0.444
			c-43.695,0.001-79.776-33.164-84.427-75.64h86.968C202.128,292.394,204.234,317.772,207.862,341.396z M231.032,156.484
			c0.792-4.053,1.633-8.022,2.519-11.9c17.73,4.456,36.042,6.771,54.523,6.771c18.497,0,36.823-2.319,54.566-6.782
			c6.853,30.132,10.794,64.794,11.414,101.227h-50.14C299.491,203.719,270.192,168.943,231.032,156.484z M283.58,266.2
			c-3.582,32.711-25.803,59.89-55.79,70.661c-3.333-22.175-5.276-46.011-5.695-70.661H283.58z M304.083,266.198h49.972
			c-0.621,36.434-4.561,71.094-11.414,101.227c-17.743-4.461-36.07-6.781-54.566-6.781c-18.497,0-36.824,2.319-54.566,6.782
			c-0.762-3.351-1.485-6.761-2.175-10.221C270.894,344.485,300.322,308.97,304.083,266.198z M288.075,53.361
			c15.285,0,31.856,20.777,44.327,55.58c1.821,5.079,3.532,10.385,5.136,15.885c-16.085,4.034-32.698,6.13-49.463,6.13
			c-16.745,0-33.337-2.091-49.402-6.115C251.415,81.312,270.042,53.361,288.075,53.361z M248.023,56.441
			c-11.392,14.631-21.245,35.762-28.974,62.433c-18.147-6.539-35.357-15.649-51.037-27.105
			C191.404,74.622,218.573,62.342,248.023,56.441z M151.714,105.042c18.887,14.506,39.93,25.832,62.221,33.65
			c-1.006,4.393-1.96,8.905-2.861,13.534c-3.914-0.443-7.889-0.678-11.919-0.678c-54.341,0-99.201,41.36-104.762,94.252h-9.586
			C87.569,190.077,112.849,140.182,151.714,105.042z M38.687,432.523c-4.179,4.18-10.982,4.181-15.161,0
			c-4.181-4.18-4.181-10.982,0-15.162l66.945-66.945l15.161,15.163L38.687,432.523z M105.265,336.359l-7.153-7.151
			c-7.785-20.175-12.249-41.307-13.311-63.009h9.424c1.913,21.755,10.46,41.634,23.61,57.59L105.265,336.359z M123.843,376.215
			l3.425-3.425c3.983-3.983,3.983-10.441,0-14.424l-7.581-7.581l12.571-12.571c18.206,15.003,41.517,24.025,66.895,24.025
			c4.145,0,8.233-0.249,12.255-0.717c0.799,3.993,1.643,7.922,2.535,11.781c-22.324,7.829-43.394,19.175-62.304,33.71
			C141.446,397.805,132.12,387.508,123.843,376.215z M167.945,420.281c15.713-11.49,32.963-20.623,51.154-27.172
			c1.701,5.822,3.516,11.443,5.447,16.831c6.79,18.949,14.776,34.262,23.632,45.623C219.08,449.753,191.722,437.671,167.945,420.281
			z M288.075,458.639c-15.285,0-31.856-20.777-44.327-55.58c-1.821-5.079-3.532-10.385-5.136-15.885
			c16.085-4.034,32.698-6.13,49.464-6.13c16.766,0,33.379,2.096,49.463,6.13c-1.605,5.5-3.317,10.804-5.137,15.885
			C319.931,437.862,303.36,458.639,288.075,458.639z M327.95,455.594c8.865-11.363,16.86-26.688,23.656-45.653
			c1.931-5.389,3.745-11.01,5.447-16.833c18.165,6.54,35.391,15.657,51.086,27.123C384.7,437.413,357.469,449.706,327.95,455.594z
			 M424.436,406.958c-18.891-14.508-39.935-25.834-62.229-33.653c7.378-31.956,11.611-68.655,12.249-107.105h116.89
			C488.582,321.923,463.301,371.818,424.436,406.958z"/>
	</g>
</g>
<g>
	<g>
		<path d="M215.97,185.681c-5.603-0.587-10.623,3.471-11.214,9.072c-0.149,1.404-0.292,2.815-0.429,4.232
			c-0.547,5.607,3.555,10.595,9.162,11.141c0.337,0.033,0.67,0.049,1.002,0.049c5.188,0,9.626-3.94,10.139-9.21
			c0.133-1.362,0.271-2.719,0.413-4.07C225.634,191.293,221.572,186.272,215.97,185.681z"/>
	</g>
</g>
<g>
</g>
<g>
</g>
<g>
</g>
<g>
</g>
<g>
</g>
<g>
</g>
<g>
</g>
<g>
</g>
<g>
</g>
<g>
</g>
<g>
</g>
<g>
</g>
<g>
</g>
<g>
</g>
<g>
</g>
</svg>
