<?xml version="1.0" encoding="iso-8859-1"?>
<!-- Generator: Adobe Illustrator 19.0.0, SVG Export Plug-In . SVG Version: 6.00 Build 0)  -->
<svg version="1.1" id="Layer_1" xmlns="http://www.w3.org/2000/svg" xmlns:xlink="http://www.w3.org/1999/xlink" x="0px" y="0px"
	 viewBox="0 0 512 512" style="enable-background:new 0 0 512 512;" xml:space="preserve">
<g>
	<g>
		<path d="M437.019,74.982C388.667,26.628,324.381,0,256,0S123.333,26.628,74.982,74.982C26.628,123.333,0,187.619,0,256
			s26.628,132.667,74.982,181.019C123.333,485.372,187.619,512,256,512s132.667-26.628,181.019-74.981
			C485.372,388.667,512,324.381,512,256S485.372,123.333,437.019,74.982z M397.014,67.372
			c-19.185,14.336-40.411,25.594-62.841,33.48c-2.038-7.054-4.218-13.857-6.548-20.359c-8.692-24.257-19.067-43.272-30.604-56.513
			C334.029,30.505,368.087,45.691,397.014,67.372z M333.446,266.199c-0.602,45.62-5.661,86.415-13.498,120.342
			c-20.77-5.364-42.257-8.151-63.948-8.151c-21.691,0-43.178,2.787-63.949,8.151c-7.837-33.927-12.895-74.722-13.498-120.342
			H333.446z M178.582,245.801c0.731-45.227,5.844-85.654,13.69-119.266c20.701,5.327,42.114,8.095,63.728,8.095
			c21.614,0,43.026-2.768,63.728-8.095c7.846,33.613,12.959,74.039,13.69,119.266H178.582z M256,22.438
			c20.969,0,43.302,31.522,58.584,84.361c-19.032,4.891-38.715,7.432-58.584,7.432s-39.552-2.542-58.584-7.432
			C212.698,53.96,235.031,22.438,256,22.438z M214.979,23.98c-11.535,13.241-21.911,32.256-30.603,56.513
			c-2.33,6.502-4.51,13.305-6.549,20.359c-22.43-7.886-43.657-19.144-62.842-33.48C143.913,45.691,177.971,30.505,214.979,23.98z
			 M98.799,80.674c22.326,17.378,47.333,30.84,73.859,39.971c-8.754,37.2-13.762,80.132-14.476,125.156H20.633
			C23.436,180.339,53.07,121.717,98.799,80.674z M20.633,266.199h137.521c0.589,45.385,5.534,88.71,14.282,126.253
			c-26.201,9.046-50.914,22.32-73.022,39.42C53.337,390.803,23.448,331.952,20.633,266.199z M115.677,445.138
			c18.928-14.035,39.82-25.091,61.884-32.877c2.113,7.385,4.384,14.499,6.815,21.286c8.178,22.821,17.846,40.999,28.566,54.099
			C177.014,480.983,143.922,466.148,115.677,445.138z M256,491.602c-21.094,0-43.572-31.897-58.861-85.31
			c19.117-4.937,38.896-7.503,58.861-7.503c19.965,0,39.743,2.565,58.861,7.503C299.572,459.705,277.094,491.602,256,491.602z
			 M299.057,487.645c10.721-13.1,20.389-31.278,28.567-54.099c2.432-6.787,4.702-13.901,6.815-21.286
			c22.063,7.786,42.955,18.842,61.883,32.877C368.076,466.148,334.985,480.982,299.057,487.645z M412.586,431.872
			c-22.108-17.1-46.822-30.374-73.022-39.42c8.748-37.543,13.693-80.866,14.282-126.253h67.381c5.632,0,10.199-4.567,10.199-10.199
			s-4.567-10.199-10.199-10.199H353.82c-0.714-45.023-5.722-87.957-14.476-125.156c26.525-9.13,51.533-22.592,73.858-39.971
			c48.092,43.165,78.4,105.769,78.4,175.326C491.602,325.852,461.035,388.69,412.586,431.872z"/>
	</g>
</g>
<g>
	<g>
		<path d="M464.064,245.801h-5.1c-5.632,0-10.199,4.567-10.199,10.199s4.567,10.199,10.199,10.199h5.1
			c5.632,0,10.199-4.567,10.199-10.199S469.696,245.801,464.064,245.801z"/>
	</g>
</g>
<g>
</g>
<g>
</g>
<g>
</g>
<g>
</g>
<g>
</g>
<g>
</g>
<g>
</g>
<g>
</g>
<g>
</g>
<g>
</g>
<g>
</g>
<g>
</g>
<g>
</g>
<g>
</g>
<g>
</g>
</svg>
